<svg xmlns="http://www.w3.org/2000/svg" id="svg" version="1.1" style="display: block;" viewBox="0 0 1024 1024"><path d="M0 0 C4.49996669 0.00585937 8.99976719 0.00000037 13.49972534 -0.00976562 C154.36249724 -0.29098468 300.20588843 11.21402514 644.50582886 635.50588989 C644.49996949 640.00585658 644.50582848 644.50565709 644.51559448 649.00561523 C644.79681354 789.86838713 633.29180372 935.71177832 8.99993896 1280.01171875 C4.49997228 1280.00585938 0.00017177 1280.01171838 -4.49978638 1280.02148438 C-145.36255828 1280.30270343 -291.20594946 1268.79769361 -635.50588989 644.50582886 C-635.50003052 640.00586217 -635.50588952 635.50606166 -635.51565552 631.00610352 C-635.79687457 490.14333162 -624.29186475 344.29994043 0 0 Z " transform="translate(507.5000305175781,-128.005859375)" style="fill: #0D3A37;"/><path d="M0 0 C4.49996669 0.00585937 8.99976719 0.00000037 13.49972534 -0.00976562 C154.36249724 -0.29098468 300.20588843 11.21402514 644.50582886 635.50588989 C644.49996949 640.00585658 644.50582848 644.50565709 644.51559448 649.00561523 C644.79681354 789.86838713 633.29180372 935.71177832 8.99993896 1280.01171875 C4.49997228 1280.00585938 0.00017177 1280.01171838 -4.49978638 1280.02148438 C-145.36255828 1280.30270343 -291.20594946 1268.79769361 -635.50588989 644.50582886 C-635.50003052 640.00586217 -635.50588952 635.50606166 -635.51565552 631.00610352 C-635.79687457 490.14333162 -624.29186475 344.29994043 0 0 Z M131.42184448 237.25585938 C127.98572427 240.38468428 123.60374954 238.10913693 119.49996948 237.00585938 C98.52858164 231.59843874 77.0644846 228.78093356 55.49996948 227.00585938 C54.58699097 226.91973389 53.67401245 226.8336084 52.73336792 226.74487305 C18.95149549 223.86910153 -16.02262038 224.76606342 -49.50003052 230.00585938 C-50.77813599 230.20373047 -52.05624146 230.40160156 -53.37307739 230.60546875 C-61.45419352 231.88930674 -69.48520487 233.35931299 -77.50003052 235.00585938 C-78.41139771 235.19229004 -79.32276489 235.3787207 -80.26174927 235.57080078 C-142.99026593 248.73300635 -202.03760118 276.72260684 -252.50003052 316.00585938 C-253.31471802 316.62074219 -254.12940552 317.235625 -254.96878052 317.86914062 C-274.65143168 332.80941388 -293.47466744 350.15249104 -309.50003052 369.00585938 C-310.87496831 370.48508387 -312.24997436 371.96424491 -313.62503052 373.44335938 C-320.06237753 380.58137 -325.74935911 388.31488509 -331.50003052 396.00585938 C-332.44233521 397.25882813 -333.38463989 398.51179687 -334.35549927 399.80273438 C-344.91119128 413.99884543 -354.63478709 428.6960241 -363.50003052 444.00585938 C-364.28893677 445.34390625 -365.07784302 446.68195313 -365.89065552 448.06054688 C-372.58380674 459.69989476 -377.98665346 471.76547013 -383.24075317 484.11230469 C-384.42294479 486.82873257 -385.67826736 489.49813007 -386.94924927 492.17382812 C-390.38424167 499.69524215 -392.90425532 507.5394466 -395.50003052 515.38085938 C-395.89688553 516.57390182 -395.89688553 516.57390182 -396.30175781 517.79104614 C-400.38033168 530.08549006 -403.84571522 542.32676396 -406.50003052 555.00585938 C-407.01756697 557.11083936 -407.53807931 559.21509152 -408.06253052 561.31835938 C-414.32829879 588.85941991 -417.02648507 616.82875177 -416.8911438 645.02832031 C-416.87504229 649.00295302 -416.89111102 652.97656933 -416.91018677 656.95117188 C-416.92406881 673.50508884 -415.8403026 689.62099526 -413.50003052 706.00585938 C-413.29603638 707.47442383 -413.09204224 708.94298828 -412.88186646 710.45605469 C-412.35948246 714.02308658 -411.79154807 717.57682214 -411.18753052 721.13085938 C-410.97660767 722.37818848 -410.76568481 723.62551758 -410.54837036 724.91064453 C-408.47373027 736.77891752 -405.71508006 748.39908426 -402.50003052 760.00585938 C-402.08599976 761.50971191 -402.08599976 761.50971191 -401.66360474 763.04394531 C-394.71377654 788.13659895 -394.71377654 788.13659895 -384.50003052 812.00585938 C-383.63378052 814.23335937 -383.63378052 814.23335937 -382.75003052 816.50585938 C-377.79554408 829.14367048 -370.95612687 841.08785641 -364.50003052 853.00585938 C-363.83572021 854.25230225 -363.83572021 854.25230225 -363.1579895 855.52392578 C-359.62372288 862.10344833 -355.83621302 868.4647652 -351.81253052 874.75585938 C-351.20312622 875.71032959 -350.59372192 876.6647998 -349.96585083 877.64819336 C-344.78938075 885.6855223 -339.29921679 893.40267737 -333.50003052 901.00585938 C-332.68147583 902.09898437 -331.86292114 903.19210937 -331.01956177 904.31835938 C-313.60765271 927.34969219 -292.95750726 951.11989796 -270.10549927 968.95898438 C-267.1519599 971.27930616 -264.3360663 973.7309544 -261.50003052 976.19335938 C-249.57892079 986.27721572 -236.88037321 995.22890349 -223.81253052 1003.75585938 C-222.84557251 1004.39031982 -221.8786145 1005.02478027 -220.88235474 1005.6784668 C-216.52601561 1008.50916349 -212.17478913 1011.23553827 -207.58987427 1013.68164062 C-198.81512829 1018.50735601 -195.0472147 1021.31149885 -193.91018677 1031.47851562 C-192.79776395 1041.04535189 -187.81263971 1048.96993038 -181.50003052 1056.00585938 C-180.57190552 1057.05580078 -180.57190552 1057.05580078 -179.62503052 1058.12695312 C-167.58422137 1070.9688645 -151.82071948 1075.29348853 -134.50003052 1074.00585938 C-133.13491333 1073.91691406 -133.13491333 1073.91691406 -131.74221802 1073.82617188 C-122.0387766 1072.63858651 -112.17062353 1067.64194358 -104.51956177 1061.68554688 C-98.02272245 1058.07152241 -89.4120536 1061.85611234 -82.48318481 1063.38037109 C-63.264656 1067.57688077 -44.07860427 1070.19752044 -24.50003052 1072.00585938 C-22.93587402 1072.16163452 -22.93587402 1072.16163452 -21.34011841 1072.32055664 C-11.09833106 1073.24654897 -0.83688565 1073.20419003 9.43746948 1073.19335938 C10.40606903 1073.19308746 11.37466858 1073.19281555 12.37261963 1073.1925354 C29.14390608 1073.17096495 45.79777554 1072.6239406 62.49996948 1071.00585938 C63.46918335 1070.9146582 64.43839722 1070.82345703 65.4369812 1070.72949219 C90.75798492 1068.220719 116.01465317 1062.75822374 140.1557312 1054.76855469 C143.4772351 1053.68790709 146.83508108 1052.73584253 150.18746948 1051.75585938 C194.58204899 1037.81642146 236.77593656 1015.52836574 273.49996948 987.00585938 C274.54024292 986.21953125 275.58051636 985.43320312 276.65231323 984.62304688 C293.04712562 972.185603 308.09326646 958.48142018 322.68746948 944.00585938 C323.61422485 943.09215576 324.54098022 942.17845215 325.49581909 941.23706055 C331.60392482 935.13658927 337.1210897 928.75146682 342.49996948 922.00585938 C343.65661755 920.6151259 344.81769624 919.22805844 345.98434448 917.84570312 C368.22459826 891.34005772 386.54416842 862.19452231 401.49996948 831.00585938 C401.8865271 830.20229004 402.27308472 829.3987207 402.6713562 828.57080078 C423.24607442 785.50345129 434.92296696 739.26226181 440.49996948 692.00585938 C440.62146362 691.00135742 440.74295776 689.99685547 440.86813354 688.96191406 C448.36907204 624.58818815 437.87843326 558.13752771 414.49996948 498.00585938 C414.10197144 496.97847656 413.70397339 495.95109375 413.29391479 494.89257812 C402.16124522 466.48193244 388.04814354 439.00936991 370.49996948 414.00585938 C369.72266479 412.89339844 368.94536011 411.7809375 368.14450073 410.63476562 C357.52644234 395.60486282 346.2949309 381.08903724 333.82418823 367.54882812 C331.89891043 365.4423477 330.03402767 363.30569458 328.18746948 361.13085938 C321.22728894 353.13159974 313.5875247 345.58608849 305.49996948 338.72851562 C303.06607817 336.63213659 300.72862523 334.44188557 298.37496948 332.25585938 C292.0297346 326.47152924 285.3 321.24068463 278.49996948 316.00585938 C277.39137573 315.13574219 276.28278198 314.265625 275.14059448 313.36914062 C268.13197912 307.89470781 260.96588519 302.83364232 253.49996948 298.00585938 C252.07132262 297.07266576 250.64295503 296.13904451 249.21481323 295.20507812 C247.70599366 294.22155249 246.19688033 293.23847735 244.68746948 292.25585938 C243.6293103 291.56568726 243.6293103 291.56568726 242.54977417 290.86157227 C239.26326615 288.73325201 236.0488732 286.78386317 232.53121948 285.05273438 C228.70471042 282.46885455 228.70769496 281.50564956 228.81246948 277.00585938 C227.57825462 232.82096714 163.64408949 202.36861666 131.42184448 237.25585938 Z " transform="translate(507.5000305175781,-128.005859375)" style="fill: #fff;"/><path d="M0 0 C-0.05807859 8.2139724 -3.16854622 14.78962342 -6.5 22.1875 C-7.60563039 24.70248203 -8.70978328 27.21811408 -9.8125 29.734375 C-10.35777344 30.97123047 -10.90304687 32.20808594 -11.46484375 33.48242188 C-13.55429315 38.27007883 -15.54110793 43.09525388 -17.5 47.9375 C-18.21453925 49.69804028 -18.92939084 51.45845382 -19.64453125 53.21875 C-20.01529785 54.13140625 -20.38606445 55.0440625 -20.76806641 55.984375 C-23.70182682 63.16586701 -26.68662649 70.32651943 -29.6640625 77.48999023 C-32.14845297 83.47920595 -34.59442906 89.48023111 -36.984375 95.5078125 C-39.85967642 102.72003077 -42.93776558 109.83058425 -46.0625 116.9375 C-55.23942231 137.96234912 -63.75269908 159.25906951 -72.21875 180.578125 C-75.29827359 188.22290725 -78.49237071 195.81851141 -81.71875 203.40234375 C-82.40517578 205.01592773 -82.40517578 205.01592773 -83.10546875 206.66210938 C-84.03374853 208.84239676 -84.96343215 211.022087 -85.89453125 213.20117188 C-88.14194298 218.49050287 -90.32317385 223.7896255 -92.359375 229.1640625 C-95.28353709 236.84517676 -98.49390292 244.40334601 -101.70281982 251.96856689 C-103.48089271 256.16072324 -105.25256575 260.35557878 -107.0234375 264.55078125 C-107.36948029 265.37040344 -107.71552307 266.19002563 -108.072052 267.03448486 C-111.25468514 274.58347333 -114.37086087 282.15844086 -117.43652344 289.75561523 C-118.84927122 293.2469668 -120.31405661 296.62811322 -122 300 C-122.38973108 306.36560767 -122.49969164 309.3737388 -115.6162262 309.37854004 C-113.86414856 309.39084404 -113.86414856 309.39084404 -112.07667542 309.40339661 C-110.78366013 309.39724838 -109.49064484 309.39110016 -108.15844727 309.38476562 C-106.12942764 309.39282478 -106.12942764 309.39282478 -104.05941772 309.40104675 C-101.11068213 309.41086082 -98.16191752 309.41375805 -95.21316719 309.41069031 C-90.55391118 309.40623806 -85.89504022 309.42013912 -81.23582458 309.43908691 C-71.34472205 309.47598758 -61.45365533 309.48975304 -51.5625 309.5 C-40.10962687 309.51186787 -28.65691483 309.53344515 -17.20411491 309.58000183 C-12.60056801 309.59364873 -7.99725148 309.58938685 -3.39369202 309.58459473 C-0.58610738 309.59392983 2.22147466 309.60409725 5.02905273 309.61523438 C6.32004379 309.60908615 7.61103485 309.60293793 8.94114685 309.59660339 C10.11201843 309.60480606 11.28289001 309.61300873 12.48924255 309.62145996 C13.51113395 309.62217247 14.53302534 309.62288498 15.58588314 309.62361908 C21.07408727 310.4792758 20.26314061 314.79292684 19 319 C16.59375 322.2265625 16.59375 322.2265625 13.5 325.625 C8.83176608 330.88226815 4.50226914 336.21470363 0.33984375 341.875 C-2.34404108 345.45948726 -5.13104654 348.94820245 -7.9375 352.4375 C-13.39109474 359.21820525 -18.71815899 366.08512602 -24 373 C-30.04046452 380.88429471 -36.13298454 388.72374829 -42.27734375 396.52734375 C-46.55827342 401.98752521 -50.7794063 407.49313012 -55 413 C-60.95956648 420.77581532 -66.96389859 428.51276272 -73.0234375 436.2109375 C-82.09246943 447.75550571 -91.06942921 459.36924519 -99.9765625 471.0390625 C-107.01214375 480.25621933 -114.10662561 489.42189544 -121.28125 498.53125 C-124.71617412 502.9137394 -128.10390286 507.33142191 -131.4921875 511.75 C-134.0140614 515.01822288 -136.56582535 518.26092522 -139.125 521.5 C-145.87040916 530.06514524 -152.45229335 538.75374177 -159.04833984 547.43408203 C-162.44751674 551.90310244 -165.8598103 556.36206653 -169.27246094 560.82080078 C-171.95428084 564.32479052 -174.63393475 567.83038359 -177.30859375 571.33984375 C-183.27561116 579.16498056 -189.29196835 586.94538968 -195.38671875 594.671875 C-197.94633975 597.93166138 -200.47779596 601.21120481 -203 604.5 C-207.29637786 610.10015291 -211.64858794 615.65406858 -216.015625 621.19921875 C-219.35762563 625.45545778 -222.68037299 629.72630696 -226 634 C-233.2830539 643.37284446 -240.57382645 652.73983217 -248 662 C-254.77863375 670.45610499 -261.47205672 678.9775722 -268.05151367 687.58959961 C-269.1757118 689.06089815 -270.30214637 690.53049078 -271.4309082 691.99829102 C-273.71901403 694.9785738 -275.97607171 697.96586055 -278.1328125 701.04296875 C-282.02539576 706.53273303 -286.25480318 710.99615745 -292.5 706 C-295.38780496 700.22439007 -292.66385534 694.62567582 -290.296875 689.00390625 C-289.73532715 687.6571582 -289.1737793 686.31041016 -288.59521484 684.92285156 C-287.98629395 683.48393555 -287.37737305 682.04501953 -286.75 680.5625 C-285.79185808 678.26777591 -284.83373339 675.97304433 -283.87692261 673.67776489 C-283.2216081 672.10677185 -282.56528774 670.53619802 -281.9079895 668.96603394 C-278.67755613 661.24864897 -275.51804917 653.50330125 -272.375 645.75 C-271.83810547 644.42661621 -271.30121094 643.10323242 -270.74804688 641.73974609 C-260.51296159 616.48309519 -250.48636916 591.14439801 -240.47575378 565.79821777 C-236.37747412 555.42234679 -232.27429588 545.04841577 -228.16921997 534.67523193 C-227.36329743 532.63855079 -226.5575256 530.60181 -225.75192261 528.56500244 C-221.76954329 518.4963453 -217.77655578 508.43232879 -213.74609375 498.3828125 C-210.80692921 491.0503681 -207.93407981 483.69570522 -205.125 476.3125 C-201.44549971 466.69489509 -197.67411717 457.11855478 -193.83178711 447.56494141 C-190.11295455 438.31122088 -186.46674227 429.02973848 -182.84204102 419.73876953 C-182.41334717 418.64290527 -181.98465332 417.54704102 -181.54296875 416.41796875 C-181.12708496 415.35368652 -180.71120117 414.2894043 -180.28271484 413.19287109 C-178.58641996 408.97053677 -176.76278829 404.8061285 -174.91137695 400.6496582 C-172.02816906 392.26726998 -176.37661262 389.62652387 -184.07948303 389.62145996 C-185.32594101 389.61325729 -186.57239899 389.60505463 -187.85662842 389.59660339 C-189.22144348 389.60275162 -190.58625854 389.60889984 -191.99243164 389.61523438 C-193.43172531 389.6098616 -194.87101898 389.60448883 -196.35392761 389.59895325 C-199.48267841 389.58915996 -202.61145641 389.58623574 -205.74022102 389.58930969 C-210.68562501 389.59377299 -215.63066838 389.57982956 -220.57603455 389.56091309 C-231.96472107 389.51982572 -243.35340125 389.5085051 -254.74214935 389.49738312 C-266.01091175 389.48604979 -277.27949683 389.4631183 -288.54818535 389.41999817 C-293.43144855 389.40636504 -298.3144942 389.4106102 -303.19776917 389.41540527 C-306.17750329 389.40606979 -309.15723496 389.39590228 -312.13696289 389.38476562 C-313.50380219 389.39091385 -314.87064148 389.39706207 -316.27890015 389.40339661 C-317.5225383 389.39519394 -318.76617645 389.38699127 -320.04750061 389.37854004 C-321.13094285 389.37782753 -322.21438509 389.37711502 -323.33065891 389.37638092 C-328.83931542 388.59965245 -329 386.13095051 -329 381 C-326.91015625 378.0546875 -326.91015625 378.0546875 -324.0625 374.875 C-323.05445313 373.72902344 -322.04640625 372.58304688 -321.0078125 371.40234375 C-320.01523437 370.27957031 -319.02265625 369.15679688 -318 368 C-316.46848326 366.15464786 -314.94676724 364.30109342 -313.4375 362.4375 C-310.29818777 358.58063069 -307.1287924 354.7514836 -303.9375 350.9375 C-300.93587996 347.3447917 -297.97107537 343.73086648 -295.0625 340.0625 C-291.9484925 336.1432542 -288.74261763 332.31353243 -285.5 328.5 C-281.5726094 323.88017689 -277.72793248 319.21196382 -273.9609375 314.4609375 C-271.08136849 310.84713576 -268.14237654 307.28269088 -265.2109375 303.7109375 C-263.16150587 301.19803017 -261.13959525 298.66585686 -259.125 296.125 C-256.0525562 292.26771411 -252.88891235 288.50087462 -249.6875 284.75 C-244.84886096 279.06142022 -240.21627244 273.23674576 -235.625 267.34765625 C-231.82557939 262.50226419 -227.91581791 257.75138123 -224 253 C-222.60360693 251.29212417 -221.20778832 249.58377851 -219.8125 247.875 C-212.94604648 239.48266792 -206.04335779 231.12008942 -199.14746094 222.75195312 C-192.08381309 214.17974668 -185.02725023 205.60209538 -178 197 C-176.50014304 195.16654964 -175.0001406 193.33321829 -173.5 191.5 C-172.38625 190.13875 -172.38625 190.13875 -171.25 188.75 C-164.5 180.5 -164.5 180.5 -162.2421875 177.7421875 C-160.7659514 175.93675589 -159.29193264 174.12950859 -157.8203125 172.3203125 C-153.80866178 167.3949762 -149.74849988 162.51972642 -145.625 157.6875 C-140.92147115 152.148948 -136.42286302 146.47692508 -131.95703125 140.74609375 C-126.93303338 134.38147822 -121.74552008 128.15215935 -116.57470703 121.90673828 C-114.47508831 119.36440925 -112.39353488 116.80755092 -110.3125 114.25 C-107.0658997 110.27321636 -103.76195239 106.34942411 -100.4375 102.4375 C-96.62157781 97.94072862 -92.88140486 93.40006727 -89.21484375 88.78125 C-81.47848711 79.06646 -73.60212066 69.47818095 -65.5546875 60.01953125 C-61.64253451 55.3955339 -57.82140672 50.6990173 -54 46 C-49.87798377 40.95072492 -45.74985752 35.90662146 -41.6015625 30.87890625 C-34.12100608 21.82775645 -34.12100608 21.82775645 -26.75 12.6875 C-23.7411208 8.91011919 -20.69595851 5.16464622 -17.625 1.4375 C-16.79226563 0.42558594 -15.95953125 -0.58632812 -15.1015625 -1.62890625 C-10.0882852 -7.28515034 -4.09640935 -6.08254722 0 0 Z " transform="translate(670,167)" style="fill: #fff;"/><path d="M0 0 C0.74765625 0.65613281 1.4953125 1.31226563 2.265625 1.98828125 C14.12328836 12.41281642 25.28149833 23.54816973 35 36 C36.47711847 37.77254217 37.95633849 39.54333486 39.4375 41.3125 C58.59180091 64.80050284 74.23504793 91.11177315 86 119 C86.57105469 120.29292969 87.14210938 121.58585938 87.73046875 122.91796875 C99.41704129 150.00835316 106.74754441 178.85531866 111 208 C111.27263672 209.80815186 111.27263672 209.80815186 111.55078125 211.65283203 C113.14172742 223.44374698 113.30608252 235.09160464 113.26074219 246.97338867 C113.25005019 250.29689923 113.26068219 253.61986542 113.2734375 256.94335938 C113.28272188 270.09870887 112.64311272 282.94252863 111 296 C110.85159668 297.23226318 110.70319336 298.46452637 110.55029297 299.73413086 C107.42691251 323.60810912 101.56663253 347.49944439 93 370 C92.48034668 371.36970947 92.48034668 371.36970947 91.95019531 372.76708984 C79.09259091 406.2050958 61.96730405 436.39094748 39.86328125 464.55859375 C38.0028122 466.83842706 38.0028122 466.83842706 37 469 C36.34 469 35.68 469 35 469 C34.34 470.32 33.68 471.64 33 473 C30.70623402 475.71506994 28.38438365 478.36677175 26 481 C24.90365234 482.21816406 24.90365234 482.21816406 23.78515625 483.4609375 C22.25627872 485.15969031 20.72500893 486.856293 19.19140625 488.55078125 C17.23707196 490.73503723 15.33440955 492.95355413 13.4375 495.1875 C10.63267543 498.40122838 7.60407811 501.21001083 4.34375 503.96875 C1.4429702 506.48275916 -1.33057191 509.11835413 -4.125 511.75 C-10.79338355 517.91366645 -17.76327285 523.52097385 -25 529 C-25.70898438 529.54414551 -26.41796875 530.08829102 -27.1484375 530.64892578 C-38.93406664 539.67930728 -51.05221356 547.73145936 -64 555 C-65.25635254 555.70552002 -65.25635254 555.70552002 -66.53808594 556.42529297 C-104.74300092 577.63641575 -146.77501816 590.38712992 -190 596 C-191.87486084 596.27034058 -191.87486084 596.27034058 -193.78759766 596.54614258 C-206.77371222 598.24478953 -219.65624328 598.27164581 -232.734375 598.20581055 C-236.52090114 598.18739837 -240.30718343 598.18530264 -244.09375 598.18554688 C-246.53125209 598.1806353 -248.96875255 598.17480856 -251.40625 598.16796875 C-252.52310181 598.16685593 -253.63995361 598.1657431 -254.79064941 598.16459656 C-273.47380397 598.05239207 -273.47380397 598.05239207 -276 593 C-274.578125 590.58984375 -274.578125 590.58984375 -272.25 587.9375 C-271.40953125 586.96683594 -270.5690625 585.99617187 -269.703125 584.99609375 C-266.30818655 581.23320677 -262.90205318 577.48152309 -259.47265625 573.75 C-255.47671509 569.30585691 -251.74384002 564.65664907 -248 560 C-242.68033294 553.38331164 -237.21519986 546.99262851 -231.46484375 540.74609375 C-229.07292703 538.08124834 -226.80745116 535.35168175 -224.5625 532.5625 C-207.96537206 512.00099569 -207.96537206 512.00099569 -200.5390625 510.82421875 C-199.43868652 510.63956055 -198.33831055 510.45490234 -197.20458984 510.26464844 C-195.43269287 509.97895996 -195.43269287 509.97895996 -193.625 509.6875 C-181.44642875 507.56514685 -169.74839372 504.83681719 -158 501 C-157.03416992 500.68579102 -156.06833984 500.37158203 -155.07324219 500.04785156 C-117.91832187 487.75805563 -81.50245908 468.28438953 -53.98828125 439.98828125 C-52 438 -52 438 -48.875 435.4375 C-45.90502567 432.91947828 -43.41417581 430.16927934 -40.8984375 427.203125 C-39.62501842 425.72533002 -38.31660949 424.27703089 -36.9765625 422.859375 C0.24818326 383.35007806 25.89528694 321.6084898 26.16796875 267.2421875 C26.17220352 266.4249118 26.17643829 265.60763611 26.18080139 264.76559448 C26.19063565 262.13534328 26.19073114 259.50526624 26.1875 256.875 C26.18689575 255.97672485 26.1862915 255.07844971 26.18566895 254.1529541 C26.10624195 210.76450646 16.42719388 170.43280836 -4 132 C-4.99580078 130.09734375 -4.99580078 130.09734375 -6.01171875 128.15625 C-14.82518874 111.86517793 -25.62945598 96.77753352 -38 83 C-39.35544922 81.48019531 -39.35544922 81.48019531 -40.73828125 79.9296875 C-49.52978795 70.20555986 -58.50308078 60.93514538 -68.78515625 52.77734375 C-77.91359574 45.4520528 -69.18856736 32.70354613 -65.3125 24 C-64.63906323 22.46477002 -63.96696397 20.9289527 -63.29614258 19.39257812 C-62.25658333 17.01226551 -61.21608539 14.63241118 -60.17100525 12.2545166 C-57.72161835 6.67826855 -55.32425672 1.08198452 -52.9609375 -4.53125 C-52.32631592 -6.03816406 -51.69169434 -7.54507812 -51.0378418 -9.09765625 C-49.82199864 -11.99039722 -48.60728307 -14.88361244 -47.39379883 -17.77734375 C-46.8448999 -19.07800781 -46.29600098 -20.37867188 -45.73046875 -21.71875 C-45.24989014 -22.86279297 -44.76931152 -24.00683594 -44.27416992 -25.18554688 C-38.06256207 -38.90607099 -7.68480861 -7.06207411 0 0 Z " transform="translate(760,268)" style="fill: #fff;"/><path d="M0 0 C1.13530151 -0.00095673 2.27060303 -0.00191345 3.44030762 -0.00289917 C5.82023169 -0.00357545 8.20015767 -0.00175997 10.58007812 0.00244141 C14.23571849 0.00783755 17.89123821 0.00245734 21.546875 -0.00390625 C23.86458361 -0.00324615 26.18229214 -0.0019664 28.5 0 C29.59574341 -0.00202423 30.69148682 -0.00404846 31.82043457 -0.00613403 C41.99553702 0.02566443 41.99553702 0.02566443 40.71875 5.1328125 C38.60444216 7.57530273 36.47194007 9.88862043 34.21875 12.1953125 C29.19954617 17.44274841 24.4594729 22.77940256 19.92578125 28.45703125 C17.45666988 31.45055565 14.85837627 34.28873385 12.21875 37.1328125 C8.76805842 40.85151896 5.45652002 44.61414425 2.28125 48.5703125 C-2.07872472 53.98701359 -6.76195219 59.05782431 -11.50390625 64.140625 C-13.65892102 66.46234275 -15.77172543 68.80031048 -17.84375 71.1953125 C-22.53571682 76.61534314 -27.39150754 81.8911284 -32.28125 87.1328125 C-32.88066406 87.81915771 -33.48007812 88.50550293 -34.09765625 89.21264648 C-36.68689708 91.48952251 -38.40412559 91.94084343 -41.76953125 92.58984375 C-42.85645264 92.81124023 -43.94337402 93.03263672 -45.06323242 93.26074219 C-46.22830322 93.48665039 -47.39337402 93.71255859 -48.59375 93.9453125 C-82.05304588 100.95085955 -115.3732217 112.94994914 -143.28125 133.1328125 C-143.96864258 133.61556641 -144.65603516 134.09832031 -145.36425781 134.59570312 C-156.53194643 142.43916681 -166.77446586 150.80194159 -176.49707031 160.37939453 C-178.16704011 162.02057175 -179.86008826 163.63817261 -181.5546875 165.25390625 C-188.88590028 172.34954021 -195.20213289 179.94740974 -201.28125 188.1328125 C-202.23773438 189.40640625 -203.19421875 190.68 -204.1796875 191.9921875 C-216.47076054 208.67466568 -226.56747999 226.90629867 -234.28125 246.1328125 C-234.82990723 247.48729492 -234.82990723 247.48729492 -235.38964844 248.86914062 C-260.66659705 311.88141654 -259.88144298 378.07409679 -235.28125 441.1328125 C-234.73404297 442.58494141 -234.73404297 442.58494141 -234.17578125 444.06640625 C-220.77454312 478.17425059 -197.78371952 507.56320663 -172.21875 533.3828125 C-171.08481812 534.53632202 -171.08481812 534.53632202 -169.92797852 535.71313477 C-166.37959412 539.26692298 -162.95703354 542.43553358 -158.78515625 545.2421875 C-151.65149513 551.1272591 -154.71771398 557.5459499 -157.91015625 565.0625 C-158.29686996 566.01109894 -158.68358368 566.95969788 -159.08201599 567.93704224 C-160.32055603 570.96722142 -161.58107277 573.98762182 -162.84375 577.0078125 C-164.4765057 580.96090154 -166.10041935 584.91758445 -167.72265625 588.875 C-168.11864517 589.8369931 -168.51463409 590.79898621 -168.92262268 591.79013062 C-171.85115512 598.94957929 -174.51196812 606.16153032 -177.01367188 613.48242188 C-182.19361351 628.39969602 -185.40013231 635.08441143 -199.40625 622.6953125 C-200.90852767 621.4082529 -202.4124493 620.12310981 -203.91796875 618.83984375 C-204.6557959 618.20643066 -205.39362305 617.57301758 -206.15380859 616.92041016 C-209.08795412 614.45497367 -212.14422582 612.16955824 -215.21875 609.8828125 C-220.23229843 606.07576638 -224.6426813 601.96572451 -229.01171875 597.44140625 C-231.06935385 595.34835574 -233.17814925 593.41575897 -235.40625 591.5078125 C-241.49461589 586.27696293 -247.03832614 580.58420445 -252.26171875 574.48828125 C-253.78978506 572.70602983 -255.33759156 570.94067815 -256.89453125 569.18359375 C-273.83871734 549.86048882 -287.99599966 528.68599348 -300.28125 506.1328125 C-300.95929688 504.92238281 -301.63734375 503.71195313 -302.3359375 502.46484375 C-318.16020427 473.74102877 -328.9347227 441.23046262 -335.28125 409.1328125 C-335.55727051 407.76866211 -335.55727051 407.76866211 -335.83886719 406.37695312 C-340.02213057 385.51174066 -341.69621664 365.00060881 -341.65625 343.7578125 C-341.65603851 342.71165771 -341.65582703 341.66550293 -341.65560913 340.58764648 C-341.6206296 323.16751101 -340.48795978 306.28583267 -337.28125 289.1328125 C-337.09401367 288.08383789 -336.90677734 287.03486328 -336.71386719 285.95410156 C-333.95536082 270.70370623 -329.87538996 255.92194827 -325.28125 241.1328125 C-324.82105469 239.60527344 -324.36085938 238.07773437 -323.88671875 236.50390625 C-310.08068381 192.61901708 -285.14509764 150.34641864 -253.7578125 116.79296875 C-251.74747765 114.63360277 -249.81302247 112.4449283 -247.90625 110.1953125 C-240.26859479 101.42479934 -231.92133607 93.38104063 -222.80859375 86.1640625 C-220.48094489 84.29330916 -218.28781728 82.34432919 -216.09375 80.3203125 C-163.08297321 32.92905268 -91.8418142 8.73676154 -22.28125 1.1328125 C-20.75226074 0.95556641 -19.22327148 0.77832031 -17.64794922 0.59570312 C-11.76287049 0.01540449 -5.9094301 -0.01108059 0 0 Z " transform="translate(508.28125,176.8671875)" style="fill: #fff;"/></svg>