<svg height="144px" width="144px" viewBox="0 0 48 48" xmlns="http://www.w3.org/2000/svg"><path d="M31.3 8.5L34.4 3.9 35.4 9.3 40.4 7 38.3 12.2 43.8 13 39.2 16.2 43.4 19.8 37.9 20 39.4 25.3 34.6 22.5 33 27.8 30.5 22.9 26.3 26.5 26.9 21 21.4 21.7 24.9 17.4 19.9 15.1 25.1 13.3 22.2 8.6 27.5 10 27.6 4.5z" fill="#EA80FC"></path><path d="M31.6 11.6L33.4 8.9 34 12.1 36.9 10.7 35.7 13.8 38.9 14.2 36.2 16.1 38.7 18.2 35.4 18.4 36.3 21.5 33.5 19.8 32.6 22.9 31.1 20 28.7 22.2 29 18.9 25.8 19.4 27.8 16.8 24.9 15.5 28 14.4 26.2 11.7 29.4 12.5 29.4 9.2zM39 35L40.5 38.5 44 40 40.5 41.5 39 45 37.5 41.5 34 40 37.5 38.5zM30 31L30.9 33.1 33 34 30.9 34.9 30 37 29.1 34.9 27 34 29.1 33.1z" fill="#D500F9"></path><path d="M5,44.4L3.6,43c-0.8-0.8-0.8-2,0-2.8l17.7-17.7l4.2,4.2L7.8,44.4C7,45.2,5.8,45.2,5,44.4z" fill="#607D8B"></path><path d="M32.9,13.7l1.4,1.4c0.8,0.8,0.8,2,0,2.8l-8.8,8.8l-4.2-4.2l8.8-8.8C30.8,12.9,32.1,12.9,32.9,13.7z" fill="#FFC107"></path><path transform="rotate(45.001 13.84 32.747)" d="M13.1 20.2H14.5V45.2H13.1z" fill="#90A4AE"></path><path transform="rotate(45.001 27.067 19.519)" d="M26.4 13.3H27.799999999999997V25.700000000000003H26.4z" fill="#FFD54F"></path></svg>