<svg t="1691419944377" class="icon" viewBox="0 0 1024 1024" version="1.1" xmlns="http://www.w3.org/2000/svg" p-id="2618" width="200" height="200"><path d="M356.267 625.067L384 610.133l106.667 59.734v-147.2L469.333 512l-106.666-61.867v121.6l-23.467 12.8-89.6-51.2-106.667 59.734V716.8L249.6 776.533 356.267 716.8z m326.4-40.534l-21.334-12.8v-121.6l-128 72.534v147.2L640 610.133l27.733 14.934V716.8L774.4 776.533 881.067 716.8V593.067L774.4 533.333z m0-384v98.134l113.066 61.866v110.934l10.667 6.4 74.667 42.666v-211.2z m-64 561.067L512 819.2l-106.667-57.6-17.066 10.667-70.4 38.4L512 917.333l194.133-106.666-70.4-38.4z m-390.4-290.133V360.533l113.066-61.866v-98.134l-198.4 108.8v211.2l74.667-42.666zM384 413.867L512 486.4l21.333-12.8L640 413.867l-106.667-59.734V339.2l85.334-49.067v-121.6L512 106.667l-106.667 61.866v121.6l85.334 49.067v14.933z" fill="#F15533" p-id="2619"></path></svg>