<svg width="144" height="33" viewBox="0 0 144 33" fill="none" xmlns="http://www.w3.org/2000/svg">
<path fill-rule="evenodd" clip-rule="evenodd" d="M7.75781 17.3316C7.96148 17.0106 8.20397 16.7057 8.48534 16.4177C9.5039 15.3737 10.7336 14.8516 12.1741 14.8516C13.6147 14.8516 14.8444 15.3737 15.863 16.4177C16.8817 17.4607 17.3909 18.7207 17.3909 20.1967H24.3467C24.3467 16.7527 23.1583 13.8126 20.7815 11.3776C18.4046 8.94262 15.5355 7.72461 12.1741 7.72461C10.5932 7.72461 9.12103 7.99365 7.75787 8.53265L7.75781 17.3316Z" fill="url(#paint0_linear_4425_128588)"/>
<path fill-rule="evenodd" clip-rule="evenodd" d="M17.3893 20.1719C17.3893 21.6369 16.88 22.8859 15.8614 23.9219C14.8428 24.9569 13.6132 25.4749 12.1725 25.4749C10.7319 25.4749 9.50238 24.9569 8.4837 23.9219C7.46509 22.8859 6.95575 21.6369 6.95575 20.1719L6.95636 7.50092C6.95636 3.65992 3.84247 0.544922 0.0010376 0.544922L0 20.1719C0 23.5889 1.18842 26.505 3.56525 28.921C5.94208 31.337 8.81122 32.5449 12.1725 32.5449C15.5339 32.5449 18.403 31.337 20.7798 28.921C23.1567 26.505 24.3451 23.5889 24.3451 20.1719V19.9839H17.3893V20.1719Z" fill="url(#paint1_linear_4425_128588)"/>
<path fill-rule="evenodd" clip-rule="evenodd" d="M127.575 11.0792C126.569 11.0792 125.754 10.2662 125.754 9.26324C125.754 8.26024 126.569 7.44727 127.575 7.44727C128.581 7.44727 129.396 8.26024 129.396 9.26324C129.396 10.2662 128.581 11.0792 127.575 11.0792ZM101.275 17.8572V8.54626C99.2568 8.54626 97.6209 10.1823 97.6209 12.2003V12.8392C96.7897 12.4412 95.8762 12.2413 94.8805 12.2413C93.1147 12.2413 91.6073 12.8683 90.3586 14.1223C89.1358 15.3493 88.5117 16.8263 88.4864 18.5513H88.4855V18.6483C88.4855 20.4063 89.1099 21.9072 90.3586 23.1512C91.6073 24.3942 93.1146 25.0162 94.8805 25.0162C96.2821 25.0162 97.5207 24.6242 98.5965 23.8412C99.2621 24.5632 100.216 25.0162 101.276 25.0162V17.8572H101.275ZM40.6784 12.2003C40.6784 10.1823 39.0425 8.54626 37.0243 8.54626L37.0239 17.8572H37.0234V25.0162C38.0831 25.0162 39.0371 24.5632 39.7026 23.8412C40.7784 24.6242 42.0171 25.0162 43.4187 25.0162C45.1847 25.0162 46.6919 24.3942 47.9407 23.1512C49.1894 21.9072 49.8137 20.4063 49.8137 18.6483V18.5513H49.8128C49.7875 16.8263 49.1634 15.3493 47.9406 14.1223C46.6919 12.8683 45.1846 12.2413 43.4187 12.2413C42.423 12.2413 41.5096 12.4412 40.6783 12.8392L40.6784 12.2003ZM66.7269 14.1223C65.5041 15.3493 64.88 16.8263 64.8547 18.5513H64.8539V18.6613C64.8569 20.4143 65.4812 21.9102 66.7269 23.1512C67.9756 24.3942 69.4829 25.0162 71.2488 25.0162C72.6495 25.0162 73.8875 24.6252 74.9629 23.8422C75.6285 24.5642 76.5832 25.0162 77.6438 25.0162V19.1033H77.6294C77.6387 18.9583 77.6435 18.8103 77.6438 18.6613V18.6483L77.6432 12.4313C76.6348 12.4313 75.7218 12.8393 75.0607 13.4973C73.9628 12.6603 72.6922 12.2413 71.2488 12.2413C69.4829 12.2413 67.9756 12.8683 66.7269 14.1223ZM118.61 12.2623C120.068 12.2623 121.227 12.7023 122.089 13.5833C122.951 14.4633 123.382 15.6862 123.382 17.2532V25.0162H119.811V17.7343C119.811 16.9803 119.611 16.3962 119.211 15.9832C118.81 15.5702 118.26 15.3643 117.558 15.3643C116.86 15.3643 116.311 15.5702 115.911 15.9832C115.511 16.3962 115.311 16.9803 115.311 17.7343V25.0162H111.739V17.7343C111.739 16.9803 111.539 16.3962 111.139 15.9832C110.739 15.5702 110.19 15.3643 109.492 15.3643C108.79 15.3643 108.24 15.5702 107.839 15.9832C107.439 16.3962 107.239 16.9803 107.239 17.7343V25.0162H103.647V12.3853H105.77C106.581 12.3853 107.239 13.0422 107.239 13.8542C107.605 13.3662 108.082 12.9783 108.671 12.6923C109.259 12.4053 109.924 12.2623 110.667 12.2623C111.549 12.2623 112.338 12.4513 113.032 12.8303C113.727 13.2053 114.269 13.7432 114.659 14.4432C115.066 13.7972 115.62 13.2742 116.322 12.8712C117.023 12.4652 117.786 12.2623 118.61 12.2623ZM61.8075 14.1172C60.5671 12.8802 59.0697 12.2623 57.3155 12.2623C55.5613 12.2623 54.064 12.8802 52.8235 14.1172C51.5831 15.3542 50.9629 16.8472 50.9629 18.5972C50.9629 20.3462 51.5831 21.8392 52.8235 23.0762C54.064 24.3132 55.5613 24.9323 57.3155 24.9323C59.0697 24.9323 60.5671 24.3132 61.8075 23.0762C63.0479 21.8392 63.6681 20.3462 63.6681 18.5972C63.6681 16.8472 63.0479 15.3542 61.8075 14.1172ZM127.279 12.3433C128.448 12.3433 129.396 13.2913 129.396 14.4603L129.395 25.0203H125.754V12.3433H127.279ZM138.353 23.8752L136.808 21.4362L135.226 23.8903C134.808 24.5393 134.088 25.0192 133.316 25.0192H130.555L134.787 18.5073L130.555 12.3463H133.351C134.129 12.3463 134.852 12.7442 135.269 13.3992L136.808 15.8203L138.394 13.3802C138.813 12.7352 139.53 12.3463 140.299 12.3463H143.063L138.767 18.6832L143.063 25.0192H140.272C139.493 25.0192 138.769 24.5332 138.353 23.8752ZM83.6158 14.4213C84.0376 13.7793 84.564 13.2733 85.1949 12.9053C85.8293 12.5323 86.5322 12.3463 87.3037 12.3463V16.1423H86.3162C85.4178 16.1423 84.7422 16.3342 84.2896 16.7202C83.8404 17.1062 83.6158 17.7813 83.6158 18.7443V25.0162H80.0154V12.4692H81.6645C82.7422 12.4692 83.6158 13.3433 83.6158 14.4213ZM55.339 16.6262C55.8848 16.0822 56.5436 15.8093 57.3155 15.8093C58.0874 15.8093 58.7461 16.0822 59.292 16.6262C59.8378 17.1702 60.1106 17.8272 60.1106 18.5972C60.1106 19.3662 59.8378 20.0232 59.292 20.5682C58.7461 21.1122 58.0874 21.3842 57.3155 21.3842C56.5436 21.3842 55.8848 21.1122 55.339 20.5682C54.7933 20.0232 54.5204 19.3662 54.5204 18.5972C54.5204 17.8272 54.7933 17.1702 55.339 16.6262ZM46.1593 18.6613H46.1594C46.1564 19.4093 45.8888 20.0482 45.3567 20.5782C44.8216 21.1102 44.1756 21.3773 43.4187 21.3773C42.6619 21.3773 42.0159 21.1102 41.4808 20.5782C40.9456 20.0452 40.678 19.4013 40.678 18.6483V18.6412C40.6827 17.8902 40.9502 17.2483 41.4807 16.7153C42.0159 16.1783 42.6619 15.9092 43.4187 15.9092C44.1755 15.9092 44.8215 16.1783 45.3566 16.7153C45.8918 17.2523 46.1593 17.9013 46.1593 18.6613ZM92.9426 20.5782C92.4104 20.0482 92.1429 19.4093 92.1399 18.6613C92.1399 17.9013 92.4075 17.2533 92.9426 16.7153C93.4778 16.1783 94.1237 15.9102 94.8805 15.9102C95.6374 15.9102 96.2834 16.1783 96.8185 16.7153C97.349 17.2483 97.6166 17.8902 97.6212 18.6412V18.6483C97.6212 19.4013 97.3536 20.0452 96.8185 20.5782C96.2833 21.1102 95.6373 21.3773 94.8805 21.3773C94.1237 21.3773 93.4777 21.1102 92.9426 20.5782ZM69.3108 20.5782C68.7773 20.0462 68.5098 19.4052 68.5081 18.6542C68.5096 17.8972 68.7772 17.2513 69.3108 16.7153C69.846 16.1783 70.492 15.9102 71.2488 15.9102C72.0056 15.9102 72.6517 16.1783 73.1868 16.7153C73.7204 17.2513 73.988 17.8972 73.9895 18.6542C73.988 19.4052 73.7204 20.0462 73.1868 20.5782C72.6517 21.1112 72.0056 21.3773 71.2488 21.3773C70.492 21.3773 69.846 21.1112 69.3108 20.5782Z" fill="black"/>
<defs>
<linearGradient id="paint0_linear_4425_128588" x1="18.4294" y1="7.72465" x2="7.75781" y2="7.72465" gradientUnits="userSpaceOnUse">
<stop offset="0.05016" stop-color="#FF68CF"/>
<stop offset="0.994774" stop-color="#FF9059"/>
</linearGradient>
<linearGradient id="paint1_linear_4425_128588" x1="16.4621" y1="20.6386" x2="-4.80115e-06" y2="0.54521" gradientUnits="userSpaceOnUse">
<stop stop-color="#FF68CF"/>
<stop offset="0.483568" stop-color="#7B2FFF"/>
<stop offset="1" stop-color="#00CFFF"/>
</linearGradient>
</defs>
</svg>
