<svg width="40" height="40" viewBox="0 0 40 40" fill="none" xmlns="http://www.w3.org/2000/svg" class="hc_Svg" data-elem-id="bllTscsavN" icon="&lt;svg width=&quot;40&quot; height=&quot;40&quot; viewBox=&quot;0 0 40 40&quot; fill=&quot;none&quot; xmlns=&quot;http://www.w3.org/2000/svg&quot;&gt;&lt;path d=&quot;M11.5207 4.47769L11.5073 4.48255C9.15851 5.337 7.94706 7.93377 8.8015 10.2826L15.7866 29.4843C16.641 31.8332 19.2378 33.0447 21.5866 32.1902L21.6 32.1854C23.9488 31.3309 25.1603 28.7341 24.3058 26.3853L17.3208 7.18354C16.4663 4.83469 13.8696 3.62325 11.5207 4.47769Z&quot; fill=&quot;#BC98F9&quot;/&gt;&lt;path d=&quot;M25.6765 11.6761L25.6498 11.6859C23.8172 12.3525 22.872 14.3786 23.5386 16.2112L28.6074 30.1451C29.2741 31.9778 31.3001 32.923 33.1327 32.2563L33.1595 32.2466C34.9921 31.5799 35.9373 29.5539 35.2706 27.7213L30.2018 13.7873C29.5352 11.9547 27.5091 11.0095 25.6765 11.6761Z&quot; fill=&quot;#BC98F9&quot;/&gt;&lt;path d=&quot;M29.6463 27.9165L34.2643 18.0127C34.6051 17.2868 35.2194 16.7254 35.9729 16.4511C36.7264 16.1769 37.5578 16.2121 38.2854 16.5492C39.0064 16.8947 39.5609 17.5122 39.8273 18.266C40.0936 19.0198 40.0502 19.8485 39.7064 20.5704L35.1168 30.467C34.7775 31.1942 34.1634 31.7569 33.4093 32.0314C32.6552 32.3058 31.823 32.2696 31.0956 31.9306C30.3714 31.5901 29.812 30.9761 29.5403 30.2235C29.2685 29.4708 29.3067 28.6411 29.6463 27.9165Z&quot; fill=&quot;#6F77EC&quot;/&gt;&lt;path d=&quot;M22.8605 13.6007L16.8464 26.4979C15.9078 28.5107 16.7786 30.9033 18.7914 31.8418L18.8043 31.8478C20.8171 32.7864 23.2096 31.9156 24.1482 29.9028L30.1622 17.0056C31.1008 14.9928 30.23 12.6004 28.2172 11.6618L28.2043 11.6558C26.1916 10.7172 23.799 11.588 22.8605 13.6007Z&quot; fill=&quot;#6F77EC&quot;/&gt;&lt;path d=&quot;M10.9614 24.6058L17.2276 11.1071C17.5128 10.5059 17.6769 9.85428 17.7102 9.18961C17.7436 8.52493 17.6456 7.86021 17.4219 7.23342C17.1983 6.60662 16.8532 6.03004 16.4066 5.53663C15.9601 5.04321 15.4207 4.64264 14.8192 4.35778C13.601 3.83818 12.2279 3.81558 10.9933 4.29482C9.7587 4.77406 8.7605 5.71713 8.21192 6.92253L1.95275 20.4212C1.78373 20.7826 1.76356 21.1959 1.89646 21.572C2.02937 21.9481 2.3047 22.2569 2.66321 22.4318L9.05733 25.4015C9.41578 25.5435 9.81551 25.5398 10.1712 25.3911C10.527 25.2424 10.8105 24.9606 10.9614 24.6058Z&quot; fill=&quot;#6F77EC&quot;/&gt;&lt;path d=&quot;M2.88384 32.2784L8.30464 29.4365C8.47723 29.3526 8.62269 29.2218 8.72448 29.0591C8.82627 28.8965 8.88033 28.7084 8.88033 28.5165C8.88033 28.3246 8.82627 28.1365 8.72448 27.9739C8.62269 27.8112 8.47723 27.6804 8.30464 27.5964L1.47004 24.4491C1.22771 24.3308 0.948431 24.3129 0.692977 24.3994C0.437523 24.4858 0.226526 24.6697 0.10593 24.9109C-0.0042102 25.131 -0.0294825 25.3839 0.0349015 25.6214L1.45582 31.6176C1.53346 31.88 1.71093 32.1013 1.95007 32.2342C2.1892 32.3671 2.47094 32.4008 2.73468 32.3281L2.88384 32.2784Z&quot; fill=&quot;#6F77EC&quot;/&gt;&lt;/svg&gt;"><path d="M11.5207 4.47769L11.5073 4.48255C9.15851 5.337 7.94706 7.93377 8.8015 10.2826L15.7866 29.4843C16.641 31.8332 19.2378 33.0447 21.5866 32.1902L21.6 32.1854C23.9488 31.3309 25.1603 28.7341 24.3058 26.3853L17.3208 7.18354C16.4663 4.83469 13.8696 3.62325 11.5207 4.47769Z" fill="#BC98F9"/><path d="M25.6765 11.6761L25.6498 11.6859C23.8172 12.3525 22.872 14.3786 23.5386 16.2112L28.6074 30.1451C29.2741 31.9778 31.3001 32.923 33.1327 32.2563L33.1595 32.2466C34.9921 31.5799 35.9373 29.5539 35.2706 27.7213L30.2018 13.7873C29.5352 11.9547 27.5091 11.0095 25.6765 11.6761Z" fill="#BC98F9"/><path d="M29.6463 27.9165L34.2643 18.0127C34.6051 17.2868 35.2194 16.7254 35.9729 16.4511C36.7264 16.1769 37.5578 16.2121 38.2854 16.5492C39.0064 16.8947 39.5609 17.5122 39.8273 18.266C40.0936 19.0198 40.0502 19.8485 39.7064 20.5704L35.1168 30.467C34.7775 31.1942 34.1634 31.7569 33.4093 32.0314C32.6552 32.3058 31.823 32.2696 31.0956 31.9306C30.3714 31.5901 29.812 30.9761 29.5403 30.2235C29.2685 29.4708 29.3067 28.6411 29.6463 27.9165Z" fill="#6F77EC"/><path d="M22.8605 13.6007L16.8464 26.4979C15.9078 28.5107 16.7786 30.9033 18.7914 31.8418L18.8043 31.8478C20.8171 32.7864 23.2096 31.9156 24.1482 29.9028L30.1622 17.0056C31.1008 14.9928 30.23 12.6004 28.2172 11.6618L28.2043 11.6558C26.1916 10.7172 23.799 11.588 22.8605 13.6007Z" fill="#6F77EC"/><path d="M10.9614 24.6058L17.2276 11.1071C17.5128 10.5059 17.6769 9.85428 17.7102 9.18961C17.7436 8.52493 17.6456 7.86021 17.4219 7.23342C17.1983 6.60662 16.8532 6.03004 16.4066 5.53663C15.9601 5.04321 15.4207 4.64264 14.8192 4.35778C13.601 3.83818 12.2279 3.81558 10.9933 4.29482C9.7587 4.77406 8.7605 5.71713 8.21192 6.92253L1.95275 20.4212C1.78373 20.7826 1.76356 21.1959 1.89646 21.572C2.02937 21.9481 2.3047 22.2569 2.66321 22.4318L9.05733 25.4015C9.41578 25.5435 9.81551 25.5398 10.1712 25.3911C10.527 25.2424 10.8105 24.9606 10.9614 24.6058Z" fill="#6F77EC"/><path d="M2.88384 32.2784L8.30464 29.4365C8.47723 29.3526 8.62269 29.2218 8.72448 29.0591C8.82627 28.8965 8.88033 28.7084 8.88033 28.5165C8.88033 28.3246 8.82627 28.1365 8.72448 27.9739C8.62269 27.8112 8.47723 27.6804 8.30464 27.5964L1.47004 24.4491C1.22771 24.3308 0.948431 24.3129 0.692977 24.3994C0.437523 24.4858 0.226526 24.6697 0.10593 24.9109C-0.0042102 25.131 -0.0294825 25.3839 0.0349015 25.6214L1.45582 31.6176C1.53346 31.88 1.71093 32.1013 1.95007 32.2342C2.1892 32.3671 2.47094 32.4008 2.73468 32.3281L2.88384 32.2784Z" fill="#6F77EC"/></svg>