<svg t="1691418928104" class="icon" viewBox="0 0 1024 1024" version="1.1" xmlns="http://www.w3.org/2000/svg" p-id="1505" width="200" height="200">

<path d="M768 558.545455c0 154.228364-125.044364 279.272727-279.272727 279.272727S209.454545 712.773818 209.454545 558.545455s125.044364-279.272727 279.272728-279.272728 279.272727 125.044364 279.272727 279.272728z" fill="#69CB91" p-id="1507"></path>
<path d="M256 488.727273a93.090909 93.090909 0 1 0 0-186.181818 93.090909 93.090909 0 0 0 0 186.181818z" fill="#A0BFF7" p-id="1508"></path>
<path d="M756.363636 651.636364a104.727273 104.727273 0 1 0 0-209.454546 104.727273 104.727273 0 0 0 0 209.454546z" fill="#247ADE" p-id="1509"></path>
<path d="M698.181818 302.545455a69.818182 69.818182 0 1 0 0-139.636364 69.818182 69.818182 0 0 0 0 139.636364z" fill="#A0BFF7" p-id="1510"></path>
</svg> 