<?xml version="1.0" encoding="UTF-8"?>
<svg width="3871px" height="2367px" viewBox="0 0 3871 2367" version="1.1" xmlns="http://www.w3.org/2000/svg" xmlns:xlink="http://www.w3.org/1999/xlink">
    <!-- Generator: Sketch 58 (84663) - https://sketch.com -->
    <title>composition-22</title>
    <desc>Created with Sketch.</desc>
    <g id="composition-22" stroke="none" stroke-width="1" fill="none" fill-rule="evenodd">
        <ellipse id="Oval" fill-opacity="0.9" fill="#A8E3D8" cx="2736.5" cy="3719.5" rx="2310.5" ry="2309.5"></ellipse>
        <g id="Illustrations/Doggie" transform="translate(1268.000000, 259.000000)">
            <path d="M2124.80513,1649.58655 C2137.14198,1655.93768 2148.67273,1655.93286 2160.80745,1660.87557 C2172.85073,1665.78216 2175.99088,1686.12356 2186.28963,1688.55278 C2138.54723,1693.57735 2091.52429,1704.22595 2043.20198,1698.93174 C2047.38645,1681.87183 2039.87173,1664.41226 2049.93707,1648.40445 C2076.84857,1622.93014 2094.34442,1633.90376 2124.80513,1649.58655 Z M1923.19772,477.084373 C1923.81853,489.078797 1924.70644,493.845751 1933.21494,501.583623 C1939.88266,507.645839 1943.634,498.607889 1944.26684,510.44823 C1944.63259,517.278455 1937.53897,520.706809 1934.79344,526.227326 C1921.10669,553.731201 1930.55362,589.254632 1937.27909,616.652575 C1950.91772,672.206839 1984.22984,732.609913 1960.75687,789.07664 C1958.39153,794.770501 1956.49059,807.11402 1951.91872,811.474097 C1945.89106,808.286498 1941.49003,809.680471 1938.71322,815.6512 C1937.04809,817.524275 1935.38297,819.397351 1933.71784,821.268019 C1923.16884,831.028235 1911.94128,834.656416 1897.93931,829.468141 C1869.70919,819.012142 1865.04106,786.206838 1864.89428,760.381027 C1864.72825,731.916538 1870.78719,702.106228 1877.26481,674.376043 C1880.38572,661.02376 1885.18859,645.523939 1876.24697,632.927627 C1867.80103,621.029504 1857.36753,627.736945 1849.05153,622.425885 C1840.19894,616.772952 1852.94966,575.225826 1844.227,564.208868 C1828.99784,544.972527 1823.69206,592.03054 1823.44903,601.641487 C1823.18434,612.169713 1823.75462,624.453043 1828.71391,633.99658 C1832.60962,641.493697 1845.29056,648.073537 1847.46581,655.642881 C1849.5015,662.716269 1840.57672,681.090706 1839.19794,688.681718 C1837.07562,700.377606 1836.33691,712.326287 1835.72812,724.181073 C1833.67078,764.228295 1839.95109,806.374902 1867.50266,837.451584 C1879.58203,851.080736 1900.05681,866.556481 1919.21056,864.074295 C1936.11687,861.883422 1953.10741,852.74917 1968.87556,846.542501 C1979.47991,887.302357 1995.40928,926.776581 2012.38056,965.268524 C2027.13087,998.728683 2040.99809,1032.99778 2056.49434,1066.04865 C2089.15197,1135.71117 2142.16166,1195.05492 2183.58044,1259.46657 C2223.5675,1321.65124 2245.99134,1393.01108 2251.36931,1466.42457 C2252.63981,1483.78302 2247.57225,1507.53833 2251.61475,1523.77005 C2255.40459,1538.98819 2258.73003,1545.59692 2256.24919,1562.19217 C2253.49162,1580.63402 2248.14975,1597.64097 2250.44531,1616.40543 C2252.481,1633.05365 2260.40959,1657.85866 2251.74469,1673.28144 C2241.33284,1662.18263 2230.94506,1656.95824 2224.63106,1642.1542 C2218.21841,1627.13107 2220.74256,1614.78515 2206.20881,1608.18364 C2193.79256,1602.54275 2184.88703,1603.7706 2173.93137,1594.53763 C2160.62241,1583.32085 2151.55325,1569.61225 2144.99622,1553.55388 C2133.80475,1526.15112 2132.18534,1496.44433 2141.64672,1468.30246 C2149.23362,1445.73888 2171.39278,1403.50078 2202.45987,1418.62021 C2197.84469,1409.13686 2194.77431,1398.82773 2185.96984,1392.6668 C2178.30353,1387.30037 2166.84016,1385.55248 2158.27872,1379.44934 C2148.70666,1372.62874 2137.87131,1365.34831 2127.18756,1360.35986 C2123.03919,1358.42419 2119.11459,1357.45154 2114.82906,1356.12738 C2109.68931,1354.54081 2099.94159,1355.67958 2099.30634,1355.58328 C2080.95628,1352.80737 2060.49353,1343.96924 2049.28762,1330.65067 C2040.85372,1320.62562 2033.39916,1311.26746 2026.96003,1299.79548 C2018.60072,1284.90718 2015.38356,1285.8076 1999.34591,1282.27091 C1976.03897,1277.1356 1961.25016,1273.63261 1942.60653,1256.33194 C1921.92962,1237.14375 1906.79912,1213.23194 1891.66862,1189.68849 C1882.804,1175.89322 1875.01256,1175.05057 1860.56544,1169.5421 C1852.16522,1166.34246 1840.53341,1152.00789 1832.88634,1150.94376 C1830.67981,1150.63559 1820.10675,1155.45069 1816.53106,1156.0261 C1810.14006,1157.06135 1804.59125,1156.87596 1798.18822,1156.20426 C1783.49566,1154.66102 1770.50912,1150.768 1760.63147,1139.26472 C1730.20925,1103.84241 1720.93316,1020.34128 1762.58534,990.205948 C1770.52116,984.466344 1781.57547,981.822852 1786.25803,972.286538 C1791.62878,961.344214 1789.18403,940.730753 1788.75331,929.193764 C1788.26484,916.026861 1787.64644,901.697111 1785.68053,888.717998 C1784.77578,882.752084 1784.10203,880.243415 1781.66931,874.270278 C1776.84237,862.425122 1775.4275,864.148929 1765.48728,861.300795 C1751.30725,857.241662 1744.89459,858.837869 1736.20081,845.370023 C1729.266,834.627525 1726.02237,821.094675 1725.39194,808.39243 C1724.80481,796.542459 1730.14669,785.590504 1725.6855,774.857637 C1719.15494,759.150767 1707.04669,747.262275 1701.73609,730.072353 C1697.26047,715.595743 1685.70566,683.283986 1697.09684,669.926887 C1702.2005,663.941713 1711.26484,663.065364 1716.32519,655.055438 C1725.14169,641.108489 1728.70294,633.481364 1741.78812,622.488481 C1751.442,614.377438 1760.71328,602.291527 1772.34991,597.331969 C1783.79403,592.454269 1794.59569,600.305296 1803.88622,598.152945 C1814.01412,595.803174 1811.35041,572.303058 1814.16091,561.719459 C1817.95075,547.449898 1826.07906,532.573633 1835.92062,521.438705 C1839.20756,517.719037 1843.30541,517.003994 1845.86325,512.058882 C1849.33306,505.36348 1847.95669,495.822351 1850.65891,488.500985 C1853.88569,479.751941 1861.71803,464.690295 1870.47437,459.894451 C1896.05522,445.882498 1903.73837,481.988557 1923.19772,477.084373 Z M1863.33599,1513.23075 C1866.94537,1522.95967 1864.94818,1538.59672 1869.10377,1546.97259 C1872.41237,1553.64392 1885.69727,1557.87639 1892.21099,1565.83335 C1906.15762,1582.8716 1911.47062,1610.23824 1906.40787,1631.27543 C1889.34034,1627.05981 1877.92749,1624.36335 1860.57362,1626.58552 C1858.82187,1588.45712 1860.46052,1551.34711 1863.33599,1513.23075 Z M1652.3904,1541.96729 C1664.00297,1554.92474 1669.76353,1570.19343 1668.08637,1587.51336 C1667.48722,1593.6791 1665.60312,1602.32221 1663.78881,1608.24479 C1661.79403,1614.74518 1651.88028,1626.91536 1655.72787,1630.39909 C1644.89493,1629.75145 1632.16587,1631.0106 1624.36,1624.00222 C1617.353,1617.71129 1612.45147,1601.49642 1609.60728,1592.90387 C1615.07668,1581.98081 1620.5485,1571.05774 1626.02031,1560.13709 C1629.58156,1565.79002 1640.03912,1580.55313 1648.67515,1575.82951 C1655.17925,1572.27356 1649.92881,1549.15624 1652.3904,1541.96729 Z M2059.96584,1440.97505 C2073.25556,1453.33061 2077.79856,1475.60769 2077.12,1492.89873 C2077.33897,1516.73109 2069.09275,1564.43433 2038.12672,1566.03294 C2013.24128,1567.31857 1986.69793,1531.65791 1983.89947,1509.61677 C1980.8315,1485.45458 1988.82025,1427.67092 2020.47928,1422.70173 C2032.13515,1420.87199 2051.56562,1433.16255 2059.96584,1440.97505 Z M1837.5268,1471.79028 C1838.05617,1487.41288 1838.31845,1502.44323 1837.07923,1518.01287 C1836.04695,1531.0305 1839.4903,1546.40272 1836.57873,1558.86662 C1818.16852,1538.25797 1793.91592,1515.81718 1794.65223,1485.52536 C1795.34523,1456.88994 1819.05642,1459.32638 1837.5268,1471.79028 Z M1651.97821,1127.49757 C1657.11074,1133.13365 1662.25049,1138.76491 1667.38784,1144.39858 C1667.82818,1168.14427 1667.35896,1191.62272 1674.58493,1214.51854 C1682.18868,1238.61091 1694.92977,1261.82935 1707.54334,1283.61288 C1732.06302,1325.95209 1737.91021,1365.88615 1740.86509,1414.30684 C1694.75171,1393.6356 1669.60399,1323.00284 1654.38927,1278.81944 C1646.33315,1255.43007 1637.97865,1232.01904 1630.37971,1208.48281 C1622.88665,1185.2716 1609.64265,1154.94366 1618.36049,1130.49256 C1635.11281,1142.81442 1642.35802,1149.16554 1651.97821,1127.49757 Z M1939.32898,1294.16108 C1961.84426,1312.07809 1963.54788,1339.49529 1971.63048,1364.55068 C1966.96957,1368.27517 1961.85148,1371.55425 1957.64054,1375.80118 C1955.04179,1378.42541 1948.91307,1389.16309 1946.91588,1390.26575 C1938.93917,1394.67879 1931.97067,1389.01382 1924.17682,1381.8971 C1908.83457,1367.87792 1899.2577,1338.12539 1899.97717,1317.55045 C1900.81695,1293.51827 1917.79785,1277.02654 1939.32898,1294.16108 Z M2254.37183,1188.87594 C2283.63905,1205.65177 2276.00402,1252.06455 2272.35374,1278.24428 C2270.06299,1294.65415 2275.14017,1311.34812 2274.78646,1326.95868 C2274.39183,1344.57715 2265.2553,1340.9273 2259.41052,1351.8624 C2254.33574,1338.5992 2245.02836,1322.63472 2242.91086,1308.7287 L2239.54692,1299.93151 C2242.39592,1298.78792 2243.90946,1296.79928 2244.08511,1293.96559 C2245.28102,1287.22685 2245.26417,1280.3557 2245.63955,1273.48455 C2247.18917,1245.08988 2249.33555,1216.87818 2254.37183,1188.87594 Z M1808.46026,1220.21986 C1805.22145,1232.57783 1802.84888,1255.83237 1784.65042,1248.66509 C1770.28992,1243.00734 1766.82251,1220.17171 1766.79098,1207.44298 C1766.76717,1196.99421 1768.48523,1177.79639 1783.09357,1177.17042 C1801.02495,1176.40001 1807.42798,1208.1508 1808.46026,1220.21986 Z M1669.93124,876.170559 C1657.8254,895.570613 1649.42277,924.227706 1655.14243,947.19816 C1661.14602,971.319425 1679.82093,977.157738 1696.43127,959.409264 C1710.13968,981.002599 1682.03709,1019.45843 1656.91102,998.926824 C1651.48012,994.492113 1647.83465,986.000677 1641.11881,983.2344 C1635.61331,980.968893 1630.73584,984.048152 1625.11484,982.769742 C1607.82352,978.83821 1601.29296,961.845707 1594.50012,947.583369 C1596.36496,935.9573 1598.34049,924.432348 1600.85502,912.921841 C1602.1929,906.801844 1603.58612,900.691477 1604.94084,894.573887 C1607.24362,884.180485 1606.52656,885.478155 1614.05812,880.325994 C1633.92171,866.7474 1647.5844,866.075693 1669.93124,876.170559 Z M1680.18668,886.641725 C1685.03046,897.417928 1689.87184,908.194131 1694.71562,918.970334 C1686.79906,917.061146 1678.17506,940.830907 1673.00402,945.463038 C1670.58574,925.68259 1676.37759,905.878066 1680.18668,886.641725 Z M1672.13417,776.222479 C1685.27229,781.759848 1687.88548,805.758327 1688.34988,817.367544 C1684.7381,829.588278 1681.36454,845.222921 1666.09688,836.615923 C1655.90882,830.869096 1651.54148,811.948144 1651.19498,801.612523 C1650.75704,788.65267 1655.62248,769.259838 1672.13417,776.222479 Z" id="Accent" fill="#FF5678"></path>
            <g id="Ink" stroke-width="1" transform="translate(137.155902, 110.746628)" fill="#000000">
                <path d="M1436.56456,384.736499 C1431.15531,387.170534 1441.48294,405.35959 1443.08791,408.696457 C1447.282,417.406981 1452.39528,435.40584 1462.32588,430.451098 C1453.73797,415.213701 1445.15247,399.973896 1436.56456,384.736499 M165.985157,1440.07492 C158.747157,1436.86324 149.066813,1464.4899 147.777063,1470.10191 C144.179719,1485.73896 147.189938,1496.24311 159.700032,1506.35242 C154.521782,1484.00552 160.725094,1461.7477 165.985157,1440.07492 M1836.79613,257.035122 C1827.79434,245.344049 1814.79097,223.637559 1796.60453,235.128805 C1789.42188,239.669448 1783.89472,254.223101 1779.46481,261.332602 C1772.50834,272.494013 1765.77566,283.238918 1760.48191,295.255011 C1769.47406,291.557011 1774.77503,283.515787 1782.81431,279.119597 C1788.30778,276.117379 1793.31759,275.828473 1798.60894,273.640008 C1810.31053,268.805644 1826.33375,264.065174 1836.79613,257.035122 M369.183344,1408.92842 C374.053594,1428.00104 378.558094,1447.0183 382.326282,1466.3365 C384.874501,1479.4095 393.438344,1497.87784 388.969938,1510.66916 C400.546407,1509.11147 412.122876,1507.55619 423.699344,1505.99851 C415.111438,1486.44437 410.592501,1465.57812 408.041876,1444.45425 C406.480219,1431.5257 408.482219,1427.83974 398.746532,1420.64597 C391.207751,1415.0749 377.934876,1412.3977 369.183344,1408.92842 M305.153032,678.908066 C327.410844,701.19959 346.877407,726.608895 370.530844,747.378847 C382.821969,758.171903 395.421094,768.661607 408.034657,779.071862 C418.730438,787.897948 435.740219,807.355784 449.660376,810.057058 C451.380844,802.947556 455.449813,791.297412 454.359782,784.004937 C458.421532,779.801351 457.160657,776.731722 450.577157,774.791235 C446.549094,771.692715 442.566751,768.543637 438.622907,765.336778 C423.150719,752.415446 408.508688,738.379417 393.847407,724.557661 C379.272751,710.820168 365.790532,696.447082 353.138469,680.925594 C346.473157,672.751955 342.575032,664.556648 331.643438,662.153911 C318.656907,659.300961 314.335282,669.431941 305.153032,678.908066 M749.996469,1506.59558 C749.368438,1518.70798 779.140969,1526.13046 788.186063,1526.85754 C812.638376,1528.81969 828.517219,1518.09164 836.931876,1496.93407 C854.449376,1452.89754 882.496626,1414.09984 894.227094,1367.79298 C897.706532,1354.05308 900.719157,1347.80067 888.319751,1340.79951 C883.230532,1337.9297 869.979313,1331.52562 864.447344,1335.18028 C859.180063,1338.65919 854.865657,1354.3131 851.480063,1360.00214 C846.102094,1369.04009 839.987813,1377.63505 834.150251,1386.37928 C806.839313,1427.286 779.319032,1467.12136 749.996469,1506.59558 M396.660313,900.133211 L510.966813,965.529549 C515.733594,949.0643 517.925688,931.898454 522.394094,915.303197 C525.575157,903.508599 533.758813,886.848339 533.241469,876.493457 C532.469063,861.034566 520.502782,840.512592 515.286032,825.775965 C508.784344,807.413566 502.282657,789.046351 495.780969,770.681543 C486.976501,779.105568 476.838969,784.989625 476.730688,795.965655 C476.670532,802.239736 480.850188,806.154416 478.427094,813.26151 C476.725876,818.24755 469.492688,824.868318 465.998813,828.573541 C455.793907,839.407525 456.113938,839.949224 445.389282,829.818245 C429.147094,853.258172 412.902501,876.695692 396.660313,900.133211 M522.415751,1206.75182 C524.052001,1190.9968 526.152657,1175.89182 529.694657,1160.43293 C531.872313,1150.93513 541.069001,1131.43156 538.044344,1122.48509 C535.820969,1115.91007 522.605844,1110.19213 517.458876,1106.61451 C502.569001,1096.26444 488.028032,1085.37508 473.287344,1074.81315 C460.360969,1065.5513 447.242094,1056.51094 434.558751,1046.91685 C422.811438,1038.03298 413.944407,1026.98232 399.728282,1023.17357 C387.290376,1019.83911 371.507782,1022.01554 358.624719,1021.58699 C341.335813,1021.01159 323.779813,1020.82139 306.507751,1021.66644 C248.543594,1024.50494 183.608532,1020.44822 127.843688,1036.62456 C101.488032,1044.26854 84.4975007,1048.76825 69.7640319,1073.74661 C52.7253757,1102.63482 38.1675632,1132.65218 25.7729694,1163.85647 C23.9634694,1168.41396 19.8728444,1174.98658 20.024889,1179.9654 C20.3276257,1189.47282 23.7276569,1187.28195 32.8401257,1192.70376 C42.6865007,1198.56133 52.3379694,1205.51434 61.7440007,1212.11103 C77.8730944,1223.42171 97.8979069,1235.23076 114.630969,1244.05203 C134.764063,1254.66452 155.046344,1264.18157 175.525938,1274.86869 C188.502844,1281.64114 201.934532,1287.17851 214.663594,1294.62025 C228.482688,1302.7024 243.954876,1305.00402 258.851969,1311.31422 C304.979782,1330.85632 349.622938,1348.91537 394.889313,1371.2093 C439.072876,1392.96875 483.764157,1411.35764 528.970376,1430.55305 C587.396532,1455.35806 645.245188,1478.30203 706.178657,1495.45584 C710.639844,1496.71258 720.019407,1501.14248 724.425251,1500.94024 C733.845719,1500.50688 735.980063,1493.61888 741.639563,1485.85693 C752.761251,1470.60268 763.473876,1455.05711 774.111907,1439.46581 C797.185438,1405.64211 819.748844,1371.44283 844.590969,1338.87347 C774.196126,1319.22062 708.924188,1282.96048 647.042657,1245.74694 C644.407813,1253.15498 642.309563,1269.56726 633.863626,1272.04463 C623.420501,1275.11186 615.833594,1260.63525 611.153438,1253.97836 C606.723532,1265.01458 599.143844,1302.24015 584.966219,1301.4264 C565.376938,1300.29967 568.834719,1269.44929 566.394782,1257.2093 C555.595532,1271.57035 543.080626,1288.08375 528.404907,1265.99927 C518.233688,1250.68965 519.362219,1223.82137 522.415751,1206.75182 M1338.03584,1030.82718 C1328.95947,1027.98867 1319.94084,1025.46556 1311.06178,1022.28518 C1308.72772,1017.33044 1304.85125,1015.82813 1299.43478,1017.77824 C1294.99766,1018.17549 1290.68084,1017.62657 1286.48675,1016.12666 C1267.94178,1012.95592 1247.39963,1008.839 1229.68,1003.48942 C1213.89981,998.724877 1199.01956,994.516476 1182.98672,990.936446 C1173.46519,988.812985 1131.05744,976.806523 1124.78916,983.872688 C1122.86175,986.046707 1126.17756,1012.39977 1125.71075,1017.09691 C1124.88059,1025.4487 1124.46913,1039.19823 1119.18259,1046.15125 C1117.15413,1048.81881 1109.43006,1051.77529 1106.63881,1053.853 C1097.56966,1060.60137 1089.18869,1068.98688 1080.16766,1075.98322 C1060.47009,1091.25914 1041.28506,1107.11046 1021.18566,1121.88561 C1006.98156,1132.32716 990.722532,1137.49618 974.944751,1145.08238 C986.169907,1147.09268 1008.13656,1136.28277 1019.46759,1132.93146 C1034.14331,1128.58824 1048.54472,1123.76109 1063.55491,1119.78382 C1094.33084,1111.62944 1125.86234,1102.42537 1157.14119,1093.74373 C1176.35028,1088.41341 1196.64219,1082.85919 1215.26416,1075.80025 C1223.52481,1072.66802 1230.00966,1065.38759 1235.46703,1072.79803 C1239.81994,1078.71339 1234.55266,1086.497 1231.20556,1090.88116 C1211.67884,1116.44936 1158.64991,1122.67047 1130.26819,1133.27815 C1098.23619,1145.24609 1066.63009,1157.85203 1033.64763,1166.2592 C995.128376,1176.07961 953.317376,1183.59358 917.423344,1200.84128 C887.643594,1215.14696 853.907969,1220.69155 822.246532,1229.08909 C792.512501,1236.97382 757.251313,1238.55318 729.148719,1251.93917 C741.288251,1261.53085 759.248501,1266.53375 773.397251,1272.98358 C790.717438,1280.87794 808.218094,1288.07893 825.348188,1296.44517 C832.639126,1300.00594 840.269344,1305.29774 847.646907,1308.25663 C857.012032,1312.01481 855.811313,1310.0334 865.484438,1309.2702 C880.540344,1308.08569 900.853907,1305.37719 913.084876,1316.346 C927.837594,1329.5755 918.489313,1344.06896 920.654938,1360.25494 C922.142001,1371.35134 922.897563,1369.57216 935.212751,1371.26708 C946.548594,1372.82476 957.872407,1374.64247 969.054251,1377.06687 C982.858907,1380.06187 996.988407,1385.08402 1010.43453,1389.4128 C1031.28469,1396.12746 1033.55138,1404.02905 1055.28463,1395.36186 C1117.18059,1370.67964 1181.19888,1350.39119 1243.48947,1327.03553 C1272.18159,1316.27859 1300.99644,1295.5279 1328.00419,1279.939 C1362.65419,1259.93706 1393.98356,1238.30038 1417.4445,1204.99912 C1428.13788,1189.82192 1439.28844,1164.18389 1437.041,1145.33998 C1435.03178,1128.48953 1422.57222,1109.75877 1414.54016,1095.26772 C1404.28231,1076.76809 1395.25166,1069.58876 1379.55809,1057.29821 C1368.64816,1048.75622 1351.79238,1030.71402 1338.03584,1030.82718 M648.710188,1174.02597 C649.670282,1183.32875 644.236969,1221.67383 649.619751,1227.57233 C658.823657,1237.65998 681.399094,1225.88705 690.133782,1222.88242 C718.508282,1213.1222 751.488344,1215.2577 780.382594,1207.52946 C808.413001,1200.03234 835.829813,1190.31787 864.016626,1182.68112 C879.137501,1178.58106 893.488376,1172.15771 908.361407,1167.2776 C924.918813,1161.84375 943.401219,1158.86561 958.755501,1150.69197 C956.854563,1145.96595 890.418001,1157.33441 882.867188,1157.94833 C856.641469,1160.07902 831.950938,1156.03192 806.103001,1151.27701 C749.089313,1140.78489 695.369782,1115.90525 639.092407,1099.76502 C641.729657,1125.73288 714.768969,1130.9043 706.067969,1161.03963 C703.640063,1169.43958 670.965594,1183.16985 660.159126,1177.89972 C638.204501,1167.18852 665.060657,1152.11484 676.004282,1148.35665 C659.345813,1138.80107 643.404407,1128.43415 628.199313,1116.65882 C611.921032,1104.05287 604.916438,1086.367 596.191376,1068.11775 C577.954407,1029.96287 534.795907,1007.76764 501.272032,984.014734 C465.021876,958.330968 426.423219,936.496878 390.194719,910.870894 C383.729126,906.296545 380.709282,908.39593 378.437782,900.044132 C376.007469,891.100076 384.937063,879.734023 389.270719,872.913428 C400.661907,854.977164 413.929969,838.001515 428.978657,822.98802 C409.572251,809.772967 388.609001,798.864348 370.410532,783.906227 C351.964219,768.743464 336.698969,750.234204 320.425501,732.875753 C294.428376,789.474895 257.992938,841.969161 229.380219,897.475274 C218.078063,919.398443 212.103344,952.557658 229.291188,973.801898 C247.378969,996.160834 281.107376,987.457533 306.640094,988.642049 C333.587688,989.893976 358.169938,992.949159 384.749376,1000.59554 C396.773407,1004.0576 407.719438,1003.03439 419.276657,1008.59103 C432.831063,1015.10586 446.161688,1023.47451 459.056782,1031.19794 C484.416251,1046.38478 508.108188,1065.39722 532.055188,1082.72678 C541.877501,1089.83387 595.139844,1131.96844 553.011219,1125.46323 C553.011219,1164.89171 546.107688,1205.27118 542.483876,1244.50946 C552.474626,1232.57282 559.599532,1220.44116 565.644032,1206.09938 C569.238969,1197.56701 569.284688,1175.79311 581.265407,1180.9549 C599.288219,1188.71685 585.250157,1245.75898 585.250157,1261.18898 C589.716157,1252.5555 592.844282,1243.25753 596.059032,1234.10884 C598.494157,1227.17749 601.538063,1207.52465 606.620063,1202.87566 C623.632251,1187.31806 626.016844,1229.74876 626.016844,1238.60374 C631.527157,1222.96187 632.540188,1206.2679 633.093626,1189.74006 C633.310188,1183.22041 631.700407,1173.07498 633.346282,1166.7672 C636.084594,1156.25342 635.759751,1156.93957 646.763532,1152.49523 C647.413219,1159.66973 648.062907,1166.84905 648.710188,1174.02597 M1174.24722,1506.76652 C1175.59713,1520.10676 1180.75613,1529.76345 1171.99016,1541.76269 C1188.93497,1540.54929 1205.6175,1539.05901 1222.59119,1539.48997 C1236.21778,1539.83665 1256.59872,1542.95443 1269.31334,1537.11371 C1274.494,1534.73505 1276.25538,1538.8303 1278.91909,1534.28484 C1281.44806,1529.96569 1275.50703,1515.63112 1274.79238,1512.07517 C1271.36588,1495.01044 1269.69594,1477.50513 1266.58225,1460.33447 C1264.4455,1448.53265 1258.16519,1425.32144 1266.06009,1414.16966 C1277.67266,1397.75978 1282.78594,1420.8771 1285.81059,1431.14049 C1295.77488,1464.95456 1295.19978,1497.0689 1295.19978,1531.81228 C1310.20756,1531.81228 1329.92438,1525.25411 1344.39797,1521.2985 C1364.36263,1515.84058 1385.682,1510.23098 1405.02584,1503.10463 C1423.27003,1496.38515 1439.33656,1486.57919 1450.87213,1470.79528 C1459.50094,1458.98865 1478.63063,1429.85967 1473.87828,1416.80593 C1468.05275,1400.80052 1440.27019,1389.7956 1425.43325,1388.03568 C1406.18325,1385.75091 1386.45441,1389.61985 1366.75684,1391.24495 C1345.67088,1392.98561 1325.21294,1397.68274 1304.35075,1399.94343 C1284.09013,1402.13671 1256.89709,1408.89953 1237.21397,1403.83163 C1236.70144,1411.93304 1243.47263,1422.8224 1245.83075,1431.07067 C1248.92278,1441.8854 1251.68275,1452.79642 1254.19247,1463.75801 C1256.88025,1475.49242 1273.51706,1517.67754 1258.38656,1526.1112 C1240.62603,1536.01105 1232.14881,1493.61888 1229.93747,1483.28566 C1224.66297,1458.64677 1220.12959,1434.02955 1225.65194,1409.26066 C1202.98266,1405.17263 1175.64284,1411.24448 1152.26372,1412.85513 C1160.97434,1443.55142 1166.59294,1475.69947 1174.24722,1506.76652 M197.851126,1520.11158 C205.734001,1523.61938 216.566938,1521.73668 225.135594,1522.41079 C238.526376,1523.46289 252.054313,1525.88489 265.534126,1525.45394 C286.102751,1524.79908 307.665157,1522.19652 328.250626,1519.84193 C316.508126,1498.65307 309.383219,1478.59094 307.917813,1454.30596 C307.390844,1445.5834 302.763626,1391.48089 318.851813,1393.79454 C326.614376,1394.91165 324.966094,1441.10776 326.472407,1449.61845 C328.662094,1461.96438 331.487032,1474.60403 334.925563,1486.68994 C337.420844,1495.45584 345.910094,1508.58422 343.734844,1518.06516 C354.113001,1516.38228 364.493563,1514.6994 374.874126,1513.01652 C366.803563,1496.91722 360.908251,1482.48876 357.886001,1464.53083 C356.425407,1455.86364 357.356626,1445.07781 354.524469,1436.84639 C352.739032,1431.65812 348.667657,1426.77801 348.123844,1422.42756 C347.495813,1417.40781 352.991688,1405.07392 350.958407,1400.61514 C348.961219,1396.23099 335.055501,1392.17667 330.182844,1389.75949 C316.753563,1383.1026 308.882719,1381.41732 293.831626,1385.24533 C264.800219,1392.62688 219.059813,1397.86571 197.408376,1417.77617 C175.959063,1437.50124 168.153188,1504.03635 197.851126,1520.11158 M1465.74756,558.556944 C1473.78444,557.649297 1481.7395,557.088338 1489.81728,556.671831 C1478.01463,540.054907 1467.29478,522.686826 1457.50856,504.808344 C1452.71291,496.04967 1448.18434,487.151357 1443.84828,478.156743 C1438.86975,467.835567 1439.00691,461.096829 1428.19322,459.045594 C1413.21913,456.20709 1393.19191,461.879283 1377.78709,461.234059 C1365.88578,460.733288 1339.16197,449.528541 1329.57547,453.590081 C1338.31738,471.516714 1331.30075,499.408205 1331.64244,518.704735 C1331.98413,537.895332 1329.60194,556.445521 1326.22597,575.368881 C1346.64781,575.368881 1372.20941,568.314753 1392.82375,565.163267 C1416.82369,561.494158 1441.29525,561.303961 1465.74756,558.556944 M1141.56072,1543.69114 C1149.42675,1542.68238 1156.90538,1542.3694 1164.846,1542.3694 C1146.95553,1513.35117 1133.44684,1480.89978 1133.29525,1446.32251 C1133.276,1441.80113 1138.71172,1415.8092 1136.91425,1413.64963 C1133.40594,1409.44122 1118.86497,1412.76365 1114.88022,1413.16089 C1098.5875,1414.79081 1080.47566,1414.66802 1065.13581,1420.54004 C1054.55072,1424.59436 1054.43522,1422.14588 1050.22669,1434.60977 C1047.73622,1441.9817 1045.94597,1450.40091 1045.89784,1458.15323 C1045.79678,1473.81917 1050.78975,1492.1286 1057.24331,1506.23204 C1063.38888,1519.65896 1073.09809,1534.05853 1086.45278,1541.26915 C1101.83834,1549.58242 1123.51866,1544.6349 1141.56072,1543.69114 M1304.22563,465.639879 C1301.13119,454.078814 1302.46906,456.688601 1292.18234,455.2537 C1290.01672,454.952756 1266.45472,455.441489 1265.1,456.823424 C1263.54316,458.417223 1264.1375,481.95586 1263.93297,484.649911 C1263.23516,493.882873 1262.20288,503.09176 1261.19706,512.295831 C1257.11847,549.661039 1249.37756,585.832102 1243.57369,622.889144 C1257.91494,613.986016 1278.63997,626.124894 1290.89019,616.487463 C1300.57053,608.872375 1299.11956,584.503133 1299.84144,573.751006 C1302.25731,537.762917 1303.08266,501.685749 1304.22563,465.639879 M1822.03619,422.005405 C1820.74644,424.078308 1819.45669,426.15121 1818.16694,428.224112 C1823.17434,431.435787 1852.48728,398.762898 1859.00581,392.917361 C1867.68756,385.133745 1881.42725,374.740343 1885.34222,363.359844 C1889.89244,350.135161 1885.41681,329.256869 1884.31475,315.581973 C1883.52791,305.795274 1885.20025,292.260016 1877.22594,285.422568 C1869.88688,279.131635 1851.80631,279.300163 1843.11494,280.645985 C1817.03119,284.685857 1801.34484,306.146776 1788.17784,326.596524 C1801.54697,324.952166 1848.67819,303.423835 1854.15241,315.066757 C1862.10506,331.982218 1812.60609,347.10646 1807.71178,361.949019 C1817.8445,365.529049 1840.19375,351.642288 1833.90622,374.747566 C1832.83303,377.980908 1830.96097,380.658106 1828.29484,382.779159 C1823.66763,384.418702 1822.57278,387.507592 1825.00791,392.048235 C1822.93613,401.098223 1823.35963,412.548541 1822.03619,422.005405 M2122.25438,1241.11722 C2122.39394,1246.60162 2122.89684,1251.84527 2127.37728,1255.72143 C2137.31509,1224.23306 2140.41916,1192.73024 2144.53625,1159.98512 C2148.65575,1127.23278 2153.03994,1093.66669 2153.69203,1060.94325 C2154.42353,1024.269 2150.96094,984.373459 2145.03194,948.1398 C2140.39509,919.812542 2136.80497,884.956003 2119.92513,860.846776 C2129.51163,923.325161 2126.53028,982.560572 2120.06709,1045.25804 C2116.63578,1078.54967 2111.792,1111.5837 2109.57103,1145.01978 C2108.98391,1153.85068 2108.79381,1162.78751 2108.02863,1171.60156 C2107.57625,1176.79465 2102.4365,1186.63432 2102.39078,1189.18391 C2102.13813,1203.33791 2117.28306,1228.11885 2122.25438,1241.11722 M1612.23284,1192.45578 C1620.20475,1210.80855 1629.26909,1228.88686 1634.05031,1248.40488 C1639.09622,1269.01353 1636.92338,1288.20653 1637.73188,1309.08964 C1639.07216,1343.73672 1636.29534,1378.17916 1636.78141,1412.8768 C1637.19528,1442.44876 1636.06194,1471.28161 1636.35791,1500.54059 C1636.54559,1519.04985 1635.53256,1537.48929 1635.59513,1555.98892 C1635.59513,1555.93355 1636.33144,1572.59381 1635.05853,1573.43886 C1629.3485,1577.23316 1623.10909,1571.84506 1621.35975,1566.65678 L1604.43419,1585.81608 C1613.30603,1583.58669 1624.21597,1578.92808 1633.33566,1578.51638 C1636.82713,1577.23075 1640.30416,1577.19464 1643.76916,1578.40804 C1647.20769,1580.48817 1649.75591,1583.38686 1651.41381,1587.10894 C1675.31028,1592.20091 1689.65153,1570.92056 1693.94428,1551.89367 C1703.25406,1510.61138 1699.89975,1469.85393 1699.22359,1428.17679 C1697.76059,1337.63358 1712.13794,1247.63206 1710.77841,1157.08162 C1710.51613,1139.55945 1709.84719,1122.24193 1712.47963,1104.75347 C1717.36431,1072.26356 1724.57825,1102.00405 1725.73566,1117.33775 C1729.21509,1163.41348 1735.27403,1210.95782 1731.94138,1257.31764 C1728.94319,1299.09107 1729.21991,1341.24972 1727.14091,1383.14835 C1724.92956,1427.68084 1721.36831,1471.26957 1723.41844,1515.83817 C1735.37028,1514.30938 1773.81494,1512.02943 1777.81894,1528.82932 C1781.31041,1543.48169 1767.26031,1538.05988 1759.96216,1537.44114 C1748.12822,1536.43719 1736.56859,1539.2155 1723.63259,1536.89462 C1724.58547,1556.60285 1727.30213,1583.03295 1709.70041,1596.33949 C1701.04272,1602.88563 1686.70388,1608.79376 1676.588,1612.65307 C1666.67425,1616.43774 1649.88344,1624.82083 1639.55581,1624.36099 C1632.24803,1624.03597 1629.43272,1620.09962 1621.41509,1620.728 C1609.51859,1621.66453 1599.21984,1629.62631 1586.60869,1623.04888 C1562.69056,1610.57535 1574.4475,1574.29595 1589.54913,1559.75674 C1593.44244,1556.00577 1597.81941,1551.90571 1603.04338,1550.07838 C1605.52663,1549.20925 1615.91922,1550.25895 1617.11753,1548.95646 C1621.54022,1544.15339 1616.01788,1516.05726 1615.42834,1510.72453 C1612.32669,1482.75359 1608.94831,1454.18799 1607.67541,1426.09185 C1606.4795,1399.67619 1605.14884,1373.20757 1604.23928,1346.78227 C1604.04197,1341.02822 1606.59259,1329.19751 1604.18394,1324.16814 C1600.17753,1315.80912 1582.59988,1310.48843 1574.97447,1306.59541 C1581.76972,1373.19312 1591.75325,1444.77446 1567.15656,1508.20864 C1562.27188,1520.80495 1556.79284,1538.78455 1544.40788,1545.79053 C1532.73516,1552.39685 1505.24616,1551.46513 1491.26103,1552.24999 C1476.22197,1553.09263 1461.50053,1549.58002 1453.21341,1535.45009 C1446.69488,1524.33202 1450.60263,1510.99418 1463.98859,1506.14537 C1472.00381,1503.24427 1473.56547,1505.11012 1480.58691,1508.56014 C1482.11006,1511.03511 1483.17844,1513.69545 1483.79684,1516.54118 L1489.19406,1516.54118 C1496.50906,1519.80582 1525.745,1523.45808 1533.78428,1518.24813 C1543.10128,1512.21722 1545.12734,1495.90605 1549.10006,1486.21565 C1556.47763,1468.20957 1558.4315,1453.59814 1561.10966,1434.35217 C1565.30134,1404.22887 1561.05672,1369.30011 1561.13613,1337.91526 C1561.15778,1329.07714 1561.19628,1320.2366 1561.20831,1311.39848 C1561.22516,1298.0486 1562.38738,1298.13046 1554.774,1288.51951 C1543.301,1274.03568 1530.22063,1259.23405 1517.93913,1245.3497 C1524.59241,1285.91454 1521.86853,1328.62452 1519.22647,1369.03769 C1517.74422,1391.74331 1514.67384,1414.86544 1513.26619,1437.27012 C1512.84269,1444.00163 1517.67684,1462.56386 1509.86375,1465.5396 C1501.93516,1468.55867 1492.06713,1454.47449 1488.86441,1449.38974 C1471.38541,1484.2872 1450.52322,1517.94719 1414.46075,1536.00142 C1395.91819,1545.28494 1376.61044,1549.47168 1356.37388,1553.11189 C1337.62678,1556.48728 1320.30178,1562.64099 1301.81938,1565.54449 C1263.56481,1571.55134 1228.33009,1572.4012 1189.83491,1571.08909 C1153.51738,1569.8516 1118.74225,1576.56145 1082.54022,1568.11335 C1068.41072,1564.81741 1054.13444,1558.76242 1044.47575,1547.94047 C1039.20606,1542.03475 1036.87441,1532.73919 1031.559,1527.29571 C1030.36069,1520.25122 1026.21953,1518.0796 1019.13072,1520.77606 C1014.67916,1520.97589 1010.24444,1520.82903 1005.82656,1520.33307 C969.516251,1518.42629 929.163438,1520.55216 893.979251,1510.17561 C880.624563,1506.23686 865.715438,1499.7485 872.378344,1483.02565 C878.201469,1468.4094 894.270407,1472.84892 907.447032,1474.12493 C945.723251,1477.83496 983.400313,1484.60259 1022.22756,1488.00928 C1020.97872,1467.71121 1022.05431,1447.00385 1030.00697,1428.01549 C1003.07141,1424.63288 975.146876,1419.53128 949.517907,1410.92668 C941.603751,1408.26875 933.725688,1405.50728 925.874094,1402.66637 C912.933282,1397.98368 915.623469,1396.77269 908.128001,1404.94392 C898.709938,1415.20972 892.944563,1436.62971 886.120438,1449.03342 C878.442094,1462.99241 871.074157,1476.79249 864.603751,1491.363 C858.479844,1505.15346 853.912782,1523.6242 844.581344,1535.50787 C824.056032,1561.64907 776.650501,1563.91458 748.752438,1553.64637 C735.087344,1548.61459 730.154532,1547.82491 721.872219,1535.57047 C712.798251,1522.14596 710.543594,1521.3611 693.827376,1519.53858 C663.640969,1516.24746 635.150969,1508.66608 606.872719,1498.19804 C576.996719,1487.14015 546.319438,1478.51871 516.530063,1466.57966 C488.644032,1455.40139 461.691626,1444.15813 432.838282,1435.43316 C429.414188,1457.20706 443.601438,1481.76168 443.601438,1504.2097 C460.389844,1502.52923 476.044907,1501.0558 492.686532,1498.38342 C498.620344,1497.43003 536.006251,1489.0373 539.654126,1493.98964 C554.859219,1514.63681 485.674719,1524.34887 474.861032,1527.07663 C440.208626,1535.82567 404.872844,1543.95597 370.001469,1550.71879 C334.408219,1557.62124 299.710094,1564.4948 263.577844,1565.73469 C202.437438,1567.83167 118.105594,1564.29738 121.024376,1483.92607 C122.169751,1452.43288 135.137032,1418.25527 159.950282,1397.71645 C175.388782,1384.93716 194.641188,1377.91192 213.515813,1372.12898 C220.489126,1369.99108 257.225344,1364.99781 258.341844,1362.24839 C247.990157,1354.82591 230.297001,1352.89023 218.015501,1347.16989 C206.306688,1341.71438 193.950594,1339.6824 181.965063,1334.18355 C158.015657,1323.19789 134.884376,1309.76857 112.739657,1296.18516 C95.1283132,1285.38007 77.3220632,1273.45064 61.1087507,1260.60635 C48.2256882,1250.40315 35.8792194,1240.58997 25.5804694,1228.92778 C20.1904694,1222.82464 10.6496882,1217.41969 6.33287568,1212.164 C-8.82649932,1193.7053 7.16062568,1156.97568 13.6165944,1135.48587 C23.0466882,1104.07454 35.6313757,1070.6505 54.1907819,1043.44034 C71.2583132,1018.41625 90.2869382,1001.55857 120.901657,995.696176 C149.158251,990.286407 177.571251,988.57223 206.470313,987.053064 C201.614501,968.570287 194.778344,955.52617 196.513251,935.254581 C198.149501,916.133803 207.798563,897.135809 215.371032,879.721985 C229.450001,847.352447 242.732501,815.669062 261.987313,785.865974 C272.570001,769.487398 284.456876,753.939426 296.009282,738.244594 C297.871719,735.714257 309.450594,724.138747 309.007844,720.878921 C308.567501,717.638356 296.940501,707.772207 295.159876,705.511516 C283.203219,690.324678 274.937751,673.972584 288.978219,657.7192 C296.298032,649.244616 317.819532,632.131736 328.178438,642.898309 C339.379532,620.252874 358.971219,604.813243 374.224438,585.548011 C393.241032,561.525456 411.398594,537.136954 429.200032,511.975627 C446.924469,486.92264 461.402876,460.008615 484.897501,439.818883 C511.079907,417.320309 535.727126,419.265611 567.884251,428.883782 C569.720219,416.472851 572.273251,418.124431 584.270813,413.981034 C593.352001,410.843994 602.178126,407.121918 611.107719,403.580409 C620.597969,399.81259 630.203719,397.674684 639.905719,394.713395 C652.829688,390.769825 654.771532,392.057865 656.872188,375.265189 C659.413188,354.97434 650.733844,333.520644 645.136907,314.407088 C642.374532,304.976706 640.454344,293.237482 634.239001,286.893582 C628.615594,281.156386 618.646501,278.544192 612.496126,272.200292 C559.505688,217.546452 558.670719,100.852403 615.116532,50.0578689 C626.086626,40.1844978 635.134126,26.902033 648.789594,20.2355213 C663.782938,12.9141554 683.559907,6.99398481 700.074001,3.54396267 C734.112813,-3.56313108 772.287969,-1.30725478 799.194657,22.6334431 C812.465126,34.4400786 820.557344,53.206947 825.081094,69.9707322 C829.402719,85.9833611 828.476313,113.049062 812.094563,88.3018338 C801.764532,72.6936736 792.789219,56.7749392 775.303001,49.0539197 C759.676813,42.156283 740.595251,38.4317999 723.571032,39.8955916 C683.449219,43.3432062 650.935969,55.1305812 623.163032,84.8421814 C592.454469,117.69323 590.892813,170.141752 597.512407,211.915188 C603.345157,199.559631 607.296219,179.995862 623.649094,177.636461 C637.278094,175.669491 658.763501,193.080908 651.448501,208.070327 C618.259094,199.605374 608.552282,249.822095 637.251626,252.845981 C645.940594,253.760851 656.944376,238.285106 664.945157,241.889211 C679.907219,248.625542 659.855938,271.839159 655.902469,279.483137 C653.801813,280.775993 651.701157,282.068848 649.600501,283.364111 C651.669876,288.1744 653.758501,292.977467 655.868782,297.770903 C658.426626,303.883678 660.861751,310.010898 663.109188,316.246457 C668.578594,331.421258 674.250126,347.067939 677.546688,362.875926 C680.896188,378.948744 682.635907,397.71802 674.716938,412.818187 C666.013532,429.415851 657.815438,427.374247 651.128469,411.58552 C633.625407,422.624146 616.026094,434.394668 595.450251,438.74993 C617.027094,474.969144 644.958844,506.106015 686.957532,517.498551 C722.553188,527.155243 767.359969,526.801332 801.324188,510.827224 C836.568532,494.251228 855.962907,455.5089 851.766407,416.963991 C850.406876,404.480834 843.144813,361.120821 860.419282,392.486409 C869.892688,409.688369 870.588094,437.591898 868.427282,456.455068 C858.097251,546.685305 766.681407,580.441593 687.855063,558.720658 C647.418032,547.576099 618.278344,517.746529 596.583594,482.632382 C591.523251,474.444297 586.893626,465.993789 582.372282,457.497538 C580.565188,454.10289 578.974657,449.36242 576.563594,446.384278 C567.114251,434.714873 576.397563,441.217671 566.365907,439.756287 C550.840782,437.498003 526.410126,449.393718 514.881782,458.819284 C483.602938,484.389895 466.277938,525.294205 442.270782,557.521697 C416.711594,591.829314 384.251282,622.364297 351.689907,649.738164 C388.522376,687.486174 425.352438,725.229368 462.184907,762.974969 C469.793469,754.548537 484.257438,735.28812 486.281094,724.020776 C487.467376,717.416861 482.142344,695.681481 498.519282,705.355025 C509.576001,711.889122 513.770094,739.848024 517.218251,751.286304 C522.545688,768.952921 531.516188,785.589106 537.315251,803.072749 C548.071188,835.512106 561.322407,867.664964 572.340626,900.335446 C576.821063,913.620318 589.595844,930.107235 577.321563,941.355318 C558.665907,958.444123 553.119501,924.798582 548.179469,911.944662 C541.300001,921.514681 542.192719,937.031355 538.645907,948.192766 C536.480282,955.010954 529.884751,965.623443 530.103719,972.340513 C530.476688,983.826944 540.898157,987.245668 550.289751,993.664202 C567.761532,1005.60566 585.690501,1017.26303 601.694469,1031.17146 C608.371813,1036.97366 614.514969,1042.84327 619.387626,1050.30668 C623.641876,1056.82392 624.922001,1071.51481 629.623813,1076.05063 C635.774188,1081.97803 658.508438,1077.84667 670.513219,1079.13712 C690.559688,1081.29428 710.875657,1088.42786 730.337407,1093.55354 C764.775657,1102.62038 800.195657,1115.67653 836.262938,1120.52053 C871.682938,1125.27785 904.920469,1122.91604 940.222563,1116.57937 C959.506251,1113.11731 980.216844,1108.98113 997.813751,1099.70243 C1018.08159,1089.01771 1036.05388,1071.92409 1054.98625,1059.0148 C1063.45866,1053.23667 1072.12597,1047.77394 1080.79088,1042.29675 C1092.36975,1034.9778 1089.34269,1036.56197 1090.09584,1024.93349 C1090.96931,1011.47287 1096.5855,985.769839 1087.60056,973.78986 C1083.84681,968.789374 1072.33291,965.132303 1066.91163,961.494491 C1059.03116,956.200284 1051.964,950.051396 1043.51806,945.792437 C1034.29731,941.143454 1034.02541,944.824601 1029.74709,933.420026 C1025.85859,923.062737 1023.29353,912.214308 1019.72506,901.748679 C1003.39625,853.879321 999.178094,805.263622 992.411719,755.280433 C989.266751,732.064408 981.554719,700.47251 990.289407,677.855965 C1002.43616,646.401297 1012.60016,690.392089 1015.16281,701.666655 C1026.75853,681.79472 1033.42144,659.693392 1045.48397,640.07425 C1052.51744,628.63597 1055.95838,622.790434 1059.92147,610.256718 C1061.52644,605.181598 1062.16891,600.965974 1065.56172,596.750351 C1072.73956,587.832778 1073.80072,592.91512 1081.2625,592.696033 C1104.74028,592.007473 1127.81622,592.611769 1151.31566,593.699982 C1164.30219,594.30187 1177.29113,594.619667 1190.36909,594.571516 C1196.74084,594.547441 1203.18959,594.236866 1209.55653,594.602814 C1212.98784,594.566701 1216.40231,594.821901 1219.79994,595.370823 C1226.81175,598.645094 1229.4875,595.823443 1227.82959,586.903463 C1233.93425,574.126584 1233.52759,553.739433 1235.68841,539.799706 C1237.86366,525.768493 1239.88009,511.713204 1241.69922,497.629024 C1242.66894,490.100609 1250.82613,461.693901 1246.49728,455.5089 C1242.20694,449.376865 1219.85047,450.751577 1213.23569,449.651326 C1169.25906,442.337183 1128.35281,424.205908 1087.22038,409.351312 C1066.96938,402.039576 1047.74825,392.166205 1028.325,383.195666 C1018.21394,378.525015 1008.65872,368.906844 998.001438,365.911849 C984.552907,362.131993 966.698532,368.174948 953.293313,370.450085 C927.753376,374.786086 903.115782,378.582796 877.200469,379.993622 C868.044688,380.491985 850.628251,383.060843 842.367594,376.765094 C825.774094,364.120631 844.667969,356.727038 855.512938,355.130831 C903.486344,348.071888 951.312969,344.015163 999.652126,341.068319 C1001.91881,340.931089 1010.22038,339.243395 1012.98275,340.114929 C1019.2775,342.103567 1016.73891,344.410002 1020.51191,346.461236 C1027.49966,350.260353 1035.47397,353.057929 1044.341,355.414922 C1069.65716,362.141623 1095.14897,373.428227 1120.54934,382.297649 C1166.25366,398.254904 1220.85869,423.697914 1266.56781,419.224683 C1277.84831,418.122024 1287.12441,416.711198 1298.91744,417.854786 C1312.72931,419.195792 1320.79025,426.283625 1331.40181,428.34449 C1345.61794,431.103545 1365.95316,429.030642 1380.91763,429.560304 C1395.18669,430.06589 1409.46538,430.727967 1423.74166,430.727967 C1411.20509,405.506451 1403.57006,381.825769 1396.52456,354.7384 C1392.68178,339.965661 1386.89956,326.548373 1389.40447,310.990771 C1390.58834,303.647737 1393.52156,296.747693 1396.71947,290.114887 C1401.54641,280.101878 1402.91797,282.196448 1404.63122,271.107263 C1406.98934,255.845791 1403.60856,239.753713 1405.46138,224.446497 C1407.36231,208.737219 1419.22753,194.734896 1420.54856,179.716586 C1421.25359,171.725921 1416.78519,165.203862 1418.12306,156.584826 C1419.31897,148.875844 1423.88122,140.793692 1427.97906,134.302931 C1437.52225,119.178689 1449.14444,110.602989 1465.27113,104.442063 C1478.23359,99.4897283 1494.77897,94.9466775 1507.87859,102.966234 C1521.24291,111.147095 1520.278,127.612344 1526.68103,139.626029 C1540.44959,165.459063 1572.21691,188.54508 1597.54028,201.738465 C1620.80391,213.858082 1645.865,221.514098 1670.80819,229.418092 C1685.98922,234.228381 1701.59856,237.659142 1716.51731,243.155584 C1727.25641,247.113599 1744.76909,256.71251 1755.7055,250.881418 C1765.23666,245.799076 1776.35353,230.289625 1785.78603,223.088637 C1796.8235,214.664612 1811.54253,206.442822 1825.43863,213.781041 C1839.33472,221.116852 1838.19416,248.158477 1849.00303,253.243227 C1852.76881,255.015185 1863.95306,249.824503 1869.088,250.643071 C1877.37994,251.962409 1883.08997,257.097718 1888.06128,263.41995 C1906.62791,287.045258 1912.37884,324.518806 1913.18975,353.642964 C1913.59641,368.189394 1913.24269,386.282148 1904.36363,398.63289 C1894.00713,413.039681 1874.40581,413.395999 1861.11128,423.534201 C1850.47806,431.642836 1842.94409,444.898818 1832.15206,453.539523 C1825.50359,458.865028 1822.93853,454.774597 1820.18578,463.073429 C1818.39313,468.471161 1822.01453,479.001793 1823.08291,484.223774 C1829.69288,516.441636 1842.07303,546.158051 1853.82034,576.849525 C1859.35472,591.311691 1864.04931,605.776263 1866.57588,621.10274 C1868.23138,631.159085 1866.32081,639.951465 1867.12209,649.627417 C1867.68997,656.515424 1870.61838,662.464485 1869.9735,669.528243 C1868.60916,684.486364 1860.49047,697.69901 1855.32666,710.856282 C1849.44097,725.855331 1857.52597,751.830411 1863.45497,767.342269 C1877.66147,804.505243 1897.64056,842.051017 1915.39147,877.757422 C1932.82716,912.833049 1945.79684,950.186219 1966.11041,983.882318 C1985.83925,1016.60577 2009.05234,1048.64788 2031.50025,1079.59696 C2043.98628,1096.81336 2057.23509,1113.18953 2068.55169,1131.24617 C2071.02531,1135.19456 2087.91238,1167.93967 2092.29175,1166.80572 C2086.921,1109.66247 2092.35191,1050.23205 2094.75334,993.127318 C2097.75634,921.644689 2088.66313,856.893576 2068.55891,788.658735 C2063.8595,772.706295 2059.67022,756.383092 2056.36403,740.081556 C2054.04922,728.667352 2047.51384,719.287529 2063.55631,724.278385 C2090.11891,732.538696 2113.49803,782.712081 2127.00431,804.550986 C2157.24847,853.465222 2182.51169,918.695438 2185.90209,976.067404 C2189.22994,1032.38005 2186.35928,1086.26106 2179.32581,1141.7431 C2175.85359,1169.11456 2170.24703,1199.62788 2161.67597,1225.80519 C2157.26772,1239.27063 2151.97397,1253.21758 2146.10272,1266.11965 C2143.62428,1271.56553 2138.18375,1277.71923 2137.24291,1283.702 C2135.75584,1293.19498 2142.7075,1306.00316 2144.44722,1315.37816 C2150.13078,1346.05279 2151.43738,1377.8421 2149.50034,1408.97175 C2148.46325,1425.66813 2146.15806,1440.59976 2140.71272,1456.30182 C2133.7755,1476.30617 2136.99988,1491.5869 2139.88738,1512.20759 C2142.977,1534.27521 2145.93669,1584.43656 2123.00272,1596.97509 C2121.38331,1596.80897 2119.75909,1596.64044 2118.13728,1596.47432 C2114.03944,1591.74829 2110.40119,1592.02757 2107.22494,1597.31696 C2101.29353,1599.25263 2095.49928,1604.23867 2089.25266,1606.3838 C2074.755,1611.36503 2059.11197,1611.66838 2043.99109,1613.85684 C2014.39663,1618.14469 1984.90081,1625.70681 1955.82369,1626.62168 C1921.39506,1627.70508 1885.47938,1626.35444 1851.81594,1620.3163 C1844.85706,1619.06678 1836.72394,1615.76603 1829.76506,1615.13284 C1820.32053,1614.27335 1813.69131,1620.55706 1803.94119,1619.07882 C1788.82994,1616.78924 1779.28194,1600.78865 1778.29297,1587.67712 C1775.14559,1545.89646 1798.31297,1526.73716 1836.17291,1519.31709 C1811.70856,1484.27517 1783.54341,1455.52659 1777.0345,1410.52222 C1770.62666,1366.24252 1784.52275,1314.99536 1809.76191,1279.52008 C1833.98803,1245.46526 1875.32741,1222.69704 1917.95894,1231.33774 C1937.74553,1235.34873 2031.09119,1262.92242 2013.04672,1294.20134 C2009.04513,1279.89325 1984.43641,1282.66194 1972.54713,1280.59626 C1952.82069,1277.16791 1933.09906,1271.99889 1913.08628,1273.06303 C1873.72484,1275.1576 1835.68203,1298.45307 1816.62213,1333.71649 C1794.64825,1374.37282 1804.67509,1414.94489 1831.12941,1449.65697 C1855.31703,1481.39573 1880.253,1514.74033 1912.78069,1537.65782 C1906.49316,1547.6612 1908.76706,1550.80064 1896.27622,1549.00943 C1887.70034,1547.77917 1879.67791,1541.08858 1871.01059,1539.42255 C1853.03831,1535.97012 1824.75044,1550.70434 1813.64559,1565.43856 C1807.08375,1574.14427 1807.32678,1578.44657 1819.42541,1583.80818 C1828.35259,1587.76379 1842.40991,1585.71978 1851.99881,1586.57687 C1875.85197,1588.70755 1900.16472,1589.42019 1924.09488,1589.33592 C1965.51847,1589.18425 2004.04253,1582.53459 2045.03781,1578.22989 C2063.20741,1576.3207 2082.20956,1578.5212 2099.98694,1571.83061 C2124.06628,1562.77099 2118.16616,1536.16032 2115.04525,1514.6031 C2111.95322,1493.25052 2115.10059,1476.68897 2118.45491,1455.54344 C2119.90828,1446.35863 2122.62253,1435.75577 2120.69994,1426.51077 C2118.41881,1415.52752 2114.32578,1410.66667 2114.84794,1398.41704 C2116.70556,1354.8235 2111.23856,1308.91389 2099.69097,1266.83951 C2074.61063,1175.45605 2013.36675,1103.33301 1962.28928,1025.66298 C1947.86381,1003.72536 1932.69722,982.938558 1921.21219,959.180834 C1910.33353,936.672629 1902.84047,912.866754 1892.03641,890.295954 C1868.22416,840.548705 1845.63669,789.303959 1831.72134,735.793706 C1815.95078,742.002783 1798.96025,751.137036 1782.05394,753.327908 C1762.90019,755.810094 1742.42541,740.334349 1730.34603,726.705197 C1702.79688,695.628515 1696.51416,653.481908 1698.57391,613.434687 C1699.18269,601.5799 1699.919,589.631219 1702.04131,577.935331 C1703.42009,570.344319 1712.34488,551.969882 1710.31159,544.896494 C1708.13394,537.32715 1695.453,530.74731 1691.55969,523.250193 C1686.598,513.706657 1686.02772,501.423326 1686.29241,490.895101 C1686.53784,481.284153 1691.84122,434.22614 1707.07038,453.460073 C1715.79303,464.479439 1703.04231,506.024158 1711.89491,511.679498 C1719.862,516.766655 1730.8345,510.550356 1739.09275,522.18124 C1748.01513,534.751069 1743.23631,550.243667 1740.10819,563.629657 C1733.64259,591.311691 1727.57163,621.203857 1727.73766,649.63464 C1727.88444,675.523047 1732.50925,708.25131 1760.78269,718.721754 C1775.06619,724.011146 1785.90875,720.373335 1796.56122,710.521632 C1799.00356,707.709611 1801.49403,704.943334 1804.03263,702.220392 C1806.36428,698.211818 1809.93997,697.713455 1814.76209,700.72771 C1818.33056,697.891614 1823.6195,678.29414 1825.40494,673.914803 C1847.30181,620.226391 1812.77934,558.583428 1800.12247,505.906188 C1792.38156,473.685918 1785.63203,441.366939 1801.30153,410.270997 C1803.83772,405.236805 1810.82547,400.862283 1806.63378,393.639627 C1805.52931,391.740068 1794.98031,390.849274 1792.48263,388.641549 C1784.34469,381.455006 1786.04109,368.056978 1786.04109,358.462883 C1767.22181,364.269899 1761.79813,349.619944 1764.24528,331.664421 C1750.20722,333.891407 1740.45709,338.18648 1735.25959,321.935503 C1730.65163,307.523896 1737.6105,292.828198 1742.22809,279.398873 C1677.27619,272.433825 1607.12678,263.509029 1555.36353,218.665964 C1542.60078,207.608077 1531.98681,193.690019 1523.14144,179.271189 C1521.54369,176.66381 1514.01694,158.308633 1511.52166,157.350428 C1504.108,154.502293 1497.88784,169.015017 1491.29953,172.609493 C1485.44272,175.801907 1477.11709,177.561827 1470.61059,179.507129 C1464.48669,181.339276 1442.90022,181.705224 1439.07188,184.885601 C1429.49981,192.840153 1430.25538,238.826805 1430.18078,249.499484 C1429.92091,286.257989 1438.12141,322.888894 1453.288,356.356275 C1467.5715,387.875947 1489.42747,431.221515 1517.99688,451.849421 C1525.21563,457.064179 1531.71491,459.76786 1540.86347,459.336908 C1547.39884,459.031149 1553.87888,454.451985 1560.68375,456.833054 C1577.90528,462.861564 1571.74528,474.839136 1558.50609,480.501698 C1520.66541,496.694894 1488.77297,461.096829 1466.89053,436.226816 C1460.48269,465.733774 1490.19506,500.650502 1505.9175,524.726023 C1515.93472,540.069352 1525.83884,555.427127 1535.37,571.083438 C1542.29038,582.454306 1555.89291,603.452976 1531.73175,594.670226 C1520.07588,655.875015 1488.08719,709.40212 1471.75116,768.880694 C1454.97959,829.936215 1440.36163,899.651701 1440.36163,963.235151 C1453.13159,954.341654 1459.57072,913.810515 1476.74653,944.831823 C1478.60416,948.187951 1478.02184,953.742174 1480.47141,956.674572 C1483.85941,960.731297 1487.93559,959.604563 1493.12588,962.496033 C1501.35525,967.077605 1506.66344,976.211857 1499.30753,984.132704 C1508.78334,981.927386 1518.70672,983.051713 1520.74963,994.263683 C1521.895,1000.55702 1512.68388,1029.71007 1505.81163,1032.09114 C1484.86041,1039.3475 1461.63047,997.499433 1455.95653,984.188077 C1442.86894,997.330904 1427.78897,1007.44022 1415.72644,986.18153 C1406.73669,970.339838 1411.95344,946.372657 1413.22153,929.127361 C1415.77697,894.386385 1419.11203,860.500089 1424.12184,826.093762 C1433.51584,761.576181 1457.35938,704.196993 1486.64584,646.124429 C1494.70919,630.140691 1503.64359,613.778967 1510.8455,597.424465 C1521.70731,572.749464 1504.71197,578.570925 1488.09922,582.153362 C1455.55228,589.176192 1421.47256,594.624482 1388.58634,597.111484 C1371.42016,598.409154 1349.43666,599.181978 1332.94181,604.146351 C1321.34369,607.637301 1323.33366,605.227342 1318.67516,617.655125 C1316.59134,623.216571 1314.24044,629.131926 1310.56609,633.894064 C1291.82622,658.19108 1243.28734,654.124724 1216.48172,652.314245 C1218.10594,642.067704 1219.71091,631.816347 1221.39528,621.579435 C1200.75928,626.430653 1176.24922,629.808448 1154.99722,629.56047 C1143.5555,629.430463 1131.38709,627.684987 1119.97425,626.734004 C1111.55959,626.033407 1095.60616,620.065085 1087.68719,622.385965 C1078.50494,625.080016 1064.61847,658.297012 1059.36803,669.008211 C1049.50963,689.123309 1031.89347,711.470207 1025.67331,732.649443 C1020.15819,751.425942 1031.41222,783.821963 1034.947,802.511789 C1040.05547,829.529339 1044.71156,856.597447 1053.273,882.794021 C1059.48113,901.7872 1066.63491,927.969329 1085.69481,937.443046 C1104.68494,946.885465 1118.33319,952.196525 1138.88738,950.275299 C1175.08219,946.89028 1213.58941,952.449318 1249.32222,959.489 C1286.11859,966.73814 1319.81331,970.00278 1354.75447,982.921705 C1434.00431,1012.22884 1484.47059,1102.50722 1454.58978,1185.21145 C1437.40434,1232.77987 1409.09241,1268.13236 1367.56053,1297.55987 C1346.39756,1312.55651 1321.39422,1324.72187 1298.19316,1336.27812 C1287.54069,1341.58437 1277.06869,1348.02216 1266.21169,1352.73615 C1258.27828,1356.18136 1244.64206,1364.11183 1236.02288,1364.98096 C1245.59013,1369.53364 1254.05531,1365.26987 1264.00997,1363.85663 C1278.09375,1361.85114 1292.47591,1361.4226 1306.61022,1359.67472 C1328.61297,1356.94937 1350.28847,1354.89332 1372.29844,1352.16075 C1391.08403,1349.82783 1412.28069,1348.99963 1430.95078,1351.68646 C1439.96941,1352.98413 1453.54306,1355.54576 1461.57513,1359.8938 C1467.89153,1363.31253 1473.68338,1371.19004 1480.47622,1375.09268 C1487.94763,1344.39398 1484.45375,1306.55208 1484.80266,1275.00592 C1485.089,1249.25475 1486.23678,1224.07175 1488.65988,1198.44095 C1491.37172,1169.77423 1473.84459,1137.17357 1467.37178,1109.09669 C1461.31525,1082.81826 1445.17894,1049.5146 1451.11756,1022.08535 C1458.60822,987.510499 1478.21194,1049.62294 1480.90694,1058.50439 C1489.34566,1086.28995 1499.1415,1113.41344 1508.49219,1140.87157 C1519.61628,1173.53483 1530.82459,1205.18451 1547.02588,1235.79172 C1560.50809,1261.26121 1576.00194,1291.13893 1603.70991,1303.5619 C1601.42397,1266.1052 1598.88538,1231.42442 1583.32175,1196.89049 C1568.56422,1164.14297 1546.05856,1135.02122 1536.21941,1099.93114 C1531.33231,1082.49324 1530.61525,1064.66051 1530.37222,1046.64961 C1530.20859,1034.5324 1530.76444,1018.2429 1543.75338,1031.30869 C1554.05453,1041.66838 1556.05413,1074.71444 1560.56344,1088.6638 C1562.73628,1095.37606 1565.74409,1101.53939 1568.14313,1108.06867 C1569.22353,1111.00829 1576.49763,1125.33563 1576.49763,1127.25686 C1583.99791,1149.89989 1600.57938,1171.61841 1612.23284,1192.45578" id="Fill-1"></path>
                <path d="M816.822363,366.975024 C817.537019,375.745737 822.621426,398.477843 816.110113,405.418816 C807.478894,414.627703 803.388269,402.782547 799.656176,393.443652 C791.855113,373.928035 787.978644,336.13669 803.393082,319.873675 C819.486082,302.890803 851.282269,302.433368 868.455676,285.520315 C875.349582,278.726203 874.687863,280.144251 874.086301,269.522131 C873.747019,263.524919 869.870551,255.555922 867.996082,250.165412 C863.123426,236.158274 857.779144,222.319665 852.682707,208.394384 C843.777176,212.455924 830.961488,224.984825 822.188301,214.483083 C814.079238,204.773425 827.571082,188.864321 836.967488,186.025817 C832.061144,175.295358 808.949113,177.279181 804.545676,161.516937 C800.719738,147.817966 811.711488,153.261441 814.115332,147.866117 C816.945082,141.517402 811.150832,132.934479 814.132176,127.084127 C824.481457,106.77161 835.942426,144.119966 841.096613,150.786478 C850.685519,163.185371 867.389707,165.893867 868.859926,184.648698 C869.767082,196.195317 868.898426,201.564159 873.653176,212.903729 C878.030144,223.342875 883.232457,233.353476 886.904394,244.095974 C892.431551,260.281946 900.954488,289.738346 890.152832,305.41151 C881.042769,318.631379 858.922113,328.709392 844.537551,334.362324 C837.333238,337.191198 827.344894,338.915005 821.516957,344.425892 C813.910801,351.614842 816.278551,356.0327 816.822363,366.975024" id="Fill-8"></path>
                <path d="M1564.20145,856.4229 C1562.56039,853.837189 1560.91692,851.251478 1559.27585,848.663359 C1547.89189,860.82872 1535.28554,865.829206 1523.78126,850.375129 C1511.93289,834.466025 1516.38204,810.609591 1520.99001,793.234288 C1523.36017,784.292639 1535.35051,749.038854 1543.03126,775.895097 C1544.72526,781.822491 1539.05854,795.020691 1538.03348,800.822892 C1536.01704,812.205798 1534.42892,823.124047 1535.8486,834.71641 C1549.19367,822.765321 1555.72904,792.466278 1569.27382,823.928169 C1574.18498,835.337558 1574.72398,854.126095 1587.79954,836.796535 C1594.78007,827.541905 1595.22764,810.457915 1598.49532,799.554112 C1620.78442,804.88684 1616.72267,837.865488 1609.28254,853.933491 C1597.43417,879.518547 1581.3147,871.279903 1564.20145,856.4229" id="Fill-14"></path>
                <path d="M1642.24239,282.484873 C1650.17099,295.714372 1635.17283,319.907863 1632.45617,333.491272 C1645.73627,331.952846 1678.60324,299.901105 1687.85286,305.185682 C1707.11008,316.18338 1666.43242,354.540499 1658.61692,360.162134 C1596.15308,405.08224 1607.41433,275.144247 1642.24239,282.484873" id="Fill-16"></path>
                <path d="M1563.91366,429.809967 C1587.24947,423.309576 1618.71841,465.215428 1603.58069,485.968527 C1592.72129,500.854421 1579.30404,492.341317 1575.9016,479.237011 C1574.1691,472.553647 1575.70669,464.500385 1573.4376,457.046604 C1570.64635,447.869015 1566.90463,438.929774 1563.91366,429.809967" id="Fill-28"></path>
                <path d="M846.149738,249.177835 C863.898238,264.10225 827.633644,300.487585 809.454426,271.996613 C804.454238,264.160031 803.544676,257.007194 810.958332,254.113316 C814.702457,252.65434 823.530988,257.433331 828.815113,256.58828 C834.606957,255.661372 840.899301,251.585387 846.149738,249.177835" id="Fill-30"></path>
                <path d="M785.167423,189.499193 C778.280735,180.904232 758.927266,128.034388 782.91036,139.809725 C794.953641,145.722673 804.905891,190.919648 785.167423,189.499193" id="Fill-32"></path>
                <path d="M1577.01641,1326.61493 C1576.33544,1319.94361 1575.65448,1313.26987 1574.97351,1306.59614 C1583.82851,1311.11511 1601.59626,1315.57631 1604.67866,1325.69043 C1610.4681,1344.69083 1583.58066,1329.49196 1577.01641,1326.61493" id="Fill-36"></path>
                <path d="M1834.07033,521.856702 C1828.79583,514.72794 1812.39242,455.263811 1826.62298,456.624078 C1829.11586,478.195745 1829.62839,500.598017 1834.07033,521.856702" id="Fill-38"></path>
                <path d="M1612.2326,1192.45506 C1600.57914,1171.6201 1583.99767,1149.90157 1576.49739,1127.25614 C1594.07745,1141.49922 1607.81232,1170.59689 1612.2326,1192.45506" id="Fill-40"></path>
                <path d="M2090.16222,1144.15354 C2090.87206,1151.70603 2091.58191,1159.25612 2092.29175,1166.8062 C2081.73313,1169.53396 2089.51494,1146.64536 2090.16222,1144.15354" id="Fill-42"></path>
                <path d="M1576.52049,1127.29129 C1571.5227,1121.84781 1569.38355,1115.15482 1568.14433,1108.06939 C1570.93558,1114.47348 1573.72683,1120.88238 1576.52049,1127.29129" id="Fill-44"></path>
                <path d="M1636.96115,1469.16489 C1637.14644,1462.44541 1637.33172,1455.72593 1637.517,1449.02331 C1637.33172,1455.74519 1637.14644,1462.45504 1636.96115,1469.16489" id="Fill-46"></path>
                <path d="M847.425773,378.888074 C851.896585,379.444218 856.369804,380.000363 860.843023,380.556507 C857.313054,382.210495 848.997054,384.408591 847.425773,378.888074" id="Fill-48"></path>
                <path d="M1739.19742,1539.68811 C1743.85111,1538.9851 1748.51924,1537.38408 1753.09111,1539.96016 C1748.45186,1539.87108 1743.82464,1539.77959 1739.19742,1539.68811" id="Fill-50"></path>
                <path d="M1606.24634,1387.88882 C1606.3089,1392.86523 1606.37146,1397.84164 1606.4268,1402.8012 C1606.36184,1397.81997 1606.30409,1392.8556 1606.24634,1387.88882" id="Fill-52"></path>
                <path d="M1702.38709,1310.44991 C1702.09353,1315.75856 1701.79997,1321.0648 1701.50881,1326.36142 C1701.80237,1321.05036 1702.09353,1315.75134 1702.38709,1310.44991" id="Fill-54"></path>
                <path d="M1639.0878,1331.22082 C1638.83514,1326.60314 1638.58249,1321.98545 1638.33224,1317.3774 C1638.58489,1321.99749 1638.83755,1326.61036 1639.0878,1331.22082" id="Fill-56"></path>
                <path d="M1777.34972,1371.95997 C1777.09947,1376.07207 1776.85163,1380.18658 1776.60138,1384.28905 C1776.85163,1380.17213 1777.09947,1376.06485 1777.34972,1371.95997" id="Fill-58"></path>
                <path d="M941.948566,1475.86318 C937.42241,1478.14554 932.89866,1478.37185 928.386941,1475.83429 C932.910691,1475.84392 937.429629,1475.85355 941.948566,1475.86318" id="Fill-60"></path>
                <path d="M1405.21859,233.067941 C1405.28115,237.134296 1405.34612,241.200651 1405.40868,245.250154 C1405.3413,241.178984 1405.27874,237.124666 1405.21859,233.067941" id="Fill-62"></path>
                <path d="M955.747929,344.015163 C951.111085,344.366666 946.474241,344.715761 941.84221,345.067263 C946.476648,344.715761 951.113491,344.366666 955.747929,344.015163" id="Fill-64"></path>
                <path d="M1913.22512,359.664252 C1913.20106,355.650862 1913.177,351.637473 1913.15775,347.631306 C1915.28487,351.637473 1915.32578,355.646047 1913.22512,359.664252" id="Fill-66"></path>
                <path d="M816.822363,366.975024 C816.610613,362.71125 816.398863,358.449882 816.189519,354.19333 C816.403676,358.459513 816.613019,362.716065 816.822363,366.975024" id="Fill-68"></path>
                <g id="Group-72" transform="translate(1953.875348, 1624.554318)">
                    <path d="M1.9481,2.06784648 C5.07863125,2.08951445 8.21156875,2.11118242 11.313225,2.13285039 C8.1706625,2.11118242 5.05938125,2.08951445 1.9481,2.06784648" id="Fill-70"></path>
                </g>
                <path d="M723.633113,0.717978037 C719.516019,1.06948064 715.398926,1.42098325 711.281832,1.7700783 C715.398926,1.42098325 719.516019,1.06948064 723.633113,0.717978037" id="Fill-73"></path>
                <path d="M1129.70657,1573.57488 C1132.36066,1573.57248 1135.01476,1573.57007 1137.63757,1573.57248 C1134.97385,1573.57488 1132.34141,1573.57488 1129.70657,1573.57488" id="Fill-75"></path>
                <path d="M1540.86275,459.337871 C1536.83709,458.93581 1532.81144,458.531341 1528.78819,458.126872 C1532.81384,458.531341 1536.8395,458.93581 1540.86275,459.337871" id="Fill-77"></path>
                <path d="M1723.84819,1566.54604 C1724.09604,1563.22602 1724.34148,1559.90601 1724.58932,1556.60044 C1724.34148,1559.92527 1724.09604,1563.23565 1723.84819,1566.54604" id="Fill-79"></path>
                <path d="M1288.08426,416.829409 C1284.12117,416.793296 1280.15807,416.75959 1276.19739,416.725884 C1280.17973,414.41945 1284.1356,415.079119 1288.08426,416.829409" id="Fill-81"></path>
                <path d="M759.27906,1.82761879 C755.284685,1.70001853 751.061716,3.78255108 747.380154,0.614212543 C751.34806,1.01868129 755.31356,1.42315004 759.27906,1.82761879" id="Fill-83"></path>
                <path d="M651.390269,393.661535 C647.561926,394.013038 643.731176,394.364541 639.905238,394.713636 C643.735988,394.362133 647.561926,394.013038 651.390269,393.661535" id="Fill-85"></path>
                <path d="M892.595657,1472.42231 C888.562782,1472.84363 884.527501,1473.26495 880.499438,1473.68627 C884.532313,1473.26495 888.565188,1472.84363 892.595657,1472.42231" id="Fill-87"></path>
                <path d="M992.988498,341.585221 C989.056685,341.669485 985.122466,341.75375 981.19306,341.838014 C985.093591,340.275513 988.996529,338.802091 992.988498,341.585221" id="Fill-89"></path>
                <path d="M1636.81558,1417.99261 C1636.79392,1414.58111 1636.76986,1411.16961 1636.7482,1407.76533 C1636.76986,1411.17924 1636.79392,1414.58592 1636.81558,1417.99261" id="Fill-91"></path>
                <path d="M2091.60741,1128.70187 C2091.18391,1132.82601 2090.75801,1136.94774 2090.33691,1141.07188 C2090.75801,1136.95015 2091.18391,1132.82601 2091.60741,1128.70187" id="Fill-93"></path>
                <path d="M1581.28149,1394.49659 C1580.98793,1390.98637 1580.69677,1387.47616 1580.40562,1383.97558 C1580.69677,1387.4882 1580.99034,1390.9936 1581.28149,1394.49659" id="Fill-95"></path>
                <path d="M258.342085,1362.24863 C257.622616,1365.74921 255.071991,1366.43777 250.69021,1364.31431 L258.342085,1362.24863 Z" id="Fill-97"></path>
                <path d="M1728.10148,1363.80511 C1727.86567,1360.75474 1727.63467,1357.70437 1727.40367,1354.66123 C1727.63948,1357.714 1727.86808,1360.75956 1728.10148,1363.80511" id="Fill-99"></path>
                <path d="M904.050129,348.933551 C900.741535,349.383764 897.430535,349.831568 894.121941,350.281781 C897.432941,349.831568 900.741535,349.383764 904.050129,348.933551" id="Fill-101"></path>
                <path d="M1604.25468,1337.80644 C1604.24987,1340.80143 1604.24506,1343.79643 1604.23784,1346.78179 C1604.24506,1343.78198 1604.24987,1340.79421 1604.25468,1337.80644" id="Fill-103"></path>
                <path d="M1404.624,262.622568 C1404.62641,265.456257 1404.62881,268.287538 1404.63122,271.106782 C1404.62881,268.270686 1404.62641,265.446627 1404.624,262.622568" id="Fill-105"></path>
                <path d="M197.493798,926.306432 C197.166548,929.291797 196.839298,932.279569 196.514454,935.252896 C196.841704,932.262716 197.166548,929.284574 197.493798,926.306432" id="Fill-107"></path>
                <path d="M2180.08643,1131.55386 C2179.91077,1128.74184 2179.73512,1125.92982 2179.55946,1123.13224 C2179.73512,1125.94908 2179.91077,1128.75147 2180.08643,1131.55386" id="Fill-109"></path>
                <path d="M470.761744,1502.68259 C467.342463,1502.62721 463.923182,1502.57425 460.503901,1502.51887 C463.964088,1500.14743 467.373744,1500.65543 470.761744,1502.68259" id="Fill-111"></path>
                <path d="M868.944385,188.871303 C868.889041,186.05206 868.833698,183.232816 868.778354,180.423203 C870.534916,183.213556 871.097979,186.015946 868.944385,188.871303" id="Fill-113"></path>
                <path d="M595.932704,153.11434 C596.170923,150.333617 596.409141,147.552894 596.644954,144.789025 C596.406735,147.574562 596.170923,150.343247 595.932704,153.11434" id="Fill-115"></path>
                <path d="M1726.08769,1126.52833 C1725.96979,1123.46352 1725.84947,1120.39871 1725.73638,1117.33871 C1725.85429,1120.40593 1725.96979,1123.46834 1726.08769,1126.52833" id="Fill-117"></path>
                <path d="M1704.07652,1284.86028 C1703.9923,1287.75175 1703.90808,1290.64081 1703.81905,1293.51542 C1703.90086,1290.61914 1703.98989,1287.73971 1704.07652,1284.86028" id="Fill-119"></path>
                <path d="M1310.51364,1563.61653 C1312.65761,1563.61171 1314.79917,1563.6069 1316.91667,1563.6093 C1314.76789,1563.61653 1312.64076,1563.61653 1310.51364,1563.61653" id="Fill-121"></path>
                <path d="M267.900191,1565.08128 C270.039348,1565.13906 272.176098,1565.19684 274.288785,1565.25703 C272.14241,1565.19925 270.020098,1565.14147 267.900191,1565.08128" id="Fill-123"></path>
                <path d="M1561.20783,1311.39848 C1540.35286,1295.2751 1522.17124,1271.16347 1517.93864,1245.3497 C1526.90674,1255.4879 1534.44552,1266.80099 1543.41602,1276.93197 C1546.98208,1280.95498 1551.35424,1284.42186 1554.77593,1288.51951 C1562.5818,1297.86804 1561.20783,1298.28214 1561.20783,1311.39848" id="Fill-129"></path>
                <path d="M1487.94402,1202.41101 C1477.93402,1179.34184 1469.24505,1151.35886 1470.98958,1125.90622 C1477.89552,1149.01391 1493.91633,1178.04176 1487.94402,1202.41101" id="Fill-131"></path>
                <path d="M1521.52588,1338.06742 C1521.35744,1344.76523 1521.1866,1351.46304 1521.02538,1358.14399 C1521.19863,1351.43896 1521.36226,1344.75319 1521.52588,1338.06742" id="Fill-133"></path>
                <path d="M197.852088,1520.11134 C204.693057,1520.51821 211.536432,1520.92509 218.377401,1521.33197 C211.505151,1521.42345 204.541463,1523.08948 197.852088,1520.11134" id="Fill-135"></path>
                <path d="M1521.49051,1315.94201 C1521.51457,1321.65273 1521.53864,1327.36585 1521.5627,1333.06212 C1521.53864,1327.34659 1521.51457,1321.6455 1521.49051,1315.94201" id="Fill-137"></path>
                <path d="M1240.40466,653.754684 C1236.55225,653.554857 1232.69984,653.352622 1228.87872,653.152796 C1232.74075,653.352622 1236.57391,653.554857 1240.40466,653.754684" id="Fill-139"></path>
                <path d="M1303.05643,511.700925 C1303.04199,507.066387 1303.02755,502.43185 1303.01312,497.806942 C1303.02515,502.443887 1303.04199,507.07361 1303.05643,511.700925" id="Fill-141"></path>
                <path d="M1220.34495,627.961615 C1220.1693,624.70179 1218.43439,623.059839 1215.13783,623.038171 C1221.75502,619.460549 1223.49233,621.102499 1220.34495,627.961615" id="Fill-143"></path>
                <path d="M1416.57536,885.794313 C1416.83283,881.670176 1417.09271,877.546039 1417.35018,873.431533 C1417.0903,877.558077 1416.83283,881.677399 1416.57536,885.794313" id="Fill-145"></path>
                <path d="M294.982294,1523.02568 C299.597482,1522.70548 304.212669,1522.38286 308.827857,1522.06266 C304.210263,1522.38286 299.597482,1522.70548 294.982294,1523.02568" id="Fill-147"></path>
                <path d="M1264.30738,963.114533 L1278.03985,963.018231 C1273.46076,963.051937 1268.88407,963.083235 1264.30738,963.114533" id="Fill-149"></path>
                <path d="M1395.38929,460.55224 C1392.1962,460.578723 1389.00311,460.605206 1385.83889,460.629282 C1389.04401,460.602799 1392.21545,460.578723 1395.38929,460.55224" id="Fill-151"></path>
                <path d="M2061.11806,1576.49958 C2065.12206,1576.48032 2069.12365,1576.46346 2073.12765,1576.44661 C2069.13569,1578.96732 2065.13169,1578.90232 2061.11806,1576.49958" id="Fill-153"></path>
                <path d="M380.303107,1022.03961 C377.588857,1022.11665 374.874607,1022.19369 372.186826,1022.27074 C374.910701,1022.19369 377.605701,1022.11665 380.303107,1022.03961" id="Fill-155"></path>
                <path d="M1822.03691,422.006609 C1824.60679,424.486388 1821.22841,430.187471 1818.16766,428.222909 C1819.45741,426.150006 1820.74716,424.079512 1822.03691,422.006609" id="Fill-157"></path>
                <path d="M567.122191,1273.06808 C567.235285,1269.56028 567.350785,1266.05007 567.463879,1262.54949 C567.348379,1266.0597 567.235285,1269.5651 567.122191,1273.06808" id="Fill-159"></path>
                <path d="M1484.80338,1275.00665 C1484.98866,1271.34717 1485.17394,1267.68769 1485.35441,1264.03302 C1485.16913,1267.69491 1484.98625,1271.34957 1484.80338,1275.00665" id="Fill-161"></path>
                <path d="M2125.22441,893.604652 C2125.376,897.268947 2125.53,900.933241 2125.67919,904.585497 C2125.5276,900.918796 2125.3736,897.261724 2125.22441,893.604652" id="Fill-163"></path>
                <path d="M888.566873,1308.58766 C892.667123,1308.93917 896.764966,1309.28826 900.865216,1309.63736 C896.764966,1309.28826 892.664716,1308.93917 888.566873,1308.58766" id="Fill-165"></path>
                <path d="M1450.81991,1027.53894 C1451.01963,1023.89872 1451.22175,1020.2585 1451.42147,1016.62551 C1451.21935,1020.26813 1451.01963,1023.90354 1450.81991,1027.53894" id="Fill-167"></path>
                <path d="M738.467644,1096.78303 C742.553457,1097.16101 746.639269,1097.53659 750.725082,1097.91217 C746.639269,1097.53418 742.553457,1097.15861 738.467644,1096.78303" id="Fill-169"></path>
                <path d="M1100.0209,1415.07851 C1097.38847,1415.08092 1094.75844,1415.08092 1092.15487,1415.08092 C1094.79694,1415.07851 1097.41012,1415.07851 1100.0209,1415.07851" id="Fill-171"></path>
                <path d="M1332.11358,525.39147 C1331.95718,528.793341 1331.80077,532.192805 1331.64918,535.577823 C1331.80799,532.173544 1331.96199,528.781303 1332.11358,525.39147" id="Fill-173"></path>
                <path d="M1390.4086,1350.51759 C1394.4535,1347.64297 1398.38772,1349.54012 1402.33638,1350.78724 C1398.35885,1350.69816 1394.38372,1350.60667 1390.4086,1350.51759" id="Fill-175"></path>
                <path d="M917.554726,377.177749 C914.893413,377.069409 912.234507,376.958661 909.602069,376.838284 C912.273007,376.946624 914.912663,377.062186 917.554726,377.177749" id="Fill-177"></path>
                <path d="M1562.33564,1413.07278 C1562.09502,1409.68535 1561.8568,1406.30033 1561.61858,1402.92494 C1561.8568,1406.31718 1562.09502,1409.69498 1562.33564,1413.07278" id="Fill-179"></path>
                <path d="M1344.55943,1030.77301 C1342.36734,1030.78745 1340.17524,1030.8019 1338.00962,1030.82116 C1340.21134,1030.80912 1342.38659,1030.78986 1344.55943,1030.77301" id="Fill-181"></path>
                <path d="M1437.0321,1153.78736 C1437.0345,1150.9633 1437.03691,1148.13684 1437.03932,1145.32722 C1437.03691,1148.1561 1437.0345,1150.97293 1437.0321,1153.78736" id="Fill-183"></path>
                <path d="M1296.76818,1360.95313 C1300.05271,1360.52699 1303.33483,1360.10085 1306.61455,1359.67472 C1303.33002,1360.10085 1300.04789,1360.52699 1296.76818,1360.95313" id="Fill-185"></path>
                <path d="M1154.8194,949.981096 C1158.37584,949.959428 1161.93227,949.935352 1165.48871,949.913684 C1161.9443,952.003439 1158.38546,951.611009 1154.8194,949.981096" id="Fill-187"></path>
                <path d="M1339.05273,604.20365 C1336.99779,604.18439 1334.94285,604.16513 1332.91438,604.148277 C1334.97894,604.16513 1337.01463,604.18439 1339.05273,604.20365" id="Fill-189"></path>
                <path d="M731.711857,1128.20471 C729.591951,1128.17582 727.474451,1128.14693 725.381013,1128.11563 C727.510544,1128.14693 729.611201,1128.17582 731.711857,1128.20471" id="Fill-191"></path>
                <path d="M322.265079,989.144986 C325.814298,989.1811 329.363516,989.21962 332.912735,989.255734 C329.34186,991.261225 325.792641,991.314191 322.265079,989.144986" id="Fill-193"></path>
                <path d="M2125.5673,995.019413 C2125.34111,997.727909 2125.11733,1000.43881 2124.90318,1003.13286 C2125.12696,1000.41715 2125.34593,997.718279 2125.5673,995.019413" id="Fill-195"></path>
                <path d="M1221.99468,1430.46662 C1222.29546,1427.50774 1222.59865,1424.54885 1222.89943,1421.5996 C1222.59624,1424.5633 1222.29546,1427.51496 1221.99468,1430.46662" id="Fill-197"></path>
                <path d="M648.102851,1077.95525 C651.688163,1078.00581 655.275882,1078.05877 658.863601,1078.10933 C655.239788,1080.60596 651.673726,1079.03383 648.102851,1077.95525" id="Fill-199"></path>
                <path d="M1465.74853,558.557667 C1469.23759,558.162828 1472.72424,557.76799 1476.21331,557.373151 C1472.72424,557.76799 1469.23759,558.162828 1465.74853,558.557667" id="Fill-201"></path>
                <path d="M1174.24794,1506.76652 C1174.56316,1509.87467 1174.87838,1512.98282 1175.19119,1516.08134 C1174.87597,1512.97078 1174.56075,1509.86985 1174.24794,1506.76652" id="Fill-203"></path>
                <path d="M1484.86113,1302.35018 C1484.85632,1299.44908 1484.8491,1296.55038 1484.84669,1293.66373 C1484.8515,1296.56965 1484.85632,1299.45871 1484.86113,1302.35018" id="Fill-205"></path>
                <path d="M220.074769,1521.74414 C223.450738,1522.18954 226.826707,1522.63253 230.200269,1523.07792 C226.824301,1522.63253 223.448332,1522.18954 220.074769,1521.74414" id="Fill-207"></path>
                <path d="M283.409194,1523.11018 C286.741851,1520.38484 290.125038,1521.22026 293.520257,1522.96573 C290.149101,1523.01388 286.777944,1523.06203 283.409194,1523.11018" id="Fill-209"></path>
                <path d="M892.401954,1123.65516 C895.703329,1123.25069 899.004704,1122.84622 902.301266,1122.44176 C898.999891,1122.84622 895.700923,1123.25069 892.401954,1123.65516" id="Fill-211"></path>
                <path d="M1259.22225,1538.46314 C1262.58619,1538.01293 1265.95013,1537.56272 1269.31407,1537.11251 C1265.94772,1537.56272 1262.58619,1538.01293 1259.22225,1538.46314" id="Fill-213"></path>
                <path d="M1141.56144,1543.69211 C1144.99275,1543.25152 1148.42166,1542.81094 1151.85297,1542.37036 C1148.42166,1542.81094 1144.99275,1543.25152 1141.56144,1543.69211" id="Fill-215"></path>
                <path d="M1330.44268,545.952206 C1330.29109,548.723298 1330.13949,551.496798 1329.99271,554.251038 C1330.14431,551.472722 1330.29349,548.71126 1330.44268,545.952206" id="Fill-217"></path>
                <path d="M522.415029,1206.7523 C522.720623,1203.81027 523.026216,1200.86584 523.33181,1197.93344 C523.02381,1200.88028 522.720623,1203.8175 522.415029,1206.7523" id="Fill-219"></path>
                <path d="M1303.95179,474.270954 C1304.04083,471.384299 1304.12986,468.497644 1304.22129,465.625434 C1304.13467,468.516904 1304.04323,471.393929 1303.95179,474.270954" id="Fill-221"></path>
                <path d="M648.710188,1174.02573 C649.013376,1176.97257 649.316563,1179.91941 649.617344,1182.85422 C649.314157,1179.90256 649.010969,1176.96535 648.710188,1174.02573" id="Fill-223"></path>
                <path d="M660.078998,1077.98462 C663.558435,1078.36983 667.037873,1078.75263 670.514904,1079.13784 C667.035466,1078.75263 663.556029,1078.36983 660.078998,1077.98462" id="Fill-225"></path>
                <path d="M1213.97705,1507.55764 C1215.9598,1513.37669 1215.23071,1526.91436 1209.6049,1531.01442 C1197.93218,1539.52752 1196.73146,1523.98196 1194.41424,1515.58442 C1187.98715,1492.29135 1177.63787,1466.28016 1175.00062,1442.33224 C1174.19212,1434.9868 1173.75418,1421.22764 1183.4658,1418.75027 C1192.84055,1416.36197 1197.58809,1431.22139 1200.82209,1438.85333 C1209.79018,1460.03015 1214.99249,1484.59681 1213.97705,1507.55764" id="Fill-229"></path>
                <path d="M1213.97705,1507.55764 C1214.1094,1504.5482 1214.24415,1501.54117 1214.37649,1498.54617 C1214.24174,1501.55802 1214.1094,1504.55783 1213.97705,1507.55764" id="Fill-231"></path>
            </g>
        </g>
    </g>
</svg>