<svg  xmlns="http://www.w3.org/2000/svg" viewBox="-179.72942403913365 -1.000000000000022 181 211"><g transform="rotate(-180 0 0) scale(0.5804976307634232, -0.5804976307634231)"><path d="M171.55 360.52C171.57 360.52 171.58 360.52 171.59 360.51 171.61 360.51 171.62 360.5 171.63 360.49 171.64 360.48 171.64 360.46 171.65 360.45 171.65 360.44 171.65 360.42 171.65 360.41 168.62 341.81 164.81 315.34 162.78 289.32 162.77 289.3 162.78 289.28 162.79 289.26 167.28 281.38 177.83 270.51 202.41 267.21 202.83 267.15 203.23 267.01 203.6 266.8 203.97 266.59 204.29 266.3 204.55 265.97 204.8 265.63 204.99 265.24 205.1 264.83 205.21 264.42 205.24 263.99 205.18 263.57 205.12 263.15 204.99 262.74 204.77 262.38 204.56 262.01 204.27 261.69 203.94 261.43 203.6 261.17 203.21 260.98 202.8 260.88 202.39 260.77 201.96 260.74 201.54 260.8 180.92 263.56 169.06 271.27 162.23 278.9 162.22 278.91 162.2 278.92 162.18 278.93 162.16 278.93 162.14 278.93 162.13 278.92 162.11 278.92 162.09 278.9 162.08 278.89 162.07 278.87 162.06 278.85 162.06 278.83 161.11 262.72 161 247.21 162.35 234.37 167.91 181.4 183.4 133.46 183.56 132.98 183.85 132.09 183.96 131.16 183.89 130.22 183.82 129.29 183.56 128.38 183.14 127.55 182.71 126.72 182.13 125.98 181.42 125.37 180.71 124.76 179.89 124.3 179 124.01 178.11 123.72 177.17 123.61 176.24 123.68 175.31 123.75 174.4 124.01 173.57 124.43 172.73 124.85 171.99 125.44 171.38 126.15 170.78 126.86 170.31 127.68 170.02 128.57 169.37 130.57 153.91 178.37 148.19 232.89 147.59 238.57 147.26 244.71 147.15 251.15 147.15 251.17 147.14 251.18 147.13 251.2 147.12 251.22 147.11 251.23 147.09 251.24 147.08 251.24 147.06 251.25 147.04 251.25 147.02 251.24 147.01 251.24 146.99 251.23 139.41 245.91 129.11 240.4 115.12 235.05 114.32 234.74 113.43 234.77 112.64 235.12 111.86 235.47 111.25 236.11 110.94 236.92 110.63 237.72 110.66 238.61 111.01 239.39 111.36 240.18 112 240.79 112.8 241.09 129.07 247.32 139.89 253.6 147.08 259.35 147.09 259.36 147.1 259.37 147.11 259.39 147.11 259.4 147.12 259.42 147.12 259.43 147.42 293.62 152.93 334.04 157.2 360.44 157.2 360.46 157.21 360.48 157.23 360.5 157.25 360.51 157.27 360.52 157.3 360.52L171.55 360.52Z" fill="#04051f" opacity="1"></path><path d="M193.02 265.54C193.04 265.56 193.05 265.57 193.06 265.59 193.07 265.61 193.07 265.63 193.07 265.65 192.75 267.06 188.21 289.04 211.28 301.09 232.71 312.28 265.24 304.89 283.79 267.82 298.79 237.87 307.32 204.32 307.87 202.11 307.87 202.1 307.87 202.08 307.87 202.07 307.87 202.05 307.86 202.04 307.85 202.03 307.84 202.02 307.83 202.01 307.82 202 307.81 201.99 307.79 201.99 307.78 201.99 304.54 201.74 235.55 196.59 212.33 206.72 197.18 213.33 177.24 228.35 181.23 247.53 183.79 259.83 192.2 265.06 193.02 265.54Z" fill="#224942" opacity="1"></path><path d="M0.06 224.57C0.05 224.56 0.05 224.55 0.04 224.54 0.04 224.53 0.04 224.51 0.04 224.5 0.04 224.49 0.04 224.47 0.05 224.46 0.06 224.45 0.06 224.44 0.07 224.43 16.82 210.75 48.72 187.89 80.39 184.6 106.27 181.91 128.29 197.67 135.19 215.11 142.09 232.54 131.87 271.88 104.21 280.62 59.72 294.67 2.26 227.19 0.06 224.57Z" fill="#224942" opacity="1"></path><path d="M176.69 91.1C184.67 91.1 191.14 70.71 191.14 45.55 191.14 20.39 184.67 0 176.69 0 168.71 0 162.24 20.39 162.24 45.55 162.24 70.71 168.71 91.1 176.69 91.1Z" fill="#f2b140" opacity="1"></path><path d="M211.96 53.42C219.73 29.5 219.87 8.1 212.28 5.63 204.69 3.17 192.24 20.57 184.47 44.5 176.7 68.42 176.55 89.82 184.14 92.28 191.73 94.75 204.19 77.35 211.96 53.42Z" fill="#fecc76" opacity="1"></path><path d="M241.54 85.94C261.89 71.14 274.58 53.91 269.88 47.46 265.19 41 244.89 47.76 224.54 62.56 204.19 77.35 191.51 94.58 196.2 101.04 200.89 107.49 221.19 100.73 241.54 85.94Z" fill="#fecc76" opacity="1"></path><path d="M247.43 107.38C271.36 99.58 288.75 87.11 286.27 79.52 283.8 71.93 262.4 72.09 238.47 79.89 214.55 87.69 197.16 100.17 199.63 107.76 202.11 115.35 223.51 115.18 247.43 107.38Z" fill="#f2b140" opacity="1"></path><path d="M246.36 129.63C271.52 129.63 291.92 123.16 291.92 115.17 291.92 107.19 271.52 100.72 246.36 100.72 221.21 100.72 200.81 107.19 200.81 115.17 200.81 123.16 221.21 129.63 246.36 129.63Z" fill="#fecc76" opacity="1"></path><path d="M270.01 182.85C274.7 176.39 261.98 159.17 241.6 144.41 221.22 129.64 200.91 122.91 196.22 129.37 191.54 135.84 204.26 153.05 224.63 167.82 245.01 182.59 265.33 189.32 270.01 182.85Z" fill="#fecc76" opacity="1"></path><path d="M244.52 208.36C250.98 203.66 244.2 183.37 229.39 163.03 214.58 142.7 197.34 130.02 190.89 134.72 184.44 139.42 191.21 159.71 206.03 180.05 220.84 200.38 238.07 213.06 244.52 208.36Z" fill="#f2b140" opacity="1"></path><path d="M212.42 224.79C220.01 222.32 219.84 200.92 212.04 176.99 204.25 153.07 191.77 135.68 184.18 138.16 176.59 140.63 176.76 162.03 184.56 185.95 192.36 209.88 204.83 227.27 212.42 224.79Z" fill="#fecc76" opacity="1"></path><path d="M169.02 185.96C176.76 162.02 176.87 140.63 169.28 138.17 161.68 135.72 149.25 153.13 141.52 177.07 133.78 201.01 133.66 222.41 141.26 224.86 148.85 227.32 161.28 209.9 169.02 185.96Z" fill="#fecc76" opacity="1"></path><path d="M128.91 167.97C149.24 153.15 161.91 135.91 157.21 129.46 152.51 123.01 132.22 129.8 111.89 144.61 91.56 159.43 78.89 176.67 83.6 183.12 88.3 189.57 108.59 182.78 128.91 167.97Z" fill="#fecc76" opacity="1"></path><path d="M107.05 129.82C132.21 129.77 152.59 123.26 152.57 115.27 152.56 107.29 132.15 100.87 106.99 100.92 81.83 100.97 61.45 107.48 61.47 115.47 61.49 123.45 81.89 129.88 107.05 129.82Z" fill="#fecc76" opacity="1"></path><path d="M157.15 101.09C161.82 94.63 149.08 77.43 128.7 62.7 108.31 47.96 87.99 41.25 83.31 47.72 78.64 54.19 91.37 71.38 111.76 86.12 132.15 100.86 152.47 107.56 157.15 101.09Z" fill="#fecc76" opacity="1"></path><path d="M162.49 95.79C168.94 91.08 162.13 70.78 147.29 50.45 132.45 30.13 115.19 17.47 108.74 22.18 102.29 26.88 109.09 47.18 123.94 67.51 138.78 87.84 156.04 100.5 162.49 95.79Z" fill="#f2b140" opacity="1"></path><path d="M169.18 92.3C176.76 89.82 176.56 68.42 168.72 44.52 160.88 20.61 148.38 3.25 140.79 5.74 133.21 8.22 133.41 29.62 141.25 53.52 149.09 77.43 161.59 94.79 169.18 92.3Z" fill="#fecc76" opacity="1"></path><path d="M286.31 150.74C288.77 143.14 271.36 130.7 247.43 122.95 223.49 115.19 202.1 115.06 199.64 122.66 197.18 130.25 214.59 142.69 238.52 150.44 262.45 158.2 283.85 158.33 286.31 150.74Z" fill="#f2b140" opacity="1"></path><path d="M176.82 230.45C184.8 230.44 191.25 210.04 191.22 184.88 191.2 159.73 184.71 139.34 176.73 139.35 168.74 139.36 162.29 159.76 162.32 184.91 162.35 210.07 168.84 230.46 176.82 230.45Z" fill="#f2b140" opacity="1"></path><path d="M147.54 180.13C162.3 159.75 169.01 139.44 162.55 134.76 156.08 130.08 138.88 142.8 124.13 163.18 109.38 183.56 102.66 203.87 109.12 208.55 115.59 213.23 132.79 200.51 147.54 180.13Z" fill="#f2b140" opacity="1"></path><path d="M114.97 150.62C138.88 142.8 156.25 130.31 153.77 122.72 151.29 115.14 129.89 115.33 105.98 123.15 82.07 130.97 64.7 143.46 67.18 151.05 69.66 158.63 91.06 158.44 114.97 150.62Z" fill="#f2b140" opacity="1"></path><path d="M153.74 107.82C156.19 100.23 138.76 87.81 114.82 80.09 90.88 72.37 69.48 72.27 67.03 79.86 64.58 87.46 82.01 99.88 105.95 107.6 129.89 115.32 151.29 115.42 153.74 107.82Z" fill="#f2b140" opacity="1"></path><path d="M229.34 67.36C244.13 47.01 250.89 26.7 244.43 22.01 237.97 17.32 220.75 30.01 205.95 50.36 191.16 70.72 184.4 91.02 190.86 95.71 197.32 100.41 214.55 87.71 229.34 67.36Z" fill="#f2b140" opacity="1"></path><path d="M0 224.5C49.19 204.66 106.05 214.63 134.21 246.73" fill="none" opacity="1" stroke-width="2" stroke="#04051f" stroke-linecap="round" stroke-linejoin="round"></path><path d="M193.08 265.58C199.22 261.37 204.71 252.6 212.31 247.84 224.91 239.94 239.8 236.65 254.23 234.12 276.25 230.26 292.14 215.82 307.89 202" fill="none" opacity="1" stroke-width="2" stroke="#04051f" stroke-linecap="round" stroke-linejoin="round"></path><path d="M214.37 290.5C228.53 298.68 255.24 289.78 261.11 274.01" fill="none" opacity="1" stroke-width="2" stroke="#04051f" stroke-linecap="round" stroke-linejoin="round"></path><path d="M41.86 252.01C48.46 262.43 77.8 277.08 89.28 272.63" fill="none" opacity="1" stroke-width="2" stroke="#04051f" stroke-linecap="round" stroke-linejoin="round"></path><path d="M147.02 24.51L157.97 67.62" fill="none" opacity="1" stroke-width="2" stroke="#ff8263" stroke-linecap="round" stroke-linejoin="round"></path><path d="M202.68 75.22L229.79 38.78" fill="none" opacity="1" stroke-width="2" stroke="#ff8263" stroke-linecap="round" stroke-linejoin="round"></path><path d="M221.5 96.01L269.7 84.06" fill="none" opacity="1" stroke-width="2" stroke="#ff8263" stroke-linecap="round" stroke-linejoin="round"></path><path d="M217.79 126.44L263.52 142.27" fill="none" opacity="1" stroke-width="2" stroke="#ff8263" stroke-linecap="round" stroke-linejoin="round"></path><path d="M208.2 150.55L229.79 185.51" fill="none" opacity="1" stroke-width="2" stroke="#ff8263" stroke-linecap="round" stroke-linejoin="round"></path><path d="M176.69 157.2L176.9 207.34" fill="none" opacity="1" stroke-width="2" stroke="#ff8263" stroke-linecap="round" stroke-linejoin="round"></path><path d="M152.49 145.5L125.12 185.51" fill="none" opacity="1" stroke-width="2" stroke="#ff8263" stroke-linecap="round" stroke-linejoin="round"></path><path d="M87.16 142.27L137.27 126.44" fill="none" opacity="1" stroke-width="2" stroke="#ff8263" stroke-linecap="round" stroke-linejoin="round"></path><path d="M87.16 84.06L128.46 96.46" fill="none" opacity="1" stroke-width="2" stroke="#ff8263" stroke-linecap="round" stroke-linejoin="round"></path><path d="M176.69 170.84C207.41 170.84 232.31 145.94 232.31 115.22 232.31 84.51 207.41 59.61 176.69 59.61 145.98 59.61 121.08 84.51 121.08 115.22 121.08 145.94 145.98 170.84 176.69 170.84Z" fill="#876056" opacity="1"></path><path d="M176.9 154C169.26 154 161.79 151.74 155.44 147.49 149.08 143.25 144.13 137.21 141.21 130.15 138.28 123.1 137.52 115.33 139.01 107.83 140.5 100.34 144.18 93.46 149.58 88.06 154.98 82.65 161.87 78.97 169.36 77.48 176.85 75.99 184.62 76.76 191.68 79.68 198.74 82.6 204.77 87.56 209.02 93.91 213.26 100.26 215.53 107.73 215.53 115.37 215.51 125.61 211.44 135.43 204.2 142.67 196.96 149.91 187.14 153.99 176.9 154ZM176.9 91.39C172.15 91.39 167.52 92.79 163.57 95.43 159.63 98.06 156.56 101.81 154.74 106.19 152.93 110.57 152.45 115.4 153.38 120.05 154.3 124.7 156.58 128.97 159.94 132.33 163.29 135.68 167.57 137.97 172.22 138.89 176.87 139.82 181.69 139.34 186.07 137.53 190.46 135.71 194.2 132.64 196.84 128.69 199.47 124.75 200.88 120.11 200.88 115.37 200.87 109.01 198.34 102.92 193.85 98.42 189.35 93.93 183.26 91.4 176.9 91.39V91.39Z" fill="#ff4011" opacity="1"></path></g></svg>