<svg t="1691984787954" class="icon" viewBox="0 0 1024 1024" version="1.1" xmlns="http://www.w3.org/2000/svg" p-id="31663" width="200" height="200"><path d="M150.588235 0h722.82353c83.169882 0 150.588235 67.418353 150.588235 150.588235v722.82353c0 83.169882-67.418353 150.588235-150.588235 150.588235H150.588235C67.418353 1024 0 956.581647 0 873.411765V150.588235C0 67.418353 67.418353 0 150.588235 0z m315.904 382.418824H242.326588c-17.392941 0-31.503059 14.275765-31.503059 31.86447v83.365647c0 17.603765 14.110118 31.864471 31.503059 31.864471h224.165647c17.392941 0 31.503059-14.260706 31.503059-31.864471v-83.365647c0-17.588706-14.110118-31.864471-31.503059-31.86447z m0.240941 167.619764H274.251294c-17.362824 0-31.472941 14.125176-31.472941 31.533177v196.562823c0 17.423059 15.239529 31.533176 32.617412 31.533177h190.765176c17.377882 0 31.472941-14.110118 31.472941-31.533177l0.557177-196.562823a31.503059 31.503059 0 0 0-31.472941-31.533177z m-98.364235-338.898823c-17.995294-0.572235-52.058353 16.248471-62.644706 30.960941-38.204235 53.157647-9.848471 126.132706 110.125177 126.132706 51.440941 0 94.403765-44.905412 94.403764-63.066353 0-18.191059-58.352941-91.407059-141.884235-94.027294zM777.712941 384h-224.677647c-17.377882 0-31.472941 14.110118-31.472941 31.533176v82.522353c0 17.408 14.095059 31.518118 31.472941 31.518118h224.677647c17.377882 0 31.472941-14.110118 31.472941-31.533176v-82.522353a31.503059 31.503059 0 0 0-31.472941-31.518118z m-175.691294-15.766588c116.645647 0 144.218353-72.975059 107.068235-126.132706-10.285176-14.712471-43.399529-31.533176-60.897882-30.960941-81.197176 2.620235-137.938824 75.836235-137.938824 94.027294 0 18.160941 41.758118 63.066353 91.768471 63.066353z m144.715294 182.287059H553.923765a31.442824 31.442824 0 0 0-31.397647 31.472941v196.21647c0 17.377882 14.622118 31.472941 31.969882 31.472942h191.141647a31.442824 31.442824 0 0 0 31.397647-31.472942l1.129412-196.21647c0-17.377882-14.049882-31.472941-31.397647-31.472941z" fill="#F15A4A" p-id="31664"></path></svg>