<svg xmlns="http://www.w3.org/2000/svg" fill="none" viewBox="0 0 37 28" height="28" width="37" class="hc_Svg" data-elem-id="bllTscsavN" icon="&lt;svg xmlns=&quot;http://www.w3.org/2000/svg&quot; fill=&quot;none&quot; viewBox=&quot;0 0 37 28&quot; height=&quot;28&quot; width=&quot;37&quot;&gt;&lt;g clip-path=&quot;url(#clip0_96_6832)&quot;&gt;&lt;path fill=&quot;#AB7BFE&quot; d=&quot;M4.11692 10.6911L0.615109 7.16695C0.21728 6.76658 -0.00622175 6.22357 -0.00622203 5.65736C-0.0062217 5.09116 0.217278 4.54814 0.615107 4.14778L4.11426 0.62631C4.51209 0.225944 5.05166 0.00101885 5.61428 0.00101885C6.17689 0.00101885 6.71647 0.225946 7.1143 0.626312L12.1161 5.66005L7.11829 10.6898C6.92137 10.8883 6.68749 11.0458 6.43005 11.1533C6.1726 11.2609 5.89662 11.3163 5.61789 11.3164C5.33915 11.3165 5.06312 11.2614 4.80558 11.1541C4.54803 11.0468 4.31402 10.8895 4.11692 10.6911Z&quot;&gt;&lt;/path&gt;&lt;path fill=&quot;#AB7BFE&quot; d=&quot;M17.0613 10.691L12.0634 5.66126L17.0613 0.631549C17.4591 0.231182 17.9987 0.00625932 18.5613 0.00625864C19.1239 0.00625932 19.6635 0.231184 20.0613 0.631551L23.5591 4.15168C23.9569 4.55204 24.1804 5.09506 24.1804 5.66126C24.1804 6.22747 23.9569 6.77048 23.5591 7.17085L20.0626 10.6896C19.8657 10.8882 19.6318 11.0457 19.3744 11.1532C19.1169 11.2607 18.841 11.3161 18.5622 11.3163C18.2835 11.3164 18.0075 11.2612 17.7499 11.1539C17.4924 11.0467 17.2584 10.8893 17.0613 10.691Z&quot;&gt;&lt;/path&gt;&lt;path fill=&quot;#AB7BFE&quot; d=&quot;M33.3354 11.3147L18.5613 11.3147V5.43594e-05L36.9287 5.43594e-05V7.70038C36.9287 8.17517 36.8358 8.64532 36.6552 9.08395C36.4746 9.52259 36.2098 9.92111 35.8761 10.2568C35.5425 10.5924 35.1463 10.8586 34.7104 11.0401C34.2744 11.2216 33.8072 11.3149 33.3354 11.3147Z&quot;&gt;&lt;/path&gt;&lt;path fill=&quot;#4752E6&quot; d=&quot;M4.11961 27.0702L0.617795 23.5461C0.219966 23.1457 -0.00353553 22.6027 -0.00353514 22.0365C-0.00353548 21.4703 0.219964 20.9273 0.617793 20.5269L4.11694 17.0055C4.5149 16.6057 5.05429 16.3813 5.61657 16.3815C6.17886 16.3818 6.71805 16.6067 7.11565 17.0068L12.1175 22.0405L7.11831 27.0716C6.72036 27.4714 6.18098 27.6958 5.61869 27.6955C5.0564 27.6953 4.51721 27.4704 4.11961 27.0702Z&quot;&gt;&lt;/path&gt;&lt;path fill=&quot;#4752E6&quot; d=&quot;M17.0641 27.072L12.0662 22.0422L17.0641 17.0125C17.4619 16.6122 18.0015 16.3872 18.5641 16.3872C19.1267 16.3872 19.6663 16.6122 20.0641 17.0125L23.5619 20.5327C23.9597 20.933 24.1832 21.476 24.1832 22.0422C24.1832 22.6085 23.9597 23.1515 23.5619 23.5518L20.0628 27.0733C19.6649 27.4737 19.1254 27.6986 18.5627 27.6986C18.0001 27.6986 17.4606 27.4737 17.0627 27.0733L17.0641 27.072Z&quot;&gt;&lt;/path&gt;&lt;path fill=&quot;#4752E6&quot; d=&quot;M33.3354 27.7021L18.5613 27.7021V16.3875H36.9287V24.0821C36.9294 24.5574 36.837 25.0282 36.6568 25.4675C36.4765 25.9068 36.2119 26.306 35.8781 26.6422C35.5444 26.9784 35.148 27.2451 34.7117 27.427C34.2754 27.6089 33.8077 27.7024 33.3354 27.7021Z&quot;&gt;&lt;/path&gt;&lt;/g&gt;&lt;defs&gt;&lt;clipPath id=&quot;clip0_96_6832&quot;&gt;&lt;rect fill=&quot;white&quot; height=&quot;27.6965&quot; width=&quot;36.9287&quot;&gt;&lt;/rect&gt;&lt;/clipPath&gt;&lt;/defs&gt;&lt;/svg&gt;"><g clip-path="url(#clip0_96_6832)"><path fill="#AB7BFE" d="M4.11692 10.6911L0.615109 7.16695C0.21728 6.76658 -0.00622175 6.22357 -0.00622203 5.65736C-0.0062217 5.09116 0.217278 4.54814 0.615107 4.14778L4.11426 0.62631C4.51209 0.225944 5.05166 0.00101885 5.61428 0.00101885C6.17689 0.00101885 6.71647 0.225946 7.1143 0.626312L12.1161 5.66005L7.11829 10.6898C6.92137 10.8883 6.68749 11.0458 6.43005 11.1533C6.1726 11.2609 5.89662 11.3163 5.61789 11.3164C5.33915 11.3165 5.06312 11.2614 4.80558 11.1541C4.54803 11.0468 4.31402 10.8895 4.11692 10.6911Z"/><path fill="#AB7BFE" d="M17.0613 10.691L12.0634 5.66126L17.0613 0.631549C17.4591 0.231182 17.9987 0.00625932 18.5613 0.00625864C19.1239 0.00625932 19.6635 0.231184 20.0613 0.631551L23.5591 4.15168C23.9569 4.55204 24.1804 5.09506 24.1804 5.66126C24.1804 6.22747 23.9569 6.77048 23.5591 7.17085L20.0626 10.6896C19.8657 10.8882 19.6318 11.0457 19.3744 11.1532C19.1169 11.2607 18.841 11.3161 18.5622 11.3163C18.2835 11.3164 18.0075 11.2612 17.7499 11.1539C17.4924 11.0467 17.2584 10.8893 17.0613 10.691Z"/><path fill="#AB7BFE" d="M33.3354 11.3147L18.5613 11.3147V5.43594e-05L36.9287 5.43594e-05V7.70038C36.9287 8.17517 36.8358 8.64532 36.6552 9.08395C36.4746 9.52259 36.2098 9.92111 35.8761 10.2568C35.5425 10.5924 35.1463 10.8586 34.7104 11.0401C34.2744 11.2216 33.8072 11.3149 33.3354 11.3147Z"/><path fill="#4752E6" d="M4.11961 27.0702L0.617795 23.5461C0.219966 23.1457 -0.00353553 22.6027 -0.00353514 22.0365C-0.00353548 21.4703 0.219964 20.9273 0.617793 20.5269L4.11694 17.0055C4.5149 16.6057 5.05429 16.3813 5.61657 16.3815C6.17886 16.3818 6.71805 16.6067 7.11565 17.0068L12.1175 22.0405L7.11831 27.0716C6.72036 27.4714 6.18098 27.6958 5.61869 27.6955C5.0564 27.6953 4.51721 27.4704 4.11961 27.0702Z"/><path fill="#4752E6" d="M17.0641 27.072L12.0662 22.0422L17.0641 17.0125C17.4619 16.6122 18.0015 16.3872 18.5641 16.3872C19.1267 16.3872 19.6663 16.6122 20.0641 17.0125L23.5619 20.5327C23.9597 20.933 24.1832 21.476 24.1832 22.0422C24.1832 22.6085 23.9597 23.1515 23.5619 23.5518L20.0628 27.0733C19.6649 27.4737 19.1254 27.6986 18.5627 27.6986C18.0001 27.6986 17.4606 27.4737 17.0627 27.0733L17.0641 27.072Z"/><path fill="#4752E6" d="M33.3354 27.7021L18.5613 27.7021V16.3875H36.9287V24.0821C36.9294 24.5574 36.837 25.0282 36.6568 25.4675C36.4765 25.9068 36.2119 26.306 35.8781 26.6422C35.5444 26.9784 35.148 27.2451 34.7117 27.427C34.2754 27.6089 33.8077 27.7024 33.3354 27.7021Z"/></g><defs><clipPath id="clip0_96_6832"><rect fill="white" height="27.6965" width="36.9287"/></clipPath></defs></svg>