<svg xmlns="http://www.w3.org/2000/svg" fill="none" viewBox="0 0 32 32" height="32" width="32" class="hc_Svg" data-elem-id="B7vijSDOIh" icon="&lt;svg xmlns=&quot;http://www.w3.org/2000/svg&quot; fill=&quot;none&quot; viewBox=&quot;0 0 32 32&quot; height=&quot;32&quot; width=&quot;32&quot;&gt;&lt;path fill=&quot;url(#paint0_linear_111_50865)&quot; d=&quot;M16.0006 0C14.8909 0 13.8802 0.632259 13.3926 1.62803L9.97974 8.86147C9.96168 8.89477 9.93058 8.91512 9.89805 8.91987L9.8786 8.92271L2.46513 10.2295C1.37741 10.3972 0.48069 11.1643 0.141653 12.2092L0.140634 12.2123C-0.197093 13.262 0.0829294 14.4192 0.878746 15.1952L0.928491 15.2437L6.59307 19.7189C6.60547 19.7402 6.61152 19.7656 6.60916 19.7919L5.04692 27.4136L5.04325 27.4351C4.80061 28.852 5.808 29.7191 6.33882 30.1075L6.3416 30.1095C7.23623 30.7605 8.42423 30.8501 9.40722 30.33L9.42354 30.3214L15.9576 26.6293C15.9858 26.6171 16.0189 26.6178 16.0464 26.6314L22.8679 30.3241L22.8787 30.3298C23.2963 30.5509 23.7629 30.6664 24.235 30.6665C24.8497 30.6662 25.4496 30.4707 25.9465 30.1075C26.3709 29.7971 26.7134 29.3853 26.8882 28.8472C27.0535 28.3384 27.0263 27.8444 26.9579 27.4385L25.68 19.9568C25.6743 19.9227 25.6829 19.8891 25.7018 19.8634L31.0937 15.2228L31.1247 15.1923C31.9117 14.4203 32.1991 13.2662 31.8591 12.2123C31.5217 11.1642 30.6211 10.3951 29.5332 10.229L21.9872 8.9226L21.9699 8.92007C21.9381 8.91541 21.9082 8.89633 21.8899 8.86542L18.6167 1.64424L18.6071 1.62486C18.1187 0.634064 17.1127 0 16.0006 0ZM20.9439 16.7282C21.2263 16.7282 21.4195 17.0344 21.2945 17.3021C21.2822 17.3284 21.2704 17.3529 21.2594 17.3748C20.2626 19.3691 18.2807 20.7282 15.9984 20.7282C13.6937 20.7282 11.6951 19.3421 10.7082 17.3155C10.5757 17.0434 10.7776 16.7282 11.0671 16.7282H12.3618C12.6966 16.7282 13.0082 16.8962 13.2296 17.1617C13.2807 17.223 13.3305 17.2799 13.3732 17.3233C14.0536 18.0163 14.9789 18.4425 15.9984 18.4425C17.0248 18.4425 17.9558 18.0105 18.6375 17.3092C18.6761 17.2694 18.7209 17.2182 18.7672 17.1628C18.9889 16.897 19.3007 16.7282 19.6359 16.7282H20.9439Z&quot;&gt;&lt;/path&gt;&lt;defs&gt;&lt;linearGradient gradientUnits=&quot;userSpaceOnUse&quot; y2=&quot;32&quot; x2=&quot;26&quot; y1=&quot;-2.95431e-07&quot; x1=&quot;6&quot; id=&quot;paint0_linear_111_50865&quot;&gt;&lt;stop stop-color=&quot;#0BDCC0&quot;&gt;&lt;/stop&gt;&lt;stop stop-color=&quot;#00BFA6&quot; offset=&quot;1&quot;&gt;&lt;/stop&gt;&lt;/linearGradient&gt;&lt;/defs&gt;&lt;/svg&gt;"><path fill="url(#paint0_linear_111_50865)" d="M16.0006 0C14.8909 0 13.8802 0.632259 13.3926 1.62803L9.97974 8.86147C9.96168 8.89477 9.93058 8.91512 9.89805 8.91987L9.8786 8.92271L2.46513 10.2295C1.37741 10.3972 0.48069 11.1643 0.141653 12.2092L0.140634 12.2123C-0.197093 13.262 0.0829294 14.4192 0.878746 15.1952L0.928491 15.2437L6.59307 19.7189C6.60547 19.7402 6.61152 19.7656 6.60916 19.7919L5.04692 27.4136L5.04325 27.4351C4.80061 28.852 5.808 29.7191 6.33882 30.1075L6.3416 30.1095C7.23623 30.7605 8.42423 30.8501 9.40722 30.33L9.42354 30.3214L15.9576 26.6293C15.9858 26.6171 16.0189 26.6178 16.0464 26.6314L22.8679 30.3241L22.8787 30.3298C23.2963 30.5509 23.7629 30.6664 24.235 30.6665C24.8497 30.6662 25.4496 30.4707 25.9465 30.1075C26.3709 29.7971 26.7134 29.3853 26.8882 28.8472C27.0535 28.3384 27.0263 27.8444 26.9579 27.4385L25.68 19.9568C25.6743 19.9227 25.6829 19.8891 25.7018 19.8634L31.0937 15.2228L31.1247 15.1923C31.9117 14.4203 32.1991 13.2662 31.8591 12.2123C31.5217 11.1642 30.6211 10.3951 29.5332 10.229L21.9872 8.9226L21.9699 8.92007C21.9381 8.91541 21.9082 8.89633 21.8899 8.86542L18.6167 1.64424L18.6071 1.62486C18.1187 0.634064 17.1127 0 16.0006 0ZM20.9439 16.7282C21.2263 16.7282 21.4195 17.0344 21.2945 17.3021C21.2822 17.3284 21.2704 17.3529 21.2594 17.3748C20.2626 19.3691 18.2807 20.7282 15.9984 20.7282C13.6937 20.7282 11.6951 19.3421 10.7082 17.3155C10.5757 17.0434 10.7776 16.7282 11.0671 16.7282H12.3618C12.6966 16.7282 13.0082 16.8962 13.2296 17.1617C13.2807 17.223 13.3305 17.2799 13.3732 17.3233C14.0536 18.0163 14.9789 18.4425 15.9984 18.4425C17.0248 18.4425 17.9558 18.0105 18.6375 17.3092C18.6761 17.2694 18.7209 17.2182 18.7672 17.1628C18.9889 16.897 19.3007 16.7282 19.6359 16.7282H20.9439Z"/><defs><linearGradient gradientUnits="userSpaceOnUse" y2="32" x2="26" y1="-2.95431e-07" x1="6" id="paint0_linear_111_50865"><stop stop-color="#0BDCC0"/><stop stop-color="#00BFA6" offset="1"/></linearGradient></defs></svg>