<svg t="1691984157913" class="icon" viewBox="0 0 1024 1024" version="1.1" xmlns="http://www.w3.org/2000/svg" p-id="29250" width="200" height="200"><path d="M683.148549 200.804392a96.496941 96.496941 0 0 0-43.991843 10.62149 98.805961 98.805961 0 0 0-31.262118-5.180235 94.127686 94.127686 0 0 0-56.44047 18.411922 95.854431 95.854431 0 0 0-113.844706 0.662588 81.337725 81.337725 0 0 0-69.431216-37.265569 73.848471 73.848471 0 1 0 0 147.134745 83.807373 83.807373 0 0 0 52.645647-18.452078 89.288784 89.288784 0 0 0 74.10949 36.623059 94.248157 94.248157 0 0 0 56.440471-18.391843 94.208 94.208 0 0 0 56.440471 18.391843 96.557176 96.557176 0 0 0 43.991843-10.62149 98.384314 98.384314 0 0 0 31.262117 5.180235c47.585882 0 86.176627-32.928627 86.176628-73.587451s-38.53051-73.527216-86.096314-73.527216z" fill="#C6630A" p-id="29251"></path><path d="M387.072 358.118902h247.085176a266.601412 266.601412 0 0 1 266.581334 266.601412v35.759686A239.555765 239.555765 0 0 1 661.182745 900.035765h-301.17647A239.555765 239.555765 0 0 1 120.470588 660.48v-35.759686a266.601412 266.601412 0 0 1 266.601412-266.601412z" fill="#F27F05" p-id="29252"></path><path d="M747.981804 142.516706c5.200314 9.356549-23.511843 35.237647-64.110431 57.845961S606.127686 233.672784 600.887216 224.296157l-7.328628-13.19153L740.633098 129.325176z" fill="#B37515" p-id="29253"></path><path d="M747.279059 141.312c5.220392 9.376627-23.491765 35.277804-64.090353 57.845961S605.44502 232.468078 600.204549 223.091451l-7.328627-13.191529L739.950431 128.120471z" fill="#C98C1C" p-id="29254"></path><path d="M593.140355 210.350788a19.395765 84.148706 60.924 1 0 147.087876-81.787381 19.395765 84.148706 60.924 1 0-147.087876 81.787381Z" fill="#B37515" p-id="29255"></path><path d="M757.719843 160.065255v0.180706" fill="#DFB32B" p-id="29256"></path><path d="M610.283922 241.162039l0.481882 0.863373" fill="#DFB32B" p-id="29257"></path><path d="M606.288314 214.056157l6.465255 11.605333 2.007843-0.220863-6.465255-11.605333z" fill="#DFB32B" p-id="29258"></path><path d="M619.540078 211.466039l6.465255 11.605334 1.766902-0.481883-6.465255-11.625412z" fill="#DFB32B" p-id="29259"></path><path d="M631.968627 207.510588l6.425098 11.605334 1.746824-0.602353-6.465255-11.625412z" fill="#DFB32B" p-id="29260"></path><path d="M644.075922 202.792157l6.465254 11.605333 1.686589-0.702745-6.465255-11.605333z" fill="#DFB32B" p-id="29261"></path><path d="M655.821804 197.531608l6.465255 11.605333 1.626353-0.76298-6.425098-11.605334z" fill="#DFB32B" p-id="29262"></path><path d="M667.326745 191.829333l6.465255 11.605334 1.586196-0.823216-6.425098-11.625412z" fill="#DFB32B" p-id="29263"></path><path d="M678.610824 185.705412l6.465254 11.605333 1.586197-0.883451-6.465255-11.605333z" fill="#DFB32B" p-id="29264"></path><path d="M689.674039 179.159843l6.465255 11.605333 1.546039-0.923607-6.465255-11.625412z" fill="#DFB32B" p-id="29265"></path><path d="M700.516392 172.212706l6.465255 11.625412 1.485804-1.003922-6.465255-11.625412z" fill="#DFB32B" p-id="29266"></path><path d="M711.137882 164.843922l6.465255 11.605333 1.465726-1.084235-6.465255-11.625412z" fill="#DFB32B" p-id="29267"></path><path d="M721.317647 156.832627l6.465255 11.605334 1.385412-1.204706-6.465255-11.605333z" fill="#DFB32B" p-id="29268"></path><path d="M731.035608 147.817412l6.425098 11.605333 1.305098-1.365333-6.425098-11.625412z" fill="#DFB32B" p-id="29269"></path><path d="M739.649255 136.83451l6.465255 11.625412 0.923608-2.007844-6.465255-11.605333a12.990745 12.990745 0 0 1-0.923608 1.987765z" fill="#DFB32B" p-id="29270"></path><path d="M592.628563 209.421312a19.395765 84.148706 60.924 1 0 147.087875-81.787381 19.395765 84.148706 60.924 1 0-147.087875 81.787381Z" fill="#E6A324" p-id="29271"></path><path d="M604.345936 201.216839a13.271843 70.876863 60.924 1 0 123.889335-68.887964 13.271843 70.876863 60.924 1 0-123.889335 68.887964Z" fill="#F4C738" p-id="29272"></path><path d="M670.519216 155.627922c1.104314-0.542118 2.148392-0.983843 3.112157-1.365334a18.271373 18.271373 0 0 1 2.670431-0.863372 5.581804 5.581804 0 0 1 1.525961-0.220863 0.240941 0.240941 0 0 1 0.180706 0.321255 1.807059 1.807059 0 0 1-0.722824 1.024 9.175843 9.175843 0 0 1-1.385412 1.003921 4.457412 4.457412 0 0 1-2.288941 0.64251 7.81051 7.81051 0 0 0-3.272784 0.441726l-1.626353 7.569568a19.757176 19.757176 0 0 1 5.802667-1.164549c1.264941 0 1.807059 0.481882 1.646431 1.305098-0.38149 2.128314-3.513725 5.140078-9.376628 8.975059l-0.803137 3.614118-1.365333 0.76298 0.76298-3.493647c-0.923608 0.602353-1.807059 1.104314-2.630274 1.586196s-1.706667 0.943686-2.148392 1.164549l-0.722824 3.393255-1.365333 0.762981 0.76298-3.493648a31.663686 31.663686 0 0 1-5.160157 2.007844c-1.465725 0.421647-2.148392 0.341333-2.007843-0.160628a2.007843 2.007843 0 0 1 0.64251-0.883451 7.449098 7.449098 0 0 1 1.264941-0.883451 6.886902 6.886902 0 0 1 2.891294-0.883451 8.995137 8.995137 0 0 0 2.730667-0.542117l1.646431-7.609726a20.078431 20.078431 0 0 1-5.742431 1.485804c-1.104314 0-1.586196-0.602353-1.365333-1.807059a8.493176 8.493176 0 0 1 2.590117-3.71451 45.517804 45.517804 0 0 1 6.465255-4.979451L663.511843 158.258196l1.264941-0.702745-0.321255 1.264941 2.30902-1.325176 2.590118-1.365334 0.281098-1.305098 1.244862-0.662588z m-7.509334 4.818823a22.086275 22.086275 0 0 0-4.256627 3.45349 6.605804 6.605804 0 0 0-1.907451 2.95153c-0.120471 0.64251 0.220863 0.883451 1.044078 0.803137a17.66902 17.66902 0 0 0 3.734589-0.983843z m2.509804 13.030902l1.546039-6.846745a91.196235 91.196235 0 0 0-4.59796 1.586196l-1.686589 7.710118a27.808627 27.808627 0 0 0 3.132236-1.485804c0.562196-0.341333 1.064157-0.622431 1.606274-0.983843z m3.654275-16.424157a23.833098 23.833098 0 0 0-2.570039 1.264941 36.542745 36.542745 0 0 0-2.30902 1.325177l-1.385412 6.565647c1.847216-0.662588 3.393255-1.244863 4.618039-1.646431z m-0.883451 9.256157l-1.365334 6.304628a20.259137 20.259137 0 0 0 3.774746-3.172393 6.987294 6.987294 0 0 0 1.766902-3.011764c0.160627-0.883451-1.244863-0.923608-4.196393-0.100393z" fill="#E6A324" p-id="29273"></path><path d="M518.254094 221.299124c-6.599665 13.488538-59.425864 1.137292-117.97966-27.590694S299.677497 130.726162 306.285545 117.177974l9.316011-18.966473L527.575694 202.292884z" fill="#B37515" p-id="29274"></path><path d="M519.107668 219.553717c-6.639431 13.48295-59.468424 1.151586-117.999543-27.593489S300.511187 128.97796 307.136324 115.45245l9.335894-18.963679 211.954255 104.078589z" fill="#C98C1C" p-id="29275"></path><path d="M410.098525 173.64444a118.061176 27.226353 26.18 1 0 24.024132-48.866535 118.061176 27.226353 26.18 1 0-24.024132 48.866535Z" fill="#B37515" p-id="29276"></path><path d="M505.837511 246.601942l-0.141331 0.284274" fill="#DFB32B" p-id="29277"></path><path d="M294.324014 141.551234L293.724836 142.784949" fill="#DFB32B" p-id="29278"></path><path d="M322.387038 115.284362l-8.188159 16.712168 1.739604 2.049028 8.290368-16.71808q-0.970614-1.028544-1.841813-2.043116z" fill="#DFB32B" p-id="29279"></path><path d="M335.987027 128.448759l-8.230719 16.726463 2.016998 1.662222 8.210837-16.729257a106.415686 106.415686 0 0 1-1.997116-1.659428z" fill="#DFB32B" p-id="29280"></path><path d="M350.548066 139.680096l-8.23072 16.726463c0.725139 0.466875 1.382246 0.985016 2.081914 1.488863l8.171071-16.734846z" fill="#DFB32B" p-id="29281"></path><path d="M365.629073 149.808516l-8.23072 16.726463 2.163918 1.338182 8.227925-16.70658z" fill="#DFB32B" p-id="29282"></path><path d="M381.128483 159.123881l-8.230719 16.726463 2.192184 1.281328 8.210836-16.729257z" fill="#DFB32B" p-id="29283"></path><path d="M396.899055 167.808256l-8.190953 16.732051 2.245922 1.187502 8.190954-16.732052z" fill="#DFB32B" p-id="29284"></path><path d="M413.011938 175.932467l-8.230719 16.726463 2.276983 1.110763 8.230719-16.726462z" fill="#DFB32B" p-id="29285"></path><path d="M429.327951 183.476953l-8.190954 16.732051 2.327927 1.036821 8.190953-16.732052z" fill="#DFB32B" p-id="29286"></path><path d="M446.031629 190.427098l-8.23072 16.726463 2.361781 0.940199 8.213631-16.74914z" fill="#DFB32B" p-id="29287"></path><path d="M463.000557 196.644043l-8.190953 16.732051 2.39843 0.823696 8.23072-16.726463z" fill="#DFB32B" p-id="29288"></path><path d="M480.453127 202.01655l-8.230719 16.726463 2.494729 0.715575 8.236308-16.766229c-0.840998-0.219573-1.684791-0.419264-2.500318-0.675809z" fill="#DFB32B" p-id="29289"></path><path d="M498.516053 206.07581l-8.230719 16.726463 2.624559 0.368858 8.23072-16.726463z" fill="#DFB32B" p-id="29290"></path><path d="M518.07988 207.101888l-8.23072 16.726462a24.776784 24.776784 0 0 0 3.147645-0.611966l8.190954-16.732051a22.588235 22.588235 0 0 1-3.107879 0.617555z" fill="#DFB32B" p-id="29291"></path><path d="M410.731266 172.32313a118.061176 27.226353 26.18 1 0 24.024132-48.866535 118.061176 27.226353 26.18 1 0-24.024132 48.866535Z" fill="#E6A324" p-id="29292"></path><path d="M416.711424 163.335197a99.468549 18.612706 26.18 1 0 16.423578-33.406547 99.468549 18.612706 26.18 1 0-16.423578 33.406547Z" fill="#F4C738" p-id="29293"></path><path d="M441.180935 142.563699c1.504017 0.839924 2.846175 1.677376 4.034858 2.452707a24.094118 24.094118 0 0 1 3.12056 2.466142 6.023529 6.023529 0 0 1 1.463068 1.564096 0.341333 0.341333 0 0 1-0.20904 0.477515 2.971608 2.971608 0 0 1-1.760562-0.024397 9.436863 9.436863 0 0 1-2.248072-0.883667 5.842824 5.842824 0 0 1-2.540513-2.121037 11.765961 11.765961 0 0 0-3.119701-3.337878l-10.070917 4.140182a27.26651 27.26651 0 0 1 5.981781 5.767692c0.991464 1.457265 0.931277 2.462594-0.146705 2.919366a28.93302 28.93302 0 0 1-17.863128-3.605389l-4.760213 1.987119-1.8905-0.975344 4.539028-1.855999c-1.429751-0.647005-2.765675-1.240272-3.942536-1.811184l-3.06736-1.546255-4.482495 1.742289-1.986799-0.867223 4.584383-1.890176a40.69898 40.69898 0 0 1-6.53496-4.284204c-1.593221-1.359355-2.106203-2.181653-1.433942-2.492687a2.730667 2.730667 0 0 1 1.539054 0.013542 10.521098 10.521098 0 0 1 2.020653 0.770602 9.517176 9.517176 0 0 1 3.319391 2.494086 11.926588 11.926588 0 0 0 2.808988 2.807592l10.0793-4.199831a27.587765 27.587765 0 0 1-6.296148-5.406359q-1.347532-1.953374 0.989853-3.003627a11.705725 11.705725 0 0 1 6.369019-0.017301 63.086431 63.086431 0 0 1 10.874941 3.555948l1.835365-0.796395 1.802263 0.88184-1.696507 0.67398c0.477515 0.209041 1.603109 0.71192 3.345723 1.585377l3.66729 1.894155 1.721978-0.710952 1.779584 0.898929z m-11.488306-4.818145a31.964863 31.964863 0 0 0-7.464303-2.14393 9.637647 9.637647 0 0 0-4.934646 0.198614c-0.78006 0.356712-0.804242 0.961586-0.044281 1.757767a25.479529 25.479529 0 0 0 4.105469 3.537246z m-13.085509 13.327215l9.112232-3.666643a64.291137 64.291137 0 0 0-5.489542-4.076453l-10.226865 4.239919a38.53051 38.53051 0 0 0 4.25916 2.44368z m21.838341-8.954343a29.675922 29.675922 0 0 0-3.514137-1.97401c-0.949441-0.457847-2.094919-0.963522-3.391078-1.5512l-8.623862 3.654176c2.275156 1.556573 4.132445 2.912489 5.520603 3.999715z m-11.377717 6.369337l-8.374411 3.466201a28.451137 28.451137 0 0 0 6.699721 1.813442 9.115608 9.115608 0 0 0 4.854791-0.351767c1.066483-0.519215 0.102962-2.175311-3.180101-4.927876z" fill="#E6A324" p-id="29294"></path><path d="M296.478118 346.172235s-46.039843-75.715765-49.433098-87.220706c-9.276235-31.402667 9.456941-68.728471 30.418823-63.427764 24.636235 6.224314 76.016941 40.879686 106.415686 41.642666 25.780706 0.622431 60.074667-30.318431 97.561098-41.120627a241.061647 241.061647 0 0 1 44.433569-4.879059 156.611765 156.611765 0 0 1 50.055529 8.332549c60.636863 22.467765 64.25098 43.509961 98.866197 47.585882a119.767843 119.767843 0 0 0 49.433098-6.023529 169.783216 169.783216 0 0 1 45.879215-37.62698c16.544627-6.886902 55.115294-10.822275 49.192157 23.752784-5.822745 33.972706-104.568471 134.78651-104.56847 134.78651l-403.094589 6.023529z" fill="#F27F05" p-id="29295"></path><path d="M725.875451 513.124392h-1.305098a19.476078 19.476078 0 0 1-18.070588-20.720941 595.486118 595.486118 0 0 0-4.718432-103.524392 19.496157 19.496157 0 0 1 38.590745-5.481412 624.298667 624.298667 0 0 1 4.99953 111.575843 19.476078 19.476078 0 0 1-19.496157 18.150902z" fill="#EFCB72" p-id="29296"></path><path d="M589.221647 674.032941c0-33.02902-18.793412-51.119686-62.825412-60.476235l-3.594039-0.783059a163.880157 163.880157 0 0 1-32.888471-8.352627 25.6 25.6 0 0 1-19.355607-24.495687c0-18.070588 16.183216-30.117647 40.297411-30.117647a43.349333 43.349333 0 0 1 34.474667 13.171451 38.992314 38.992314 0 0 1 8.031373 19.656785h33.551058l-0.943686-5.702275a65.556078 65.556078 0 0 0-12.448627-29.816471 67.865098 67.865098 0 0 0-47.385098-24.95749v-35.478588h-31.041255v35.398275a58.608941 58.608941 0 0 0-56.058981 58.347921 49.814588 49.814588 0 0 0 27.105883 46.039843 124.28549 124.28549 0 0 0 37.004549 12.609255 123.622902 123.622902 0 0 1 41.682823 12.247843 24.415373 24.415373 0 0 1 12.348236 23.190589c0 21.303216-16.203294 33.490824-44.473726 33.490823a47.987451 47.987451 0 0 1-39.353725-15.922196 35.398275 35.398275 0 0 1-6.967216-22.869333h-34.394353l0.461804 3.774745a73.788235 73.788235 0 0 0 13.653333 37.185255 70.816627 70.816627 0 0 0 48.971294 25.559843v35.659294h31.041255v-34.976628c40.19702-3.814902 63.10651-25.941333 63.10651-62.383686z" fill="#FFFFFF" p-id="29297"></path><path d="M785.749333 540.732235a19.476078 19.476078 0 0 1-19.235137-16.564706 264.292392 264.292392 0 0 0-40.036392-108.704627 67.222588 67.222588 0 0 0-47.887059-21.905569H364.92549c-57.544784 0-71.760314-13.412392-72.804392-14.496627a21.363451 21.363451 0 0 1-7.127843-22.086275c1.305098-10.681725 10.822275-14.476549 30.438902-5.50149a307.722039 307.722039 0 0 0 49.473255 3.072h313.665255a105.351529 105.351529 0 0 1 76.418509 34.314039c22.728784 24.455529 43.289098 84.971922 50.035451 129.405491a19.476078 19.476078 0 0 1-16.323764 22.086274 20.500078 20.500078 0 0 1-2.95153 0.38149z" fill="#EFCB72" p-id="29298"></path><path d="M749.94949 420.562824a59.110902 59.110902 0 0 1-23.230745-4.838902 57.484549 57.484549 0 0 1-29.776314-28.712157 50.196078 50.196078 0 0 1-0.803137-41.261177 55.838118 55.838118 0 0 1 102.4 43.991843 50.296471 50.296471 0 0 1-30.479059 27.828706 56.58102 56.58102 0 0 1-18.110745 2.991687z m30.679843-38.510432z m-35.860078-28.109804a13.392314 13.392314 0 0 0-12.810039 7.188079 11.665569 11.665569 0 0 0 0.401568 9.617568 19.616627 19.616627 0 0 0 23.090196 9.898667 11.745882 11.745882 0 0 0 7.288471-6.324706 15.500549 15.500549 0 0 0-10.159686-18.773333 19.516235 19.516235 0 0 0-7.81051-1.586196z" fill="#EFCB72" p-id="29299"></path></svg>