<svg width="2163" height="1423" viewBox="0 0 2163 1423" fill="none" xmlns="http://www.w3.org/2000/svg">
<circle cx="104" cy="900" r="104" fill="#AFF4C6"/>
<path d="M88.16 883.6H99.12V886.4H88.16V883.6ZM88.16 892.6H99.12V895.32H88.16V892.6ZM87.96 901.68H99.16V904.44H87.96V901.68ZM97.72 883.6H100.6V914.12C100.6 915.92 100.24 916.84 99.08 917.36C97.92 917.84 95.96 917.92 92.84 917.92C92.76 917.08 92.32 915.72 91.88 914.92C94.16 915 96.24 915 96.88 914.96C97.52 914.92 97.72 914.72 97.72 914.12V883.6ZM86.72 883.6H89.6V897.4C89.6 903.76 88.96 912.56 84.72 918.32C84.24 917.84 83 917.04 82.28 916.76C86.36 911.24 86.72 903.36 86.72 897.4V883.6ZM70.64 883.6H81.2V886.4H70.64V883.6ZM70.64 892.6H81.2V895.32H70.64V892.6ZM70.56 901.68H81.16V904.44H70.56V901.68ZM79.56 883.6H82.36V913.96C82.36 915.56 82.04 916.44 81 916.92C79.92 917.4 78.2 917.44 75.56 917.44C75.44 916.68 75.04 915.44 74.68 914.68C76.56 914.72 78.28 914.72 78.8 914.72C79.36 914.68 79.56 914.52 79.56 914V883.6ZM69.44 883.6H72.24V897.88C72.24 904.04 71.72 912.64 68.08 918.24C67.56 917.8 66.32 917.04 65.64 916.76C69.12 911.36 69.44 903.68 69.44 897.92V883.6ZM118.68 897.72C122.2 907.2 129.96 913.32 141.88 915.48C141.2 916.12 140.36 917.36 139.96 918.2C127.8 915.64 120.12 909.08 116.08 898.52L118.68 897.72ZM133.44 896.32H134L134.56 896.16L136.6 897.08C133.24 909.16 124.52 915.28 114.24 918.24C113.88 917.44 113.16 916.28 112.52 915.68C122.08 913.28 130.52 907.36 133.44 896.88V896.32ZM106.32 888.08H140.88V891H106.32V888.08ZM117.04 896.32H133.76V899.24H116.2L117.04 896.32ZM117.04 881.4H120.12C119.84 886 119.16 906.96 107.56 916.92C106.96 916.16 105.92 915.4 104.96 914.84C116.48 905.68 116.84 885.04 117.04 881.4Z" fill="black" fill-opacity="0.8"/>
<circle cx="1644" cy="104" r="104" fill="#FFC2F2"/>
<path d="M1611.24 100.4H1621.2V103.2H1611.24V100.4ZM1620 100.4H1622.92C1622.92 100.4 1622.92 101.28 1622.92 101.68C1622.72 110.72 1622.48 114.08 1621.64 115.2C1621 115.92 1620.36 116.2 1619.24 116.32C1618.2 116.44 1616.4 116.4 1614.44 116.32C1614.36 115.44 1614.04 114.28 1613.6 113.52C1615.4 113.68 1617.16 113.68 1617.84 113.68C1618.4 113.68 1618.8 113.64 1619.08 113.28C1619.68 112.56 1619.88 109.56 1620 100.92V100.4ZM1631.28 87.44L1633.08 85.56C1635.56 86.84 1638.72 88.76 1640.28 90.16L1638.4 92.2C1636.88 90.8 1633.8 88.76 1631.28 87.44ZM1637 98.28L1640 99C1636.6 109.44 1630.64 117.16 1622.44 122C1622 121.4 1620.88 120.16 1620.24 119.56C1628.36 115.24 1634 107.92 1637 98.28ZM1611.48 92.2H1642.44V95.16H1611.48V92.2ZM1609.56 92.2H1612.68V103.48C1612.68 109.16 1612.04 117.24 1608.4 122.48C1607.88 121.88 1606.6 120.84 1605.88 120.48C1609.2 115.56 1609.56 108.68 1609.56 103.44V92.2ZM1626.16 85.48H1629.28C1629.2 103.88 1633.12 118.88 1638.32 118.88C1639.44 118.88 1639.96 116.8 1640.2 111.48C1640.88 112.16 1642 112.84 1642.8 113.12C1642.24 119.96 1641.12 121.92 1638.08 121.92C1629.92 121.92 1626.32 104.64 1626.16 85.48ZM1654.24 89.84V94.36H1672.92V89.84H1654.24ZM1651.12 87.2H1676.2V97H1651.12V87.2ZM1661.76 105.92H1664.96V109.68C1664.96 113.88 1663.12 119.04 1648.12 122.36C1647.76 121.72 1646.88 120.52 1646.16 119.88C1660.6 117.08 1661.76 112.8 1661.76 109.6V105.92ZM1664.72 116.44L1666.2 114.24C1670.96 115.76 1677.52 118.16 1681 119.84L1679.48 122.36C1676.16 120.68 1669.6 118.08 1664.72 116.44ZM1649.72 100.6H1677.76V115.04H1674.56V103.4H1652.8V115.32H1649.72V100.6Z" fill="black" fill-opacity="0.8"/>
<circle cx="312" cy="638" r="104" fill="#AFF4C6"/>
<path d="M288.12 640.64H308.08V656H305.2V643.4H290.88V656.2H288.12V640.64ZM306.6 619.56L308.96 621.92C303.48 623.8 295.12 625.04 287.96 625.72C287.84 625 287.44 623.84 287.08 623.16C294.04 622.4 302.16 621.16 306.6 619.56ZM296.76 623.04H299.64V642.24H296.76V623.04ZM285.2 631.16H310.68V634.04H285.2V631.16ZM290 651.72H306.52V654.48H290V651.72ZM276.04 622.04L277.72 619.92C280.16 621.12 283.56 622.92 285.28 624.08L283.52 626.52C281.84 625.32 278.52 623.36 276.04 622.04ZM274.08 633.08L275.76 630.88C278.12 632.04 281.48 633.8 283.16 634.96L281.48 637.4C279.84 636.28 276.52 634.36 274.08 633.08ZM275.04 653.64C277.2 650.6 280.36 645.32 282.68 640.76L284.84 642.72C282.72 646.96 279.92 651.96 277.56 655.68L275.04 653.64ZM331.84 628.64H347.88V631.52H331.84V628.64ZM346.4 628.64H349.36C349.36 628.64 349.32 629.76 349.32 630.16C348.8 646.68 348.32 652.32 346.92 654.08C346.12 655.16 345.32 655.48 344 655.64C342.76 655.76 340.6 655.72 338.48 655.6C338.4 654.72 338.08 653.48 337.52 652.64C339.8 652.84 341.88 652.84 342.76 652.84C343.44 652.88 343.88 652.76 344.32 652.28C345.4 651 345.96 645.24 346.4 629.32V628.64ZM337.64 620.12H340.6C340.52 634.04 340.32 648.48 332.2 656.16C331.68 655.48 330.64 654.48 329.88 654C337.56 646.96 337.6 633.2 337.64 620.12ZM315.12 622.68H330.6V625.4H315.12V622.68ZM313.68 632.24H331.32V634.96H313.68V632.24ZM325.48 639.12L327.92 638.44C329.48 642 331.28 646.8 332 649.56L329.36 650.48C328.68 647.64 326.96 642.76 325.48 639.12ZM315.12 651.28L314.88 648.76L316.4 647.68L329.52 644.92C329.6 645.72 329.8 646.88 329.92 647.52C317.6 650.28 316.08 650.72 315.12 651.28ZM315.12 651.28C314.96 650.64 314.48 649.24 314.16 648.48C314.8 648.28 315.32 647.24 316 645.68C316.6 644.24 318.64 638.48 319.6 633.28L322.52 634.2C321.28 639.56 319.24 645.44 317.2 649.56V649.6C317.2 649.6 315.12 650.64 315.12 651.28Z" fill="black" fill-opacity="0.8"/>
<circle cx="1532" cy="1083" r="104" fill="#FF8A00"/>
<path d="M1475.36 1059.47H1526.3V1064.46H1475.36V1059.47ZM1471.97 1101.46H1529.5V1106.26H1471.97V1101.46ZM1497.82 1061.97H1503.2V1103.44H1497.82V1061.97ZM1562.46 1062.99H1592.8V1067.6H1560.22L1562.46 1062.99ZM1570.46 1076.88H1591.33V1081.3H1570.46V1076.88ZM1570.4 1090.96H1592.22V1095.5H1570.4V1090.96ZM1568.03 1064.46H1572.96V1111.12H1568.03V1064.46ZM1564.9 1053.01L1569.57 1054.22C1565.92 1064.4 1560.35 1074.45 1554.46 1081.04C1553.76 1080.21 1551.84 1078.48 1550.75 1077.71C1556.58 1071.76 1561.76 1062.42 1564.9 1053.01ZM1549.54 1052.5L1554.14 1053.97C1549.92 1064.78 1543.33 1075.73 1536.35 1082.9C1535.9 1081.74 1534.43 1079.18 1533.54 1078.03C1539.94 1071.82 1545.89 1062.22 1549.54 1052.5ZM1542.69 1069.01L1547.42 1064.21L1547.55 1064.27V1111.06H1542.69V1069.01Z" fill="white"/>
<circle cx="1532" cy="495" r="104" fill="#FF3BA5"/>
<path d="M1498.14 464.304H1503.07V472.816H1498.14V464.304ZM1474.27 470H1527.46V482.736H1522.59V474.416H1478.94V482.736H1474.27V470ZM1482.46 480.816H1518.5V485.04H1482.46V480.816ZM1490.85 490.416L1494.43 488.176C1508.64 498.672 1508.96 516.528 1502.37 521.136C1500.19 522.864 1498.4 523.312 1495.52 523.312C1493.98 523.312 1491.94 523.248 1489.95 523.12C1489.82 521.84 1489.38 519.856 1488.54 518.512C1490.91 518.768 1493.09 518.832 1494.56 518.832C1496.29 518.832 1497.7 518.704 1498.98 517.616C1503.52 514.352 1503.26 499.888 1490.85 490.416ZM1500.45 481.776L1504.42 483.504C1497.82 489.904 1486.43 494.832 1476.45 497.712C1475.94 496.816 1474.66 494.832 1473.82 493.936C1483.62 491.568 1494.62 487.216 1500.45 481.776ZM1495.9 494L1499.1 496.176C1493.79 500.528 1484.19 505.52 1476.83 508.144C1476.26 507.056 1475.23 505.392 1474.27 504.432C1481.5 502.448 1491.17 497.904 1495.9 494ZM1500.64 500.592L1503.97 503.024C1497.31 509.744 1484.83 516.784 1474.59 520.176C1474.02 518.96 1472.93 517.232 1472.03 516.144C1482.21 513.456 1494.62 506.8 1500.64 500.592ZM1506.53 482.48C1510.05 496.88 1517.73 509.104 1529.89 513.968C1528.8 514.928 1527.33 516.784 1526.56 518.128C1513.95 512.368 1506.4 499.376 1502.56 483.312L1506.53 482.48ZM1522.98 487.216L1526.69 490.416C1522.34 493.936 1516.32 497.904 1511.78 500.336L1508.77 497.392C1513.12 494.832 1519.33 490.48 1522.98 487.216ZM1545.44 479.28H1557.47V483.312H1545.44V479.28ZM1549.66 493.296H1560.22V497.072H1549.66V493.296ZM1564.45 492.528H1592.1V496.752H1564.45V492.528ZM1565.73 507.312H1590.75V511.472H1565.73V507.312ZM1575.65 481.904H1580.13V509.552H1575.65V481.904ZM1556.26 479.28H1556.9L1557.6 479.088L1560.67 480.176C1557.73 485.616 1553.25 493.168 1549.47 499.056L1545.63 497.776C1549.41 492.016 1553.95 484.08 1556.26 479.856V479.28ZM1586.53 477.68L1589.92 480.944C1583.84 483.312 1574.3 484.848 1566.3 485.68C1566.11 484.72 1565.6 483.12 1565.02 482.16C1572.64 481.2 1581.66 479.664 1586.53 477.68ZM1549.41 500.912C1553.38 515.248 1562.34 517.936 1575.52 517.936C1577.76 517.936 1590.37 517.936 1593.31 517.872C1592.61 518.96 1591.9 520.944 1591.65 522.224H1575.33C1560.03 522.224 1550.62 518.832 1545.82 502.192L1549.41 500.912ZM1558.69 493.296H1559.58L1560.42 493.168L1563.04 494C1560.67 509.68 1554.4 518.768 1545.57 523.376C1544.93 522.416 1543.39 520.752 1542.5 520.048C1550.94 515.952 1556.7 507.824 1558.69 494.064V493.296ZM1562.66 464.304H1567.58V472.432H1562.66V464.304ZM1540.83 470.192H1592.03V474.544H1540.83V470.192ZM1538.46 470.192H1543.14V489.136C1543.14 499.056 1542.37 513.584 1537.31 523.376C1536.48 522.544 1534.43 521.136 1533.28 520.688C1538.08 511.472 1538.46 498.48 1538.46 489.136V470.192Z" fill="white"/>
<circle cx="638" cy="777" r="104" fill="#14AE5C"/>
<path d="M600.624 798.592H636.784V803.328H600.624V798.592ZM603.12 767.232H635.44V771.84H603.12V767.232ZM616.88 746.752H621.744V800.896H616.88V746.752ZM578.224 758.272H599.472V762.688H578.224V758.272ZM588.336 777.472L593.072 771.776V805.184H588.336V777.472ZM588.336 746.304H593.072V760.448H588.336V746.304ZM592.688 773.056C594.864 774.592 602.288 781.12 604.144 782.72L601.2 786.624C598.832 783.872 592.56 777.792 589.936 775.488L592.688 773.056ZM597.68 758.272H598.64L599.536 758.08L602.288 759.872C597.424 771.648 587.632 782.272 578.48 788.16C577.968 786.944 576.816 784.704 575.984 783.872C584.688 778.752 593.84 769.024 597.68 759.296V758.272ZM682.608 757.056L687.344 758.656C679.6 773.248 668.08 785.856 655.792 794.112C654.96 793.152 653.104 791.296 651.952 790.4C664.432 782.912 675.632 770.624 682.608 757.056ZM654.576 764.864L657.968 761.792C669.744 769.088 683.696 780.032 690.288 788.096L686.448 791.68C680.176 783.68 666.48 772.352 654.576 764.864ZM643.312 750.208H696.688V754.816H648.048V805.248H643.312V750.208ZM646.384 796.928H698.16V801.6H646.384V796.928Z" fill="white"/>
<circle cx="1993" cy="520" r="104" fill="#FFC2F2"/>
<path d="M1958.32 517.8H1970.4V520.24H1958.32V517.8ZM1956.68 505.6H1969.76V508.24H1956.68V505.6ZM1955.08 512.16H1974.48V514.8H1955.08V512.16ZM1961.96 501.4H1964.8V513.56H1961.96V501.4ZM1972.6 502.32L1975.4 503.16C1971.36 513.08 1964.76 520.6 1956.4 525.36C1955.96 524.76 1954.88 523.6 1954.24 523.08C1962.6 518.8 1969 511.56 1972.6 502.32ZM1963.56 523.16H1966.4V535C1966.4 536.56 1966.08 537.32 1965 537.76C1963.88 538.16 1962.16 538.2 1959.6 538.2C1959.44 537.44 1959.04 536.32 1958.64 535.56C1960.64 535.6 1962.32 535.6 1962.88 535.6C1963.44 535.56 1963.56 535.44 1963.56 535V523.16ZM1969.8 517.8H1970.4L1970.96 517.64L1972.72 518.92C1970.84 521.24 1968.08 523.72 1965.72 525.28C1965.36 524.76 1964.64 524.08 1964.16 523.68C1966.2 522.32 1968.6 520 1969.8 518.28V517.8ZM1954.88 527.6C1959.76 527.16 1967.36 526.4 1974.64 525.6V528.24C1967.68 529 1960.32 529.8 1955.24 530.36L1954.88 527.6ZM1977.6 508.88H1991.84V511.68H1977.6V508.88ZM1978.68 501.4L1981.68 501.88C1980.32 509.4 1977.92 516.52 1974.6 521.08C1974.08 520.56 1972.8 519.52 1972.12 519.04C1975.36 514.88 1977.48 508.28 1978.68 501.4ZM1986.36 510.4L1989.4 510.72C1987.48 524.56 1983.24 533.12 1973.16 538.32C1972.84 537.64 1971.96 536.28 1971.36 535.64C1980.88 531.16 1984.72 523.12 1986.36 510.4ZM1979.12 511.24C1980.88 522.28 1984.68 531.76 1992.16 535.68C1991.44 536.28 1990.48 537.44 1990.04 538.24C1982.2 533.64 1978.4 523.84 1976.4 511.68L1979.12 511.24ZM2000.68 518.36H2022.64V520.92H2003.68V538.24H2000.68V518.36ZM2021.64 518.36H2024.64V535C2024.64 536.64 2024.24 537.4 2022.96 537.8C2021.72 538.2 2019.64 538.2 2016.4 538.2C2016.24 537.48 2015.8 536.44 2015.44 535.72C2017.76 535.8 2020.12 535.8 2020.76 535.76C2021.44 535.72 2021.64 535.56 2021.64 535V518.36ZM2002.48 523.96H2022.88V526.2H2002.48V523.96ZM1994.96 505.32H2030.16V508H1994.96V505.32ZM2006.08 506.96L2009.36 507.92C2007.6 510.36 2005.36 513.12 2003.64 514.92L2001.24 514C2002.88 512.12 2004.92 509.08 2006.08 506.96ZM2017.24 509.48L2019.6 507.96C2023.16 510.24 2027.6 513.6 2029.8 516L2027.28 517.8C2025.2 515.4 2020.88 511.88 2017.24 509.48ZM1996.56 513.12C2003.68 513.08 2015.08 512.84 2025.76 512.6L2025.6 515.08C2015.16 515.44 2003.96 515.76 1996.68 515.92L1996.56 513.12ZM2002.48 529.32H2022.76V531.52H2002.48V529.32ZM2010.92 501.4H2014V506.64H2010.92V501.4Z" fill="black" fill-opacity="0.8"/>
<circle cx="438" cy="987" r="104" fill="#AFF4C6"/>
<path d="M406.76 976.2H434.48V979.12H406.76V976.2ZM405 987.92H433.04V990.8H405V987.92ZM400.64 1001H436.36V1003.92H400.64V1001ZM416.96 968.44H420.04V1002.48H416.96V968.44ZM407.96 969.08L411.04 969.76C409.28 975.96 406.48 981.88 403.28 985.72C402.68 985.2 401.32 984.32 400.56 983.92C403.84 980.36 406.44 974.8 407.96 969.08ZM453.24 989.64H473.2V1005H470.32V992.4H456V1005.2H453.24V989.64ZM471.72 968.56L474.08 970.92C468.6 972.8 460.24 974.04 453.08 974.72C452.96 974 452.56 972.84 452.2 972.16C459.16 971.4 467.28 970.16 471.72 968.56ZM461.88 972.04H464.76V991.24H461.88V972.04ZM450.32 980.16H475.8V983.04H450.32V980.16ZM455.12 1000.72H471.64V1003.48H455.12V1000.72ZM441.16 971.04L442.84 968.92C445.28 970.12 448.68 971.92 450.4 973.08L448.64 975.52C446.96 974.32 443.64 972.36 441.16 971.04ZM439.2 982.08L440.88 979.88C443.24 981.04 446.6 982.8 448.28 983.96L446.6 986.4C444.96 985.28 441.64 983.36 439.2 982.08ZM440.16 1002.64C442.32 999.6 445.48 994.32 447.8 989.76L449.96 991.72C447.84 995.96 445.04 1000.96 442.68 1004.68L440.16 1002.64Z" fill="black" fill-opacity="0.8"/>
<circle cx="2059" cy="1211" r="104" fill="#FCD19C"/>
<path d="M2034.48 1199.48L2037.72 1200.12C2034.96 1204 2030.92 1207.8 2025.04 1210.72C2024.6 1210 2023.68 1209 2023 1208.56C2028.56 1206.08 2032.44 1202.6 2034.48 1199.48ZM2034.04 1202.48H2047.96V1204.88H2031.88L2034.04 1202.48ZM2047.12 1202.48H2047.68L2048.24 1202.36L2050.24 1203.6C2044.88 1212 2033.08 1217.08 2022.32 1219.36C2022.04 1218.6 2021.4 1217.4 2020.84 1216.72C2031.12 1214.84 2042.56 1210 2047.12 1202.96V1202.48ZM2032.88 1204.36C2037.56 1210.36 2047.24 1214.24 2057.96 1215.6C2057.28 1216.28 2056.48 1217.56 2056.04 1218.44C2045.28 1216.76 2035.6 1212.48 2030.24 1205.56L2032.88 1204.36ZM2028.4 1216.88H2050.64V1229.12H2047.56V1219.44H2031.36V1229.16H2028.4V1216.88ZM2029.88 1225.28H2049.08V1227.84H2029.88V1225.28ZM2037.8 1192.44H2040.88V1197.64H2037.8V1192.44ZM2022.48 1196.04H2056.32V1203.6H2053.28V1198.8H2025.44V1203.6H2022.48V1196.04ZM2065.32 1198.6H2068.44V1207.32C2068.44 1213.88 2067.6 1223.24 2062.48 1229.44C2061.96 1228.88 2060.64 1227.96 2059.88 1227.64C2064.8 1221.72 2065.32 1213.36 2065.32 1207.32V1198.6ZM2076.16 1192.96L2079.08 1192.2C2080 1194.08 2081.04 1196.48 2081.52 1198.04L2078.48 1198.96C2078.04 1197.36 2077 1194.84 2076.16 1192.96ZM2067.28 1198.6H2092.36V1214.92H2089.32V1201.44H2067.28V1198.6ZM2067.28 1209.48H2090.96V1212.28H2067.28V1209.48Z" fill="black" fill-opacity="0.8"/>
<circle cx="1803" cy="1319" r="104" fill="#FCD19C"/>
<path d="M1765.32 1309.8H1777.04V1312.6H1765.32V1309.8ZM1769.84 1300.4H1772.72V1337.16H1769.84V1300.4ZM1778.24 1308H1794.96V1310.92H1778.24V1308ZM1793.8 1308H1796.68C1796.68 1308 1796.68 1309.12 1796.68 1309.52C1796.24 1327.4 1795.88 1333.36 1794.48 1335.16C1793.68 1336.28 1792.84 1336.6 1791.56 1336.76C1790.32 1336.88 1788.16 1336.84 1786.04 1336.72C1785.96 1335.88 1785.64 1334.64 1785.12 1333.84C1787.4 1334 1789.52 1334.04 1790.36 1334.04C1791.08 1334.04 1791.48 1333.92 1791.88 1333.4C1793 1332.12 1793.4 1325.92 1793.8 1308.72V1308ZM1778.88 1315.04L1781.56 1315.6C1780.72 1319.8 1779.16 1324 1777.32 1326.8C1776.84 1326.36 1775.72 1325.6 1775.04 1325.2C1776.84 1322.64 1778.12 1318.88 1778.88 1315.04ZM1796.96 1315.68L1799.48 1315.16C1800.64 1318.84 1801.88 1323.64 1802.28 1326.44L1799.52 1327.12C1799.2 1324.28 1798.08 1319.4 1796.96 1315.68ZM1785.4 1300.8H1788.24V1307.96C1788.24 1316.84 1787.4 1328.52 1776.92 1337.28C1776.44 1336.6 1775.36 1335.68 1774.64 1335.24C1784.68 1327 1785.4 1316.16 1785.4 1307.96V1300.8ZM1822.04 1307.12H1841V1310H1820.64L1822.04 1307.12ZM1827.04 1315.8H1840.08V1318.56H1827.04V1315.8ZM1827 1324.6H1840.64V1327.44H1827V1324.6ZM1825.52 1308.04H1828.6V1337.2H1825.52V1308.04ZM1823.56 1300.88L1826.48 1301.64C1824.2 1308 1820.72 1314.28 1817.04 1318.4C1816.6 1317.88 1815.4 1316.8 1814.72 1316.32C1818.36 1312.6 1821.6 1306.76 1823.56 1300.88ZM1813.96 1300.56L1816.84 1301.48C1814.2 1308.24 1810.08 1315.08 1805.72 1319.56C1805.44 1318.84 1804.52 1317.24 1803.96 1316.52C1807.96 1312.64 1811.68 1306.64 1813.96 1300.56ZM1809.68 1310.88L1812.64 1307.88L1812.72 1307.92V1337.16H1809.68V1310.88Z" fill="black" fill-opacity="0.8"/>
<circle cx="1803" cy="973" r="104" fill="#FCD19C"/>
<path d="M1773.32 963.52H1793.68V966.16H1773.32V963.52ZM1775.36 970.36H1778.16V986H1775.36V970.36ZM1776.88 970.36H1791.52V983.08H1776.88V980.48H1788.72V972.88H1776.88V970.36ZM1766.92 956.48H1798.88V959.36H1769.84V991.28H1766.92V956.48ZM1797.04 956.48H1800V987.4C1800 989.28 1799.52 990.2 1798.28 990.68C1797.08 991.2 1795.08 991.28 1791.6 991.24C1791.48 990.44 1791 989.12 1790.52 988.32C1793.04 988.4 1795.4 988.4 1796.08 988.36C1796.8 988.32 1797.04 988.08 1797.04 987.4V956.48ZM1820.88 954.4H1823.92V987.84C1823.92 989.72 1823.4 990.44 1822.16 990.88C1820.88 991.28 1818.8 991.32 1815.44 991.32C1815.28 990.6 1814.8 989.48 1814.4 988.8C1816.8 988.88 1819.2 988.84 1819.92 988.84C1820.64 988.8 1820.88 988.56 1820.88 987.84V954.4ZM1805.24 957.6H1839.96V960.08H1805.24V957.6ZM1812.28 964.56V967.44H1832.92V964.56H1812.28ZM1809.44 962.48H1835.96V969.56H1809.44V962.48ZM1808.28 972.36H1836.56V986.92H1833.56V974.6H1808.28V972.36ZM1804.48 977.36H1840.72V979.76H1804.48V977.36ZM1807.88 982.8H1835.12V985.12H1807.88V982.8Z" fill="black" fill-opacity="0.8"/>
<circle cx="1948" cy="260" r="104" fill="#FFC2F2"/>
<path d="M1915.24 256.4H1925.2V259.2H1915.24V256.4ZM1924 256.4H1926.92C1926.92 256.4 1926.92 257.28 1926.92 257.68C1926.72 266.72 1926.48 270.08 1925.64 271.2C1925 271.92 1924.36 272.2 1923.24 272.32C1922.2 272.44 1920.4 272.4 1918.44 272.32C1918.36 271.44 1918.04 270.28 1917.6 269.52C1919.4 269.68 1921.16 269.68 1921.84 269.68C1922.4 269.68 1922.8 269.64 1923.08 269.28C1923.68 268.56 1923.88 265.56 1924 256.92V256.4ZM1935.28 243.44L1937.08 241.56C1939.56 242.84 1942.72 244.76 1944.28 246.16L1942.4 248.2C1940.88 246.8 1937.8 244.76 1935.28 243.44ZM1941 254.28L1944 255C1940.6 265.44 1934.64 273.16 1926.44 278C1926 277.4 1924.88 276.16 1924.24 275.56C1932.36 271.24 1938 263.92 1941 254.28ZM1915.48 248.2H1946.44V251.16H1915.48V248.2ZM1913.56 248.2H1916.68V259.48C1916.68 265.16 1916.04 273.24 1912.4 278.48C1911.88 277.88 1910.6 276.84 1909.88 276.48C1913.2 271.56 1913.56 264.68 1913.56 259.44V248.2ZM1930.16 241.48H1933.28C1933.2 259.88 1937.12 274.88 1942.32 274.88C1943.44 274.88 1943.96 272.8 1944.2 267.48C1944.88 268.16 1946 268.84 1946.8 269.12C1946.24 275.96 1945.12 277.92 1942.08 277.92C1933.92 277.92 1930.32 260.64 1930.16 241.48ZM1957.08 277.96C1956.88 277.24 1956.28 275.96 1955.84 275.32C1956.52 275 1957.48 274.4 1957.48 272.84V241.64H1960.6V275.28C1960.6 275.28 1957.08 276.88 1957.08 277.96ZM1957.08 277.96L1956.84 275.24L1958.44 274.04L1970.24 271.12C1970.24 272 1970.36 273.28 1970.52 273.92C1959.52 276.88 1958.04 277.36 1957.08 277.96ZM1949.76 257.08H1985.32V260.08H1949.76V257.08ZM1969.32 258.44C1972.12 266.12 1977.92 271.88 1986.24 274.24C1985.48 274.88 1984.56 276.16 1984.12 277.04C1975.48 274.2 1969.72 267.92 1966.56 259.16L1969.32 258.44ZM1978.32 242.28L1981.32 243.56C1977.36 248.2 1971.28 252.36 1965.84 255C1965.32 254.36 1964.12 253.12 1963.36 252.56C1968.96 250.28 1974.8 246.44 1978.32 242.28Z" fill="black" fill-opacity="0.8"/>
<path d="M1642 495H1651.83C1654.1 495 1655.92 493.106 1655.83 490.833L1644.25 213.995" stroke="#B3B3B3" stroke-width="3" stroke-linecap="round" stroke-linejoin="bevel"/>
<path d="M1883.03 519.36L1656 495H1642" stroke="#B3B3B3" stroke-width="3" stroke-linecap="round" stroke-linejoin="bevel"/>
<path d="M1642 1083H1652.66C1654.6 1083 1656.25 1084.38 1656.6 1086.28L1697.92 1313.1" stroke="#B3B3B3" stroke-width="3" stroke-linecap="round" stroke-linejoin="bevel"/>
<path d="M1642 1083H1653.27C1654.92 1083 1656.39 1081.99 1656.99 1080.46L1696.82 978.588" stroke="#B3B3B3" stroke-width="3" stroke-linecap="round" stroke-linejoin="bevel"/>
<path d="M109.994 795.722L514 777H528" stroke="#B3B3B3" stroke-width="3" stroke-linecap="round" stroke-linejoin="bevel"/>
<path d="M528 777H516.054C514.765 777 513.554 777.621 512.803 778.669L441.496 878.124" stroke="#B3B3B3" stroke-width="3" stroke-linecap="round" stroke-linejoin="bevel"/>
<circle cx="1076" cy="838" r="104" fill="#757575"/>
<path d="M1038.62 815.56H1071.07V819.976H1038.62V815.56ZM1035.68 839.816H1073.82V844.232H1035.68V839.816ZM1034.27 828.104H1074.14V832.52H1034.27V828.104ZM1052.19 807.56H1056.93V830.408H1052.19V807.56ZM1060.83 831.56H1065.57V860.36C1065.57 863.24 1064.99 864.584 1062.94 865.352C1061.02 866.056 1057.82 866.12 1052.96 866.12C1052.77 864.776 1052.06 862.792 1051.42 861.448C1055.14 861.576 1058.59 861.576 1059.55 861.512C1060.51 861.448 1060.83 861.192 1060.83 860.296V831.56ZM1040.67 847.752L1044.51 845.64C1047.39 848.968 1050.59 853.576 1052 856.712L1047.9 859.144C1046.69 856.008 1043.55 851.208 1040.67 847.752ZM1019.62 811.784L1022.88 808.84C1026.21 811.72 1030.56 815.752 1032.61 818.312L1029.22 821.704C1027.23 818.952 1023.01 814.792 1019.62 811.784ZM1023.84 864.84L1022.88 860.36L1024.1 858.376L1035.3 849.864C1035.68 851.08 1036.58 852.936 1037.15 853.896C1026.46 862.216 1024.74 863.56 1023.84 864.84ZM1015.58 827.336H1026.91V832.008H1015.58V827.336ZM1023.84 864.84C1023.26 863.88 1021.92 862.152 1021.02 861.448C1022.3 860.488 1024.54 858.12 1024.54 854.92V827.336H1029.15V858.312C1029.15 858.312 1023.84 862.92 1023.84 864.84ZM1085.79 812.104H1129.12V817.032H1085.79V812.104ZM1078.88 831.368H1135.78V836.232H1078.88V831.368ZM1099.1 834.248L1104.86 835.784C1101.6 843.912 1097.12 854.024 1093.41 860.296L1088.93 858.76C1092.45 852.296 1096.8 841.8 1099.1 834.248ZM1079.46 857.8C1091.81 857.544 1111.71 856.84 1130.14 856.136L1129.89 860.68C1111.9 861.576 1092.51 862.472 1079.9 862.92L1079.46 857.8ZM1115.55 844.424L1120.1 842.248C1126.3 848.712 1132.77 857.608 1135.71 863.56L1130.98 866.248C1128.16 860.232 1121.57 851.016 1115.55 844.424Z" fill="white"/>
<path d="M966.201 836.462L747.8 778.538" stroke="#B3B3B3" stroke-width="3" stroke-linecap="round" stroke-linejoin="bevel"/>
<path d="M1080.96 730.629L1423.04 498.37" stroke="#B3B3B3" stroke-width="3" stroke-linecap="round" stroke-linejoin="bevel"/>
<path d="M1184.27 842.217L1423.73 1078.78" stroke="#B3B3B3" stroke-width="3" stroke-linecap="round" stroke-linejoin="bevel"/>
<path d="M317.912 743.024L513.661 776.941C513.887 776.98 514.115 777 514.344 777H528" stroke="#B3B3B3" stroke-width="3" stroke-linecap="round" stroke-linejoin="bevel"/>
<path d="M1949.48 1208.64L1656.75 1083.32C1656.26 1083.11 1655.72 1083 1655.18 1083H1642" stroke="#B3B3B3" stroke-width="3" stroke-linecap="round" stroke-linejoin="bevel"/>
<path d="M1642 495H1654.08C1655.29 495 1656.44 494.448 1657.2 493.499L1840.25 264.686" stroke="#B3B3B3" stroke-width="3" stroke-linecap="round" stroke-linejoin="bevel"/>
</svg>
