<svg xmlns="http://www.w3.org/2000/svg" fill="none" viewBox="0 0 32 30" height="30" width="32" class="hc_Svg" data-elem-id="B7vijSDOIh" icon="&lt;svg xmlns=&quot;http://www.w3.org/2000/svg&quot; fill=&quot;none&quot; viewBox=&quot;0 0 32 30&quot; height=&quot;30&quot; width=&quot;32&quot;&gt;&lt;path fill=&quot;url(#paint0_linear_111_50919)&quot; d=&quot;M31.2759 10.0417L25.0127 2.23959C24.3864 1.44148 23.3628 0.929688 22.3357 0.929688H9.69118C8.66759 0.929688 7.69769 1.38422 7.01411 2.23959L0.750923 10.0417C-0.329924 11.3516 -0.218976 13.2879 0.922714 14.5441L13.6245 27.9867L13.7963 28.1585C14.4226 28.7275 15.2779 29.0711 16.1297 29.0711H16.2443C17.1569 29.0139 18.0087 28.6739 18.635 27.9903L31.0504 14.6049C32.2458 13.2879 32.3031 11.3516 31.2759 10.0417ZM23.7601 13.8605L17.8369 20.2955C16.9243 21.2081 15.5034 21.2654 14.5908 20.41L14.4763 20.2955L8.32401 13.8032C7.92675 13.3487 7.92675 12.6079 8.38128 12.207C8.89307 11.7525 9.57665 11.8098 10.0312 12.2643L15.8112 18.37C15.983 18.549 16.2657 18.549 16.4375 18.37L22.0493 12.3824C22.5039 11.9279 23.1875 11.8706 23.6992 12.2679C24.1574 12.6615 24.1574 13.4024 23.7601 13.8605Z&quot;&gt;&lt;/path&gt;&lt;defs&gt;&lt;linearGradient gradientUnits=&quot;userSpaceOnUse&quot; y2=&quot;28.0244&quot; x2=&quot;-17.3117&quot; y1=&quot;36&quot; x1=&quot;32&quot; id=&quot;paint0_linear_111_50919&quot;&gt;&lt;stop stop-color=&quot;#3E3AFF&quot;&gt;&lt;/stop&gt;&lt;stop stop-color=&quot;#ADA9FF&quot; offset=&quot;0.959204&quot;&gt;&lt;/stop&gt;&lt;/linearGradient&gt;&lt;/defs&gt;&lt;/svg&gt;"><path fill="url(#paint0_linear_111_50919)" d="M31.2759 10.0417L25.0127 2.23959C24.3864 1.44148 23.3628 0.929688 22.3357 0.929688H9.69118C8.66759 0.929688 7.69769 1.38422 7.01411 2.23959L0.750923 10.0417C-0.329924 11.3516 -0.218976 13.2879 0.922714 14.5441L13.6245 27.9867L13.7963 28.1585C14.4226 28.7275 15.2779 29.0711 16.1297 29.0711H16.2443C17.1569 29.0139 18.0087 28.6739 18.635 27.9903L31.0504 14.6049C32.2458 13.2879 32.3031 11.3516 31.2759 10.0417ZM23.7601 13.8605L17.8369 20.2955C16.9243 21.2081 15.5034 21.2654 14.5908 20.41L14.4763 20.2955L8.32401 13.8032C7.92675 13.3487 7.92675 12.6079 8.38128 12.207C8.89307 11.7525 9.57665 11.8098 10.0312 12.2643L15.8112 18.37C15.983 18.549 16.2657 18.549 16.4375 18.37L22.0493 12.3824C22.5039 11.9279 23.1875 11.8706 23.6992 12.2679C24.1574 12.6615 24.1574 13.4024 23.7601 13.8605Z"/><defs><linearGradient gradientUnits="userSpaceOnUse" y2="28.0244" x2="-17.3117" y1="36" x1="32" id="paint0_linear_111_50919"><stop stop-color="#3E3AFF"/><stop stop-color="#ADA9FF" offset="0.959204"/></linearGradient></defs></svg>