<svg width="662" height="446" viewBox="0 0 662 446" fill="none" xmlns="http://www.w3.org/2000/svg">
<g style="mix-blend-mode:multiply">
<path fill-rule="evenodd" clip-rule="evenodd" d="M239.678 116.852L245.326 135L226.785 139.182L230.373 132.967L207.75 119.906C196.795 133.402 177.355 137.326 161.822 128.358C144.603 118.417 138.703 96.3997 148.645 79.1807C158.586 61.9627 180.603 56.0627 197.822 66.0037C213.334 74.9597 219.659 93.7177 213.491 109.938L236.125 123.005L239.678 116.852Z" fill="#DE9FFB"/>
<path fill-rule="evenodd" clip-rule="evenodd" d="M337.893 287.265L325 273.299L312.108 287.265H319.284V313.451C302.118 316.19 289 331.063 289 349C289 368.882 305.118 385 325 385C344.882 385 361 368.882 361 349C361 331.088 347.918 316.231 330.788 313.463V287.265H337.893Z" fill="#B179CA"/>
<path fill-rule="evenodd" clip-rule="evenodd" d="M423.215 139.183L404.674 135L410.322 116.852L413.91 123.067L436.534 110.005C430.323 93.7697 436.644 74.9727 452.178 66.0037C469.397 56.0627 491.414 61.9627 501.355 79.1807C511.296 96.3997 505.397 118.417 488.178 128.358C472.666 137.314 453.259 133.413 442.296 119.962L419.662 133.029L423.215 139.183Z" fill="#83539A"/>
<path fill-rule="evenodd" clip-rule="evenodd" d="M397 180.996C397 141.232 364.765 108.996 325 108.996C285.236 108.996 253 141.232 253 180.996C253 220.761 285.236 252.996 325 252.996C364.764 252.996 397 220.761 397 180.996Z" fill="#562D69"/>
<path fill-rule="evenodd" clip-rule="evenodd" d="M239.678 116.852L245.326 135L226.785 139.182L230.373 132.967L207.75 119.906C196.795 133.402 177.355 137.326 161.822 128.358C144.603 118.417 138.703 96.3997 148.645 79.1807C158.586 61.9627 180.603 56.0627 197.822 66.0037C213.334 74.9597 219.659 93.7177 213.491 109.938L236.125 123.005L239.678 116.852Z" stroke="white" stroke-width="2" stroke-miterlimit="1.5" stroke-linecap="round" stroke-linejoin="round"/>
<path fill-rule="evenodd" clip-rule="evenodd" d="M337.893 287.265L325 273.299L312.108 287.265H319.284V313.451C302.118 316.19 289 331.063 289 349C289 368.882 305.118 385 325 385C344.882 385 361 368.882 361 349C361 331.088 347.918 316.231 330.788 313.463V287.265H337.893Z" stroke="white" stroke-width="2" stroke-miterlimit="1.5" stroke-linecap="round" stroke-linejoin="round"/>
<path fill-rule="evenodd" clip-rule="evenodd" d="M423.215 139.183L404.674 135L410.322 116.852L413.91 123.067L436.534 110.005C430.323 93.7697 436.644 74.9727 452.178 66.0037C469.397 56.0627 491.414 61.9627 501.355 79.1807C511.296 96.3997 505.397 118.417 488.178 128.358C472.666 137.314 453.259 133.413 442.296 119.962L419.662 133.029L423.215 139.183Z" stroke="white" stroke-width="2" stroke-miterlimit="1.5" stroke-linecap="round" stroke-linejoin="round"/>
<path fill-rule="evenodd" clip-rule="evenodd" d="M397 180.996C397 141.232 364.765 108.996 325 108.996C285.236 108.996 253 141.232 253 180.996C253 220.761 285.236 252.996 325 252.996C364.764 252.996 397 220.761 397 180.996Z" stroke="white" stroke-width="2" stroke-miterlimit="1.5" stroke-linecap="round" stroke-linejoin="round"/>
<path d="M179 105V89V90.334C179 91.806 177.806 93 176.334 93H175M183 105H175M159 75H199C199 75 201 75 201 77V117C201 117 201 119 199 119H159C159 119 157 119 157 117V77C157 77 157 75 159 75Z" stroke="white" stroke-width="2" stroke-miterlimit="1.5" stroke-linecap="round" stroke-linejoin="round"/>
<path d="M448 80.132V76C448 74.895 448.895 74 450 74H454.134M454.134 120H450C448.895 120 448 119.105 448 118V113.866M448 87.798V93.932M448 100.066V106.198M494 87.798V93.932M461.8 73.998H467.934M474.066 73.998H480.2M487.866 74H492C493.105 74 494 74.895 494 76V80.132M467.934 119.998H461.8M471.6 101.598H479.6M484.274 110.272L494 119.998M463.334 101.598C463.332 108.373 468.825 113.867 475.6 113.867C482.375 113.867 487.868 108.373 487.866 101.598C487.868 94.823 482.375 89.329 475.6 89.329C468.825 89.329 463.332 94.823 463.334 101.598Z" stroke="white" stroke-width="2" stroke-miterlimit="1.5" stroke-linecap="round" stroke-linejoin="round"/>
<path d="M316 182.496C314.788 182.338 313.601 182.931 313 183.996C312.76 184.467 312.76 185.025 313 185.496H311.5C309.041 185.559 307.063 187.537 307 189.996M334 182.496C335.212 182.338 336.399 182.931 337 183.996C337.24 184.467 337.24 185.025 337 185.496H338.5C340.959 185.559 342.937 187.537 343 189.996M348.64 200.496C349.837 200.419 350.983 200.992 351.64 201.996L359.05 210.996C359.508 211.998 359.415 213.165 358.804 214.082C358.193 214.998 357.151 215.533 356.05 215.496H293.8C292.693 215.551 291.638 215.02 291.023 214.097C290.408 213.175 290.324 211.997 290.8 210.996L298.15 201.996C298.688 201.064 299.684 200.492 300.76 200.496M310 164.496H302.5C300.843 164.496 299.5 165.839 299.5 167.496V200.496H311.86M335.86 200.496H350.5V167.496C350.5 165.839 349.157 164.496 347.5 164.496H340M319 209.496H331M325 170.496V177.996M330.7 189.996C330.7 194.436 325 200.406 325 200.406C325 200.406 319.3 194.406 319.3 189.996C319.3 186.848 321.852 184.296 325 184.296C328.148 184.296 330.7 186.848 330.7 189.996ZM330.46 165.996V155.496C330.46 150.516 325 146.496 325 146.496C325 146.496 319.54 150.516 319.54 155.496V165.996C315.642 167.393 312.688 170.628 311.65 174.636C311.557 175.085 311.655 175.552 311.92 175.926C312.165 176.281 312.568 176.494 313 176.496H337.12C337.552 176.494 337.955 176.281 338.2 175.926C338.465 175.552 338.563 175.085 338.47 174.636C337.408 170.6 334.404 167.36 330.46 165.996Z" stroke="white" stroke-width="2" stroke-miterlimit="1.5" stroke-linecap="round" stroke-linejoin="round"/>
<path d="M309 349.002C309 357.839 316.163 365.002 325 365.002M309 349.002C309 340.165 316.163 333.002 325 333.002M309 349.002H302M325 365.002C333.837 365.002 341 357.839 341 349.002M325 365.002V372.002M341 349.002C341 340.165 333.837 333.002 325 333.002M341 349.002H348M325 333.002V326.002M336.314 337.688L341.264 332.738M336.314 360.316L341.264 365.266M313.686 360.316L308.736 365.266M313.686 337.688L308.736 332.738M320 349.002C320 351.763 322.239 354.002 325 354.002C327.761 354.002 330 351.763 330 349.002C330 346.241 327.761 344.002 325 344.002C322.239 344.002 320 346.241 320 349.002Z" stroke="white" stroke-width="2" stroke-miterlimit="1.5" stroke-linecap="round" stroke-linejoin="round"/>
</g>
<path d="M120.26 154.34C120.2 154.04 119.96 153.3 119.78 152.92C120.22 152.82 120.74 152.36 121.46 151.68C122.2 150.98 124.54 148.3 126.14 145.68L127.42 146.5C125.58 149.14 123.38 151.7 121.26 153.54V153.58C121.26 153.58 120.26 154.02 120.26 154.34ZM120.26 154.34L120.2 153.12L120.96 152.6L127.08 151.74C127.06 152.14 127.1 152.7 127.14 153.02C121.44 153.92 120.72 154.1 120.26 154.34ZM120.14 149.52C120.06 149.2 119.82 148.46 119.64 148.06C120.02 147.96 120.4 147.5 120.9 146.82C121.4 146.14 123.02 143.58 124 141.12L125.46 141.76C124.24 144.28 122.68 146.86 121.14 148.68V148.7C121.14 148.7 120.14 149.2 120.14 149.52ZM120.14 149.52L120.12 148.4L120.86 147.94L125.36 147.52C125.28 147.92 125.24 148.48 125.24 148.78C121.12 149.24 120.52 149.34 120.14 149.52ZM119.74 156.96C121.58 156.68 124.38 156.16 127.1 155.66L127.2 157C124.62 157.54 121.96 158.04 119.98 158.44L119.74 156.96ZM128.52 156.62H136.66V158.02H128.52V156.62ZM128.46 149.54H136.76V150.94H128.46V149.54ZM131.92 143.3H133.32V157.22H131.92V143.3ZM127.66 142.24H137.58V159.14H136.14V143.74H129.04V159.32H127.66V142.24ZM153.68 141.28H155.06C155.12 146.1 155.54 158.02 157 158.02C157.22 158.02 157.4 156.96 157.46 155C157.72 155.38 158.06 155.74 158.34 155.92C158.18 158.44 157.8 159.56 156.86 159.56C154.06 159.56 153.9 148.16 153.68 141.28ZM146.36 143.86H158.2V145.1H146.36V143.86ZM147.04 146.08H152.5V147.02H147.04V146.08ZM146.62 148.14H153V149.16H146.62V148.14ZM155.48 141.78L156.48 141.28C157.06 141.82 157.7 142.64 157.94 143.22L156.9 143.78C156.64 143.22 156.06 142.38 155.48 141.78ZM146.84 150.3H152.74V156.28H151.64V151.36H147.92V156.28H146.84V150.3ZM149.24 152.16H150.34V154.84C150.34 156.56 149.68 158.44 146.54 159.6C146.44 159.36 146.08 158.9 145.86 158.72C148.76 157.68 149.24 156.24 149.24 154.8V152.16ZM150.26 157.46L151 156.72C152.04 157.32 153.26 158.24 153.88 158.86L153.12 159.7C152.48 159.04 151.24 158.06 150.26 157.46ZM141.4 141.92H145.3V143.3H141.4V141.92ZM141.34 146.64H145.06V147.94H141.34V146.64ZM141.3 151.44H145.08V152.76H141.3V151.44ZM140.8 141.92H142.04V149.1C142.04 152.16 141.9 156.56 140.74 159.52C140.5 159.34 139.94 159.02 139.6 158.9C140.7 156.06 140.8 152.02 140.8 149.12V141.92ZM144.4 141.92H145.62V157.82C145.62 158.52 145.44 158.92 145 159.16C144.54 159.38 143.8 159.4 142.58 159.4C142.52 159.06 142.36 158.5 142.18 158.14C143.06 158.18 143.84 158.16 144.08 158.16C144.3 158.14 144.4 158.06 144.4 157.8V141.92ZM168.26 141.5H169.88V157.52C169.88 158.64 169.58 159.08 168.86 159.32C168.14 159.58 166.9 159.62 165 159.62C164.92 159.18 164.64 158.48 164.38 158.04C165.86 158.1 167.3 158.08 167.7 158.06C168.12 158.06 168.26 157.92 168.26 157.52V141.5ZM173.1 146.6L174.54 146.04C176.28 148.86 177.98 152.52 178.5 154.94L176.9 155.58C176.42 153.22 174.8 149.46 173.1 146.6ZM163.02 146.18L164.7 146.46C164.04 149.4 162.88 153.02 161.06 155.26C160.7 154.98 160.04 154.62 159.64 154.46C161.42 152.34 162.52 148.88 163.02 146.18ZM180.26 154.34C180.2 154.04 179.96 153.3 179.78 152.92C180.22 152.82 180.74 152.36 181.46 151.68C182.2 150.98 184.54 148.3 186.14 145.68L187.42 146.5C185.58 149.14 183.38 151.7 181.26 153.54V153.58C181.26 153.58 180.26 154.02 180.26 154.34ZM180.26 154.34L180.2 153.12L180.96 152.6L187.08 151.74C187.06 152.14 187.1 152.7 187.14 153.02C181.44 153.92 180.72 154.1 180.26 154.34ZM180.14 149.52C180.06 149.2 179.82 148.46 179.64 148.06C180.02 147.96 180.4 147.5 180.9 146.82C181.4 146.14 183.02 143.58 184 141.12L185.46 141.76C184.24 144.28 182.68 146.86 181.14 148.68V148.7C181.14 148.7 180.14 149.2 180.14 149.52ZM180.14 149.52L180.12 148.4L180.86 147.94L185.36 147.52C185.28 147.92 185.24 148.48 185.24 148.78C181.12 149.24 180.52 149.34 180.14 149.52ZM179.74 156.96C181.58 156.68 184.38 156.16 187.1 155.66L187.2 157C184.62 157.54 181.96 158.04 179.98 158.44L179.74 156.96ZM188.52 156.62H196.66V158.02H188.52V156.62ZM188.46 149.54H196.76V150.94H188.46V149.54ZM191.92 143.3H193.32V157.22H191.92V143.3ZM187.66 142.24H197.58V159.14H196.14V143.74H189.04V159.32H187.66V142.24ZM214.42 148.28H215.98V154.96C215.98 155.88 215.78 156.38 215.04 156.62C214.32 156.88 213.08 156.88 211.18 156.88C211.12 156.4 210.9 155.76 210.7 155.3C212.18 155.36 213.54 155.36 213.92 155.32C214.32 155.32 214.42 155.22 214.42 154.94V148.28ZM206.2 149.18H207.76V159.56H206.2V149.18ZM200.94 148.28H215.08V149.72H200.94V148.28ZM200.1 143.48H217.9V144.92H200.1V143.48ZM204.78 141.2H206.3V147.2H204.78V141.2ZM211.68 141.2H213.24V147.2H211.68V141.2Z" fill="black"/>
<path d="M434.76 142.96H440.86V144.22H434.76V142.96ZM442.32 142.98H449.6V144.26H442.32V142.98ZM435.12 141.16L436.54 141.52C435.8 143.6 434.52 145.6 433.2 146.88C432.92 146.64 432.32 146.24 431.96 146.06C433.32 144.88 434.46 143.06 435.12 141.16ZM442.92 141.18L444.34 141.52C443.76 143.44 442.72 145.3 441.6 146.5C441.32 146.24 440.72 145.84 440.36 145.64C441.5 144.56 442.42 142.92 442.92 141.18ZM436.26 143.92L437.52 143.46C438.06 144.28 438.68 145.44 438.92 146.14L437.6 146.68C437.38 145.94 436.8 144.78 436.26 143.92ZM444.46 143.88L445.7 143.38C446.36 144.24 447.14 145.42 447.46 146.22L446.16 146.8C445.86 146.02 445.14 144.78 444.46 143.88ZM438 153.12H444.06V154.22H438V153.12ZM433.12 148.94H434.58V159.58H433.12V148.94ZM438 147.26H448.18V148.6H438V147.26ZM434.02 147.22L435.12 146.48C435.98 147.2 436.96 148.22 437.42 148.92L436.26 149.74C435.84 149.04 434.86 147.96 434.02 147.22ZM447.4 147.26H448.86V157.8C448.86 158.64 448.68 159.04 448.08 159.26C447.48 159.48 446.5 159.5 444.98 159.48C444.92 159.1 444.72 158.54 444.5 158.16C445.62 158.2 446.7 158.2 446.98 158.18C447.3 158.16 447.4 158.08 447.4 157.8V147.26ZM438.68 151.44V156.02H443.4V151.44H438.68ZM437.38 150.26H444.74V157.18H437.38V150.26ZM457.56 142.36H469.92V143.7H457.56V142.36ZM458.84 153.52C460.72 156.34 464.96 157.74 470.38 158.1C470.06 158.44 469.68 159.06 469.48 159.48C463.96 158.98 459.7 157.36 457.52 153.98L458.84 153.52ZM459.5 149.74V151.84H467.78V149.74H459.5ZM459.5 146.56V148.62H467.78V146.56H459.5ZM458.1 145.4H469.22V153H458.1V145.4ZM463.02 142.76H464.5V150.74C464.5 154.38 463.64 157.88 457.26 159.66C457.08 159.32 456.66 158.74 456.34 158.44C462.64 157 463.02 153.86 463.02 150.74V142.76ZM456.14 141.28L457.54 141.7C456.38 145.08 454.56 148.48 452.58 150.74C452.42 150.4 451.98 149.62 451.7 149.26C453.48 147.3 455.14 144.3 456.14 141.28ZM454.2 146.44L455.6 145.02L455.64 145.04V159.58H454.2V146.44ZM480.26 141.5H481.88V157.52C481.88 158.64 481.58 159.08 480.86 159.32C480.14 159.58 478.9 159.62 477 159.62C476.92 159.18 476.64 158.48 476.38 158.04C477.86 158.1 479.3 158.08 479.7 158.06C480.12 158.06 480.26 157.92 480.26 157.52V141.5ZM485.1 146.6L486.54 146.04C488.28 148.86 489.98 152.52 490.5 154.94L488.9 155.58C488.42 153.22 486.8 149.46 485.1 146.6ZM475.02 146.18L476.7 146.46C476.04 149.4 474.88 153.02 473.06 155.26C472.7 154.98 472.04 154.62 471.64 154.46C473.42 152.34 474.52 148.88 475.02 146.18ZM491.72 151.84C493.14 151.4 495.26 150.62 497.34 149.86L497.58 151.2C495.68 151.94 493.68 152.72 492.12 153.3L491.72 151.84ZM491.92 145.24H497.46V146.64H491.92V145.24ZM494.16 141.22H495.58V157.84C495.58 158.6 495.42 159 494.98 159.22C494.54 159.46 493.9 159.5 492.86 159.5C492.8 159.14 492.62 158.54 492.44 158.14C493.12 158.16 493.7 158.16 493.88 158.16C494.1 158.16 494.16 158.08 494.16 157.86V141.22ZM501.52 143.16V145.26H506.14V143.16H501.52ZM500.2 142.04H507.52V146.4H500.2V142.04ZM499.38 148.4V150.68H502.02V148.4H499.38ZM498.2 147.3H503.24V151.8H498.2V147.3ZM505.6 148.4V150.68H508.32V148.4H505.6ZM504.38 147.3H509.58V151.8H504.38V147.3ZM497.84 153.32H510.02V154.6H497.84V153.32ZM503.1 151.82H504.54V159.64H503.1V151.82ZM502.78 153.86L503.96 154.34C502.56 156.42 499.94 158.26 497.48 159.16C497.26 158.8 496.84 158.26 496.52 158C498.94 157.24 501.48 155.64 502.78 153.86ZM504.98 154.02C506.1 155.6 508.32 157.14 510.34 157.84C510.02 158.1 509.58 158.62 509.36 158.98C507.34 158.12 505.12 156.3 503.88 154.46L504.98 154.02ZM520.74 144.56H530.22V146H520.04L520.74 144.56ZM523.24 148.9H529.76V150.28H523.24V148.9ZM523.22 153.3H530.04V154.72H523.22V153.3ZM522.48 145.02H524.02V159.6H522.48V145.02ZM521.5 141.44L522.96 141.82C521.82 145 520.08 148.14 518.24 150.2C518.02 149.94 517.42 149.4 517.08 149.16C518.9 147.3 520.52 144.38 521.5 141.44ZM516.7 141.28L518.14 141.74C516.82 145.12 514.76 148.54 512.58 150.78C512.44 150.42 511.98 149.62 511.7 149.26C513.7 147.32 515.56 144.32 516.7 141.28ZM514.56 146.44L516.04 144.94L516.08 144.96V159.58H514.56V146.44Z" fill="black"/>
<path d="M262.92 396.9H270.24V398.38H262.92V396.9ZM270.16 395.42H281.08V396.94H270.16V395.42ZM265.84 397.26H267.34V407.08H265.84V397.26ZM262.66 407.06C264.7 406.64 267.84 405.9 270.86 405.16L271.04 406.6C268.18 407.32 265.18 408.06 263 408.6L262.66 407.06ZM273.16 395.82H274.76C274.18 398.66 273.36 402.4 272.76 404.62L271.2 404.38C271.86 402.18 272.68 398.52 273.16 395.82ZM272.76 401.48H279.8V402.94H272.36L272.76 401.48ZM279.12 401.48H280.66C280.66 401.48 280.64 402 280.62 402.24C280.12 408.52 279.66 410.98 278.78 411.84C278.32 412.34 277.84 412.5 277.08 412.56C276.4 412.6 275.16 412.58 273.88 412.52C273.84 412.06 273.64 411.4 273.34 410.96C274.72 411.1 276.02 411.12 276.56 411.12C276.98 411.12 277.24 411.08 277.48 410.86C278.2 410.24 278.68 407.74 279.12 401.74V401.48ZM294.88 394.2H296.32V404.62C296.32 405.38 296.14 405.78 295.62 406.02C295.08 406.26 294.26 406.28 292.92 406.28C292.84 405.9 292.6 405.3 292.4 404.94C293.36 404.96 294.24 404.96 294.5 404.94C294.78 404.92 294.88 404.86 294.88 404.62V394.2ZM292.06 397.26L293.5 397.52C292.92 400.08 292 402.58 290.88 404.18C290.6 403.96 289.94 403.58 289.58 403.42C290.74 401.9 291.58 399.58 292.06 397.26ZM298.42 404.14L299.86 404.54C298.58 408.84 295.74 411.34 290.78 412.62C290.6 412.2 290.24 411.64 289.9 411.3C294.58 410.26 297.24 408 298.42 404.14ZM297.58 397.64L298.86 397.24C299.94 399.08 301 401.5 301.32 403.06L299.94 403.52C299.64 401.98 298.64 399.5 297.58 397.64ZM282.8 398.34H288.98V399.76H282.8V398.34ZM285.56 394.2L287 394.34C286.28 398.32 285.14 403.68 284.3 407L283.06 406.32C283.86 403.3 284.94 397.98 285.56 394.2ZM283.68 405.54L284.58 404.48C286.64 405.92 289.12 408.02 290.24 409.48L289.26 410.7C288.18 409.18 285.74 407 283.68 405.54ZM288.4 398.34H288.66L288.92 398.3L289.82 398.44C289.34 406.24 287.4 410.46 283.86 412.64C283.66 412.28 283.26 411.72 282.96 411.42C286.12 409.68 288.02 405.48 288.4 398.66V398.34ZM311.26 394.5H312.88V410.52C312.88 411.64 312.58 412.08 311.86 412.32C311.14 412.58 309.9 412.62 308 412.62C307.92 412.18 307.64 411.48 307.38 411.04C308.86 411.1 310.3 411.08 310.7 411.06C311.12 411.06 311.26 410.92 311.26 410.52V394.5ZM316.1 399.6L317.54 399.04C319.28 401.86 320.98 405.52 321.5 407.94L319.9 408.58C319.42 406.22 317.8 402.46 316.1 399.6ZM306.02 399.18L307.7 399.46C307.04 402.4 305.88 406.02 304.06 408.26C303.7 407.98 303.04 407.62 302.64 407.46C304.42 405.34 305.52 401.88 306.02 399.18ZM323.02 396.58H330.36V398H323.02V396.58ZM330.52 398.78H340.02V400.22H330.52V398.78ZM325.98 397.14H327.44V407.16H325.98V397.14ZM339.32 398.78H340.8C340.8 398.78 340.8 399.32 340.78 399.54C340.46 407.8 340.18 410.7 339.42 411.6C338.98 412.16 338.56 412.32 337.88 412.4C337.22 412.46 336.06 412.44 334.92 412.36C334.88 411.94 334.72 411.3 334.46 410.88C335.68 411 336.82 411 337.26 411C337.66 411 337.88 410.94 338.1 410.7C338.72 410.02 339.04 407.06 339.32 399.1V398.78ZM322.74 407.38C324.72 406.92 327.76 406.1 330.66 405.32L330.86 406.74C328.14 407.52 325.24 408.34 323.12 408.92L322.74 407.38ZM333.92 394.54H335.44C335.4 402.26 335.34 409.18 329.22 412.62C329 412.26 328.5 411.72 328.14 411.44C334 408.32 333.88 401.84 333.92 394.54ZM346.14 394.2L347.7 394.56C346.98 396.22 346.04 398.16 345.24 399.42L343.96 399.04C344.72 397.76 345.66 395.66 346.14 394.2ZM342.78 398.44C344.88 398.38 348.06 398.24 351.2 398.1L351.18 399.44C348.2 399.62 345.1 399.78 342.92 399.9L342.78 398.44ZM344 401.34H350.34V402.62H345.4V412.58H344V401.34ZM349.66 401.34H351.14V410.88C351.14 411.64 350.98 412.06 350.44 412.3C349.88 412.54 349 412.56 347.74 412.56C347.66 412.16 347.44 411.56 347.24 411.18C348.18 411.22 349.04 411.2 349.32 411.18C349.58 411.18 349.66 411.12 349.66 410.86V401.34ZM344.66 404.32H350.44V405.5H344.66V404.32ZM344.66 407.32H350.44V408.52H344.66V407.32ZM353.02 394.24H354.5V400.86C354.5 401.5 354.66 401.64 355.58 401.64C356 401.64 358.18 401.64 358.76 401.64C359.54 401.64 359.68 401.3 359.76 399.32C360.08 399.58 360.68 399.8 361.12 399.9C360.94 402.34 360.5 403 358.88 403C358.46 403 355.84 403 355.44 403C353.52 403 353.02 402.54 353.02 400.88V394.24ZM359.14 395.72L360.14 396.82C358.44 397.62 356.04 398.4 353.98 398.98C353.9 398.66 353.7 398.22 353.52 397.92C355.5 397.3 357.78 396.42 359.14 395.72ZM353.02 403.54H354.5V410.3C354.5 410.98 354.68 411.1 355.64 411.1C356.06 411.1 358.32 411.1 358.92 411.1C359.78 411.1 359.9 410.72 360 408.46C360.34 408.7 360.94 408.94 361.36 409.02C361.16 411.72 360.72 412.44 359.04 412.44C358.6 412.44 355.9 412.44 355.48 412.44C353.54 412.44 353.02 411.98 353.02 410.32V403.54ZM359.38 404.64L360.38 405.76C358.7 406.72 356.14 407.54 353.98 408.12C353.9 407.82 353.68 407.34 353.52 407.04C355.6 406.44 358.02 405.52 359.38 404.64ZM348.64 396.1L349.88 395.6C350.94 397 352.06 398.84 352.52 400.08L351.2 400.66C350.78 399.44 349.7 397.52 348.64 396.1Z" fill="black"/>
</svg>
