<?xml version="1.0" encoding="UTF-8"?>
<svg width="3871px" height="2367px" viewBox="0 0 3871 2367" version="1.1" xmlns="http://www.w3.org/2000/svg" xmlns:xlink="http://www.w3.org/1999/xlink">
    <!-- Generator: Sketch 57.1 (83088) - https://sketch.com -->
    <title>composition-14</title>
    <desc>Created with Sketch.</desc>
    <g id="composition-14" stroke="none" stroke-width="1" fill="none" fill-rule="evenodd">
        
        <g id="Character/reading" transform="translate(-7.000000, 578.000000)">
            <path d="M1411.42665,737.370211 C1408.75189,781.094202 1406.07319,824.814254 1403.39844,868.538246 C1420.613,863.58152 1530.12443,831.370686 1523.36072,864.030699 C1518.50755,887.454969 1487.71829,912.794159 1472.03216,929.102495 C1457.59477,944.118457 1442.72801,958.740403 1427.48307,972.936811 C1455.50303,962.215627 1483.7554,952.061826 1512.21261,942.562093 C1533.74461,935.375235 1555.43417,928.357804 1577.49796,922.971601 C1585.68769,920.969998 1607.80269,912.80598 1615.5394,918.37343 C1635.86992,932.999316 1525.55882,1040.73126 1510.44782,1055.91665 C1531.81437,1045.9835 1553.69302,1036.96052 1575.9459,1029.2181 C1592.0102,1023.62701 1641.64487,1002.26345 1655.86166,1020.5064 C1671.07902,1040.02597 1633.3803,1084.84927 1622.92551,1099.06144 C1607.9445,1119.4242 1591.71081,1138.95953 1574.67745,1157.63984 C1645.47383,1221.2065 1728.66706,1277.7833 1817.20586,1312.94926 C1882.12487,1338.73369 1945.8936,1345.298 2014.39733,1331.14887 C2084.77221,1316.60967 2152.26355,1288.72908 2216.42227,1256.85315 C2254.10129,1238.1295 2291.28397,1217.87312 2326.70579,1195.11474 C2312.10295,1177.35642 2297.92556,1159.23167 2284.14997,1140.82717 C2264.48912,1114.55022 2240.3257,1085.83825 2229.11457,1054.55729 C2218.14373,1023.94222 2259.30505,1029.91945 2279.04863,1031.5822 C2307.63977,1033.98964 2336.15214,1039.10003 2364.17209,1045.21123 C2344.36155,1031.43641 2324.90949,1017.10998 2305.84741,1002.31861 C2281.0025,983.04333 2247.86544,961.246347 2231.60418,933.515478 C2217.30467,909.129807 2248.68875,915.288283 2263.20098,918.483755 C2297.7995,926.104031 2331.46442,939.086869 2364.4636,951.750553 C2388.63095,961.025698 2412.64862,970.7382 2436.43387,980.966864 C2421.66953,968.137692 2407.40153,954.693855 2393.68896,940.753558 C2375.25323,922.018081 2350.3965,899.137553 2342.13193,873.337364 C2325.30341,820.795287 2438.5138,860.42939 2457.84375,868.538246 C2454.27084,814.10883 2450.70581,759.679415 2447.13684,705.25 C2297.23225,745.124452 2147.32372,785.002844 1997.41518,824.881237 C1981.21695,829.191775 1960.94158,838.577244 1944.04609,839.077645 C1928.74207,839.534704 1910.25906,832.647298 1895.33714,829.79856 L1624.06396,777.985414 C1553.18485,764.447013 1482.30575,750.908612 1411.42665,737.370211" id="Accent" fill="#FF5678"></path>
            <g id="Ink" stroke-width="1" transform="translate(815.488355, 150.238721)" fill="#000000">
                <path d="M2207.11163,2459.24465 C2190.92793,2468.50055 2171.97146,2475.64836 2153.99176,2480.44378 C2143.43238,2483.26508 2125.98439,2491.96539 2116.709,2483.99011 C2112.25444,2480.16008 2111.23434,2471.4637 2108.6073,2466.42398 C2104.44814,2458.44476 2098.53631,2451.55307 2092.99864,2444.49982 C2079.5759,2427.41048 2065.60963,2410.92402 2050.99349,2394.84341 C2044.06944,2387.22276 2031.41866,2369.43597 2019.21689,2370.60626 C2004.00603,2372.06419 2004.37232,2393.10965 2008.18488,2403.8629 C2020.3197,2438.0928 2057.055,2467.93314 2081.05287,2493.72279 C2074.95198,2503.10873 2041.4424,2501.98967 2032.13943,2499.79489 C2017.93291,2496.44164 2016.49532,2486.33068 2010.01239,2474.76178 C1994.84879,2447.73092 1964.0844,2432.60782 1938.79467,2416.71635 C1929.57441,2410.91614 1909.97989,2394.85523 1897.96322,2398.89804 C1886.57674,2402.72807 1887.06906,2417.268 1890.69651,2426.76426 C1896.1751,2441.11505 1911.76013,2451.0684 1923.28447,2460.13911 C1938.65288,2472.22813 1952.70579,2485.38499 1965.51411,2500.18498 C1947.0539,2501.6902 1928.66065,2504.29084 1910.24771,2505.80788 C1887.97888,2507.64408 1869.42021,2495.42897 1848.91981,2488.50576 C1829.87275,2482.07115 1810.89265,2476.63345 1792.16068,2469.2177 C1771.13251,2460.89172 1749.10393,2457.99555 1727.89064,2450.69013 C1644.64051,2422.02795 1563.06821,2385.9776 1482.84292,2349.63961 C1444.61489,2332.32173 1407.17458,2314.99597 1367.34354,2301.44507 C1338.31608,2291.56659 1292.69924,2271.88055 1285.75943,2237.31572 C1282.09654,2219.05216 1295.44445,2199.4134 1297.40981,2181.1656 C1299.71782,2159.69852 1297.90213,2136.08001 1291.36012,2115.48375 C1285.59401,2097.33839 1276.03898,2080.5367 1268.50838,2063.11637 C1259.73712,2042.8117 1267.59068,2043.14269 1284.633,2040.83364 C1305.03099,2038.0675 1328.83588,2026.58924 1348.00897,2019.11438 C1370.09662,2010.49681 1391.99129,1998.45901 1412.21993,1986.08234 C1430.51865,1974.88778 1446.43846,1960.45818 1461.00339,1944.78737 C1475.8204,1928.84468 1485.41482,1909.9546 1499.7395,1893.62181 C1552.61124,1958.62198 1602.8638,2024.61118 1659.04396,2086.80187 C1685.5586,2116.15755 1714.39307,2140.43016 1747.06767,2162.74836 C1760.71098,2172.07519 1774.24794,2182.7181 1789.1122,2190.08657 C1807.70238,2199.31095 1828.48243,2205.03236 1847.58856,2213.44896 C1920.84648,2245.71657 1990.76052,2280.99067 2059.10307,2322.6245 C2092.16759,2342.76368 2119.91501,2365.85419 2149.02913,2391.11977 C2158.09184,2398.98473 2232.32259,2444.82293 2207.11163,2459.24465 M1347.75296,1926.74053 C1335.91354,1932.10336 1324.62945,1939.06597 1311.99837,1942.50591 C1315.57856,1920.72754 1335.9096,1887.87676 1361.97524,1891.49007 C1371.93595,1892.8692 1379.44686,1900.60018 1375.07107,1911.25886 C1371.09309,1920.94426 1356.1855,1922.92626 1347.75296,1926.74053 M523.719577,1336.02548 C510.296837,1343.43335 497.79179,1347.74805 489.922472,1331.8487 C495.751596,1330.67841 522.230787,1327.15179 523.719577,1336.02548 M501.371975,1291.0778 C491.001647,1287.93339 499.296334,1284.62743 502.864703,1280.83286 C505.645353,1277.88153 514.849856,1267.52233 518.071628,1265.81221 C532.297843,1258.27824 543.294407,1286.30996 550.096365,1295.40825 C533.99144,1293.9779 517.051532,1295.82987 501.371975,1291.0778 M612.267128,1388.13673 C592.609587,1391.46634 594.79157,1366.87849 595.378421,1354.42302 C599.525765,1359.48244 627.59615,1385.54003 612.267128,1388.13673 M677.41547,1345.66754 C653.449104,1349.71035 637.612003,1308.31687 641.909013,1290.21092 C645.690067,1274.26034 664.264493,1265.35513 679.049988,1263.00274 C693.382545,1260.72127 713.33548,1263.83415 717.593104,1280.35608 C721.354465,1294.95905 693.390422,1342.97233 677.41547,1345.66754 M1244.74288,1970.5455 C1227.51939,1975.83741 1210.6425,1976.50333 1193.33237,1981.69672 C1173.69058,1987.5915 1155.51395,1987.06743 1135.83278,1991.07872 C1127.82561,1992.70609 1106.22634,2004.36955 1098.4161,2001.76497 C1090.6807,1999.18404 1079.48326,1975.18331 1075.03659,1968.94178 C1109.85773,1954.47278 1139.56263,1935.79153 1162.51284,1905.30497 C1180.7643,1881.05994 1200.33519,1844.73771 1188.85418,1813.44731 C1175.90407,1778.16927 1131.26795,1770.50922 1101.5079,1785.24616 C1087.42742,1792.21272 1073.47296,1800.87757 1061.86592,1811.49683 C1048.59284,1823.63708 1043.3742,1836.89245 1034.77624,1851.86582 C1026.07982,1867.01256 1019.97893,1858.58807 1011.29039,1845.72674 C1003.86613,1834.73313 1004.83502,1823.63314 995.555689,1812.78533 C990.821494,1807.25307 983.491764,1801.91388 981.022264,1794.76607 C979.454702,1790.23465 982.755247,1782.20026 979.785544,1778.6303 C975.606692,1773.61816 970.525901,1779.509 967.024488,1775.03275 C964.484093,1771.78195 965.315137,1764.37014 962.688092,1760.30368 C960.411583,1757.99069 957.879064,1756.01657 955.078722,1754.37738 C951.679712,1752.69879 951.061352,1750.59858 953.215765,1748.07675 C950.513887,1743.07643 953.1173,1741.38996 947.3315,1735.30604 C938.312112,1725.82554 930.08832,1716.73907 923.668406,1705.54845 C920.734151,1700.42598 921.025607,1692.82897 917.378466,1688.39606 C912.376447,1682.30821 904.042374,1683.22237 899.741426,1675.6884 C895.90917,1668.97403 898.473197,1657.23176 892.155687,1651.13602 C888.823633,1650.1864 885.49158,1649.25253 882.155588,1648.33049 C879.646701,1645.89535 878.185481,1642.94008 877.76799,1639.46074 C874.258699,1634.05851 873.561568,1627.71453 869.130645,1622.00889 C860.650845,1611.09803 849.244666,1601.01465 841.753454,1589.5088 C833.880197,1577.41584 838.055111,1575.37867 851.73386,1571.05216 C864.069548,1567.14332 875.333937,1563.51819 886.767685,1556.86686 C939.631542,1526.11236 989.750196,1444.5351 905.842313,1419.61232 C874.703761,1410.3643 849.12257,1385.49275 814.596823,1395.26878 C799.630153,1399.50861 785.431509,1408.53203 774.265584,1419.23799 C766.549872,1426.64192 759.405256,1446.43829 749.932929,1450.23286 C732.902433,1457.04968 740.102189,1440.0155 735.26953,1432.18995 C732.961512,1428.45449 723.67036,1424.15162 720.228026,1420.75109 C716.187025,1416.76738 712.279936,1411.73554 709.475654,1406.80615 C704.268828,1397.65664 701.082503,1392.55781 693.571597,1385.10659 C690.739746,1382.29318 676.604119,1367.76113 689.353359,1369.66039 C684.189858,1353.93047 691.724395,1351.56626 702.138047,1340.07223 C714.367393,1326.5765 726.994536,1307.82432 727.065431,1288.91454 C727.207221,1252.60807 684.170165,1236.34226 657.143509,1257.89209 C651.645226,1262.27771 619.116349,1304.60899 625.772579,1277.61359 C629.360641,1263.05396 662.58665,1225.04525 677.990505,1234.88039 C660.727632,1209.72908 621.073832,1270.79677 611.818128,1283.29165 C603.936994,1268.78718 603.377713,1257.43895 590.337017,1246.20892 C579.722496,1263.23128 585.32712,1244.62884 582.987594,1240.84609 C577.930434,1232.68167 580.707146,1242.02032 577.965882,1239.12022 C574.551118,1235.50691 569.174932,1232.65803 565.543545,1227.87443 C559.320561,1236.31468 561.805816,1227.23215 559.899535,1224.07986 C555.441042,1216.70745 557.166148,1212.4361 549.525269,1206.02514 C543.963969,1201.36369 533.010729,1194.12525 525.527394,1193.46327 C516.897926,1192.69884 514.507198,1196.0048 505.716248,1193.55784 C494.530631,1190.4489 480.454083,1185.67318 485.869655,1204.37413 C489.800375,1217.96443 505.783204,1225.68753 509.284617,1239.57336 C512.809662,1253.54981 498.985185,1267.6366 492.277753,1279.09516 C483.66404,1293.79664 476.621828,1292.59484 461.017104,1295.90868 C451.044575,1298.02859 437.736054,1302.56 446.286749,1314.65297 C452.395514,1323.29418 466.708378,1321.47373 474.770687,1326.59226 C486.074462,1333.76765 485.916918,1351.45987 500.347939,1354.53729 C516.240181,1357.926 525.346218,1340.23772 538.745327,1335.96637 C548.272795,1332.92835 577.788645,1333.26723 585.287735,1340.41898 C595.508395,1350.16349 586.678059,1368.78169 589.249964,1380.88647 C593.074342,1398.83875 605.224915,1399.93417 620.589385,1400.50946 C639.506469,1401.21478 646.154821,1419.37196 656.328219,1433.77397 C680.156734,1467.50739 700.86588,1503.46711 725.273369,1536.75133 C736.076942,1551.48827 751.882534,1564.59785 760.728625,1580.59177 C771.654294,1600.34479 756.486755,1611.73637 743.398795,1625.91378 C726.297405,1644.44135 713.528471,1665.52228 698.695713,1685.77178 C685.513227,1703.76741 669.1326,1699.28722 648.06898,1699.28722 C652.763788,1689.61364 658.411737,1683.58094 669.959705,1684.75517 C657.883965,1670.01429 648.226524,1686.87509 640.392653,1696.21374 C629.061308,1709.72129 614.287628,1712.97997 599.730572,1721.86154 C594.578886,1725.002 566.528194,1745.36972 575.051319,1752.32446 C576.020214,1753.11253 622.452341,1722.57868 627.741878,1719.77709 C627.741878,1731.05046 625.276316,1742.7612 626.855693,1753.97153 C628.013641,1762.19112 633.795502,1770.76534 632.562721,1779.31198 C630.227133,1795.44381 609.372259,1808.15147 600.419826,1820.72122 C593.680886,1830.18202 595.307527,1837.64506 591.877008,1847.79937 C588.749762,1857.06315 590.392157,1854.26156 582.597672,1857.12226 C566.725124,1862.95005 540.013555,1859.80564 525.641613,1851.51907 C516.720689,1846.3769 509.879345,1838.24793 502.632326,1831.08436 C497.17343,1825.68213 483.443479,1816.45775 481.927119,1808.90014 C479.323706,1795.88907 505.164844,1771.71102 510.281082,1758.29016 C524.72392,1720.41148 499.95408,1690.96912 461.410964,1688.81768 C473.289774,1679.65635 488.01619,1686.55986 500.536992,1690.05496 C479.130714,1660.40375 442.572652,1684.80246 424.415717,1704.95345 C412.009135,1673.60395 406.026405,1640.53252 398.448543,1607.83541 C393.285042,1585.57632 373.635378,1545.84174 382.398758,1522.92067 C386.636689,1511.84038 398.59821,1505.66189 406.873203,1497.97819 C416.274636,1489.24636 424.325129,1478.80834 431.197982,1467.99994 C447.393495,1442.54127 456.743726,1410.4037 434.447325,1385.31543 C441.221713,1384.20031 448.000039,1383.08913 454.774427,1381.97401 C443.754231,1371.62268 426.369261,1376.66634 412.068213,1373.5968 C402.993685,1371.65027 376.884721,1372.91118 370.827158,1367.77689 C363.540753,1361.60629 368.21193,1333.20418 368.471877,1324.79939 C369.070544,1305.1567 370.712939,1286.27056 372.883106,1266.74608 C374.939054,1248.30125 374.525501,1228.37486 378.338064,1210.25314 C381.433802,1195.54772 391.32362,1191.06753 402.737676,1182.40268 C430.016403,1161.68033 452.245847,1136.47779 442.931064,1100.77026 C446.231609,1100.24619 449.532154,1099.72212 452.832698,1099.19805 C442.159099,1091.48283 428.346437,1094.28836 416.475504,1090.21009 C427.377542,1059.53439 451.489637,1005.61057 490.639296,1002.70653 C491.986297,1016.41898 491.064665,1032.72813 500.320369,1044.0803 C510.856118,1057.00074 529.351772,1058.305 543.625249,1051.46848 C556.575358,1045.25847 568.733809,1032.10161 574.704723,1019.10236 C578.741785,1010.30354 578.013145,995.424744 585.10262,988.450308 C594.610395,979.095895 660.156536,984.73849 658.147851,1000.52751 C656.966272,1009.811 639.439512,1025.41482 634.539897,1033.64229 C625.575649,1048.6984 618.399524,1064.98391 615.106857,1082.27815 C610.108776,1108.5367 613.003646,1143.20399 639.679767,1157.01101 C670.018784,1172.71728 706.994338,1152.74754 731.874459,1135.49664 C745.537454,1126.02402 758.771142,1115.57025 771.252557,1104.5924 C777.90091,1098.75279 784.580771,1092.73192 790.441405,1086.08848 C794.765985,1081.18273 798.224073,1073.27443 803.549057,1069.60201 C816.128938,1060.92534 828.460687,1075.64652 839.106716,1083.08198 C856.448361,1095.19465 873.703357,1106.69656 892.317169,1116.776 C930.08832,1137.2304 964.625882,1164.32431 998.021251,1191.22515 C1031.61355,1218.28754 1066.24958,1246.12618 1093.46135,1279.83989 C1076.97832,1289.9745 1079.92045,1292.60666 1072.58678,1310.68503 C1067.38389,1323.51484 1060.21565,1334.43357 1059.38854,1348.68979 C1057.95883,1373.28946 1073.75654,1394.25611 1097.73473,1399.70169 C1111.14565,1402.74758 1123.92246,1400.3085 1136.3448,1394.82746 C1145.9983,1390.56793 1155.62423,1380.08264 1165.71098,1377.47806 C1184.46264,1372.64324 1199.4687,1408.05525 1209.98082,1420.53043 C1256.66501,1475.93188 1306.0117,1529.1425 1349.97039,1586.80572 C1354.8385,1593.19304 1369.30103,1605.66822 1370.47473,1614.12423 C1372.16439,1626.26842 1353.05431,1637.83731 1345.12985,1644.79993 C1340.96676,1648.45264 1296.83083,1689.95645 1311.65178,1696.55261 C1315.87395,1698.43216 1328.24115,1672.96956 1331.33295,1670.79054 C1342.90849,1662.63793 1334.15298,1678.62003 1333.46373,1686.69777 C1331.73862,1706.77784 1345.53553,1717.72022 1364.92918,1715.17475 C1385.62651,1712.45984 1404.05127,1696.12705 1416.85959,1680.70054 C1432.90938,1699.28328 1457.99824,1727.3741 1462.63791,1752.19836 C1465.60368,1768.05831 1451.87766,1806.87085 1477.50218,1810.10589 C1481.41321,1810.59843 1495.56853,1800.10131 1498.20739,1806.05914 C1500.40906,1811.03581 1485.10761,1819.53911 1482.89806,1821.18618 C1473.46906,1828.22366 1467.77384,1835.76157 1460.16054,1844.28457 C1451.22386,1854.28914 1439.01027,1862.71757 1428.95503,1872.30446 C1418.3602,1882.4036 1397.40686,1909.83245 1383.42878,1896.58102 C1376.40232,1889.92181 1378.24952,1881.21361 1366.99695,1877.30478 C1356.74872,1873.74663 1343.7671,1878.25834 1334.24357,1882.20659 C1323.52271,1886.64737 1288.21318,1902.86195 1284.29428,1916.21189 C1278.89052,1934.62125 1308.07553,1912.48825 1313.26266,1909.25321 C1307.34689,1924.26992 1304.07391,1946.00889 1289.00484,1954.7683 C1276.48404,1962.04615 1258.47677,1966.32538 1244.74288,1970.5455 M1044.59123,1856.97252 C1054.61102,1824.77585 1113.70574,1767.36875 1151.05546,1785.32497 C1107.52608,1794.44296 1072.98458,1824.2242 1044.59123,1856.97252 M1066.6907,1949.17299 C1052.12577,1941.05979 1052.90955,1917.48856 1047.82482,1903.70125 C1044.90632,1895.789 1039.06931,1890.0085 1040.78654,1881.22938 C1042.79523,1870.93716 1055.92651,1859.49435 1062.91752,1852.07072 C1084.91853,1828.70438 1123.63494,1796.77565 1159.04687,1802.1306 C1204.12018,1808.95136 1173.56454,1869.44376 1158.21583,1890.2725 C1145.13575,1908.0317 1094.72958,1964.79652 1066.6907,1949.17299 M961.54196,1909.79698 C912.797877,1906.54225 864.219214,1902.18815 816.140754,1893.24353 C799.094503,1890.07154 784.813149,1890.54045 794.565116,1870.94898 C797.786889,1864.48285 817.204175,1823.95625 821.587834,1825.11866 C824.187309,1825.80822 823.59258,1853.66262 824.356668,1856.85431 C827.799003,1871.19328 837.464321,1884.55504 853.758299,1883.64482 C880.418666,1882.1593 897.602767,1847.70086 911.639929,1829.20481 C922.884625,1844.32003 931.025706,1861.1099 942.329481,1875.97294 C947.733237,1883.0774 966.543979,1899.60327 961.54196,1909.79698 M675.769136,1718.52405 C667.592608,1737.2841 651.145024,1755.12605 639.707337,1772.12082 C633.24016,1758.43595 628.69108,1727.01947 644.031917,1716.90062 C649.83741,1713.07454 680.940515,1706.66357 675.769136,1718.52405 M844.82556,1774.38653 C847.074499,1767.16385 849.567631,1760.00028 852.348281,1752.96673 C857.117923,1767.97162 859.555915,1768.41688 844.82556,1774.38653 M886.551062,1789.75393 C892.466836,1799.77821 902.329084,1809.63698 900.781215,1822.22643 C899.607513,1831.76604 890.981985,1841.54208 884.822018,1848.18946 C874.628928,1859.18701 852.045009,1880.29551 837.275268,1865.69254 C824.935642,1853.49319 829.232652,1819.95285 834.971189,1806.22857 C843.16741,1786.6174 872.446945,1765.87141 886.551062,1789.75393 M857.60237,1769.2089 C860.993503,1767.86129 853.86858,1745.98048 860.481485,1743.80146 C866.247592,1756.9465 871.682857,1760.50464 857.60237,1769.2089 M764.462415,1474.73795 C762.264678,1466.66416 757.227211,1467.00303 759.042905,1457.0221 C760.232361,1450.47716 765.427371,1443.4909 769.369908,1438.30539 C777.223471,1427.96983 787.585921,1419.45077 798.791231,1413.0004 C822.446448,1399.3904 854.932001,1393.73598 876.10984,1415.04545 C856.31051,1418.17015 795.612783,1437.70645 795.226801,1464.78066 C817.243561,1460.54084 834.557636,1438.43148 856.641353,1431.46492 C874.766779,1425.74352 894.424319,1426.14544 912.455219,1432.18601 C961.813723,1448.71188 941.289691,1491.35839 913.431991,1519.05912 C896.89382,1535.50618 877.062981,1547.78434 855.38494,1556.25611 C845.353332,1560.17677 839.197304,1560.61021 829.335056,1558.64003 C827.487853,1558.26963 825.329502,1554.84546 823.11601,1554.11255 C817.613789,1552.28817 819.208921,1558.46271 814.675595,1555.6887 C810.721243,1553.27326 802.284768,1537.66943 799.594705,1533.20107 C795.31345,1526.09266 793.316581,1519.17733 788.062492,1512.68755 C782.800525,1506.19384 780.240437,1497.48959 775.37233,1491.61451 C773.036742,1488.78533 766.632582,1488.8996 764.911415,1486.14135 C762.331634,1481.99609 765.616424,1478.97778 764.462415,1474.73795 M688.660166,1792.78801 C699.877292,1773.30293 719.070078,1756.7613 733.918591,1739.73107 C734.832346,1767.72338 714.753375,1786.88929 688.660166,1792.78801 M703.819828,1801.78779 C726.986659,1793.63913 739.751654,1774.14223 742.114812,1750.50401 C745.112085,1720.56122 763.918889,1704.84706 775.242357,1677.94623 C779.582691,1667.63825 784.643789,1633.7157 801.473416,1643.42474 C807.2474,1646.75434 810.670042,1659.28075 813.67913,1664.9391 C820.957659,1678.62791 829.232652,1691.89904 836.952303,1705.33961 C843.238305,1716.28593 852.65943,1727.28741 849.886658,1740.46397 C847.468359,1751.95012 839.68569,1764.18888 835.128733,1775.02093 C824.368484,1800.60568 810.232857,1824.16903 798.421003,1849.19031 C793.6553,1859.28551 788.015229,1883.18379 773.466049,1883.06211 C761.94959,1882.96313 763.237511,1870.37763 755.655711,1866.06293 C746.084919,1860.61736 735.202574,1870.9805 727.341133,1875.27549 C736.39203,1859.99478 752.221254,1851.34175 770.011899,1854.21821 C748.708025,1833.0112 734.316389,1861.62609 716.033419,1867.99765 C698.711467,1874.03822 667.97859,1845.5573 653.393964,1837.48745 C658.974956,1828.0424 664.016361,1816.48927 673.610785,1810.27532 C682.712884,1804.3766 693.882747,1805.28289 703.819828,1801.78779 M515.468215,1995.59043 C518.004672,1983.37926 525.17292,1976.16052 529.718061,1965.07234 C534.987905,1978.51685 522.648279,1986.4488 515.468215,1995.59043 M883.545913,2070.5203 C882.301316,2111.6419 878.941692,2152.65316 877.728604,2193.78657 C877.169323,2212.75546 873.809699,2230.84959 871.580453,2249.59782 C869.693865,2265.45383 870.654883,2281.02613 860.670538,2294.57309 C844.927963,2315.92983 814.32506,2322.06891 790.563501,2329.98116 C773.115514,2335.78925 755.466658,2341.06145 738.235294,2347.51576 C722.732974,2353.32384 710.235804,2362.12267 695.493633,2369.02618 C682.307208,2375.20466 668.069178,2378.86526 654.941832,2385.44566 C641.365487,2392.2546 630.632808,2400.54905 616.686234,2406.60933 C599.990519,2413.86353 586.232998,2426.77215 571.384485,2437.01708 C558.31228,2446.03656 544.483864,2453.00312 533.239168,2464.34347 C522.695542,2474.98638 509.347635,2479.65177 497.39793,2489.10469 C484.762909,2499.10138 471.537098,2505.59904 457.578708,2513.43641 C428.98449,2529.50126 390.405927,2556.93404 355.9944,2541.33022 C365.836955,2528.76441 385.978943,2516.68721 387.511058,2499.37327 C389.503988,2476.81865 369.866141,2485.12099 358.495409,2492.32397 C341.271922,2503.23088 331.744455,2516.39956 318.632863,2530.93949 C303.303842,2547.93426 283.941696,2536.49934 265.186094,2531.71968 C278.010168,2520.17837 290.731838,2508.53066 303.53228,2496.96965 C314.339792,2487.21332 330.874025,2476.66104 337.455421,2463.16925 C342.158107,2453.51931 341.929668,2440.29546 330.57863,2435.28726 C317.880591,2429.68801 303.520465,2441.49727 294.115094,2448.53081 C269.148324,2467.20417 252.704679,2490.88573 236.312236,2516.87241 C227.592181,2530.69125 223.574811,2529.63129 207.532903,2526.8691 C190.533916,2523.94141 173.53099,2520.82065 156.390214,2518.76772 C179.096229,2495.45655 204.472613,2470.20279 222.405048,2442.92762 C228.214479,2434.08939 235.792341,2410.79793 218.092283,2408.65437 C210.798001,2407.77173 196.276391,2422.68205 190.648135,2426.70122 C166.059471,2444.27128 142.420008,2466.43186 126.122091,2492.0836 C120.741967,2500.55144 119.052309,2509.9689 108.634718,2510.67028 C95.0150479,2511.59232 69.7056199,2498.59702 56.5664584,2494.58179 C81.6789565,2462.93676 106.614218,2431.0632 135.952831,2403.15757 C162.908593,2377.51371 189.797398,2358.88369 221.321933,2339.21736 C255.111162,2318.13249 286.584495,2293.86382 317.604889,2268.95681 C347.297976,2245.11369 378.318371,2222.62606 405.652238,2196.00499 C460.249078,2142.82984 508.878942,2081.67546 549.151102,2017.01022 C558.572227,2001.87924 567.441949,1986.35423 575.110398,1970.25392 C582.310155,1955.13476 585.630393,1937.05245 595.350851,1923.30059 C598.710475,1918.54852 603.440731,1915.01796 606.434065,1910.06099 C609.258039,1905.39166 608.30096,1899.74907 612.605847,1895.61563 C622.562622,1886.06026 640.691986,1891.82106 649.998893,1898.51967 C664.965563,1909.28868 677.072812,1922.36279 693.520396,1931.37833 C710.066444,1940.4451 727.963431,1947.03732 746.281849,1951.49387 C789.098343,1961.90036 831.544609,1970.43911 875.164577,1976.76339 C870.674576,1993.40353 881.69871,1996.02387 885.34979,2010.99723 C889.784651,2029.16623 884.101255,2052.01638 883.545913,2070.5203 M471.273212,1793.03625 C461.564569,1778.61847 452.903593,1763.54266 443.360371,1749.03032 C437.55094,1740.19209 430.347245,1730.69976 435.313816,1719.89136 C443.679398,1701.66719 473.191309,1698.42428 489.205647,1706.36804 C525.614043,1724.43065 491.793305,1776.073 471.273212,1793.03625 M374.903607,1463.28333 C371.55186,1435.10188 382.331802,1415.10849 407.834221,1400.33214 C426.010849,1389.79956 440.646677,1404.1937 438.165361,1423.39113 C434.388246,1452.64042 403.123658,1485.17202 379.263634,1500.43304 C377.70395,1488.06425 376.380581,1475.66394 374.903607,1463.28333 M371.016211,1382.65175 C378.538932,1376.68211 398.684859,1384.29882 407.400975,1384.81895 C395.415823,1395.28848 383.426732,1405.75802 371.437641,1416.22755 C370.65386,1409.04428 364.076402,1388.16037 371.016211,1382.65175 M411.465608,1110.49506 C472.123949,1102.6104 402.296553,1167.68544 384.718592,1177.88309 C387.578014,1164.03667 394.604472,1112.68984 411.465608,1110.49506 M572.948108,996.567449 C564.803089,1029.91865 501.482255,1066.30393 500.820571,1011.67085 C500.576378,991.31495 512.014065,992.96202 528.70978,991.007602 C538.233309,989.89642 577.603531,977.500049 572.948108,996.567449 M354.233847,1048.21768 C347.124678,1066.8674 341.425528,1086.00179 334.458148,1104.67515 C331.370288,1112.94203 327.738901,1118.62402 321.988549,1125.17684 C317.175582,1130.65394 311.448861,1132.03701 311.637914,1140.69398 C317.667907,1139.53157 322.386347,1135.93796 327.258392,1132.47439 C326.076813,1149.63859 320.007434,1168.111 317.06924,1185.22004 C313.548134,1205.73749 310.617817,1226.26282 309.530764,1247.06792 C307.171544,1292.30719 307.151851,1337.3849 308.144378,1382.65175 C308.652457,1405.71862 308.880896,1428.7973 310.125493,1451.83658 C310.747791,1463.29909 311.448861,1474.80888 312.866757,1486.20046 C313.441792,1490.79886 316.781723,1500.59065 314.717897,1504.9014 C306.616202,1521.82131 270.727701,1475.34477 255.142671,1482.16553 C257.383733,1469.28843 252.212354,1472.10579 243.57501,1465.77363 C239.392219,1462.70409 236.670648,1457.48312 232.306682,1454.74851 C230.987252,1453.32604 229.533909,1452.06118 227.950593,1450.95 C226.146715,1448.49122 224.244373,1448.75522 222.243565,1451.73413 C204.685297,1441.24096 200.148033,1418.87942 190.722969,1403.83512 C185.874555,1396.1002 181.191563,1394.89445 180.364457,1384.20031 C179.647632,1374.88136 181.049773,1365.3851 180.671668,1356.02674 C180.242361,1345.47052 179.624001,1333.8307 176.662175,1323.6094 C173.22378,1311.74104 168.493524,1312.71037 159.281144,1306.38609 C162.120873,1305.14488 163.991707,1303.06043 164.897585,1300.13274 C161.955452,1300.65681 153.014836,1304.30164 150.793467,1301.6813 C146.425562,1296.53519 156.732872,1295.84957 159.442627,1293.79664 C147.882843,1288.6663 150.372037,1284.45011 154.543012,1275.04841 C155.724591,1272.38867 156.85103,1268.41285 157.855372,1266.17078 C160.049171,1261.26898 161.309522,1264.37398 162.034224,1258.28613 C162.723479,1252.48198 157.575732,1241.06675 156.059372,1234.88433 C153.515038,1224.50936 152.108958,1215.54505 154.393345,1204.73664 C156.244486,1195.9851 161.222873,1188.06104 161.56947,1179.06126 C161.667935,1176.53549 157.815986,1175.69619 157.764784,1173.25711 C157.689951,1169.69108 161.018066,1168.12282 161.884557,1164.82868 C164.094111,1156.39631 163.097645,1147.47928 166.878699,1139.47641 C170.281647,1132.28919 177.1545,1122.98994 182.018668,1116.71689 C185.390108,1112.37067 193.661163,1107.47281 194.56704,1101.73564 C195.165707,1097.9332 189.245995,1098.37058 189.509881,1095.50593 C189.868293,1091.62862 193.121575,1090.37165 194.015636,1087.49124 C196.47726,1079.58294 197.09562,1071.98199 203.456455,1065.92172 C211.467562,1058.29318 214.949282,1061.48881 215.280125,1048.90724 C215.441607,1042.76816 210.530176,1041.82248 213.161159,1034.74559 C214.59087,1030.90374 218.809108,1028.63409 221.507047,1025.91131 C229.518155,1017.83357 234.917972,1010.65817 240.621061,1000.67724 C245.666405,991.858719 253.71296,986.728371 258.8804,979.111656 C265.611463,969.185891 255.548346,964.264382 269.207403,961.462786 C267.265674,955.300064 265.201849,950.31945 270.31021,945.102414 C273.531983,941.812213 281.708511,943.825737 284.560056,940.01935 C287.829092,935.649491 282.996433,925.294227 287.923618,922.457168 C291.929172,920.155998 297.927656,927.256526 304.221535,923.741725 C309.018747,921.06228 316.261828,906.266231 314.717897,900.828535 C327.120541,907.802971 324.028742,902.999673 329.964209,894.051116 C331.295455,892.045473 335.328578,891.600213 336.47471,889.574868 C338.766974,885.528119 338.243141,881.402562 341.543685,878.112362 C347.045906,872.635262 356.045602,874.041971 362.099226,870.129194 C367.101245,866.898099 366.837359,863.414821 370.827158,860.364983 C374.237984,857.760405 379.83867,857.25998 383.154969,854.560834 C389.649716,849.272871 389.712734,843.689382 397.83806,839.134326 C407.460054,833.743914 415.983179,829.157336 424.734743,822.009524 C430.441771,817.352019 435.857343,809.093026 442.533266,806.019545 C451.765338,801.767897 458.957218,801.46843 467.988422,795.404217 C474.514678,791.018597 480.68646,783.784097 487.094559,780.088039 C491.927218,777.306146 495.31835,777.90508 501.411361,776.179203 C512.376416,773.070259 515.046785,762.742577 523.991341,758.538213 C530.131614,755.64993 539.072231,758.293911 545.81511,756.776873 C566.799958,752.068143 587.528797,741.909896 608.584539,736.283063 C634.287827,729.418957 660.17229,723.405968 686.072508,717.337815 C662.271563,749.585717 631.956177,778.681331 601.211484,804.293668 C591.120798,812.702395 535.818949,851.030271 565.626255,867.398525 C577.591715,873.967104 603.586459,852.748268 613.247839,847.562755 C632.700572,837.116862 652.850437,828.755419 673.224802,820.307289 C706.171171,806.646062 749.078253,782.349806 785.691456,784.304224 C763.402932,811.638498 735.580679,833.58236 710.090076,857.728883 C686.663297,879.920987 651.365586,900.733966 662.413352,937.0562 C629.506369,928.686876 599.951133,918.796574 565.740475,920.987414 C550.415392,921.968563 535.082431,920.124475 519.828243,922.271971 C503.23887,924.616485 487.618392,930.164511 471.678888,935.034795 C459.067498,938.884526 445.13274,939.187934 433.529632,945.591018 C427.921069,948.688141 420.989137,953.109224 415.951671,956.951075 C409.236362,962.073542 407.708186,965.466191 402.434404,972.216027 C383.619723,996.299504 365.415525,1018.87776 354.233847,1048.21768 M251.318292,1504.04635 C250.290318,1499.87745 249.356871,1496.075 248.17923,1491.31504 C258.651961,1497.76147 258.651961,1497.76147 251.318292,1504.04635 M172.172174,1371.28775 C170.880314,1373.07274 165.456865,1373.64409 163.881426,1372.10341 C161.920005,1370.18839 167.075629,1362.73323 167.902734,1361.14921 C169.946867,1362.71747 174.649552,1367.85176 172.172174,1371.28775 M149.749738,1322.97107 C151.136125,1317.88012 152.52645,1312.79312 153.912836,1307.70217 C155.61431,1312.41878 163.290637,1317.63582 163.459996,1322.13177 C163.566339,1325.11068 151.266098,1323.62911 149.749738,1322.97107 M154.200354,1329.95338 C166.217015,1337.86168 167.473427,1347.19246 167.83184,1360.84186 C153.45202,1356.08191 155.515845,1342.16456 154.200354,1329.95338 M363.174463,791.310183 C361.961375,794.592503 356.813628,804.817736 353.040452,797.665983 C351.835241,795.376634 360.665577,792.251929 363.174463,791.310183 M359.724252,780.162906 C362.693954,777.487402 368.680623,780.817006 372.040246,778.653749 C374.395528,777.13671 373.615685,775.59997 374.722431,774.701568 C374.942993,774.520311 378.145073,768.042361 379.456626,766.572606 C381.772521,763.987731 386.825742,762.376124 389.641839,760.043431 C397.511157,753.522136 401.953895,744.947914 406.904712,736.227898 C412.812608,725.813528 414.695258,724.607778 424.222726,719.839943 C430.792306,716.553683 435.884913,712.530576 441.22959,706.943146 C447.389556,700.508539 446.936618,695.902259 451.993777,688.868718 C454.490848,685.397261 458.086787,684.967762 460.997411,682.170106 C464.487009,678.820801 466.259377,674.135713 469.485089,670.754885 C470.879352,669.293012 475.353599,669.296952 476.196459,668.043918 C477.271696,666.459893 478.110618,660.123795 479.118898,658.957449 C481.044873,661.558086 482.974785,664.158723 484.896821,666.759361 C492.490437,653.409423 498.032044,642.380356 510.730083,633.494846 C524.066174,624.164075 535.578695,610.514669 549.363786,602.161107 C552.459524,600.285496 558.773096,599.493484 561.140193,596.727352 C565.141808,592.046204 561.675842,587.881244 564.594343,583.905422 C567.906703,579.397651 574.322679,583.046423 578.53304,581.103826 C583.861962,578.645042 585.386199,571.461767 592.247236,572.253779 C569.68695,598.933953 569.970529,640.44564 568.773195,673.76926 C568.2533,688.12793 577.300259,695.36637 563.944474,705.902892 C552.585559,714.867209 536.567283,712.207467 523.136665,718.106185 C506.27159,725.514061 488.232813,729.45442 471.02508,735.912669 C453.226558,742.587638 438.913695,754.278685 421.784734,762.013611 C406.680212,768.830432 396.365025,778.523717 382.548425,786.940325 C377.412493,790.06897 369.456526,794.612204 363.332007,790.872803 C359.495813,788.528289 354.718294,784.678558 359.724252,780.162906 M614.516067,556.456878 C615.496778,552.666252 634.752581,542.705023 639.490714,539.454227 C646.599883,534.568181 657.123816,522.636772 665.06009,527.377025 C667.809231,516.36766 678.537971,504.117083 688.018175,501.78439 C698.53423,499.191633 716.576946,490.176091 726.923642,482.307193 C729.944546,480.009963 730.941011,476.648837 734.497565,474.49346 C740.68904,470.738298 746.833252,472.787285 752.796289,467.668758 C753.710044,466.888566 761.961406,453.266744 762.288309,453.396776 C762.709739,454.858649 763.095722,456.336284 763.430502,457.821799 C769.692873,454.350343 775.269927,451.588151 779.173077,447.159186 C780.059261,446.154395 774.320725,443.541936 776.13248,441.552055 C778.34991,439.116913 783.300727,441.839701 785.541789,439.52671 C778.570472,474.123066 783.761543,518.653069 818.870202,536.191609 C777.117129,540.70332 736.33689,528.153276 694.067861,535.860619 C673.835285,539.552736 653.267929,545.609068 634.862862,554.912257 C623.586657,560.613957 609.167452,581.0329 597.942448,571.118955 C602.397002,565.180834 609.191083,561.492657 614.516067,556.456878 M817.109649,456.927338 C832.72225,437.836296 856.405037,430.282627 880.257184,437.119151 C908.18184,445.125961 896.405434,464.63074 892.187196,486.286956 C884.128825,474.477699 866.672961,462.76301 851.808693,462.408378 C830.737196,461.907952 838.701041,479.458313 851.355755,485.747127 C862.860398,491.460648 882.588833,493.052553 890.824441,503.443281 C898.839487,513.554244 895.767381,530.087992 897.059241,542.01152 C890.828379,541.085535 884.597518,540.159551 878.362718,539.233566 C883.593176,511.406748 860.576012,510.059145 839.114593,502.213889 C817.424737,494.289826 799.342635,478.65448 817.109649,456.927338 M887.047326,388.404486 L887.047326,414.229602 C878.366657,409.280511 869.682049,404.33536 860.997441,399.386268 C869.682049,395.725674 878.366657,392.06508 887.047326,388.404486 M956.839275,594.757172 C985.831291,602.610308 1014.62244,610.920526 1042.49196,621.756515 C1052.61415,625.692934 1063.7013,627.083881 1073.61869,631.528606 C1083.06345,635.756612 1084.48134,635.315292 1081.12172,643.590047 C1071.71241,666.771182 1049.41995,662.767776 1029.88844,659.221453 C999.317049,653.669486 969.379769,645.973964 939.190419,638.731584 C909.682446,631.658638 879.552175,627.020835 850.489263,618.155026 C820.666202,609.060677 791.603291,600.447051 760.925554,594.441943 C751.973122,592.688483 681.153199,586.194771 681.68972,578.794776 C726.293466,573.002447 772.213575,578.708088 817.015122,579.310963 C863.577223,579.93748 911.679315,582.518415 956.839275,594.757172 M917.484808,505.086411 C918.04015,489.147657 918.260711,473.157678 920.241826,457.313493 C933.510961,473.685686 945.488236,478.587494 962.21546,463.239794 C978.229798,448.550133 981.802106,440.890075 1002.10558,454.701035 C1019.70717,466.679727 1036.35956,466.128077 1055.05214,455.64278 C1066.45438,449.247577 1084.77674,423.115113 1096.76189,428.493704 C1102.47286,431.058878 1106.65959,441.394441 1112.42569,445.196887 C1119.6609,449.960782 1130.78744,453.266744 1139.21997,455.114772 C1159.13746,459.47675 1171.00446,446.670582 1183.50556,432.973892 C1201.63493,413.11054 1201.10322,424.647913 1217.91315,438.419469 C1236.66088,453.782931 1252.3365,446.276546 1269.31185,433.16697 C1279.65461,463.456513 1283.52231,496.535831 1286.44475,528.291188 C1287.4294,539.012906 1291.11199,554.238455 1281.47818,561.819707 C1274.68804,567.166775 1260.27671,567.375614 1252.09624,570.330883 C1222.87185,580.894987 1194.78965,595.880174 1170.34671,615.065785 C1160.82318,622.540646 1152.52062,631.694102 1139.50749,629.991866 C1127.10485,628.368438 1115.05274,617.989531 1105.07627,611.137246 C1094.25301,603.705728 1083.29977,595.265478 1070.64899,591.12416 C1063.24049,588.696899 1051.37349,589.575599 1044.89056,585.126933 C1032.83845,576.856119 1047.02134,555.160499 1044.02013,540.596931 C1041.74756,529.540282 1035.38279,506.485239 1020.14829,512.96713 C997.477724,522.60919 1010.67203,560.251444 1023.13769,572.001596 C997.635268,567.474123 969.399462,560.8622 944.80292,552.461353 C925.803126,545.971581 916.80343,524.528145 917.484808,505.086411 M1345.20469,582.719374 C1397.55653,568.025773 1446.5448,558.115769 1501.02742,555.440265 C1525.14346,554.254217 1548.49146,555.002885 1572.33967,555.219605 C1586.06962,555.345696 1596.53054,544.277227 1585.56154,531.545925 C1570.38219,513.916757 1524.08003,520.627189 1503.56388,519.835177 C1448.57318,517.711323 1398.15125,523.960733 1346.07118,542.082446 C1351.57734,531.939961 1364.80709,530.623881 1373.87768,525.379262 C1385.00028,518.940715 1392.56238,508.337208 1397.31627,496.567354 C1409.67953,465.958642 1397.23356,437.11521 1384.29921,409.154419 C1409.7071,415.987003 1435.98936,430.948548 1461.53117,434.747054 C1466.88766,435.543007 1470.32212,435.03076 1475.06025,436.981238 C1477.96693,438.175167 1478.88463,442.308604 1482.48844,443.210946 C1484.2293,443.648326 1488.4121,439.715847 1490.38139,440.271438 C1498.16012,442.470159 1492.00803,443.053332 1496.92734,446.237142 C1500.83049,448.762913 1500.51541,452.013709 1507.67578,450.81978 C1510.85029,450.295713 1514.29262,445.386025 1515.96652,445.252053 C1518.09731,445.078677 1517.60498,442.48592 1520.86614,443.242469 C1526.79767,444.621595 1526.27383,452.261952 1528.25101,456.021055 C1530.3621,460.02446 1527.36483,465.347886 1533.76505,467.538726 C1538.55044,469.177915 1539.75171,464.126374 1543.82029,464.488887 C1546.28979,464.709548 1551.41784,468.267692 1553.59982,470.43489 C1560.63022,477.417207 1570.25615,485.12849 1579.70879,489.671725 C1578.77928,488.73786 1584.16334,486.487914 1582.87542,485.959906 C1582.00893,485.609214 1587.66475,486.972579 1587.5781,486.952877 C1593.037,488.19409 1595.92005,496.571294 1598.67707,499.625073 C1603.74999,505.224324 1611.63112,511.134863 1618.74029,513.605468 C1631.03265,517.880758 1630.65849,512.770112 1635.14455,527.373084 C1643.8843,513.636991 1647.23604,536.64081 1658.07506,539.174461 C1663.68756,540.486601 1663.03376,538.082981 1668.13424,541.018549 C1671.63565,543.032073 1673.97124,549.198736 1676.6101,552.173707 C1677.74442,547.882655 1678.8748,543.587664 1680.00517,539.300553 C1687.81147,554.084781 1704.66079,577.52992 1723.14069,573.290093 C1723.14069,577.325021 1721.47861,582.148021 1724.60191,585.591896 C1726.7839,587.999455 1730.31682,585.264846 1732.02617,586.663673 C1733.51496,587.885185 1737.07939,592.747588 1738.22158,593.547481 C1740.47052,595.123625 1744.55485,596.27421 1746.50839,597.846414 C1748.22956,599.22948 1749.0803,605.837463 1750.99052,608.22532 C1754.57858,612.71339 1760.78187,613.603911 1763.71613,618.986442 C1764.38569,613.678778 1765.05525,608.367173 1765.72087,603.059509 C1771.54212,607.555459 1772.04232,611.046618 1773.47203,617.623078 C1775.50829,626.989312 1772.80641,624.794532 1779.26965,628.746713 C1785.61867,632.635847 1788.93103,632.198468 1794.75228,638.944363 C1800.4593,645.556286 1800.51051,649.630618 1808.74611,642.742869 C1810.27823,647.837754 1810.77055,654.429976 1814.85882,658.334872 C1817.94668,661.286201 1830.7353,661.412293 1831.95627,668.382789 C1807.93082,648.11752 1823.74035,678.895668 1831.96808,668.434013 C1833.70501,679.632515 1841.90517,683.249765 1851.26721,691.225053 C1859.99908,698.65657 1861.42879,698.116741 1864.41031,710.60374 C1864.34336,710.327915 1868.79791,713.090107 1869.12087,713.641758 C1860.6135,714.855388 1873.80387,724.359535 1876.03311,726.097234 C1877.65975,727.36603 1879.77872,724.335893 1882.4806,726.38882 C1885.5724,728.737275 1888.08916,734.076462 1890.60592,737.295736 C1897.42364,746.023632 1902.46898,753.522136 1909.64511,760.618723 C1917.38839,768.278782 1921.15369,777.960245 1928.58976,786.912742 C1936.83718,796.854269 1941.29961,808.285252 1948.1961,819.077896 C1954.75386,829.342533 1963.4621,837.581825 1971.05572,846.979582 C1983.15903,861.937186 1987.27486,894.878592 2009.83909,895.745471 C2008.51572,897.112776 2010.35505,907.322247 2010.57167,909.205739 C2011.63903,918.477405 2010.93008,927.398378 2016.41655,935.795285 C2017.67296,926.216271 2022.68679,929.908387 2027.04288,934.940227 C2034.28596,943.31349 2027.92513,941.205398 2028.30717,949.688992 C2028.77193,959.97333 2029.94169,952.017744 2033.8606,960.997824 C2036.92876,968.031365 2038.61054,972.594302 2040.25688,980.400154 C2027.51158,981.408886 2021.67457,970.998456 2016.96401,960.911136 C2014.99471,956.691011 2014.31334,949.755978 2010.82768,946.457897 C2007.11752,942.947037 2002.02097,942.671212 1998.20841,938.754494 C1990.8905,931.228408 1987.71992,919.494017 1979.0944,912.168889 C1969.35031,903.894134 1967.19195,899.985298 1959.13752,890.091055 C1950.22841,879.148677 1937.92424,871.464976 1928.57794,860.88117 C1919.2159,850.277663 1919.97605,856.066051 1908.21539,852.228141 C1895.71035,848.141988 1875.48959,808.836902 1859.7352,823.975763 C1860.3575,814.07364 1845.5208,804.75863 1838.02171,801.168963 C1834.78024,799.620401 1831.00707,801.023169 1827.76166,798.698357 C1824.24449,796.176527 1823.99242,791.314124 1820.44375,788.287928 C1820.44769,788.291868 1815.00454,789.607948 1813.90174,789.052357 C1811.6528,787.913593 1811.63704,783.886546 1809.65199,782.562585 C1804.16159,778.894111 1797.61564,775.04832 1791.79045,771.923615 C1777.62725,764.330542 1765.11039,754.980069 1751.44346,745.838435 C1739.73794,738.005 1725.56687,723.85911 1712.03385,719.729613 C1700.21412,716.124184 1692.78198,717.960392 1683.10485,710.737713 C1677.83107,706.805234 1679.38288,705.485213 1670.91095,703.03825 C1662.8447,700.709498 1658.31532,701.907367 1654.04194,693.356787 C1646.56648,678.395242 1651.28492,649.193238 1649.83946,632.415187 C1648.3034,614.608703 1646.47983,596.360898 1641.83623,579.046959 C1636.34188,558.584672 1629.08698,547.886596 1607.1293,552.705655 C1563.62355,562.264968 1520.64558,571.359317 1476.9429,579.752283 C1389.85657,596.475169 1304.2669,623.766098 1219.09473,647.995369 C1212.60786,649.843397 1176.41609,658.126033 1183.80884,639.417206 C1187.21572,630.787819 1210.12261,627.572486 1217.79106,624.861518 C1259.88679,609.966959 1302.17551,594.792635 1345.20469,582.719374 M1330.5728,544.63974 C1324.21196,547.063061 1317.85507,549.486382 1311.49423,551.913643 L1311.49423,534.23325 C1317.85507,537.700767 1324.21196,541.168283 1330.5728,544.63974 M1304.14087,451.154711 C1309.66672,455.670363 1320.90354,444.802852 1325.60229,442.600191 C1333.62915,438.841088 1343.84981,435.613933 1352.818,436.386244 C1369.35617,437.816594 1381.4516,454.094219 1378.42282,470.596445 C1373.29477,498.517832 1333.49918,511.721977 1311.55725,522.636772 C1310.85224,512.74253 1307.65016,500.846584 1314.58997,492.288124 C1320.61602,484.856606 1332.30184,485.396435 1337.86314,477.492074 C1351.85698,457.624781 1313.93222,455.824037 1305.45636,471.620938 C1302.11249,461.525737 1298.76862,451.430536 1295.42475,441.335335 C1303.49494,439.999553 1299.9502,447.734479 1304.14087,451.154711 M1343.28265,396.501925 C1335.38576,401.604691 1327.48888,406.707456 1319.59593,411.810222 C1315.68096,394.14559 1329.02099,391.820778 1343.28265,396.501925 M2062.76596,1011.32409 C2052.42321,1016.25743 2049.83949,1004.47575 2042.40341,1003.96744 C2051.18649,998.569151 2051.18649,998.569151 2062.76596,1011.32409 M2104.81837,1268.56652 C2106.10629,1285.49825 2105.09801,1302.62699 2107.35483,1319.49173 C2109.07205,1332.32154 2114.271,1344.26083 2114.82635,1357.23643 C2116.03943,1385.6543 2106.44107,1414.5923 2087.05529,1435.42499 C2068.71718,1455.13072 2042.47825,1472.09003 2017.72416,1480.37661 C2006.57005,1484.10419 1994.92756,1492.375 1984.09248,1495.43272 C1972.10732,1498.81749 1960.72084,1491.45296 1950.83496,1504.66104 C1944.24175,1448.00655 1949.05865,1388.80659 1948.53876,1331.79353 C1948.01886,1274.65832 1948.63328,1217.5034 1938.96403,1160.98289 C1930.35425,1110.6448 1913.3789,1054.02577 1882.09068,1012.84507 C1869.38082,996.122188 1853.73277,982.425499 1837.23005,969.603569 C1828.66754,962.952242 1820.10109,955.839893 1810.56574,950.587394 C1795.88659,942.501776 1783.38548,943.620838 1767.42235,941.315728 C1744.57454,938.017647 1723.33762,935.231813 1700.40711,941.66248 C1679.05991,947.651826 1655.55042,954.472588 1636.42853,964.875137 C1617.38147,975.242223 1595.26231,979.513573 1575.49055,988.79706 C1562.04024,995.113456 1534.09983,1016.21408 1519.17648,1012.41557 C1504.72971,1008.73528 1483.34706,984.226243 1474.12286,973.248401 C1462.33464,959.216781 1452.58267,942.954918 1442.1257,927.859401 C1438.45492,922.559617 1430.96765,914.36761 1430.01451,907.562609 C1428.35636,895.749411 1433.09055,899.610963 1444.37857,900.930984 C1473.40604,904.335454 1500.70446,909.717986 1528.52277,918.851739 C1542.36694,923.394973 1569.43692,941.780691 1583.28109,930.763445 C1604.41955,913.942051 1572.30028,885.031633 1560.53569,875.318647 C1540.49217,858.769137 1517.18749,846.479156 1495.8206,831.773735 C1473.12246,816.146269 1443.10641,799.510071 1428.49815,775.446296 C1471.1571,788.035744 1513.77273,802.45352 1555.18708,818.683861 C1574.13567,826.107498 1592.8637,833.952753 1610.65829,843.827294 C1620.65445,849.37138 1640.85158,864.368388 1652.88793,857.185113 C1679.05597,841.569468 1618.95691,796.219871 1610.28412,786.952146 C1596.81018,772.550132 1583.608,758.28603 1568.79887,745.219798 C1558.80665,736.405214 1543.11134,730.207029 1538.46773,717.203843 C1555.04923,723.20501 1568.45621,734.959102 1583.9861,742.946211 C1592.11537,747.130873 1599.53175,749.538432 1608.51175,750.819049 C1618.08254,752.190294 1619.22474,753.715213 1626.76715,757.51766 C1632.6396,760.484751 1638.67353,764.448753 1645.26674,766.466217 C1649.96549,767.904448 1658.17353,768.152691 1662.28148,770.816374 C1664.38076,773.811047 1666.54699,776.754495 1668.78805,779.646719 C1671.293,780.383566 1673.75856,781.230744 1676.18867,782.196132 C1679.83188,785.442988 1681.99023,789.919236 1685.53497,793.268542 C1711.25401,817.58056 1745.65372,834.981187 1774.48819,855.348905 C1801.76692,874.617263 1830.71561,892.049414 1856.91516,913.079112 C1887.06513,937.28474 1918.35728,963.298994 1944.00149,992.323682 C1958.49553,1008.7274 1970.40979,1027.32589 1982.58399,1045.46337 C1991.39857,1058.59659 2004.21871,1069.49168 2011.83596,1083.0347 C2028.44896,1112.55981 2042.23799,1144.47672 2060.11923,1173.52505 C2078.34312,1203.12503 2102.08104,1232.53588 2104.81837,1268.56652 M1859.7352,1439.87759 C1864.70177,1419.38772 1892.73277,1395.46186 1910.64551,1386.42662 C1901.61824,1408.75269 1877.56523,1423.97824 1859.7352,1439.87759 M1905.95464,1511.35571 C1890.67682,1543.04408 1823.49616,1546.66921 1832.61008,1499.775 C1837.07645,1476.79876 1856.03292,1462.70015 1872.30326,1447.66374 C1879.82598,1440.71689 1898.2468,1415.8611 1909.89324,1419.86451 C1909.34577,1437.73404 1908.29417,1455.68237 1908.33355,1473.55584 C1908.35718,1485.48725 1911.36233,1500.14145 1905.95464,1511.35571 M1886.53735,1146.12379 C1892.73671,1160.04114 1898.91243,1171.62974 1887.41172,1184.08128 C1882.22459,1189.70023 1865.31225,1201.99415 1857.66349,1199.26348 C1833.10634,1190.508 1879.92445,1152.38502 1886.53735,1146.12379 M1738.0089,1022.29406 C1743.92467,1021.97095 1749.66715,1022.84965 1755.51203,1022.49107 C1761.33328,1022.12856 1761.9477,1021.09619 1767.34358,1021.83303 C1767.91467,1022.66051 1768.48183,1023.48798 1769.05293,1024.31546 C1769.78944,1029.86743 1772.70794,1030.4703 1777.80055,1026.12803 C1784.88609,1027.70417 1789.49425,1028.75625 1796.26864,1032.58233 C1777.98567,1045.76284 1755.72865,1061.08689 1733.31015,1065.51192 C1697.87853,1072.50212 1707.66594,1023.96477 1738.0089,1022.29406 M1194.81722,1318.69578 C1191.14251,1326.08395 1180.57525,1307.62337 1177.96002,1304.18341 C1182.836,1304.16767 1198.53131,1311.24062 1194.81722,1318.69578 M1479.5148,1124.20357 C1507.0456,1108.14661 1539.7399,1094.04406 1569.30695,1082.08901 C1574.5059,1107.13 1549.14921,1139.4567 1533.53267,1156.58939 C1520.90553,1170.44763 1505.67891,1184.81812 1488.55782,1192.79341 C1470.04641,1201.41492 1449.81384,1197.62823 1450.71184,1173.43442 C1451.04268,1164.59226 1453.05531,1150.36756 1456.65518,1142.28588 C1461.29879,1131.86757 1470.07399,1129.70431 1479.5148,1124.20357 M1107.38429,668.713779 C1111.48043,668.473417 1155.99052,662.720492 1155.75421,668.256697 C1155.05314,684.896835 1111.85066,671.830603 1107.38429,668.713779 M792.635203,990.010691 C816.144692,961.013585 854.097019,929.71531 854.652361,889.188713 C855.471589,829.555312 789.267703,859.308967 755.982614,861.787453 C773.584207,844.501096 862.025415,771.97878 809.712963,746.22065 C794.675397,738.816714 773.304567,746.051214 758.215799,749.928528 C731.445152,756.812336 706.553215,768.731923 680.255199,777.02638 C699.046248,757.029056 731.516046,734.301062 730.452625,704.015459 C729.152888,667.149456 698.880827,676.062549 672.704908,681.472663 C662.645729,683.553173 617.71027,701.422703 609.269855,689.290336 C606.178056,684.845611 611.180075,679.199075 612.239558,675.242954 C614.110392,668.240936 613.531418,665.797913 613.594435,658.64616 C613.724409,644.216564 623.314894,625.688994 615.492839,612.268129 C613.704716,615.317968 612.172602,618.489957 610.900434,621.788038 C608.320653,613.978245 610.053636,605.69561 607.473855,597.885817 C672.823065,614.592941 739.302654,623.738516 805.061479,637.998677 C838.350505,645.217415 869.682049,657.649249 903.427953,663.24456 C937.461375,668.883214 970.904007,677.516542 1005.00045,682.895133 C1036.11143,687.80088 1065.9148,695.969245 1096.72251,702.234417 C1126.75431,708.341974 1157.55415,694.956573 1186.86519,688.179155 C1252.51767,673.00089 1318.14652,657.452231 1383.88565,642.723168 C1459.74698,625.720517 1538.66072,611.18453 1611.27271,582.829704 C1612.67879,620.621691 1615.70363,658.342753 1620.32361,695.874677 C1588.25554,680.720054 1540.66547,660.959151 1508.24687,688.076705 C1495.27313,698.924515 1491.27546,717.656984 1496.40351,733.587857 C1501.9845,750.929379 1519.08195,758.983474 1530.3621,772.037885 C1496.02934,763.239062 1407.4621,701.205983 1391.69589,763.908923 C1380.56148,808.194624 1434.87474,836.801633 1461.4327,861.728347 C1435.05985,856.566477 1399.74245,835.489494 1384.25588,869.364764 C1370.87253,898.649516 1386.99321,930.515203 1403.50381,954.669606 C1412.4523,967.75554 1422.51542,980.073104 1432.02713,992.753181 C1437.05672,999.459673 1441.96815,1006.26073 1447.25375,1012.77021 C1452.5551,1019.29938 1462.5552,1026.13591 1466.2693,1033.16157 C1473.7487,1047.3311 1458.65599,1048.19798 1446.91897,1053.31651 C1432.26345,1059.70777 1419.67963,1070.44131 1406.27658,1078.99583 C1375.58703,1098.58336 1348.76518,1116.776 1312.49857,1123.03723 C1275.16067,1129.47971 1239.20915,1136.20985 1202.36357,1145.19781 C1165.63221,1154.15819 1135.64767,1162.76787 1098.10102,1151.18715 C1080.98387,1145.90707 1067.04123,1141.2141 1048.8843,1142.20708 C1029.81361,1143.25127 1018.66344,1142.26224 1002.98388,1130.45298 C935.511769,1079.65387 862.273547,1037.96881 792.635203,990.010691 M670.995556,939.010618 C697.073011,925.932565 723.323763,912.787526 750.259832,901.54962 C772.556233,892.242491 806.412418,881.402562 830.819907,885.480834 C823.939177,903.149406 811.382928,917.645989 797.916863,930.657056 C786.006544,942.162905 771.126522,959.52807 756.715194,967.558522 C743.627234,974.848187 728.400616,963.302934 715.493832,958.464173 C701.310942,953.152568 681.795191,950.674082 670.995556,939.010618 M677.549383,1004.99588 C690.542816,999.597585 718.471411,1017.71142 730.291143,1022.42015 C753.517052,1031.67999 776.872936,1041.34963 797.341828,1055.95655 C772.347487,1084.8315 744.040787,1111.23191 710.405163,1129.77918 C688.274184,1141.98247 650.975665,1155.97863 630.101098,1133.82199 C603.873976,1105.97941 635.40245,1049.24611 653.968999,1025.38724 C654.58342,1029.46945 655.20178,1033.54772 655.82014,1037.62993 C661.74379,1028.14943 666.265301,1009.68491 677.549383,1004.99588 M1154.61201,1252.13522 C1138.40075,1255.54758 1132.89065,1252.46621 1122.18948,1240.03832 C1114.95427,1231.63747 1107.84511,1222.91352 1099.68827,1215.35985 C1091.36207,1207.65251 1070.8026,1189.06583 1096.99821,1199.76785 C1120.87399,1209.52024 1141.32712,1214.3984 1167.59757,1210.57625 C1197.63331,1206.21033 1225.63674,1193.5145 1255.25106,1187.08777 C1239.01616,1201.28883 1222.89942,1215.63173 1206.63301,1229.79339 C1189.44891,1244.75493 1176.4476,1247.53682 1154.61201,1252.13522 M1158.31823,1366.35048 C1122.79208,1393.07794 1051.26715,1390.18572 1075.33986,1331.37979 C1078.99882,1322.447 1084.11506,1314.04221 1090.03477,1306.43338 C1092.008,1303.89185 1095.52123,1298.62753 1098.33339,1296.92135 C1106.19089,1292.15746 1104.01285,1291.58216 1111.56708,1299.52593 C1118.08546,1306.37821 1169.02334,1362.36678 1158.31823,1366.35048 M1147.78642,1264.16908 C1151.0397,1263.11307 1164.7539,1255.16536 1167.87721,1259.5628 C1171.0399,1264.01541 1144.15504,1279.41827 1147.78642,1264.16908 M1406.42625,1671.78745 C1398.43877,1690.89425 1334.50746,1718.55558 1346.41778,1680.03856 C1351.69156,1662.9768 1356.66601,1650.06031 1376.56774,1648.76393 C1388.05269,1648.0192 1413.46058,1654.96211 1406.42625,1671.78745 M1521.10639,1412.85461 C1531.63033,1397.53449 1566.38451,1376.82002 1581.22515,1399.66622 C1588.3737,1410.67165 1571.02418,1416.3103 1560.53176,1413.48112 C1554.89956,1411.9562 1550.2914,1408.59114 1544.16688,1408.33895 C1536.29363,1408.01584 1528.59761,1414.19039 1521.10639,1412.85461 M1549.00742,1428.06045 C1541.85099,1435.30283 1498.6879,1471.60931 1491.69689,1466.01006 C1505.79313,1445.86694 1521.97682,1423.37143 1549.00742,1428.06045 M1478.5144,1795.46351 C1463.52804,1796.31069 1471.01137,1773.73243 1472.46078,1764.70507 C1476.08822,1770.99388 1495.16679,1794.52177 1478.5144,1795.46351 M1516.5967,1754.99602 C1511.74829,1746.37057 1498.68396,1733.53288 1501.63791,1722.43683 C1503.89866,1713.95324 1524.28878,1702.54589 1532.82766,1707.41224 C1544.16688,1713.88231 1527.72718,1756.42637 1516.5967,1754.99602 M1872.23237,1664.55689 C1865.82033,1686.63866 1859.17592,1680.9409 1839.07331,1685.22013 C1818.90376,1689.51119 1804.96112,1706.63205 1787.20592,1715.81309 C1793.37377,1702.77838 1797.19814,1686.89479 1807.52515,1676.31886 C1809.91194,1673.87584 1824.54777,1669.05284 1816.20976,1663.39448 C1808.91941,1658.44933 1798.4388,1674.49842 1795.31156,1678.87222 C1779.93133,1700.3984 1769.17502,1726.68454 1760.29349,1751.45364 C1755.92558,1763.61753 1752.42811,1776.00996 1750.36034,1788.7846 C1748.51708,1800.1683 1750.50607,1812.08001 1748.62736,1823.16818 C1745.60252,1841.02589 1721.34076,1841.11652 1706.74825,1845.7228 C1693.5382,1849.88776 1680.38722,1854.40735 1666.67696,1856.65335 C1654.79027,1858.59989 1642.45458,1855.05357 1630.93419,1857.39414 C1618.46065,1859.92779 1612.85602,1867.32779 1598.67707,1865.65314 C1587.11729,1864.29371 1576.3019,1858.97817 1564.58457,1858.44622 C1553.61952,1857.95367 1542.68203,1861.7443 1531.78393,1858.659 C1520.78343,1855.54217 1521.31514,1854.33642 1523.81615,1843.53196 C1525.37977,1846.44782 1526.94733,1849.36369 1528.5149,1852.27561 C1532.89855,1848.83962 1535.93128,1838.36221 1538.6174,1833.4407 C1542.78443,1825.82004 1546.17951,1823.18394 1544.63558,1813.69161 C1542.35907,1799.67182 1529.71617,1789.69877 1526.84887,1776.36459 C1523.85553,1762.45118 1534.14709,1751.07536 1540.22828,1739.45918 C1548.54266,1723.55983 1548.43238,1711.77028 1541.465,1695.32716 C1546.71909,1696.71416 1551.97318,1698.10117 1557.23121,1699.49212 C1550.02752,1683.86071 1525.60033,1690.19681 1513.3513,1694.82673 C1507.19527,1697.15154 1497.43936,1706.29712 1490.81464,1706.06464 C1481.71254,1705.74547 1476.96653,1693.78254 1473.0555,1687.19425 C1461.73597,1668.13474 1448.81344,1649.31164 1435.4222,1631.61548 C1431.73961,1626.74914 1426.91483,1623.62049 1428.187,1618.07247 C1429.27011,1613.36768 1439.82556,1606.69271 1443.25214,1603.79261 C1456.0959,1592.93692 1472.44108,1586.91999 1484.50501,1575.49294 C1502.73677,1558.22629 1523.76101,1545.85356 1542.39845,1528.92578 C1561.81968,1511.29267 1581.82775,1495.09779 1602.06427,1478.43401 C1622.56073,1461.55745 1640.31593,1441.67046 1660.66272,1424.62052 C1665.9365,1434.17195 1676.14929,1468.37033 1687.83117,1471.01825 C1701.45084,1474.09961 1701.04516,1457.99142 1700.36772,1448.29814 C1699.40277,1434.48324 1691.73038,1421.06238 1690.8757,1407.87793 C1689.95801,1393.77539 1703.53042,1387.47081 1713.77471,1379.31427 C1729.59606,1366.713 1764.61413,1338.01142 1745.79157,1314.38896 C1729.57636,1294.04095 1676.84642,1333.05445 1662.31299,1344.7849 C1649.96155,1354.75401 1640.41833,1363.76955 1626.51114,1371.63451 C1616.7316,1377.15889 1600.32735,1398.41319 1588.73605,1396.45089 C1574.94702,1394.1182 1569.55902,1379.06602 1552.69395,1379.56251 C1536.21092,1380.04323 1522.2092,1391.9116 1511.98854,1403.82724 C1488.88079,1430.7596 1480.94058,1466.79813 1459.88483,1494.87319 C1449.50269,1508.71567 1436.03662,1520.14271 1424.77617,1533.24047 C1412.40898,1547.6149 1409.78193,1564.17623 1397.58804,1578.24331 C1362.69206,1531.77072 1324.67278,1487.76872 1287.87446,1442.82104 C1269.49697,1420.37675 1251.50151,1397.66452 1233.51788,1374.905 C1226.77894,1366.37413 1219.17744,1358.37126 1213.00566,1349.41088 C1204.55343,1337.1406 1206.07373,1327.28576 1202.75349,1313.60089 C1201.28439,1307.53668 1194.39579,1300.27066 1196.23905,1294.47439 C1198.72037,1286.6843 1216.14078,1280.56886 1222.42285,1277.38505 C1248.07493,1264.3661 1271.34417,1248.09636 1295.26327,1232.19306 C1339.56068,1202.74676 1384.3701,1175.13272 1431.47967,1149.9814 C1430.66832,1160.81739 1423.61429,1172.04742 1428.35242,1182.91887 C1430.55804,1176.66552 1434.05157,1148.80324 1442.40534,1147.60537 C1440.80627,1147.83391 1442.12176,1183.33655 1443.41362,1188.40385 C1447.26951,1203.53089 1458.45512,1213.87433 1474.46158,1213.77188 C1504.94239,1213.57487 1532.26444,1180.42856 1549.18466,1158.46894 C1560.6381,1143.60196 1571.64254,1126.31167 1575.67566,1107.70529 C1579.30311,1090.99816 1575.31331,1079.37804 1592.68647,1070.89445 C1628.33471,1053.48988 1664.26654,1039.30853 1702.39216,1030.08021 C1700.68281,1046.50362 1695.92105,1066.72161 1710.85227,1078.53481 C1727.3353,1091.57346 1748.90306,1079.95334 1764.42114,1071.32789 C1779.79348,1062.78519 1803.49596,1039.31641 1821.55049,1046.13323 C1839.30963,1052.83972 1851.66895,1075.10275 1861.60997,1089.88698 C1870.36941,1102.91775 1879.90475,1112.31551 1869.75893,1126.83967 C1858.3882,1143.1173 1850.98757,1159.00483 1841.8776,1176.68522 C1838.37618,1183.48234 1835.03625,1187.91525 1837.50969,1194.87786 C1838.31316,1197.13963 1847.44283,1210.59595 1849.92021,1212.52279 C1865.73762,1224.82853 1887.09663,1201.4228 1898.38859,1192.53729 C1902.37052,1230.79818 1903.26064,1268.88963 1904.86759,1307.26873 C1906.04523,1335.37926 1916.93151,1363.0524 1893.85527,1383.60138 C1870.7869,1404.14247 1851.5311,1425.23128 1837.4703,1453.04627 C1829.9594,1467.90537 1823.2244,1483.15456 1815.09907,1497.70631 C1809.67168,1507.42717 1798.22218,1521.68339 1805.22895,1533.1262 C1812.62169,1526.11236 1814.82337,1515.44975 1820.98334,1507.54144 C1824.6738,1523.95304 1828.3879,1542.16144 1845.75318,1549.11618 C1865.73368,1557.11905 1885.59209,1543.27262 1903.28821,1535.56528 C1896.94313,1579.44118 1884.56805,1622.07587 1872.23237,1664.55689 M1851.8068,1714.98955 C1838.09654,1744.28612 1825.70965,1779.61145 1800.38841,1801.18491 C1794.82711,1805.92123 1771.2034,1824.41333 1762.21158,1821.31621 C1754.58252,1818.68405 1758.78106,1803.26936 1760.11231,1796.66532 C1766.85913,1763.1368 1778.52919,1742.04012 1805.72521,1720.65185 C1816.98172,1711.79786 1831.43243,1700.48115 1845.94617,1698.29819 C1861.57058,1695.94579 1857.0727,1703.73194 1851.8068,1714.98955 M2238.59284,2410.40389 C2203.03912,2362.07538 2152.79049,2324.51588 2105.30282,2288.2094 C2083.79414,2271.76234 2060.09166,2259.42902 2038.35847,2242.97802 C2013.7895,2224.37952 1988.83455,2206.43906 1961.31557,2192.42321 C1909.13703,2165.84548 1852.21641,2147.31791 1802.97607,2115.8896 C1778.96244,2100.56161 1752.69199,2085.74979 1730.11595,2068.54224 C1720.19856,2060.98069 1711.43912,2051.31499 1702.47881,2042.65802 C1694.15262,2034.61181 1676.27532,2022.93258 1672.96296,2011.15879 C1686.81895,2008.89308 1694.70008,1995.45252 1707.06728,1994.08127 C1711.13979,1993.62813 1736.66584,2000.37797 1733.17624,1988.0013 C1742.43588,1987.76882 1743.51506,1987.6309 1751.2741,1985.60556 C1754.48799,1984.76626 1758.29662,1986.0784 1761.54596,1984.92782 C1766.51647,1983.17436 1769.89972,1978.10705 1774.92144,1976.16446 C1778.48981,1974.78533 1791.74319,1976.32601 1793.75187,1974.60801 C1799.23834,1969.92293 1793.40921,1970.33667 1790.13624,1964.48523 C1800.79802,1964.21335 1808.11988,1969.59982 1818.80923,1963.87448 C1822.06251,1962.1289 1824.81559,1958.10973 1827.97041,1956.02922 C1833.56322,1952.33316 1835.58372,1958.06245 1839.41597,1950.39057 C1843.0001,1960.97437 1842.90163,1958.04668 1851.54291,1954.9338 C1860.14875,1951.83274 1866.36386,1949.59461 1876.16703,1948.81836 C1899.58199,1946.96639 1923.0836,1949.80739 1946.39222,1948.14456 C1954.91928,1947.5338 1962.20569,1945.59909 1970.67761,1946.71421 C1978.13732,1947.69536 1975.88838,1952.88087 1982.09167,1945.89462 C1983.5332,1944.27119 1978.87383,1939.82646 1981.10702,1937.49377 C1982.09167,1936.46139 1985.30163,1937.18642 1986.51865,1936.65841 C1997.41675,1931.9024 1997.46402,1938.54584 1999.39787,1947.20281 C2005.79021,1945.70548 2012.30859,1944.34999 2017.86201,1940.60271 C2015.05773,1938.10058 2010.36292,1935.33839 2013.07268,1930.76758 C2022.289,1934.25873 2028.31505,1932.64713 2023.70689,1942.76203 C2032.98229,1945.82369 2034.71527,1941.8321 2043.0454,1940.95734 C2047.97259,1940.44116 2054.84938,1943.49888 2058.9534,1939.5664 C2063.43552,1935.27141 2056.36574,1930.60602 2064.59741,1926.9139 C2066.28707,1927.7729 2067.5356,1929.06928 2068.35483,1930.7991 C2072.80151,1932.14276 2072.00197,1933.89228 2065.95623,1936.04766 C2082.1478,1944.43668 2078.34312,1935.05863 2085.14114,1925.1368 C2086.71264,1922.85139 2093.74697,1915.74693 2096.94905,1919.17898 C2101.80928,1924.38025 2091.88795,1926.0352 2094.0148,1931.2089 C2097.70132,1940.17715 2110.56478,1928.68313 2114.51126,1924.13989 C2117.50065,1920.70784 2118.71768,1914.12744 2121.93945,1911.56226 C2126.40976,1908.00018 2132.84543,1913.50486 2138.44612,1912.51977 C2164.02731,1908.03564 2188.18666,1873.65206 2168.91511,1850.63643 C2163.73585,1844.45006 2159.35219,1845.67945 2153.18041,1841.77456 C2147.07952,1837.91694 2143.65688,1831.24198 2138.7612,1825.72941 C2127.58346,1813.14784 2113.89684,1803.72251 2098.26848,1797.6977 C2062.01763,1783.7173 2022.95856,1773.51965 1984.89201,1766.01721 C1967.26285,1762.54181 1948.49543,1757.22626 1930.44484,1757.26567 C1919.81063,1757.28537 1903.79629,1765.55224 1893.85527,1761.59218 C1874.52857,1753.89272 1902.90223,1714.48124 1907.58522,1701.74994 C1921.3388,1664.35199 1931.71701,1624.47555 1938.5229,1585.21381 C1939.85415,1577.53011 1939.34213,1567.57676 1942.11096,1560.25557 C1945.28941,1551.83897 1945.97079,1553.02895 1952.77275,1552.34333 C1965.06117,1551.10212 1978.49967,1557.54461 1991.29617,1555.3183 C2005.47906,1552.85164 2020.80808,1553.99828 2035.12489,1549.61266 C2041.70628,1547.59914 2047.80717,1545.4083 2052.13963,1539.85633 C2053.50632,1538.11469 2051.98602,1536.59766 2052.84857,1535.38008 C2053.1164,1534.99393 2058.01208,1529.71779 2058.16962,1529.41438 C2058.12236,1526.68371 2058.35867,1523.97274 2058.88251,1521.28936 C2063.84514,1525.40703 2061.39927,1534.0443 2069.76091,1534.24526 C2071.25364,1525.03664 2071.2694,1523.18073 2077.31514,1517.99916 C2076.85433,1518.39714 2081.86816,1514.13761 2081.22617,1514.59075 C2081.52944,1512.95156 2082.13205,1511.41876 2083.03005,1510.00023 C2085.85796,1508.63686 2088.84342,1507.91184 2091.98642,1507.82909 C2098.52055,1501.11078 2095.80686,1497.52899 2095.80686,1488.48587 C2101.08064,1491.22442 2106.35442,1493.96297 2111.6282,1496.70152 C2112.90431,1469.91101 2129.22192,1455.24105 2140.06488,1433.52967 C2144.68485,1424.27771 2149.39148,1417.04715 2150.49429,1405.88805 C2151.13234,1399.4495 2149.47025,1393.77145 2152.13668,1387.70329 C2154.55498,1382.19861 2159.96661,1379.23152 2162.22737,1373.23429 C2166.67798,1361.43292 2163.35774,1346.36892 2163.60194,1334.1144 C2163.94066,1317.11963 2165.63819,1300.18003 2166.19353,1283.19314 C2167.28453,1249.84588 2163.92884,1215.57657 2158.93864,1182.61546 C2156.55185,1166.85008 2152.55811,1151.55361 2149.42299,1135.95372 C2146.84321,1123.1318 2140.67142,1111.10582 2138.46581,1099.17835 C2137.54811,1094.22138 2138.96601,1089.77271 2137.46934,1084.29167 C2135.50004,1077.08475 2132.20738,1069.99999 2129.75757,1062.9231 C2124.03873,1046.39329 2118.3829,1029.88713 2111.95117,1013.61344 C2099.48551,982.074807 2084.893,951.481856 2071.02914,920.550034 C2057.69305,890.80426 2046.64922,860.136442 2029.37453,832.360848 C2012.35979,805.002932 1994.04137,778.106039 1975.28971,751.91841 C1955.75821,724.647182 1931.0632,701.213864 1912.12248,673.690453 C1876.55695,622.012638 1826.95031,579.429173 1775.05141,544.265405 C1667.957,471.699745 1552.22525,399.248356 1423.80728,374.368926 C1404.45301,370.621644 1384.85061,368.021007 1365.12611,367.536343 C1352.88889,367.232935 1332.60905,373.147414 1321.0217,369.006097 C1308.04402,364.368294 1309.22954,349.796844 1305.98413,338.365861 C1301.80528,323.672261 1292.38022,314.045963 1281.67905,303.659175 C1270.41466,292.724678 1260.19006,279.953972 1246.14108,272.518514 C1231.90305,264.988487 1215.10887,262.17113 1199.33479,259.893602 C1185.25036,257.856436 1164.20644,259.75963 1151.33904,253.62449 C1139.62171,248.03312 1145.40751,242.213209 1156.38044,247.000746 C1157.18392,242.161985 1157.83379,239.03728 1160.9374,235.297878 C1162.49315,233.418327 1169.85045,230.782227 1170.02768,229.028767 C1170.23643,226.975839 1164.06465,221.128346 1163.1824,218.480424 C1161.284,212.778724 1162.36317,204.882244 1164.61605,199.531236 C1175.67957,209.362432 1178.88559,213.71653 1191.23703,204.318772 C1196.45567,200.35083 1198.05474,198.601311 1204.09655,196.599608 C1205.73501,196.055838 1209.40972,197.734432 1210.83943,196.792686 C1216.29833,193.199078 1211.27662,194.046255 1213.87215,189.798548 C1213.21834,190.870325 1217.80287,179.581195 1217.58625,181.941471 C1218.14159,175.928482 1219.92184,177.776511 1216.29045,170.388337 C1209.17734,155.935098 1191.06373,155.344044 1200.29581,138.8497 C1203.92719,132.359928 1207.12533,133.006146 1208.14937,123.596568 C1208.69683,118.537146 1208.01546,112.736937 1207.99183,107.590828 C1207.9485,97.0661277 1209.92962,89.6976554 1200.06343,84.3387666 C1190.58322,79.1847764 1181.8356,84.8391922 1177.98759,72.0566661 C1173.95447,58.6436824 1178.01516,41.4479536 1163.48173,32.2629757 C1152.85934,25.5525435 1137.52244,31.2897069 1125.78542,28.0073875 C1114.02476,24.7211277 1103.20938,12.6912102 1091.27149,21.9274128 C1082.79169,28.4920517 1078.28987,44.6317641 1062.31098,35.9038679 C1055.09941,31.9674487 1051.1293,18.7514831 1046.58022,11.3396669 C1039.3332,-0.473530829 1033.52377,-4.74094014 1022.3736,6.76490953 C1015.50075,13.8614969 1001.00671,31.1360329 1000.12052,40.9593491 C999.14769,51.8032184 1008.61214,56.3346318 996.729391,62.749537 C984.90966,69.1329193 978.277061,64.4517723 968.682638,77.4076742 C959.166986,90.2611269 966.532163,97.3616546 955.508029,109.659517 C941.726876,125.030859 934.393207,131.666424 934.586198,152.376954 C934.720111,166.58195 922.163862,178.852229 929.489653,192.328258 C937.69769,207.431656 961.652241,213.712589 976.177789,219.85955 C971.329375,228.815987 964.677084,234.557091 970.336849,243.777532 C975.464903,252.127154 989.958942,253.860912 998.942883,252.343874 C1004.98469,251.327261 1005.20131,252.241424 1009.95914,247.993717 C1013.07457,245.211823 1008.80119,241.740366 1015.21717,240.199686 C1022.0467,238.552615 1032.95267,251.934076 1037.38753,255.279441 C1027.47802,268.136834 1000.25837,270.540454 985.858862,277.057808 C977.083666,281.033631 969.017418,286.912647 960.08074,290.466852 C951.975107,293.690066 942.10892,292.941397 934.759497,297.929892 C922.065397,306.543518 916.783737,327.884505 909.005007,340.43061 C900.198303,354.631665 891.659424,361.227827 874.76284,364.175216 C853.683466,367.851571 836.70811,369.329206 817.05057,378.506303 C793.044818,389.712686 769.381723,401.545585 745.805278,413.626727 C707.77418,433.111805 672.448899,453.11307 637.135433,476.68036 C600.191388,501.339129 564.255624,527.077557 528.611316,552.843568 C493.35299,578.325873 463.750491,609.675373 433.123956,640.492924 C408.365932,665.403877 386.640628,692.29289 361.97713,717.195962 C332.863016,746.602865 311.448861,783.717111 284.453714,814.912936 C269.683973,831.978633 255.552285,848.760624 246.284765,868.864338 C238.773859,885.161665 225.71347,901.151644 216.993415,918.248864 C205.851122,940.109978 195.307496,961.620401 182.79851,982.756489 C177.666518,991.42922 171.56563,998.872559 166.150059,1007.15125 C159.21025,1017.75476 159.619864,1027.99576 157.752969,1040.21875 C155.803363,1037.2359 153.857696,1034.25305 151.90809,1031.27414 C148.375168,1038.98936 144.101789,1046.57849 141.041499,1054.47891 C139.087955,1059.51863 139.395165,1066.67432 137.433744,1071.08359 C134.97212,1076.61979 131.974847,1075.88294 128.90668,1080.49317 C125.625828,1085.42255 124.570284,1092.0463 121.112195,1097.33426 C106.165218,1120.18835 100.414865,1149.18939 92.7345999,1175.26669 C82.4312287,1210.25314 84.0578695,1250.46451 84.6171503,1286.5385 C85.2118785,1324.64178 87.2953967,1362.74505 93.0260561,1400.44641 C98.2171277,1434.58963 109.316096,1467.33796 126.693188,1497.27681 C141.833157,1523.36199 162.711663,1538.56389 189.45474,1551.92565 C201.735288,1558.06079 213.133589,1556.16548 226.024619,1557.14663 C240.144491,1558.21841 249.774362,1562.05238 264.713463,1558.67943 C271.88171,1557.05994 275.272843,1551.84291 280.968055,1550.10521 C284.4931,1549.02949 286.391504,1550.78689 289.774759,1550.37709 C294.615295,1549.78998 304.682351,1547.41788 309.932501,1547.98923 C326.265865,1549.77028 323.524602,1574.45663 325.131549,1587.0579 C327.604989,1606.47599 329.416744,1626.09898 332.752736,1645.39098 C339.767378,1685.9688 354.911286,1723.87506 363.859779,1763.7515 C322.37847,1768.81092 286.797179,1776.54979 247.919283,1792.24424 C208.915351,1807.98597 169.482112,1813.3291 128.434048,1821.15466 C90.032722,1828.47584 53.096554,1842.15677 22.3597386,1866.94163 C7.95234866,1878.55387 -7.0143221,1892.14417 3.56475097,1911.26674 C10.3312616,1923.49761 22.5251597,1926.60656 33.053031,1933.71496 C35.1798736,1931.0237 29.0277842,1925.322 27.9013453,1923.74191 C36.7513741,1925.55842 36.4796108,1929.68792 42.9428495,1933.28152 C48.5907984,1936.42199 53.2147119,1936.31166 59.3983101,1938.53008 C74.4949546,1943.95202 81.9113338,1957.47927 96.83468,1961.27778 C101.529488,1962.47171 107.669762,1965.32847 112.470912,1966.14018 C118.237019,1967.11345 122.553722,1964.59162 128.398601,1965.65946 C131.553418,1967.73603 134.964243,1969.22154 138.631077,1970.11206 C141.033622,1968.99694 143.408596,1967.81878 145.748123,1966.57756 C154.145213,1967.44838 159.332346,1972.72846 166.153997,1977.0668 C166.610874,1971.60152 165.953129,1965.92346 171.128446,1962.35744 C173.148946,1967.67298 169.883849,1971.03805 175.397886,1974.6947 C182.384958,1979.33251 191.56189,1973.54412 197.816383,1970.61249 C199.584813,1988.27712 240.498965,1987.23687 253.468767,1986.98468 C271.428772,1986.63793 289.369083,1979.51376 307.486632,1983.48959 C316.730521,1985.51493 326.596708,1987.6309 335.797272,1990.26306 C346.876547,1993.42717 360.271717,1996.25635 371.177694,2000.24793 C375.514089,2001.8359 380.827258,2006.9229 385.443294,2006.58009 C389.118005,2006.30427 390.102655,2000.88627 394.379972,2001.03995 C399.220508,2001.21726 400.847149,2006.60767 405.037817,2008.2311 C411.308064,2010.65442 417.074171,2006.0442 423.033269,2008.37296 C425.175866,2009.20831 428.078613,2012.79798 430.819877,2013.96827 C434.982974,2015.74143 443.218582,2015.76507 447.850372,2016.62013 C454.416015,2017.8377 460.296341,2017.0181 465.920658,2017.42002 C470.457922,2017.74707 470.359457,2020.79691 472.529625,2020.99393 C475.018818,2021.21853 479.355214,2012.66007 482.699084,2011.40703 C487.571129,2009.57871 496.41328,2013.9328 501.379852,2014.69723 C465.388947,2063.46706 421.993479,2106.57065 374.954809,2144.31142 C324.213856,2185.02715 272.255877,2225.68772 217.844152,2261.3992 C168.442322,2293.82442 120.619871,2321.86796 82.3170093,2367.63917 C50.0205093,2406.23499 -1.39000477,2447.52996 6.53445354,2503.47124 C14.4549732,2559.36524 75.1684547,2582.11294 123.818012,2592.78343 C185.004125,2606.2043 247.990177,2600.80206 309.341712,2608.34785 C335.505815,2611.56712 364.576604,2609.84913 390.914006,2607.10664 C422.02105,2603.86766 448.681416,2583.57481 475.424494,2568.90091 C523.526586,2542.50444 564.653422,2507.187 612.034751,2479.967 C671.357907,2445.88289 730.058765,2409.76949 795.096827,2386.94299 C825.353133,2376.32372 856.503502,2364.20318 880.910991,2342.36176 C884.542378,2339.11097 887.248194,2334.20522 891.352213,2331.52578 C898.327469,2326.97466 900.198303,2331.58882 904.247181,2330.2097 C907.362612,2329.14974 910.379578,2325.78467 913.073578,2324.77594 C919.899168,2322.21865 922.943704,2323.27466 930.584583,2323.27466 C924.026818,2319.49586 918.024396,2309.75135 924.830292,2301.81153 C936.484602,2288.2094 938.493287,2309.94443 942.873008,2314.98021 C946.583167,2310.21237 945.161333,2305.9686 944.212131,2300.55061 C947.347255,2302.6193 950.486317,2304.68799 953.625379,2306.76062 C951.463089,2296.27532 953.519037,2286.6175 959.076398,2277.47981 C964.200514,2269.05926 965.464803,2270.24531 966.87876,2258.57396 C982.794633,2273.09813 985.906125,2237.84373 987.339774,2224.99028 C988.726161,2212.52692 987.355529,2203.57836 995.555689,2192.67933 C1004.35845,2180.97646 1017.74575,2173.58041 1028.91955,2164.49 C1046.57234,2150.12345 1065.99357,2131.98203 1090.405,2145.75753 C1109.67655,2156.63686 1120.1611,2183.30127 1138.2432,2197.0019 C1149.20826,2205.31606 1160.7838,2206.15536 1167.77481,2219.04427 C1173.42669,2229.46259 1175.26208,2241.93382 1180.59888,2252.6319 C1193.52536,2278.5634 1212.13523,2308.23825 1233.36427,2328.12919 C1253.12422,2346.64494 1278.49272,2346.55037 1301.61623,2358.03257 C1324.50736,2369.40445 1348.29255,2381.72202 1372.52674,2389.96131 C1398.99018,2398.96109 1427.52925,2402.78718 1453.29556,2413.69015 C1466.54894,2419.30122 1478.40018,2427.74541 1491.77172,2433.11612 C1506.19092,2438.90451 1521.3821,2442.98672 1535.99429,2448.29045 C1593.88774,2469.31227 1650.54446,2495.0901 1711.36429,2506.74174 C1738.33974,2511.90755 1763.31439,2525.94705 1790.48677,2528.90232 C1802.14108,2530.17112 1811.64886,2531.77484 1823.05504,2534.69071 C1840.94809,2539.26153 1837.15916,2541.69273 1843.75237,2556.60699 C1854.59533,2581.15937 1881.07846,2566.61944 1901.49221,2567.23414 C1934.16681,2568.21923 1966.34516,2562.93915 1998.96856,2562.68697 C2056.02308,2562.24959 2110.95864,2555.82286 2166.15021,2537.09827 C2221.5584,2518.29882 2284.64292,2472.9965 2238.59284,2410.40389" id="ink"></path>
                <path d="M1579.09374,492.061966 C1579.8751,492.843049 1581.7071,493.317008 1579.09374,492.061966" id="ink"></path>
                <path d="M574.114149,1537.79466 C586.507327,1525.24241 639.229792,1527.77834 643.214561,1550.23544 C647.657618,1575.30013 600.547232,1613.15991 583.307083,1623.77339 C561.118984,1637.43237 534.037308,1639.99218 537.971589,1605.69544 C540.946573,1579.79075 556.470086,1555.66957 574.114149,1537.79466 M617.655332,1511.95367 C619.263221,1518.89662 607.413774,1516.53586 604.15139,1514.8877 C602.613409,1511.73073 616.047442,1504.98285 617.655332,1511.95367 M526.735781,1557.91887 C537.253087,1558.86237 549.300608,1541.99865 557.235193,1536.25399 C560.742256,1541.6722 537.618164,1571.45443 535.074281,1578.25009 C528.720398,1595.22926 525.186148,1616.68314 533.847003,1633.61852 C559.161553,1683.11093 623.947073,1612.43536 640.15025,1587.74887 C651.487036,1570.48306 659.336178,1549.07297 643.323307,1532.15351 C637.621902,1526.1262 628.203708,1524.45416 622.906217,1518.72543 C615.934812,1511.19329 621.422609,1501.46758 607.406007,1503.11176 C597.735367,1504.24636 586.122831,1512.96883 576.720173,1516.12581 C565.38727,1519.92771 555.200086,1523.86895 545.30807,1530.91541 C543.078774,1532.50385 513.7445,1556.75242 526.735781,1557.91887" id="ink"></path>
                <path d="M1269.96058,1574.53047 C1263.35153,1608.53527 1229.64498,1643.41565 1194.17892,1644.77061 C1158.85849,1646.11765 1147.42354,1609.12559 1153.65864,1579.64129 C1158.97658,1554.49525 1180.71677,1510.80762 1211.73482,1515.6213 C1236.1202,1519.40094 1275.62491,1545.38293 1269.96058,1574.53047 M1247.46855,1517.69733 C1225.07494,1500.376 1194.13562,1492.36112 1168.17965,1506.10487 C1159.66937,1510.60953 1125.69909,1530.48627 1136.03582,1543.94081 C1149.97426,1533.14469 1162.00753,1518.16087 1180.11845,1514.56745 C1177.07175,1528.60438 1159.67724,1541.23089 1153.54842,1554.89937 C1146.38435,1570.86573 1142.4638,1589.14188 1143.63682,1606.68904 C1145.72699,1637.92052 1166.65237,1662.18703 1199.04812,1657.89235 C1228.70814,1653.96217 1254.63656,1631.23683 1268.78756,1605.69064 C1287.67786,1571.57491 1277.03411,1540.56529 1247.46855,1517.69733" id="ink"></path>
                <path d="M1039.50752,1651.82588 C1023.56139,1675.42771 999.248803,1697.62718 971.138593,1704.91632 C934.747614,1714.35002 944.971987,1684.28718 955.846825,1662.71272 C965.463579,1643.63829 981.958901,1610.82543 1007.07775,1611.00051 C1015.60391,1611.0559 1031.48382,1615.17704 1038.95443,1619.73568 C1053.68142,1628.72016 1047.90124,1639.40778 1039.50752,1651.82588 M1005.54312,1599.95812 C1011.26488,1593.58695 1036.60185,1566.27024 1039.99829,1587.56345 C1047.27415,1579.12976 1041.53292,1572.13359 1032.21997,1571.24295 C1020.9829,1570.16872 1008.69807,1582.67667 1000.58868,1588.89159 C983.898611,1601.67689 971.052903,1614.77078 959.991105,1632.69676 C947.799757,1652.4587 916.705977,1697.12327 943.916442,1716.73286 C973.327583,1737.92841 1016.13752,1698.78344 1034.55308,1678.59571 C1046.33156,1665.68151 1061.93103,1646.72036 1057.45178,1627.78265 C1051.95204,1604.52457 1024.88958,1602.08314 1005.54312,1599.95812" id="ink"></path>
                <path d="M880.049453,1219.61022 C863.59048,1238.3826 830.159436,1265.73354 802.611142,1262.51074 C777.485157,1259.57208 787.293718,1231.38042 796.187449,1217.73804 C809.543957,1197.2336 827.438813,1177.98246 853.296662,1176.86149 C864.457579,1176.37885 878.923815,1176.6046 887.57094,1185.05471 C899.376216,1196.59527 888.744308,1209.69662 880.049453,1219.61022 M878.299344,1167.45778 C859.020311,1160.79812 851.447116,1158.26037 832.709026,1168.84732 C817.662073,1177.34802 804.317497,1189.36344 793.991859,1203.00582 C778.539199,1223.42853 762.955281,1269.36502 802.635007,1275.11 C846.157016,1281.41546 949.687849,1192.13084 878.299344,1167.45778" id="ink"></path>
                <path d="M937.620174,1284.65785 C925.101218,1297.44359 909.470094,1307.87436 891.628825,1311.43392 C899.176904,1294.60059 916.030246,1257.81982 936.011375,1252.69545 C945.215112,1250.33275 955.711355,1253.42751 954.953813,1263.91251 C954.407134,1271.49254 942.559812,1279.61096 937.620174,1284.65785 M953.739404,1240.15761 C943.372022,1234.96353 946.640383,1231.41559 934.578294,1235.49029 C925.073884,1238.69738 913.085988,1244.26717 905.170852,1250.68522 C900.852086,1254.18667 887.407679,1266.60057 889.051622,1272.91791 C892.034929,1284.39834 902.06259,1266.80585 904.698365,1263.42447 C909.216279,1267.1041 886.115173,1300.15102 884.740665,1305.58912 C879.617499,1325.84256 895.518057,1327.98449 911.106227,1321.35729 C932.122142,1312.42548 994.361582,1260.50401 953.739404,1240.15761" id="ink"></path>
                <path d="M1261.8927,1785.13426 C1263.44561,1771.70866 1265.64874,1757.51242 1277.97636,1749.97421 C1289.08383,1743.17535 1300.58527,1744.16114 1302.22998,1758.0992 C1303.75993,1771.04364 1291.07278,1794.0338 1280.8106,1801.09476 C1266.52082,1810.92924 1263.7669,1798.66939 1261.8927,1785.13426 M1280.25217,1815.6861 C1309.58906,1798.52465 1328.0824,1719.82138 1274.0023,1741.88051 C1243.26932,1754.4142 1254.57186,1830.70775 1280.25217,1815.6861" id="ink"></path>
                <path d="M1029.68984,1489.3201 C1034.31628,1479.83971 1039.60811,1476.69579 1048.99015,1472.54711 C1042.73546,1478.45007 1036.34377,1483.90332 1029.68984,1489.3201 M1036.45728,1465.95946 C1029.81509,1472.62409 1014.58541,1482.78512 1016.71858,1494.2345 C1018.66779,1504.68319 1026.6486,1504.08357 1033.88964,1500.82621 C1049.07626,1494.00357 1057.52676,1464.1282 1073.41008,1461.32865 C1055.79282,1450.16692 1051.67912,1450.6855 1036.45728,1465.95946" id="ink"></path>
                <path d="M1038.79179,872.63496 C1039.63685,904.450914 1040.38113,936.262931 1041.08276,968.078886 C1041.33085,979.261722 1038.66,995.2012 1042.01697,1005.91152 C1043.49777,1010.62879 1056.90242,1031.08078 1061.65879,1032.40382 C1078.30026,1037.03446 1072.35383,995.331142 1072.47012,985.061833 C1072.87715,950.418669 1072.36546,915.736128 1072.22591,881.089026 C1072.14838,863.235865 1077.1916,713.53156 1054.01837,714.261279 C1050.02566,714.389961 1040.19118,731.506787 1038.71039,734.936452 C1034.05481,745.713713 1035.76819,761.68863 1035.87673,773.174662 C1036.19072,806.313657 1037.91185,839.499903 1038.79179,872.63496" id="ink"></path>
                <path d="M1179.10451,965.379093 C1180.40937,974.174489 1179.72391,988.84404 1189.6301,993.404029 C1198.24795,997.37027 1201.55139,992.651948 1204.77637,985.281548 C1212.18847,968.324086 1209.51268,942.401019 1209.37641,924.869601 C1209.10388,890.123429 1205.1893,855.523716 1202.48461,820.908169 C1201.29537,805.720078 1203.76469,790.464696 1201.86522,774.572024 C1201.0311,767.597456 1200.20111,739.540853 1187.26814,740.8471 C1175.57396,742.02668 1176.62693,771.433072 1175.99102,779.009305 C1170.689,842.077288 1169.76816,902.421943 1179.10451,965.379093" id="ink"></path>
                <path d="M1731.0583,1689.62516 C1726.10159,1714.95517 1645.23917,1803.16136 1624.87691,1753.82834 C1612.79813,1724.56028 1638.98324,1692.69677 1659.40062,1675.75415 C1672.03845,1665.26699 1687.8259,1654.97887 1705.05035,1658.15585 C1719.67244,1660.85277 1734.20397,1673.53729 1731.0583,1689.62516 M1689.30228,1644.19117 C1683.58966,1645.54158 1635.84938,1679.05213 1635.41237,1678.6111 C1631.26669,1674.45058 1661.37701,1629.58641 1664.47544,1625.66007 C1690.00307,1593.32821 1706.94406,1617.81128 1722.90867,1643.22324 C1719.51102,1628.04476 1710.15666,1606.00882 1694.5267,1599.5885 C1674.79436,1591.48602 1659.40062,1611.48853 1649.90847,1625.87082 C1636.48717,1646.19728 1629.08952,1668.26834 1621.6328,1691.20585 C1618.07768,1702.14576 1614.02648,1712.0631 1608.00678,1721.9258 C1602.06188,1731.6597 1591.66422,1742.38885 1593.19966,1754.70259 C1601.6485,1750.00737 1606.1367,1740.81597 1611.45955,1733.24429 C1617.39657,1735.6485 1615.3572,1754.5777 1616.56192,1759.39782 C1619.59343,1771.5047 1627.86904,1780.97711 1640.66829,1783.06127 C1664.52268,1786.94078 1690.27078,1764.87753 1706.21965,1749.89419 C1723.02678,1734.10684 1741.11738,1712.4612 1740.97258,1688.16156 C1740.81816,1662.77301 1715.84172,1637.91136 1689.30228,1644.19117" id="ink"></path>
                <path d="M1753.97096,1237.18115 C1740.43675,1257.88709 1716.68854,1282.70965 1691.56081,1287.51964 C1673.1164,1291.04987 1660.95003,1277.38459 1668.35819,1258.93705 C1674.61674,1243.34618 1695.94102,1233.50036 1709.91949,1226.64197 C1721.0064,1221.19804 1772.69985,1208.52724 1753.97096,1237.18115 M1744.01418,1203.31312 C1716.29105,1202.26713 1693.93018,1222.30347 1673.25669,1238.29451 C1677.92528,1219.92621 1688.48609,1199.94137 1703.35697,1187.98375 C1723.594,1171.71141 1742.77883,1181.81476 1764.08363,1189.95292 C1758.8266,1173.37153 1735.23428,1167.40857 1720.20362,1169.75017 C1701.19805,1172.71382 1687.53523,1188.9307 1677.92528,1204.62061 C1666.46425,1223.33758 1662.53999,1245.39459 1649.04865,1262.95066 C1642.87193,1270.9858 1604.61917,1301.05418 1613.28215,1313.34461 C1627.56849,1298.18165 1641.85872,1283.02266 1656.14505,1267.8597 C1659.85108,1285.78028 1663.93511,1306.1851 1686.82208,1304.44177 C1705.09892,1303.04711 1725.94387,1287.51568 1739.31052,1275.64523 C1756.57025,1260.3119 1790.54023,1205.07229 1744.01418,1203.31312" id="ink"></path>
                <path d="M1355.65976,1380.11811 C1343.91607,1385.51654 1318.06512,1392.85336 1311.49788,1376.6345 C1302.37562,1354.10895 1331.72702,1314.59783 1345.69755,1299.58997 C1354.2924,1290.35406 1360.12127,1285.57687 1372.10326,1291.55328 C1381.66698,1296.32654 1395.72346,1309.88747 1399.3919,1320.31473 C1407.27181,1342.6948 1374.02929,1371.67251 1355.65976,1380.11811 M1382.6046,1271.93336 C1392.16832,1274.08802 1393.34035,1286.22956 1381.38179,1281.56639 C1372.41971,1278.07491 1370.33741,1269.16928 1382.6046,1271.93336 M1394.61004,1289.03296 C1391.03927,1278.14175 1398.30582,1261.06181 1380.71764,1260.27544 C1370.75153,1259.83114 1352.49529,1269.95958 1343.79496,1274.07622 C1331.73483,1279.78133 1320.38573,1288.49037 1314.08805,1300.75773 C1308.25528,1312.12076 1312.41987,1315.11683 1321.31163,1305.68433 C1322.3977,1306.42352 1301.19969,1361.07618 1301.01607,1366.55324 C1300.18784,1391.57944 1317.90885,1408.06174 1342.79874,1403.62269 C1365.67275,1399.54536 1386.28867,1380.8455 1398.87621,1361.97264 C1405.24421,1352.41825 1410.47534,1341.48379 1410.95197,1329.78262 C1411.68644,1311.83374 1399.71616,1304.6188 1394.61004,1289.03296" id="ink"></path>
                <path d="M1504.33223,1279.85254 C1494.6816,1261.27209 1517.0447,1230.00459 1537.06685,1239.15078 C1578.75834,1258.19535 1516.99432,1304.21439 1504.33223,1279.85254 Z M1541.78364,1255.59873 C1537.31102,1255.77877 1509.02577,1266.70139 1513.18833,1274.10317 C1518.90119,1284.2616 1539.54733,1259.68371 1541.78364,1255.59873 Z" id="ink"></path>
                <path d="M174.270836,1221.25517 C173.152962,1213.34109 155.408112,1224.83059 155.5121,1229.92795 C158.446054,1224.05826 176.599429,1237.74662 174.270836,1221.25517" id="ink"></path>
                <path d="M1144.74005,623.243427 C1167.33073,621.583325 1138.54807,507.64942 1122.08374,517.725478 C1104.23742,528.645521 1124.01005,624.764191 1144.74005,623.243427" id="ink"></path>
                <path d="M1186.92918,570.042103 C1208.09427,573.072384 1204.73093,524.488856 1193.34671,515.794127 C1172.33413,499.74354 1161.23431,566.362193 1186.92918,570.042103" id="ink"></path>
            </g>
        </g>
      
    </g>
</svg>