<svg t="1691983527891" class="icon" viewBox="0 0 1024 1024" version="1.1" xmlns="http://www.w3.org/2000/svg" p-id="5497" width="200" height="200"><path d="M1004.1088 422.912c-128.8192-342.144-592.64-254.72-592.64-254.72-118.8864-52.1216-224.4352-37.8368-241.8944-31.104C152.1152 143.7952 151.296 169.8816 166.2464 194.2528s38.2464 72.2688 38.2464 72.2688c-93.1072 79.0272-113.0496 150.5024-113.0496 150.5024s-5.8368 0-48.2048 0C0.8192 417.024 0 447.3088 0 447.3088l0 122.7264c0 26.9056 93.1072 61.3632 93.1072 61.3632 49.8688 143.744 149.6064 188.288 149.6064 188.288s29.9264 0 29.9264 77.3376 54.8608 69.0432 54.8608 69.0432 71.4752 0 113.0496 0 41.5744-53.0432 41.5744-53.0432l4.992-45.3888c75.648 6.7072 145.4592 0.8448 145.4592 0.8448s2.5088 7.552 20.8128 54.6304c18.2784 47.0784 43.2128 42.88 43.2128 42.88s78.976 0 107.2384 0c47.4112 0 43.2128-37.8368 43.2128-37.8368s2.4576-57.2416 29.9264-95.5648c21.9392-30.592 57.728-52.7616 88.4736-105.2928C1006.1056 657.6128 1050.7008 552.7552 1004.1088 422.912zM276.8128 475.8528c-28.928 0-52.352-23.7056-52.352-52.9408s23.4496-52.9408 52.352-52.9408 52.352 23.7056 52.352 52.9408S305.7152 475.8528 276.8128 475.8528zM769.6128 335.0528c-5.8624 8.0128-14.8992 12.2112-24.0128 12.2112-6.2208 0-12.4672-1.9456-17.8432-5.9904-104.576-78.7712-267.392-38.2208-269.0304-37.8112-16.0256 4.0704-32.3072-5.7344-36.352-21.888-4.0704-16.2048 5.632-32.6656 21.6576-36.8128 7.808-1.9968 192.3072-47.8208 319.488 47.9488C776.7296 302.6944 779.4944 321.6384 769.6128 335.0528z" fill="#B17D59" p-id="5498"></path></svg>