<svg width="505" height="194" viewBox="0 0 505 194" fill="none" xmlns="http://www.w3.org/2000/svg">
<g clip-path="url(#clip0_32_10)">
<g clip-path="url(#clip1_32_10)">
<path fill-rule="evenodd" clip-rule="evenodd" d="M104.75 33.1557C104.75 33.1557 141.664 22.7823 162.775 44.2253C162.775 44.2253 166.457 49.9754 167.564 64.5948C167.564 64.5948 169.522 71.1738 175.822 70.3449C182.121 69.516 184.377 64.4484 184.079 58.8927C183.781 53.337 188.123 52.2646 194.083 55.6753C200.042 59.0861 218.047 72.5368 220.515 96.8073C222.984 121.078 200.595 138.037 189.698 139.596C189.698 139.596 174.17 143.448 176.213 133.75C178.256 124.052 174.877 101.974 162.487 87.6945C150.096 73.4159 138.031 64.1787 135.595 62.8387C133.158 61.4986 127.214 60.9373 124.915 68.9296C124.915 68.9296 123.128 78.8713 134.449 80.6263C145.772 82.3813 162.882 95.1485 166.628 116.104C170.373 137.06 149.351 167.794 117.597 165.358C103.014 164.24 91.1659 156.914 83.2865 148.251C75.4657 139.653 81.3277 126.534 81.3277 126.534C81.3277 126.534 80.5186 122.245 75.0706 122.295C69.6226 122.344 64.5132 125.56 64.5561 134.625C64.5989 143.689 45.2319 131.117 45.2319 131.117C21.046 116.549 24.4735 69.6362 54.9624 56.5753C54.9624 56.5753 82.1304 47.2681 75.3204 64.5205C68.5104 81.773 87.6642 105.653 95.2404 113.84C102.817 122.028 112.307 133.483 119.312 130.253C126.317 127.023 123.082 117.178 123.082 117.178C123.082 117.178 121.635 113.182 115.463 113.376C115.463 113.376 100.906 111.522 88.7325 89.7872C88.7325 89.7872 76.8141 73.8027 85.7534 50.312C85.7534 50.312 90.7028 40.4131 104.75 33.1567V33.1557Z" fill="#CD4549"/>
<path d="M80.8801 138.821C84.4874 144.804 91.7521 149.785 97.706 152.882C103.683 155.988 113.988 159.338 119.799 159.338C126.231 159.338 129.447 157.109 129.447 152.616C129.447 149.772 128.318 146.573 126.09 142.986C123.833 139.431 118.473 132.386 109.926 121.851C99.2071 108.537 92.0416 98.648 88.4594 92.2174C83.7483 83.6858 81.3787 75.5743 81.3787 67.8507C81.3787 56.2491 85.8922 46.7485 94.9193 39.3479C103.777 32.0769 114.666 28.457 127.67 28.457C136.726 28.457 145.075 30.557 152.663 34.7591C155.511 36.4075 157.966 38.2817 160.025 40.4141C162.084 42.5464 163.003 44.5534 163.607 45.8767C164.661 48.1858 166.167 53.43 166.132 54.1679C166.092 55 164.669 51.9415 164.038 51.0843C160.563 46.3586 151.608 40.7925 144.708 37.7967C139.859 35.6915 135.231 34.6618 130.801 34.6618C128.037 34.6618 125.808 35.3402 124.088 36.6981C122.367 38.0548 121.493 39.8005 121.493 41.9653C121.493 44.5503 122.564 47.6851 124.68 51.4335C126.824 55.1495 130.435 60.0937 135.54 66.2985C151.703 86.0439 161.605 99.3577 165.244 106.241C169.024 113.512 170.914 120.525 170.914 127.278C170.914 133.031 169.56 138.46 166.88 143.566C164.172 148.672 160.448 152.873 155.653 156.169C146.541 162.406 135.399 165.541 122.254 165.541C110.179 165.541 99.5133 161.957 90.3493 154.78C83.9156 149.742 80.9229 146.089 79.931 142.204C79.7313 141.422 79.3613 139.83 79.2557 138.802C78.8271 134.655 80.8769 138.813 80.8801 138.818V138.821Z" fill="#EA615E"/>
</g>
<path d="M300.371 118.438C300.371 116.445 300.059 114.688 299.434 113.164C298.848 111.602 297.793 110.195 296.27 108.945C294.785 107.695 292.715 106.504 290.059 105.371C287.441 104.238 284.121 103.086 280.098 101.914C275.879 100.664 272.07 99.2773 268.672 97.7539C265.273 96.1914 262.363 94.4141 259.941 92.4219C257.52 90.4297 255.664 88.1445 254.375 85.5664C253.086 82.9883 252.441 80.0391 252.441 76.7188C252.441 73.3984 253.125 70.332 254.492 67.5195C255.859 64.707 257.812 62.2656 260.352 60.1953C262.93 58.0859 265.996 56.4453 269.551 55.2734C273.105 54.1016 277.07 53.5156 281.445 53.5156C287.852 53.5156 293.281 54.7461 297.734 57.207C302.227 59.6289 305.645 62.8125 307.988 66.7578C310.332 70.6641 311.504 74.8438 311.504 79.2969H300.254C300.254 76.0938 299.57 73.2617 298.203 70.8008C296.836 68.3008 294.766 66.3477 291.992 64.9414C289.219 63.4961 285.703 62.7734 281.445 62.7734C277.422 62.7734 274.102 63.3789 271.484 64.5898C268.867 65.8008 266.914 67.4414 265.625 69.5117C264.375 71.582 263.75 73.9453 263.75 76.6016C263.75 78.3984 264.121 80.0391 264.863 81.5234C265.645 82.9688 266.836 84.3164 268.438 85.5664C270.078 86.8164 272.148 87.9688 274.648 89.0234C277.188 90.0781 280.215 91.0938 283.73 92.0703C288.574 93.4375 292.754 94.9609 296.27 96.6406C299.785 98.3203 302.676 100.215 304.941 102.324C307.246 104.395 308.945 106.758 310.039 109.414C311.172 112.031 311.738 115 311.738 118.32C311.738 121.797 311.035 124.941 309.629 127.754C308.223 130.566 306.211 132.969 303.594 134.961C300.977 136.953 297.832 138.496 294.16 139.59C290.527 140.645 286.465 141.172 281.973 141.172C278.027 141.172 274.141 140.625 270.312 139.531C266.523 138.438 263.066 136.797 259.941 134.609C256.855 132.422 254.375 129.727 252.5 126.523C250.664 123.281 249.746 119.531 249.746 115.273H260.996C260.996 118.203 261.562 120.723 262.695 122.832C263.828 124.902 265.371 126.621 267.324 127.988C269.316 129.355 271.562 130.371 274.062 131.035C276.602 131.66 279.238 131.973 281.973 131.973C285.918 131.973 289.258 131.426 291.992 130.332C294.727 129.238 296.797 127.676 298.203 125.645C299.648 123.613 300.371 121.211 300.371 118.438ZM335.352 50V140H324.512V50H335.352ZM332.773 105.898L328.262 105.723C328.301 101.387 328.945 97.3828 330.195 93.7109C331.445 90 333.203 86.7773 335.469 84.043C337.734 81.3086 340.43 79.1992 343.555 77.7148C346.719 76.1914 350.215 75.4297 354.043 75.4297C357.168 75.4297 359.98 75.8594 362.48 76.7188C364.98 77.5391 367.109 78.8672 368.867 80.7031C370.664 82.5391 372.031 84.9219 372.969 87.8516C373.906 90.7422 374.375 94.2773 374.375 98.457V140H363.477V98.3398C363.477 95.0195 362.988 92.3633 362.012 90.3711C361.035 88.3398 359.609 86.875 357.734 85.9766C355.859 85.0391 353.555 84.5703 350.82 84.5703C348.125 84.5703 345.664 85.1367 343.438 86.2695C341.25 87.4023 339.355 88.9648 337.754 90.957C336.191 92.9492 334.961 95.2344 334.062 97.8125C333.203 100.352 332.773 103.047 332.773 105.898ZM408.418 133.438L426.055 76.6016H437.656L412.227 149.785C411.641 151.348 410.859 153.027 409.883 154.824C408.945 156.66 407.734 158.398 406.25 160.039C404.766 161.68 402.969 163.008 400.859 164.023C398.789 165.078 396.309 165.605 393.418 165.605C392.559 165.605 391.465 165.488 390.137 165.254C388.809 165.02 387.871 164.824 387.324 164.668L387.266 155.879C387.578 155.918 388.066 155.957 388.73 155.996C389.434 156.074 389.922 156.113 390.195 156.113C392.656 156.113 394.746 155.781 396.465 155.117C398.184 154.492 399.629 153.418 400.801 151.895C402.012 150.41 403.047 148.359 403.906 145.742L408.418 133.438ZM395.469 76.6016L411.934 125.82L414.746 137.246L406.953 141.23L383.633 76.6016H395.469Z" fill="black"/>
</g>
<defs>
<clipPath id="clip0_32_10">
<rect width="505" height="194" fill="white"/>
</clipPath>
<clipPath id="clip1_32_10">
<rect width="250" height="250" fill="white" transform="translate(0 -28)"/>
</clipPath>
</defs>
</svg>
