<svg width="505" height="194" viewBox="0 0 505 194" fill="none" xmlns="http://www.w3.org/2000/svg">
<g clip-path="url(#clip0_31_9)">
<g clip-path="url(#clip1_31_9)">
<path fill-rule="evenodd" clip-rule="evenodd" d="M104.75 33.1557C104.75 33.1557 141.664 22.7823 162.775 44.2253C162.775 44.2253 166.457 49.9754 167.564 64.5948C167.564 64.5948 169.522 71.1738 175.822 70.3449C182.121 69.516 184.377 64.4484 184.079 58.8927C183.781 53.337 188.123 52.2646 194.083 55.6753C200.042 59.0861 218.047 72.5368 220.515 96.8073C222.984 121.078 200.595 138.037 189.698 139.596C189.698 139.596 174.17 143.448 176.213 133.75C178.256 124.052 174.877 101.974 162.487 87.6945C150.096 73.4159 138.031 64.1787 135.595 62.8387C133.158 61.4986 127.214 60.9373 124.915 68.9296C124.915 68.9296 123.128 78.8713 134.449 80.6263C145.772 82.3813 162.882 95.1485 166.628 116.104C170.373 137.06 149.351 167.794 117.597 165.358C103.014 164.24 91.1659 156.914 83.2865 148.251C75.4657 139.653 81.3277 126.534 81.3277 126.534C81.3277 126.534 80.5186 122.245 75.0706 122.295C69.6226 122.344 64.5132 125.56 64.5561 134.625C64.5989 143.689 45.2319 131.117 45.2319 131.117C21.046 116.549 24.4735 69.6362 54.9624 56.5753C54.9624 56.5753 82.1304 47.2681 75.3204 64.5205C68.5104 81.773 87.6642 105.653 95.2404 113.84C102.817 122.028 112.307 133.483 119.312 130.253C126.317 127.023 123.082 117.178 123.082 117.178C123.082 117.178 121.635 113.182 115.463 113.376C115.463 113.376 100.906 111.522 88.7325 89.7872C88.7325 89.7872 76.8141 73.8027 85.7534 50.312C85.7534 50.312 90.7028 40.4131 104.75 33.1567V33.1557Z" fill="#CD4549"/>
<path d="M80.8801 138.821C84.4874 144.804 91.7521 149.785 97.706 152.882C103.683 155.988 113.988 159.338 119.799 159.338C126.231 159.338 129.447 157.109 129.447 152.616C129.447 149.772 128.318 146.573 126.09 142.986C123.833 139.431 118.473 132.386 109.926 121.851C99.2071 108.537 92.0416 98.648 88.4594 92.2174C83.7483 83.6858 81.3787 75.5743 81.3787 67.8507C81.3787 56.2491 85.8922 46.7485 94.9193 39.3479C103.777 32.0769 114.666 28.457 127.67 28.457C136.726 28.457 145.075 30.557 152.663 34.7591C155.511 36.4075 157.966 38.2817 160.025 40.4141C162.084 42.5464 163.003 44.5534 163.607 45.8767C164.661 48.1858 166.167 53.43 166.132 54.1679C166.092 55 164.669 51.9415 164.038 51.0843C160.563 46.3586 151.608 40.7925 144.708 37.7967C139.859 35.6915 135.231 34.6618 130.801 34.6618C128.037 34.6618 125.808 35.3402 124.088 36.6981C122.367 38.0548 121.493 39.8005 121.493 41.9653C121.493 44.5503 122.564 47.6851 124.68 51.4335C126.824 55.1495 130.435 60.0937 135.54 66.2985C151.703 86.0439 161.605 99.3577 165.244 106.241C169.024 113.512 170.914 120.525 170.914 127.278C170.914 133.031 169.56 138.46 166.88 143.566C164.172 148.672 160.448 152.873 155.653 156.169C146.541 162.406 135.399 165.541 122.254 165.541C110.179 165.541 99.5133 161.957 90.3493 154.78C83.9156 149.742 80.9229 146.089 79.931 142.204C79.7313 141.422 79.3613 139.83 79.2557 138.802C78.8271 134.655 80.8769 138.813 80.8801 138.818V138.821Z" fill="#EA615E"/>
</g>
<path d="M293.6 54.8H354.44V63.08H293.6V54.8ZM288.08 100.28H359.6V108.56H288.08V100.28ZM285.44 78.32H360.2V86.6H285.44V78.32ZM319.04 39.8H327.92V82.64H319.04V39.8ZM335.24 84.8H344.12V138.8C344.12 144.2 343.04 146.72 339.2 148.16C335.6 149.48 329.6 149.6 320.48 149.6C320.12 147.08 318.8 143.36 317.6 140.84C324.56 141.08 331.04 141.08 332.84 140.96C334.64 140.84 335.24 140.36 335.24 138.68V84.8ZM297.44 115.16L304.64 111.2C310.04 117.44 316.04 126.08 318.68 131.96L311 136.52C308.72 130.64 302.84 121.64 297.44 115.16ZM257.96 47.72L264.08 42.2C270.32 47.6 278.48 55.16 282.32 59.96L275.96 66.32C272.24 61.16 264.32 53.36 257.96 47.72ZM265.88 147.2L264.08 138.8L266.36 135.08L287.36 119.12C288.08 121.4 289.76 124.88 290.84 126.68C270.8 142.28 267.56 144.8 265.88 147.2ZM250.4 76.88H271.64V85.64H250.4V76.88ZM265.88 147.2C264.8 145.4 262.28 142.16 260.6 140.84C263 139.04 267.2 134.6 267.2 128.6V76.88H275.84V134.96C275.84 134.96 265.88 143.6 265.88 147.2ZM384.68 48.32H465.92V57.56H384.68V48.32ZM371.72 84.44H478.4V93.56H371.72V84.44ZM409.64 89.84L420.44 92.72C414.32 107.96 405.92 126.92 398.96 138.68L390.56 135.8C397.16 123.68 405.32 104 409.64 89.84ZM372.8 134C395.96 133.52 433.28 132.2 467.84 130.88L467.36 139.4C433.64 141.08 397.28 142.76 373.64 143.6L372.8 134ZM440.48 108.92L449 104.84C460.64 116.96 472.76 133.64 478.28 144.8L469.4 149.84C464.12 138.56 451.76 121.28 440.48 108.92Z" fill="black"/>
</g>
<defs>
<clipPath id="clip0_31_9">
<rect width="505" height="194" fill="white"/>
</clipPath>
<clipPath id="clip1_31_9">
<rect width="250" height="250" fill="white" transform="translate(0 -28)"/>
</clipPath>
</defs>
</svg>
