<svg width="40" height="40" viewBox="0 0 40 40" fill="none" xmlns="http://www.w3.org/2000/svg" class="hc_Svg" data-elem-id="bllTscsavN" icon="&lt;svg width=&quot;40&quot; height=&quot;40&quot; viewBox=&quot;0 0 40 40&quot; fill=&quot;none&quot; xmlns=&quot;http://www.w3.org/2000/svg&quot;&gt;&lt;path d=&quot;M2.95448 27.0855C3.42196 26.2173 4.50475 25.8925 5.37294 26.36L20 34.2361L34.6271 26.36C35.4953 25.8925 36.578 26.2173 37.0455 27.0855C37.513 27.9537 37.1882 29.0365 36.32 29.504L21.0722 37.7143C20.4028 38.0748 19.5972 38.0748 18.9278 37.7143L3.68001 29.504C2.81182 29.0365 2.48699 27.9537 2.95448 27.0855Z&quot; fill=&quot;#427BFF&quot;/&gt;&lt;path d=&quot;M20.8963 2.22405C20.3361 1.92532 19.664 1.92532 19.1039 2.22405L3.62994 10.4768C2.97686 10.8251 2.95345 11.7527 3.58813 12.1335L19.0202 21.3928C19.6233 21.7547 20.3768 21.7547 20.9799 21.3928L36.412 12.1335C37.0467 11.7527 37.0233 10.8251 36.3702 10.4768L20.8963 2.22405Z&quot; fill=&quot;#427BFF&quot;/&gt;&lt;path d=&quot;M2.97993 18.7307C3.47269 17.8766 4.56453 17.5836 5.41864 18.0764L20 26.4887L34.5813 18.0764C35.4354 17.5836 36.5272 17.8766 37.02 18.7307C37.5127 19.5848 37.2198 20.6766 36.3657 21.1694L21.1301 29.9591C20.4307 30.3626 19.5692 30.3626 18.8698 29.9591L3.63422 21.1694C2.78012 20.6766 2.48718 19.5848 2.97993 18.7307Z&quot; fill=&quot;#45CAFF&quot;/&gt;&lt;/svg&gt;"><path d="M2.95448 27.0855C3.42196 26.2173 4.50475 25.8925 5.37294 26.36L20 34.2361L34.6271 26.36C35.4953 25.8925 36.578 26.2173 37.0455 27.0855C37.513 27.9537 37.1882 29.0365 36.32 29.504L21.0722 37.7143C20.4028 38.0748 19.5972 38.0748 18.9278 37.7143L3.68001 29.504C2.81182 29.0365 2.48699 27.9537 2.95448 27.0855Z" fill="#427BFF"/><path d="M20.8963 2.22405C20.3361 1.92532 19.664 1.92532 19.1039 2.22405L3.62994 10.4768C2.97686 10.8251 2.95345 11.7527 3.58813 12.1335L19.0202 21.3928C19.6233 21.7547 20.3768 21.7547 20.9799 21.3928L36.412 12.1335C37.0467 11.7527 37.0233 10.8251 36.3702 10.4768L20.8963 2.22405Z" fill="#427BFF"/><path d="M2.97993 18.7307C3.47269 17.8766 4.56453 17.5836 5.41864 18.0764L20 26.4887L34.5813 18.0764C35.4354 17.5836 36.5272 17.8766 37.02 18.7307C37.5127 19.5848 37.2198 20.6766 36.3657 21.1694L21.1301 29.9591C20.4307 30.3626 19.5692 30.3626 18.8698 29.9591L3.63422 21.1694C2.78012 20.6766 2.48718 19.5848 2.97993 18.7307Z" fill="#45CAFF"/></svg>