<svg xmlns="http://www.w3.org/2000/svg" fill="none" viewBox="0 0 33 26" height="26" width="33" class="hc_Svg" data-elem-id="B7vijSDOIh" icon="&lt;svg xmlns=&quot;http://www.w3.org/2000/svg&quot; fill=&quot;none&quot; viewBox=&quot;0 0 33 26&quot; height=&quot;26&quot; width=&quot;33&quot;&gt;&lt;path fill=&quot;url(#paint0_linear_111_50956)&quot; d=&quot;M18.009 0.549805C18.109 0.649805 18.209 0.749805 18.309 0.849805L23.209 6.7498L28.609 2.7498C29.009 2.4498 29.509 2.2498 30.109 2.2498C30.709 2.2498 31.209 2.3498 31.609 2.6498C32.009 2.9498 32.409 3.4498 32.609 3.9498C32.809 4.4498 32.809 4.9498 32.709 5.5498L27.809 24.9498C27.609 25.5498 27.109 25.9498 26.509 25.9498H6.30902C5.70902 25.9498 5.10902 25.5498 5.00902 24.9498L0.109017 5.4498C-0.090983 4.9498 0.00901699 4.4498 0.209017 3.9498C0.409017 3.4498 0.709017 3.0498 1.20902 2.7498C1.60902 2.4498 2.20902 2.3498 2.70902 2.3498C3.20902 2.3498 3.70902 2.5498 4.20902 2.8498L9.60902 6.8498L14.509 0.949805C14.709 0.649805 15.009 0.449805 15.309 0.349805C15.609 0.149805 15.909 0.0498047 16.309 0.0498047C16.609 0.0498047 17.009 0.0498047 17.309 0.149805C17.509 0.149805 17.809 0.349805 18.009 0.549805ZM21.009 18.6498H11.709C10.909 18.6498 10.309 19.2498 10.309 20.0498C10.309 20.8498 10.909 21.4498 11.709 21.4498H21.009C21.809 21.4498 22.409 20.8498 22.409 20.0498C22.409 19.2498 21.809 18.6498 21.009 18.6498Z&quot;&gt;&lt;/path&gt;&lt;defs&gt;&lt;linearGradient gradientUnits=&quot;userSpaceOnUse&quot; y2=&quot;30&quot; x2=&quot;30.7729&quot; y1=&quot;5.5&quot; x1=&quot;7.27295&quot; id=&quot;paint0_linear_111_50956&quot;&gt;&lt;stop stop-color=&quot;#FFC480&quot;&gt;&lt;/stop&gt;&lt;stop stop-color=&quot;#FFAC4D&quot; offset=&quot;1&quot;&gt;&lt;/stop&gt;&lt;/linearGradient&gt;&lt;/defs&gt;&lt;/svg&gt;"><path fill="url(#paint0_linear_111_50956)" d="M18.009 0.549805C18.109 0.649805 18.209 0.749805 18.309 0.849805L23.209 6.7498L28.609 2.7498C29.009 2.4498 29.509 2.2498 30.109 2.2498C30.709 2.2498 31.209 2.3498 31.609 2.6498C32.009 2.9498 32.409 3.4498 32.609 3.9498C32.809 4.4498 32.809 4.9498 32.709 5.5498L27.809 24.9498C27.609 25.5498 27.109 25.9498 26.509 25.9498H6.30902C5.70902 25.9498 5.10902 25.5498 5.00902 24.9498L0.109017 5.4498C-0.090983 4.9498 0.00901699 4.4498 0.209017 3.9498C0.409017 3.4498 0.709017 3.0498 1.20902 2.7498C1.60902 2.4498 2.20902 2.3498 2.70902 2.3498C3.20902 2.3498 3.70902 2.5498 4.20902 2.8498L9.60902 6.8498L14.509 0.949805C14.709 0.649805 15.009 0.449805 15.309 0.349805C15.609 0.149805 15.909 0.0498047 16.309 0.0498047C16.609 0.0498047 17.009 0.0498047 17.309 0.149805C17.509 0.149805 17.809 0.349805 18.009 0.549805ZM21.009 18.6498H11.709C10.909 18.6498 10.309 19.2498 10.309 20.0498C10.309 20.8498 10.909 21.4498 11.709 21.4498H21.009C21.809 21.4498 22.409 20.8498 22.409 20.0498C22.409 19.2498 21.809 18.6498 21.009 18.6498Z"/><defs><linearGradient gradientUnits="userSpaceOnUse" y2="30" x2="30.7729" y1="5.5" x1="7.27295" id="paint0_linear_111_50956"><stop stop-color="#FFC480"/><stop stop-color="#FFAC4D" offset="1"/></linearGradient></defs></svg>