<svg width="40" height="40" viewBox="0 0 40 40" fill="none" xmlns="http://www.w3.org/2000/svg">
<circle cx="20" cy="20" r="20" fill="#07C160"/>
<path fill-rule="evenodd" clip-rule="evenodd" d="M6.875 17.272C6.875 12.8711 11.1229 9.3031 16.3629 9.3031C21.0964 9.3031 24.8917 12.2146 25.6062 16.0217C25.5646 16.0197 25.5305 16.0178 25.5002 16.0162C25.4065 16.011 25.3493 16.0079 25.2185 16.0079C20.4394 16.0079 16.5654 19.2621 16.5654 23.2759C16.5654 23.9529 16.6776 24.6073 16.884 25.2291C16.7114 25.2367 16.5379 25.2415 16.3629 25.2415C15.2801 25.2415 14.2349 25.0855 13.2658 24.8046C13.1776 24.7775 13.0842 24.763 12.987 24.763C12.8046 24.763 12.6394 24.8188 12.4835 24.9094L10.4059 26.1181C10.3482 26.1519 10.2923 26.1773 10.2234 26.1773C10.0486 26.1773 9.90721 26.0349 9.90721 25.8588C9.90721 25.7992 9.92482 25.7399 9.94203 25.6819C9.94763 25.6631 9.95319 25.6444 9.95808 25.6258L10.3855 24.0185C10.404 23.9505 10.419 23.8861 10.419 23.8155C10.419 23.6008 10.3139 23.4114 10.1532 23.2958C8.15316 21.8351 6.875 19.6736 6.875 17.272ZM12.0785 14.722C12.0785 15.3462 12.5808 15.8526 13.2007 15.8526C13.8197 15.8526 14.322 15.3462 14.322 14.722C14.322 14.0976 13.8197 13.5915 13.2007 13.5915C12.5808 13.5915 12.0785 14.0976 12.0785 14.722ZM18.4039 14.722C18.4039 15.3462 18.9062 15.8523 19.5257 15.8523C20.1451 15.8523 20.6474 15.3462 20.6474 14.722C20.6474 14.0976 20.1451 13.5915 19.5257 13.5915C18.9062 13.5915 18.4039 14.0976 18.4039 14.722ZM33.125 23.2756C33.125 25.2766 32.0601 27.0777 30.3933 28.2953C30.2592 28.3916 30.1717 28.5499 30.1717 28.7282C30.1717 28.7869 30.1843 28.8411 30.1995 28.8974C30.3329 29.3978 30.5459 30.1993 30.5559 30.2369C30.56 30.253 30.5649 30.2692 30.5697 30.2856C30.5839 30.3333 30.5984 30.3821 30.5984 30.4313C30.5984 30.5778 30.4805 30.6969 30.3348 30.6969C30.2775 30.6969 30.2307 30.675 30.1822 30.6474L28.4517 29.64C28.3214 29.5642 28.1835 29.5176 28.0319 29.5176C27.9508 29.5176 27.8728 29.5302 27.7994 29.5528C26.9917 29.7867 26.1204 29.9167 25.2183 29.9167C20.8519 29.9167 17.3117 26.9434 17.3117 23.2756C17.3117 19.6077 20.8519 16.635 25.2183 16.635C29.5853 16.635 33.125 19.6077 33.125 23.2756ZM21.5957 21.1505C21.5957 21.6998 22.0379 22.1451 22.5829 22.1451C23.1282 22.1451 23.5701 21.6998 23.5701 21.1505C23.5701 20.6009 23.1282 20.1554 22.5829 20.1554C22.0379 20.1554 21.5957 20.6009 21.5957 21.1505ZM26.8672 21.1505C26.8672 21.6998 27.3087 22.1451 27.854 22.1451C28.3993 22.1451 28.8412 21.6998 28.8412 21.1505C28.8412 20.6009 28.3993 20.1554 27.854 20.1554C27.3087 20.1554 26.8672 20.6009 26.8672 21.1505Z" fill="white"/>
</svg>
