<svg width="320" height="260" viewBox="0 0 320 260" fill="none" xmlns="http://www.w3.org/2000/svg">
<rect x="16" y="16" width="90" height="228" fill="#FFE771"/>
<rect opacity="0.3" x="28" y="28" width="40" height="2" rx="1" fill="#6B5E24"/>
<rect x="114" y="16" width="91" height="228" fill="#F0F5FF"/>
<rect x="213" y="16" width="91" height="228" fill="#F2F0FF"/>
<g opacity="0.6" filter="url(#filter0_f_644_61768)">
<path d="M41.6562 104.438L80.4553 104.837L79.8993 146.631L41.9276 147.642L41.6562 104.438Z" fill="#1C1C1E"/>
</g>
<g opacity="0.2" filter="url(#filter1_f_644_61768)">
<path d="M41.5762 106.205L80.3753 106.604L79.8192 148.399L41.8475 149.409L41.5762 106.205Z" fill="black" fill-opacity="0.2"/>
</g>
<path d="M37 99.6538L84.5566 100.097L85 147.733L37.3326 147.622L37 99.6538Z" fill="#FFAB57"/>
<g opacity="0.6" filter="url(#filter2_f_644_61768)">
<path d="M140.656 104.438L179.455 104.837L178.899 146.631L140.928 147.642L140.656 104.438Z" fill="#1C1C1E"/>
</g>
<g opacity="0.2" filter="url(#filter3_f_644_61768)">
<path d="M140.576 106.205L179.375 106.604L178.819 148.399L140.847 149.409L140.576 106.205Z" fill="black" fill-opacity="0.2"/>
</g>
<path d="M136 99.6538L183.557 100.097L184 147.733L136.333 147.622L136 99.6538Z" fill="#85B8FF"/>
<rect opacity="0.3" x="148" y="125" width="24" height="2" rx="1" fill="#3D598F"/>
<rect opacity="0.3" x="144" y="119" width="32" height="2" rx="1" fill="#3D598F"/>
<g opacity="0.6" filter="url(#filter4_f_644_61768)">
<path d="M239.656 134.438L278.455 134.837L277.899 176.631L239.928 177.642L239.656 134.438Z" fill="#1C1C1E"/>
</g>
<g opacity="0.2" filter="url(#filter5_f_644_61768)">
<path d="M239.576 136.205L278.375 136.604L277.819 178.399L239.847 179.409L239.576 136.205Z" fill="black" fill-opacity="0.2"/>
</g>
<path d="M235 129.654L282.557 130.097L283 177.733L235.333 177.622L235 129.654Z" fill="#ABA3FF"/>
<g opacity="0.6" filter="url(#filter6_f_644_61768)">
<path d="M239.656 74.4375L278.455 74.8366L277.899 116.631L239.928 117.642L239.656 74.4375Z" fill="#1C1C1E"/>
</g>
<g opacity="0.2" filter="url(#filter7_f_644_61768)">
<path d="M239.576 76.2051L278.375 76.6042L277.819 118.399L239.847 119.409L239.576 76.2051Z" fill="black" fill-opacity="0.2"/>
</g>
<path d="M235 69.6538L282.557 70.0969L283 117.733L235.333 117.622L235 69.6538Z" fill="#ABA3FF"/>
<rect opacity="0.3" x="126" y="28" width="46" height="2" rx="1" fill="#6F9BDD"/>
<rect opacity="0.3" x="126" y="34" width="32" height="2" rx="1" fill="#6F9BDD"/>
<rect opacity="0.3" x="225" y="28" width="32" height="2" rx="1" fill="#746BD3"/>
<defs>
<filter id="filter0_f_644_61768" x="35.1389" y="97.9201" width="51.8336" height="56.2391" filterUnits="userSpaceOnUse" color-interpolation-filters="sRGB">
<feFlood flood-opacity="0" result="BackgroundImageFix"/>
<feBlend mode="normal" in="SourceGraphic" in2="BackgroundImageFix" result="shape"/>
<feGaussianBlur stdDeviation="3.2587" result="effect1_foregroundBlur_644_61768"/>
</filter>
<filter id="filter1_f_644_61768" x="39.9627" y="104.592" width="42.0258" height="46.4314" filterUnits="userSpaceOnUse" color-interpolation-filters="sRGB">
<feFlood flood-opacity="0" result="BackgroundImageFix"/>
<feBlend mode="normal" in="SourceGraphic" in2="BackgroundImageFix" result="shape"/>
<feGaussianBlur stdDeviation="0.806755" result="effect1_foregroundBlur_644_61768"/>
</filter>
<filter id="filter2_f_644_61768" x="134.139" y="97.9201" width="51.8336" height="56.2391" filterUnits="userSpaceOnUse" color-interpolation-filters="sRGB">
<feFlood flood-opacity="0" result="BackgroundImageFix"/>
<feBlend mode="normal" in="SourceGraphic" in2="BackgroundImageFix" result="shape"/>
<feGaussianBlur stdDeviation="3.2587" result="effect1_foregroundBlur_644_61768"/>
</filter>
<filter id="filter3_f_644_61768" x="138.963" y="104.592" width="42.0258" height="46.4314" filterUnits="userSpaceOnUse" color-interpolation-filters="sRGB">
<feFlood flood-opacity="0" result="BackgroundImageFix"/>
<feBlend mode="normal" in="SourceGraphic" in2="BackgroundImageFix" result="shape"/>
<feGaussianBlur stdDeviation="0.806755" result="effect1_foregroundBlur_644_61768"/>
</filter>
<filter id="filter4_f_644_61768" x="233.139" y="127.92" width="51.8336" height="56.2391" filterUnits="userSpaceOnUse" color-interpolation-filters="sRGB">
<feFlood flood-opacity="0" result="BackgroundImageFix"/>
<feBlend mode="normal" in="SourceGraphic" in2="BackgroundImageFix" result="shape"/>
<feGaussianBlur stdDeviation="3.2587" result="effect1_foregroundBlur_644_61768"/>
</filter>
<filter id="filter5_f_644_61768" x="237.963" y="134.592" width="42.0258" height="46.4314" filterUnits="userSpaceOnUse" color-interpolation-filters="sRGB">
<feFlood flood-opacity="0" result="BackgroundImageFix"/>
<feBlend mode="normal" in="SourceGraphic" in2="BackgroundImageFix" result="shape"/>
<feGaussianBlur stdDeviation="0.806755" result="effect1_foregroundBlur_644_61768"/>
</filter>
<filter id="filter6_f_644_61768" x="233.139" y="67.9201" width="51.8336" height="56.2391" filterUnits="userSpaceOnUse" color-interpolation-filters="sRGB">
<feFlood flood-opacity="0" result="BackgroundImageFix"/>
<feBlend mode="normal" in="SourceGraphic" in2="BackgroundImageFix" result="shape"/>
<feGaussianBlur stdDeviation="3.2587" result="effect1_foregroundBlur_644_61768"/>
</filter>
<filter id="filter7_f_644_61768" x="237.963" y="74.5916" width="42.0258" height="46.4314" filterUnits="userSpaceOnUse" color-interpolation-filters="sRGB">
<feFlood flood-opacity="0" result="BackgroundImageFix"/>
<feBlend mode="normal" in="SourceGraphic" in2="BackgroundImageFix" result="shape"/>
<feGaussianBlur stdDeviation="0.806755" result="effect1_foregroundBlur_644_61768"/>
</filter>
</defs>
</svg>
