<svg width="320" height="260" viewBox="0 0 320 260" fill="none" xmlns="http://www.w3.org/2000/svg">
<g clip-path="url(#clip0_644_61833)">
<rect x="32.5" y="40.5" width="255" height="63" rx="3.5" fill="white"/>
<rect x="32.5" y="40.5" width="255" height="63" rx="3.5" stroke="#1C1C1E"/>
<path d="M48 55.9998L112 55.9998" stroke="#D9D9D9" stroke-width="3" stroke-linecap="round"/>
<rect x="48" y="67.9998" width="40" height="8" fill="#FFDD33"/>
<rect x="92" y="68" width="32" height="8" fill="#F0F0F3"/>
<rect x="48" y="80" width="32" height="8" fill="#F0F0F3"/>
<rect x="80.5" y="128.5" width="179" height="51" rx="3.5" stroke="#8E8E8E" stroke-dasharray="4.32 4.32"/>
<circle cx="206" cy="22" r="5.5" stroke="#1C1C1E"/>
<rect x="206" y="27" width="1" height="250" fill="#1C1C1E"/>
<g clip-path="url(#clip1_644_61833)">
<rect x="100.656" y="178.003" width="180" height="52" rx="4" transform="rotate(-15 100.656 178.003)" fill="white"/>
<path d="M120.252 189.316L182.071 172.752" stroke="#D9D9D9" stroke-width="3" stroke-linecap="round"/>
<rect x="100.656" y="178.003" width="4" height="64" transform="rotate(-15 100.656 178.003)" fill="#CEFF7A"/>
<rect x="123.357" y="200.908" width="40" height="8" transform="rotate(-15 123.357 200.908)" fill="#CEFF7A"/>
<rect x="165.859" y="189.52" width="32" height="8" transform="rotate(-15 165.859 189.52)" fill="#F0F0F3"/>
</g>
<rect x="101.269" y="178.356" width="179" height="51" rx="3.5" transform="rotate(-15 101.269 178.356)" stroke="#1C1C1E"/>
<path d="M33 44C33 42.3431 34.3431 41 36 41V41V103V103C34.3431 103 33 101.657 33 100V44Z" fill="#FFDD33"/>
</g>
<defs>
<clipPath id="clip0_644_61833">
<rect width="320" height="260" fill="white"/>
</clipPath>
<clipPath id="clip1_644_61833">
<rect x="100.656" y="178.003" width="180" height="52" rx="4" transform="rotate(-15 100.656 178.003)" fill="white"/>
</clipPath>
</defs>
</svg>
