<svg width="320" height="260" viewBox="0 0 320 260" fill="none" xmlns="http://www.w3.org/2000/svg">
<rect x="34.25" y="178.251" width="35.5006" height="35.4992" rx="3" stroke="#FFAB57" stroke-width="2"/>
<line x1="40.25" y1="172" x2="40.25" y2="177.25" stroke="#FFAB57" stroke-width="2"/>
<line x1="46.252" y1="172" x2="46.252" y2="177.25" stroke="#FFAB57" stroke-width="2"/>
<line x1="52.252" y1="172" x2="52.252" y2="177.25" stroke="#FFAB57" stroke-width="2"/>
<line x1="58.252" y1="172" x2="58.252" y2="177.25" stroke="#FFAB57" stroke-width="2"/>
<line x1="64.998" y1="172" x2="64.998" y2="177.25" stroke="#FFAB57" stroke-width="2"/>
<line x1="76" y1="183.875" x2="70.7499" y2="183.875" stroke="#FFAB57" stroke-width="2"/>
<line x1="76" y1="189.875" x2="70.7499" y2="189.875" stroke="#FFAB57" stroke-width="2"/>
<line x1="76" y1="195.875" x2="70.7499" y2="195.875" stroke="#FFAB57" stroke-width="2"/>
<line x1="76" y1="201.874" x2="70.7499" y2="201.874" stroke="#FFAB57" stroke-width="2"/>
<line x1="76" y1="208.624" x2="70.7499" y2="208.624" stroke="#FFAB57" stroke-width="2"/>
<line x1="40.25" y1="214.75" x2="40.25" y2="220" stroke="#FFAB57" stroke-width="2"/>
<line x1="46.252" y1="214.75" x2="46.252" y2="220" stroke="#FFAB57" stroke-width="2"/>
<line x1="52.252" y1="214.75" x2="52.252" y2="220" stroke="#FFAB57" stroke-width="2"/>
<line x1="58.252" y1="214.75" x2="58.252" y2="220" stroke="#FFAB57" stroke-width="2"/>
<line x1="64.998" y1="214.75" x2="64.998" y2="220" stroke="#FFAB57" stroke-width="2"/>
<line x1="33.25" y1="183.875" x2="27.9999" y2="183.875" stroke="#FFAB57" stroke-width="2"/>
<line x1="33.25" y1="189.875" x2="27.9999" y2="189.875" stroke="#FFAB57" stroke-width="2"/>
<line x1="33.25" y1="195.875" x2="27.9999" y2="195.875" stroke="#FFAB57" stroke-width="2"/>
<line x1="33.25" y1="201.874" x2="27.9999" y2="201.874" stroke="#FFAB57" stroke-width="2"/>
<line x1="33.25" y1="208.624" x2="27.9999" y2="208.624" stroke="#FFAB57" stroke-width="2"/>
<rect x="142.25" y="22.2507" width="35.5006" height="35.4992" rx="3" stroke="#FFAB57" stroke-width="2"/>
<line x1="148.25" y1="16.0002" x2="148.25" y2="21.2501" stroke="#FFAB57" stroke-width="2"/>
<line x1="154.252" y1="16" x2="154.252" y2="21.2499" stroke="#FFAB57" stroke-width="2"/>
<line x1="160.252" y1="16" x2="160.252" y2="21.2499" stroke="#FFAB57" stroke-width="2"/>
<line x1="166.252" y1="16" x2="166.252" y2="21.2499" stroke="#FFAB57" stroke-width="2"/>
<line x1="172.998" y1="16" x2="172.998" y2="21.2499" stroke="#FFAB57" stroke-width="2"/>
<line x1="184" y1="27.875" x2="178.75" y2="27.875" stroke="#FFAB57" stroke-width="2"/>
<line x1="184" y1="33.875" x2="178.75" y2="33.875" stroke="#FFAB57" stroke-width="2"/>
<line x1="184" y1="39.875" x2="178.75" y2="39.875" stroke="#FFAB57" stroke-width="2"/>
<line x1="184" y1="45.874" x2="178.75" y2="45.874" stroke="#FFAB57" stroke-width="2"/>
<line x1="184" y1="52.624" x2="178.75" y2="52.624" stroke="#FFAB57" stroke-width="2"/>
<line x1="148.25" y1="58.7498" x2="148.25" y2="63.9996" stroke="#FFAB57" stroke-width="2"/>
<line x1="154.252" y1="58.75" x2="154.252" y2="63.9999" stroke="#FFAB57" stroke-width="2"/>
<line x1="160.252" y1="58.75" x2="160.252" y2="63.9999" stroke="#FFAB57" stroke-width="2"/>
<line x1="166.252" y1="58.75" x2="166.252" y2="63.9999" stroke="#FFAB57" stroke-width="2"/>
<line x1="172.998" y1="58.75" x2="172.998" y2="63.9999" stroke="#FFAB57" stroke-width="2"/>
<line x1="141.25" y1="27.875" x2="136" y2="27.875" stroke="#FFAB57" stroke-width="2"/>
<line x1="141.25" y1="33.875" x2="136" y2="33.875" stroke="#FFAB57" stroke-width="2"/>
<line x1="141.25" y1="39.875" x2="136" y2="39.875" stroke="#FFAB57" stroke-width="2"/>
<line x1="141.25" y1="45.874" x2="136" y2="45.874" stroke="#FFAB57" stroke-width="2"/>
<line x1="141.25" y1="52.624" x2="136" y2="52.624" stroke="#FFAB57" stroke-width="2"/>
<path d="M240 196L235 193.113L235 198.887L240 196ZM80 196.5L235.5 196.5L235.5 195.5L80 195.5L80 196.5Z" fill="black"/>
<rect x="250.25" y="178.251" width="35.5006" height="35.4992" rx="3" stroke="#FFAB57" stroke-width="2"/>
<line x1="256.25" y1="172" x2="256.25" y2="177.25" stroke="#FFAB57" stroke-width="2"/>
<line x1="262.252" y1="172" x2="262.252" y2="177.25" stroke="#FFAB57" stroke-width="2"/>
<line x1="268.252" y1="172" x2="268.252" y2="177.25" stroke="#FFAB57" stroke-width="2"/>
<line x1="274.252" y1="172" x2="274.252" y2="177.25" stroke="#FFAB57" stroke-width="2"/>
<line x1="280.998" y1="172" x2="280.998" y2="177.25" stroke="#FFAB57" stroke-width="2"/>
<line x1="292" y1="183.875" x2="286.75" y2="183.875" stroke="#FFAB57" stroke-width="2"/>
<line x1="292" y1="189.875" x2="286.75" y2="189.875" stroke="#FFAB57" stroke-width="2"/>
<line x1="292" y1="195.875" x2="286.75" y2="195.875" stroke="#FFAB57" stroke-width="2"/>
<line x1="292" y1="201.874" x2="286.75" y2="201.874" stroke="#FFAB57" stroke-width="2"/>
<line x1="292" y1="208.624" x2="286.75" y2="208.624" stroke="#FFAB57" stroke-width="2"/>
<line x1="256.25" y1="214.75" x2="256.25" y2="220" stroke="#FFAB57" stroke-width="2"/>
<line x1="262.252" y1="214.75" x2="262.252" y2="220" stroke="#FFAB57" stroke-width="2"/>
<line x1="268.252" y1="214.75" x2="268.252" y2="220" stroke="#FFAB57" stroke-width="2"/>
<line x1="274.252" y1="214.75" x2="274.252" y2="220" stroke="#FFAB57" stroke-width="2"/>
<line x1="280.998" y1="214.75" x2="280.998" y2="220" stroke="#FFAB57" stroke-width="2"/>
<line x1="249.25" y1="183.875" x2="244" y2="183.875" stroke="#FFAB57" stroke-width="2"/>
<line x1="249.25" y1="189.875" x2="244" y2="189.875" stroke="#FFAB57" stroke-width="2"/>
<line x1="249.25" y1="195.875" x2="244" y2="195.875" stroke="#FFAB57" stroke-width="2"/>
<line x1="249.25" y1="201.874" x2="244" y2="201.874" stroke="#FFAB57" stroke-width="2"/>
<line x1="249.25" y1="208.624" x2="244" y2="208.624" stroke="#FFAB57" stroke-width="2"/>
<path d="M52 168L54.8868 163L49.1133 163L52 168ZM56 36L56 36.5L56 36ZM52.5 163.5L52.5 40L51.5 40L51.5 163.5L52.5 163.5ZM56 36.5L132 36.5L132 35.5L56 35.5L56 36.5ZM52.5 40C52.5 38.067 54.067 36.5 56 36.5L56 35.5C53.5147 35.5 51.5 37.5147 51.5 40L52.5 40Z" fill="black"/>
<path d="M188 36L193 33.1133L193 38.8868L188 36ZM264 36L264 36.5L264 36ZM267.5 168L267.5 40L268.5 40L268.5 168L267.5 168ZM264 36.5L192.5 36.5L192.5 35.5L264 35.5L264 36.5ZM267.5 40C267.5 38.067 265.933 36.5 264 36.5L264 35.5C266.485 35.5 268.5 37.5147 268.5 40L267.5 40Z" fill="black"/>
<rect x="148" y="70" width="24" height="2" rx="1" fill="#D9D9D9"/>
<rect x="36" y="226" width="32" height="2" rx="1" fill="#D9D9D9"/>
<rect x="256" y="226" width="24" height="2" rx="1" fill="#D9D9D9"/>
<rect x="136" y="76" width="48" height="2" rx="1" fill="#D9D9D9"/>
<rect x="24" y="232" width="55" height="2" rx="1" fill="#D9D9D9"/>
<rect x="240" y="232" width="56" height="2" rx="1" fill="#D9D9D9"/>
</svg>
