<svg width="277" height="280" viewBox="0 0 277 280" fill="none" xmlns="http://www.w3.org/2000/svg">
<path d="M133.958 2.38141C173.643 1.54487 215.704 7.49647 239.417 37.8671C251.131 52.8702 255.289 70.6994 255.44 89.6924C255.592 108.722 251.722 128.741 247.534 147.995C243.27 167.598 238.417 187.664 230.305 205.21C222.209 222.723 210.935 237.575 193.909 246.905C157.885 266.644 113.294 260.909 76.105 242.166C39.9706 223.953 13.286 191.011 4.94288 151.511C-3.23306 112.802 7.95166 72.3541 33.8577 42.3638C58.3993 13.9528 95.8433 3.18487 133.958 2.38141Z" stroke="#EAECF0" stroke-width="4.61539"/>
<path d="M133.958 2.38141C173.643 1.54487 215.704 7.49647 239.417 37.8671C251.131 52.8702 255.289 70.6994 255.44 89.6924C255.592 108.722 251.722 128.741 247.534 147.995C243.27 167.598 238.417 187.664 230.305 205.21C222.209 222.723 210.935 237.575 193.909 246.905C157.885 266.644 113.294 260.909 76.105 242.166C39.9706 223.953 13.286 191.011 4.94288 151.511C-3.23306 112.802 7.95166 72.3541 33.8577 42.3638C58.3993 13.9528 95.8433 3.18487 133.958 2.38141Z" stroke="#EAECF0" stroke-width="4.61539"/>
<path d="M143.189 11.6122C182.874 10.7756 224.935 16.7272 248.648 47.0979C260.362 62.101 264.52 79.9301 264.671 98.9231C264.823 117.953 260.953 137.972 256.765 157.226C252.501 176.829 247.648 196.895 239.536 214.441C231.44 231.954 220.166 246.806 203.139 256.135C167.116 275.875 122.525 270.14 85.336 251.396C49.2015 233.184 22.5169 200.242 14.1738 160.742C5.99789 122.033 17.1826 81.5849 43.0886 51.5945C67.6303 23.1836 105.074 12.4156 143.189 11.6122Z" stroke="#EAECF0" stroke-width="4.61539"/>
<path d="M152.42 20.843C192.105 20.0064 234.165 25.958 257.878 56.3287C269.593 71.3317 273.75 89.1609 273.901 108.154C274.053 127.184 270.184 147.203 265.995 166.457C261.732 186.059 256.878 206.126 248.767 223.672C240.671 241.185 229.397 256.036 212.37 265.366C176.346 285.106 131.755 279.371 94.5665 260.627C58.432 242.414 31.7474 209.473 23.4043 169.973C15.2284 131.264 26.4131 90.8157 52.3191 60.8253C76.8608 32.4144 114.305 21.6464 152.42 20.843Z" stroke="#EAECF0" stroke-width="4.61539"/>
</svg>
