<svg width="253" height="280" viewBox="0 0 253 280" fill="none" xmlns="http://www.w3.org/2000/svg">
<path d="M135.167 277.633C98.8541 276.378 69.1373 251.033 47.0941 221.107C26.4626 193.097 16.9533 159.223 23.0307 125.132C29.5896 88.3395 47.5779 53.61 79.9348 36.0383C114.409 17.3168 157.07 15.064 191.505 33.4472C224.29 50.9495 239.039 87.9319 246.697 125.295C254.054 161.192 252.531 198.58 231.222 227.605C208.662 258.335 172.982 278.941 135.167 277.633Z" stroke="#EAECF0" stroke-width="4.61539"/>
<path d="M125.936 268.403C89.6236 267.147 59.9068 241.802 37.8637 211.876C17.2321 183.867 7.72287 149.992 13.8002 115.901C20.3592 79.1087 38.3474 44.3793 70.7043 26.8075C105.178 8.08603 147.84 5.83326 182.275 24.2164C215.06 41.7188 229.809 78.7012 237.466 116.064C244.824 151.961 243.3 189.349 221.992 218.374C199.432 249.104 163.752 269.71 125.936 268.403Z" stroke="#EAECF0" stroke-width="4.61539"/>
<path d="M116.705 259.172C80.3922 257.916 50.6754 232.571 28.6322 202.645C8.00067 174.636 -1.50858 140.762 4.56876 106.671C11.1277 69.878 29.116 35.1485 61.4729 17.5768C95.947 -1.14474 138.608 -3.39751 173.043 14.9857C205.828 32.488 220.577 69.4704 228.235 106.833C235.592 142.73 234.069 180.118 212.76 209.144C190.2 239.874 154.52 260.479 116.705 259.172Z" stroke="#EAECF0" stroke-width="4.61539"/>
</svg>
