<?xml version="1.0" encoding="UTF-8"?>
<!DOCTYPE svg PUBLIC "-//W3C//DTD SVG 1.1//EN" "http://www.w3.org/Graphics/SVG/1.1/DTD/svg11.dtd">
<!-- Creator: CorelDRAW 2020 (64-Bit) -->
<svg xmlns="http://www.w3.org/2000/svg" xml:space="preserve" width="86.6987mm" height="86.6987mm" version="1.1" style="shape-rendering:geometricPrecision; text-rendering:geometricPrecision; image-rendering:optimizeQuality; fill-rule:evenodd; clip-rule:evenodd"
viewBox="0 0 2391.69 2391.69"
 xmlns:xlink="http://www.w3.org/1999/xlink"
 xmlns:xodm="http://www.corel.com/coreldraw/odm/2003">
 <defs>
  <style type="text/css">
   <![CDATA[
    .fil0 {fill:none}
    .fil1 {fill:#2696C6}
    .fil2 {fill:#46ADC8;fill-rule:nonzero}
   ]]>
  </style>
 </defs>
 <g id="图层_x0020_1">
  <metadata id="CorelCorpID_0Corel-Layer"/>
  <rect class="fil0" x="-0" y="0" width="2391.69" height="2391.69"/>
  <path class="fil1" d="M1002.12 585.06c0,0 353.14,-99.24 555.11,105.9 0,0 35.22,55.01 45.81,194.87 0,0 18.73,62.94 79,55.01 60.27,-7.93 81.85,-56.41 79,-109.56 -2.85,-53.15 38.69,-63.41 95.7,-30.78 57.01,32.63 229.26,161.31 252.87,393.5 23.62,232.19 -190.57,394.43 -294.82,409.35 0,0 -148.55,36.85 -129,-55.93 19.54,-92.78 -12.79,-303.99 -131.32,-440.6 -118.54,-136.6 -233.96,-224.97 -257.27,-237.79 -23.31,-12.82 -80.18,-18.19 -102.17,58.27 0,0 -17.1,95.11 91.21,111.9 108.32,16.79 272.01,138.93 307.85,339.41 35.83,200.48 -165.29,494.5 -469.07,471.2 -139.51,-10.7 -252.86,-80.78 -328.24,-163.66 -74.82,-82.26 -18.74,-207.76 -18.74,-207.76 0,0 -7.74,-41.03 -59.86,-40.56 -52.12,0.47 -101,31.24 -100.59,117.96 0.41,86.72 -184.87,-33.56 -184.87,-33.56 -231.38,-139.37 -198.59,-588.17 93.09,-713.12 0,0 259.91,-89.04 194.76,76.01 -65.15,165.05 118.09,393.5 190.57,471.83 72.48,78.33 163.27,187.92 230.29,157.02 67.01,-30.9 36.06,-125.09 36.06,-125.09 0,0 -13.84,-38.23 -72.89,-36.37 0,0 -139.26,-17.74 -255.72,-225.67 0,0 -114.02,-152.92 -28.5,-377.65 0,0 47.35,-94.7 181.74,-164.12z"/>
  <path class="fil2" d="M773.76 1595.94c34.51,57.23 104.01,104.89 160.97,134.51 57.18,29.72 155.77,61.77 211.36,61.77 61.53,0 92.3,-21.33 92.3,-64.31 0,-27.21 -10.8,-57.81 -32.12,-92.13 -21.59,-34.01 -72.87,-101.41 -154.63,-202.19 -102.55,-127.37 -171.1,-221.98 -205.37,-283.5 -45.07,-81.62 -67.74,-159.22 -67.74,-233.11 0,-110.99 43.18,-201.88 129.54,-272.68 84.74,-69.56 188.91,-104.19 313.32,-104.19 86.63,0 166.51,20.09 239.1,60.29 27.25,15.77 50.73,33.7 70.43,54.1 19.7,20.4 28.49,39.6 34.27,52.26 10.08,22.09 24.49,72.26 24.15,79.32 -0.38,7.96 -13.99,-21.3 -20.03,-29.5 -33.24,-45.21 -118.91,-98.46 -184.92,-127.12 -46.39,-20.14 -90.67,-29.99 -133.05,-29.99 -26.44,0 -47.77,6.49 -64.22,19.48 -16.46,12.98 -24.83,29.68 -24.83,50.39 0,24.73 10.25,54.72 30.49,90.58 20.51,35.55 55.06,82.85 103.9,142.21 154.63,188.9 249.36,316.27 284.17,382.12 36.16,69.56 54.24,136.65 54.24,201.26 0,55.03 -12.95,106.97 -38.59,155.82 -25.91,48.85 -61.53,89.04 -107.41,120.57 -87.17,59.67 -193.76,89.66 -319.52,89.66 -115.51,0 -217.55,-34.29 -305.22,-102.95 -61.55,-48.2 -90.18,-83.14 -99.67,-120.31 -1.91,-7.48 -5.45,-22.71 -6.46,-32.55 -4.1,-39.67 15.51,0.11 15.54,0.16z"/>
 </g>
</svg>
