<svg width="256" height="256" viewBox="0 0 256 256" fill="none" xmlns="http://www.w3.org/2000/svg">
<rect width="256" height="256" rx="40" fill="#E16259"/>
<path d="M155.92 46.574V66.866H116.226V75.944H155.92V100.508H108.572V109.764H211.1V100.508H165.532V75.944H205.226V66.866H165.532V46.574H155.92ZM106.436 134.328V143.406H177.636V191.822C177.636 197.518 174.61 200.544 168.914 200.544C162.862 200.544 156.632 200.188 150.046 199.832L152.182 209.088H172.118C182.086 209.088 187.248 204.104 187.248 194.136V143.406H212.88V134.328H187.248V118.842H177.636V134.328H106.436ZM131.534 151.594L123.88 156.4C133.136 166.902 140.256 176.514 145.596 185.414L153.25 179.896C148.088 171.708 140.79 162.274 131.534 151.594ZM69.412 48.888L62.47 55.474C75.464 65.442 85.788 75.054 93.442 83.954L100.028 77.19C91.84 67.756 81.516 58.322 69.412 48.888ZM49.832 102.466V111.9H77.066V187.55C77.066 189.686 75.998 191.644 74.04 193.78L77.956 202.324C89.704 194.492 100.74 185.414 111.242 175.446L108.572 165.122C100.74 172.776 93.442 179.362 86.5 184.88V102.466H49.832Z" fill="white"/>
</svg>
