<svg  viewBox="0 0 184 90" fill="none" xmlns="http://www.w3.org/2000/svg">
<path d="M57.44 0.567997V11.512H36.032V16.408H57.44V29.656H31.904V34.648H87.2V29.656H62.624V16.408H84.032V11.512H62.624V0.567997H57.44ZM30.752 47.896V52.792H69.152V78.904C69.152 81.976 67.52 83.608 64.448 83.608C61.184 83.608 57.824 83.416 54.272 83.224L55.424 88.216H66.176C71.552 88.216 74.336 85.528 74.336 80.152V52.792H88.16V47.896H74.336V39.544H69.152V47.896H30.752ZM44.288 57.208L40.16 59.8C45.152 65.464 48.992 70.648 51.872 75.448L56 72.472C53.216 68.056 49.28 62.968 44.288 57.208ZM10.784 1.816L7.04 5.368C14.048 10.744 19.616 15.928 23.744 20.728L27.296 17.08C22.88 11.992 17.312 6.904 10.784 1.816ZM0.224 30.712V35.8H14.912V76.6C14.912 77.752 14.336 78.808 13.28 79.96L15.392 84.568C21.728 80.344 27.68 75.448 33.344 70.072L31.904 64.504C27.68 68.632 23.744 72.184 20 75.16V30.712H0.224ZM106.592 6.808V11.896H174.368V6.808H106.592ZM97.28 33.88V39.064H130.784C120.224 60.568 111.68 73.72 105.344 78.52C104.96 78.712 104.576 78.904 104 79.096L105.344 84.184C128.768 82.84 150.272 80.92 169.952 78.616C171.872 82.168 173.6 85.624 175.136 89.08L179.648 85.816C174.848 75.832 167.936 64.024 159.008 50.584L154.784 53.176C159.488 60.28 163.712 67.192 167.36 73.816C148.928 76.024 130.496 77.656 112.064 78.712C118.784 71.8 126.944 58.552 136.448 39.064H183.008V33.88H97.28Z" fill="#E16259"/>
</svg>
